{
    "asset" : {
        "generator" : "Khronos glTF Blender I/O v1.6.16",
        "version" : "2.0"
    },
    "extensionsUsed" : [
        "KHR_materials_unlit"
    ],
    "scene" : 0,
    "scenes" : [
        {
            "name" : "Scene",
            "nodes" : [
                2
            ]
        }
    ],
    "nodes" : [
        {
            "mesh" : 0,
            "name" : "ClipBoard",
            "rotation" : [
                0.9848077893257141,
                0,
                0,
                0.17364808917045593
            ],
            "scale" : [
                0.025546777993440628,
                0.025546779856085777,
                0.025546779856085777
            ],
            "translation" : [
                -0.0003784425789490342,
                0.09934285283088684,
                0.009766578674316406
            ]
        },
        {
            "mesh" : 1,
            "name" : "Page",
            "rotation" : [
                0.5670517086982727,
                0,
                0,
                0.8236822485923767
            ],
            "scale" : [
                0.0949452742934227,
                0.09244747459888458,
                0.09244747459888458
            ],
            "translation" : [
                -0.0003326102450955659,
                0.10511651635169983,
                0.017170190811157227
            ]
        },
        {
            "children" : [
                0,
                1
            ],
            "name" : "Empty",
            "scale" : [
                4.583152770996094,
                4.583152770996094,
                4.583152770996094
            ],
            "translation" : [
                -0.00025013089179992676,
                1.9269225597381592,
                -11.144279479980469
            ]
        }
    ],
    "animations" : [
        {
            "channels" : [
                {
                    "sampler" : 0,
                    "target" : {
                        "node" : 0,
                        "path" : "translation"
                    }
                },
                {
                    "sampler" : 1,
                    "target" : {
                        "node" : 0,
                        "path" : "rotation"
                    }
                },
                {
                    "sampler" : 2,
                    "target" : {
                        "node" : 0,
                        "path" : "scale"
                    }
                },
                {
                    "sampler" : 3,
                    "target" : {
                        "node" : 1,
                        "path" : "translation"
                    }
                },
                {
                    "sampler" : 4,
                    "target" : {
                        "node" : 1,
                        "path" : "rotation"
                    }
                },
                {
                    "sampler" : 5,
                    "target" : {
                        "node" : 1,
                        "path" : "scale"
                    }
                }
            ],
            "name" : "Start",
            "samplers" : [
                {
                    "input" : 20,
                    "interpolation" : "LINEAR",
                    "output" : 21
                },
                {
                    "input" : 20,
                    "interpolation" : "LINEAR",
                    "output" : 22
                },
                {
                    "input" : 20,
                    "interpolation" : "LINEAR",
                    "output" : 23
                },
                {
                    "input" : 20,
                    "interpolation" : "LINEAR",
                    "output" : 24
                },
                {
                    "input" : 20,
                    "interpolation" : "LINEAR",
                    "output" : 25
                },
                {
                    "input" : 20,
                    "interpolation" : "LINEAR",
                    "output" : 26
                }
            ]
        },
        {
            "channels" : [
                {
                    "sampler" : 0,
                    "target" : {
                        "node" : 0,
                        "path" : "translation"
                    }
                },
                {
                    "sampler" : 1,
                    "target" : {
                        "node" : 0,
                        "path" : "rotation"
                    }
                },
                {
                    "sampler" : 2,
                    "target" : {
                        "node" : 0,
                        "path" : "scale"
                    }
                },
                {
                    "sampler" : 3,
                    "target" : {
                        "node" : 1,
                        "path" : "translation"
                    }
                },
                {
                    "sampler" : 4,
                    "target" : {
                        "node" : 1,
                        "path" : "rotation"
                    }
                },
                {
                    "sampler" : 5,
                    "target" : {
                        "node" : 1,
                        "path" : "scale"
                    }
                }
            ],
            "name" : "Idle",
            "samplers" : [
                {
                    "input" : 20,
                    "interpolation" : "LINEAR",
                    "output" : 27
                },
                {
                    "input" : 20,
                    "interpolation" : "LINEAR",
                    "output" : 28
                },
                {
                    "input" : 20,
                    "interpolation" : "LINEAR",
                    "output" : 29
                },
                {
                    "input" : 20,
                    "interpolation" : "LINEAR",
                    "output" : 30
                },
                {
                    "input" : 20,
                    "interpolation" : "LINEAR",
                    "output" : 31
                },
                {
                    "input" : 20,
                    "interpolation" : "LINEAR",
                    "output" : 32
                }
            ]
        }
    ],
    "materials" : [
        {
            "doubleSided" : true,
            "name" : "blinn3SG",
            "pbrMetallicRoughness" : {
                "baseColorTexture" : {
                    "index" : 0
                },
                "metallicFactor" : 0
            }
        },
        {
            "doubleSided" : true,
            "name" : "blinn4SG",
            "pbrMetallicRoughness" : {
                "baseColorFactor" : [
                    0.04665162414312363,
                    0.3289429545402527,
                    0.24558651447296143,
                    1
                ],
                "metallicFactor" : 0
            }
        },
        {
            "doubleSided" : true,
            "name" : "Brown Clipboard",
            "pbrMetallicRoughness" : {
                "baseColorFactor" : [
                    0.20789183676242828,
                    0.07376811653375626,
                    0.03326455131173134,
                    1
                ],
                "metallicFactor" : 0,
                "roughnessFactor" : 0.5
            }
        },
        {
            "doubleSided" : true,
            "name" : "Material.001",
            "pbrMetallicRoughness" : {
                "baseColorFactor" : [
                    0.5963089466094971,
                    0.5963089466094971,
                    0.5963089466094971,
                    1
                ],
                "metallicFactor" : 0.3523809611797333,
                "roughnessFactor" : 0.13809522986412048
            }
        },
        {
            "doubleSided" : true,
            "extensions" : {
                "KHR_materials_unlit" : {}
            },
            "name" : "Page1.001",
            "pbrMetallicRoughness" : {
                "baseColorTexture" : {
                    "index" : 1
                },
                "metallicFactor" : 0,
                "roughnessFactor" : 0.9
            }
        }
    ],
    "meshes" : [
        {
            "name" : "Model-Text5-Clipboard",
            "primitives" : [
                {
                    "attributes" : {
                        "POSITION" : 0,
                        "NORMAL" : 1,
                        "TEXCOORD_0" : 2
                    },
                    "indices" : 3,
                    "material" : 0
                },
                {
                    "attributes" : {
                        "POSITION" : 4,
                        "NORMAL" : 5,
                        "TEXCOORD_0" : 6
                    },
                    "indices" : 7,
                    "material" : 1
                },
                {
                    "attributes" : {
                        "POSITION" : 8,
                        "NORMAL" : 9,
                        "TEXCOORD_0" : 10
                    },
                    "indices" : 11,
                    "material" : 2
                },
                {
                    "attributes" : {
                        "POSITION" : 12,
                        "NORMAL" : 13,
                        "TEXCOORD_0" : 14
                    },
                    "indices" : 15,
                    "material" : 3
                }
            ]
        },
        {
            "name" : "Plane",
            "primitives" : [
                {
                    "attributes" : {
                        "POSITION" : 16,
                        "NORMAL" : 17,
                        "TEXCOORD_0" : 18
                    },
                    "indices" : 19,
                    "material" : 4
                }
            ]
        }
    ],
    "textures" : [
        {
            "sampler" : 0,
            "source" : 0
        },
        {
            "sampler" : 0,
            "source" : 0
        }
    ],
    "images" : [
        {
            "bufferView" : 4,
            "mimeType" : "image/png",
            "name" : "ClipboardTexture"
        }
    ],
    "accessors" : [
        {
            "bufferView" : 0,
            "componentType" : 5126,
            "count" : 12,
            "max" : [
                3.699218988418579,
                10.347960472106934,
                0.011568546295166016
            ],
            "min" : [
                -3.742417812347412,
                0.030364036560058594,
                -0.1826574206352234
            ],
            "type" : "VEC3"
        },
        {
            "bufferView" : 1,
            "componentType" : 5126,
            "count" : 12,
            "type" : "VEC3"
        },
        {
            "bufferView" : 2,
            "componentType" : 5126,
            "count" : 12,
            "type" : "VEC2"
        },
        {
            "bufferView" : 3,
            "componentType" : 5123,
            "count" : 30,
            "type" : "SCALAR"
        },
        {
            "bufferView" : 5,
            "componentType" : 5126,
            "count" : 190,
            "max" : [
                4.437002658843994,
                11.262127876281738,
                0.4310035705566406
            ],
            "min" : [
                -4.433411121368408,
                -1.3589038848876953,
                -0.20866739749908447
            ],
            "type" : "VEC3"
        },
        {
            "bufferView" : 6,
            "componentType" : 5126,
            "count" : 190,
            "type" : "VEC3"
        },
        {
            "bufferView" : 7,
            "componentType" : 5126,
            "count" : 190,
            "type" : "VEC2"
        },
        {
            "bufferView" : 8,
            "componentType" : 5123,
            "count" : 564,
            "type" : "SCALAR"
        },
        {
            "bufferView" : 9,
            "componentType" : 5126,
            "count" : 346,
            "max" : [
                1.1782361268997192,
                0.03421783447265625,
                0.4243125915527344
            ],
            "min" : [
                -1.1747889518737793,
                -1.9559974670410156,
                -0.38740837574005127
            ],
            "type" : "VEC3"
        },
        {
            "bufferView" : 10,
            "componentType" : 5126,
            "count" : 346,
            "type" : "VEC3"
        },
        {
            "bufferView" : 11,
            "componentType" : 5126,
            "count" : 346,
            "type" : "VEC2"
        },
        {
            "bufferView" : 12,
            "componentType" : 5123,
            "count" : 942,
            "type" : "SCALAR"
        },
        {
            "bufferView" : 13,
            "componentType" : 5126,
            "count" : 48,
            "max" : [
                1.1782361268997192,
                -0.4333047866821289,
                0.3291206359863281
            ],
            "min" : [
                -1.1747889518737793,
                -1.8209953308105469,
                -0.3762754201889038
            ],
            "type" : "VEC3"
        },
        {
            "bufferView" : 14,
            "componentType" : 5126,
            "count" : 48,
            "type" : "VEC3"
        },
        {
            "bufferView" : 15,
            "componentType" : 5126,
            "count" : 48,
            "type" : "VEC2"
        },
        {
            "bufferView" : 16,
            "componentType" : 5123,
            "count" : 108,
            "type" : "SCALAR"
        },
        {
            "bufferView" : 17,
            "componentType" : 5126,
            "count" : 4,
            "max" : [
                1,
                0,
                2.7374191284179688
            ],
            "min" : [
                -1,
                0,
                -0.043842315673828125
            ],
            "type" : "VEC3"
        },
        {
            "bufferView" : 18,
            "componentType" : 5126,
            "count" : 4,
            "type" : "VEC3"
        },
        {
            "bufferView" : 19,
            "componentType" : 5126,
            "count" : 4,
            "type" : "VEC2"
        },
        {
            "bufferView" : 20,
            "componentType" : 5123,
            "count" : 6,
            "type" : "SCALAR"
        },
        {
            "bufferView" : 21,
            "componentType" : 5126,
            "count" : 100,
            "max" : [
                4.166666666666667
            ],
            "min" : [
                0.041666666666666664
            ],
            "type" : "SCALAR"
        },
        {
            "bufferView" : 22,
            "componentType" : 5126,
            "count" : 100,
            "type" : "VEC3"
        },
        {
            "bufferView" : 23,
            "componentType" : 5126,
            "count" : 100,
            "type" : "VEC4"
        },
        {
            "bufferView" : 24,
            "componentType" : 5126,
            "count" : 100,
            "type" : "VEC3"
        },
        {
            "bufferView" : 25,
            "componentType" : 5126,
            "count" : 100,
            "type" : "VEC3"
        },
        {
            "bufferView" : 26,
            "componentType" : 5126,
            "count" : 100,
            "type" : "VEC4"
        },
        {
            "bufferView" : 27,
            "componentType" : 5126,
            "count" : 100,
            "type" : "VEC3"
        },
        {
            "bufferView" : 28,
            "componentType" : 5126,
            "count" : 100,
            "type" : "VEC3"
        },
        {
            "bufferView" : 29,
            "componentType" : 5126,
            "count" : 100,
            "type" : "VEC4"
        },
        {
            "bufferView" : 30,
            "componentType" : 5126,
            "count" : 100,
            "type" : "VEC3"
        },
        {
            "bufferView" : 31,
            "componentType" : 5126,
            "count" : 100,
            "type" : "VEC3"
        },
        {
            "bufferView" : 32,
            "componentType" : 5126,
            "count" : 100,
            "type" : "VEC4"
        },
        {
            "bufferView" : 33,
            "componentType" : 5126,
            "count" : 100,
            "type" : "VEC3"
        }
    ],
    "bufferViews" : [
        {
            "buffer" : 0,
            "byteLength" : 144,
            "byteOffset" : 0
        },
        {
            "buffer" : 0,
            "byteLength" : 144,
            "byteOffset" : 144
        },
        {
            "buffer" : 0,
            "byteLength" : 96,
            "byteOffset" : 288
        },
        {
            "buffer" : 0,
            "byteLength" : 60,
            "byteOffset" : 384
        },
        {
            "buffer" : 0,
            "byteLength" : 88742,
            "byteOffset" : 444
        },
        {
            "buffer" : 0,
            "byteLength" : 2280,
            "byteOffset" : 89188
        },
        {
            "buffer" : 0,
            "byteLength" : 2280,
            "byteOffset" : 91468
        },
        {
            "buffer" : 0,
            "byteLength" : 1520,
            "byteOffset" : 93748
        },
        {
            "buffer" : 0,
            "byteLength" : 1128,
            "byteOffset" : 95268
        },
        {
            "buffer" : 0,
            "byteLength" : 4152,
            "byteOffset" : 96396
        },
        {
            "buffer" : 0,
            "byteLength" : 4152,
            "byteOffset" : 100548
        },
        {
            "buffer" : 0,
            "byteLength" : 2768,
            "byteOffset" : 104700
        },
        {
            "buffer" : 0,
            "byteLength" : 1884,
            "byteOffset" : 107468
        },
        {
            "buffer" : 0,
            "byteLength" : 576,
            "byteOffset" : 109352
        },
        {
            "buffer" : 0,
            "byteLength" : 576,
            "byteOffset" : 109928
        },
        {
            "buffer" : 0,
            "byteLength" : 384,
            "byteOffset" : 110504
        },
        {
            "buffer" : 0,
            "byteLength" : 216,
            "byteOffset" : 110888
        },
        {
            "buffer" : 0,
            "byteLength" : 48,
            "byteOffset" : 111104
        },
        {
            "buffer" : 0,
            "byteLength" : 48,
            "byteOffset" : 111152
        },
        {
            "buffer" : 0,
            "byteLength" : 32,
            "byteOffset" : 111200
        },
        {
            "buffer" : 0,
            "byteLength" : 12,
            "byteOffset" : 111232
        },
        {
            "buffer" : 0,
            "byteLength" : 400,
            "byteOffset" : 111244
        },
        {
            "buffer" : 0,
            "byteLength" : 1200,
            "byteOffset" : 111644
        },
        {
            "buffer" : 0,
            "byteLength" : 1600,
            "byteOffset" : 112844
        },
        {
            "buffer" : 0,
            "byteLength" : 1200,
            "byteOffset" : 114444
        },
        {
            "buffer" : 0,
            "byteLength" : 1200,
            "byteOffset" : 115644
        },
        {
            "buffer" : 0,
            "byteLength" : 1600,
            "byteOffset" : 116844
        },
        {
            "buffer" : 0,
            "byteLength" : 1200,
            "byteOffset" : 118444
        },
        {
            "buffer" : 0,
            "byteLength" : 1200,
            "byteOffset" : 119644
        },
        {
            "buffer" : 0,
            "byteLength" : 1600,
            "byteOffset" : 120844
        },
        {
            "buffer" : 0,
            "byteLength" : 1200,
            "byteOffset" : 122444
        },
        {
            "buffer" : 0,
            "byteLength" : 1200,
            "byteOffset" : 123644
        },
        {
            "buffer" : 0,
            "byteLength" : 1600,
            "byteOffset" : 124844
        },
        {
            "buffer" : 0,
            "byteLength" : 1200,
            "byteOffset" : 126444
        }
    ],
    "samplers" : [
        {
            "magFilter" : 9729,
            "minFilter" : 9987
        }
    ],
    "buffers" : [
        {
            "byteLength" : 127644,
            "uri" : "data:application/octet-stream;base64,"
        }
    ]
}
