{
    "asset" : {
        "generator" : "Khronos glTF Blender I/O v1.6.16",
        "version" : "2.0"
    },
    "scene" : 0,
    "scenes" : [
        {
            "name" : "Scene",
            "nodes" : [
                0
            ]
        }
    ],
    "nodes" : [
        {
            "mesh" : 0,
            "name" : "Pencil",
            "rotation" : [
                -0.010917195118963718,
                0.9902678728103638,
                -0.1337924748659134,
                0.036743756383657455
            ],
            "scale" : [
                1.2693451642990112,
                4.030646324157715,
                1.2693454027175903
            ],
            "translation" : [
                -2.798480272293091,
                15.255727767944336,
                4.859971046447754
            ]
        }
    ],
    "animations" : [
        {
            "channels" : [
                {
                    "sampler" : 0,
                    "target" : {
                        "node" : 0,
                        "path" : "translation"
                    }
                },
                {
                    "sampler" : 1,
                    "target" : {
                        "node" : 0,
                        "path" : "rotation"
                    }
                },
                {
                    "sampler" : 2,
                    "target" : {
                        "node" : 0,
                        "path" : "scale"
                    }
                }
            ],
            "name" : "Start",
            "samplers" : [
                {
                    "input" : 20,
                    "interpolation" : "LINEAR",
                    "output" : 21
                },
                {
                    "input" : 20,
                    "interpolation" : "LINEAR",
                    "output" : 22
                },
                {
                    "input" : 20,
                    "interpolation" : "LINEAR",
                    "output" : 23
                }
            ]
        },
        {
            "channels" : [
                {
                    "sampler" : 0,
                    "target" : {
                        "node" : 0,
                        "path" : "translation"
                    }
                },
                {
                    "sampler" : 1,
                    "target" : {
                        "node" : 0,
                        "path" : "rotation"
                    }
                },
                {
                    "sampler" : 2,
                    "target" : {
                        "node" : 0,
                        "path" : "scale"
                    }
                }
            ],
            "name" : "Idle",
            "samplers" : [
                {
                    "input" : 24,
                    "interpolation" : "LINEAR",
                    "output" : 25
                },
                {
                    "input" : 24,
                    "interpolation" : "LINEAR",
                    "output" : 26
                },
                {
                    "input" : 24,
                    "interpolation" : "LINEAR",
                    "output" : 27
                }
            ]
        }
    ],
    "materials" : [
        {
            "doubleSided" : true,
            "name" : "Pencil",
            "pbrMetallicRoughness" : {
                "baseColorFactor" : [
                    0.5229997038841248,
                    0.28035616874694824,
                    0.053506288677453995,
                    1
                ],
                "metallicFactor" : 0,
                "roughnessFactor" : 0.5
            }
        },
        {
            "doubleSided" : true,
            "name" : "Pencil tip",
            "pbrMetallicRoughness" : {
                "baseColorFactor" : [
                    0.03403167799115181,
                    0.03403167799115181,
                    0.03403167799115181,
                    1
                ],
                "metallicFactor" : 0,
                "roughnessFactor" : 0.5
            }
        },
        {
            "doubleSided" : true,
            "name" : "Pencil Silver",
            "pbrMetallicRoughness" : {
                "baseColorFactor" : [
                    0.5921463370323181,
                    0.5921463370323181,
                    0.5921463370323181,
                    1
                ],
                "metallicFactor" : 0.8575757741928101,
                "roughnessFactor" : 0.33030301332473755
            }
        },
        {
            "doubleSided" : true,
            "name" : "Eraser",
            "pbrMetallicRoughness" : {
                "baseColorFactor" : [
                    0.6065839529037476,
                    0.1971258521080017,
                    0.452304869890213,
                    1
                ],
                "metallicFactor" : 0
            }
        },
        {
            "doubleSided" : true,
            "name" : "Pencil White",
            "pbrMetallicRoughness" : {
                "baseColorFactor" : [
                    0.7133439779281616,
                    0.6554061770439148,
                    0.44027215242385864,
                    1
                ],
                "metallicFactor" : 0,
                "roughnessFactor" : 0.5
            }
        }
    ],
    "meshes" : [
        {
            "name" : "Cylinder",
            "primitives" : [
                {
                    "attributes" : {
                        "POSITION" : 0,
                        "NORMAL" : 1,
                        "TEXCOORD_0" : 2
                    },
                    "indices" : 3,
                    "material" : 0
                },
                {
                    "attributes" : {
                        "POSITION" : 4,
                        "NORMAL" : 5,
                        "TEXCOORD_0" : 6
                    },
                    "indices" : 7,
                    "material" : 1
                },
                {
                    "attributes" : {
                        "POSITION" : 8,
                        "NORMAL" : 9,
                        "TEXCOORD_0" : 10
                    },
                    "indices" : 11,
                    "material" : 2
                },
                {
                    "attributes" : {
                        "POSITION" : 12,
                        "NORMAL" : 13,
                        "TEXCOORD_0" : 14
                    },
                    "indices" : 15,
                    "material" : 3
                },
                {
                    "attributes" : {
                        "POSITION" : 16,
                        "NORMAL" : 17,
                        "TEXCOORD_0" : 18
                    },
                    "indices" : 19,
                    "material" : 4
                }
            ]
        }
    ],
    "accessors" : [
        {
            "bufferView" : 0,
            "componentType" : 5126,
            "count" : 208,
            "max" : [
                0.9109170436859131,
                -0.29895180463790894,
                0.9186057448387146
            ],
            "min" : [
                -1.0071241855621338,
                -2.2937073707580566,
                -0.9994353652000427
            ],
            "type" : "VEC3"
        },
        {
            "bufferView" : 1,
            "componentType" : 5126,
            "count" : 208,
            "type" : "VEC3"
        },
        {
            "bufferView" : 2,
            "componentType" : 5126,
            "count" : 208,
            "type" : "VEC2"
        },
        {
            "bufferView" : 3,
            "componentType" : 5123,
            "count" : 960,
            "type" : "SCALAR"
        },
        {
            "bufferView" : 4,
            "componentType" : 5126,
            "count" : 176,
            "max" : [
                0.34824952483177185,
                -2.802826166152954,
                0.35593828558921814
            ],
            "min" : [
                -0.4444565773010254,
                -3.026151180267334,
                -0.4367678463459015
            ],
            "type" : "VEC3"
        },
        {
            "bufferView" : 5,
            "componentType" : 5126,
            "count" : 176,
            "type" : "VEC3"
        },
        {
            "bufferView" : 6,
            "componentType" : 5126,
            "count" : 176,
            "type" : "VEC2"
        },
        {
            "bufferView" : 7,
            "componentType" : 5123,
            "count" : 672,
            "type" : "SCALAR"
        },
        {
            "bufferView" : 8,
            "componentType" : 5126,
            "count" : 255,
            "max" : [
                0.9481382369995117,
                -0.2214009165763855,
                0.9558268785476685
            ],
            "min" : [
                -1.0443453788757324,
                -0.29895204305648804,
                -1.0366566181182861
            ],
            "type" : "VEC3"
        },
        {
            "bufferView" : 9,
            "componentType" : 5126,
            "count" : 255,
            "type" : "VEC3"
        },
        {
            "bufferView" : 10,
            "componentType" : 5126,
            "count" : 255,
            "type" : "VEC2"
        },
        {
            "bufferView" : 11,
            "componentType" : 5123,
            "count" : 1152,
            "type" : "SCALAR"
        },
        {
            "bufferView" : 12,
            "componentType" : 5126,
            "count" : 393,
            "max" : [
                0.9109170436859131,
                -4.214048385620117e-05,
                0.9186057448387146
            ],
            "min" : [
                -1.0071241855621338,
                -0.2214011549949646,
                -0.9994353652000427
            ],
            "type" : "VEC3"
        },
        {
            "bufferView" : 13,
            "componentType" : 5126,
            "count" : 393,
            "type" : "VEC3"
        },
        {
            "bufferView" : 14,
            "componentType" : 5126,
            "count" : 393,
            "type" : "VEC2"
        },
        {
            "bufferView" : 15,
            "componentType" : 5123,
            "count" : 1728,
            "type" : "SCALAR"
        },
        {
            "bufferView" : 16,
            "componentType" : 5126,
            "count" : 160,
            "max" : [
                0.8901580572128296,
                -2.2937071323394775,
                0.8978467583656311
            ],
            "min" : [
                -0.9863651990890503,
                -2.802826404571533,
                -0.9786764979362488
            ],
            "type" : "VEC3"
        },
        {
            "bufferView" : 17,
            "componentType" : 5126,
            "count" : 160,
            "type" : "VEC3"
        },
        {
            "bufferView" : 18,
            "componentType" : 5126,
            "count" : 160,
            "type" : "VEC2"
        },
        {
            "bufferView" : 19,
            "componentType" : 5123,
            "count" : 576,
            "type" : "SCALAR"
        },
        {
            "bufferView" : 20,
            "componentType" : 5126,
            "count" : 50,
            "max" : [
                2.0833333333333335
            ],
            "min" : [
                0.041666666666666664
            ],
            "type" : "SCALAR"
        },
        {
            "bufferView" : 21,
            "componentType" : 5126,
            "count" : 50,
            "type" : "VEC3"
        },
        {
            "bufferView" : 22,
            "componentType" : 5126,
            "count" : 50,
            "type" : "VEC4"
        },
        {
            "bufferView" : 23,
            "componentType" : 5126,
            "count" : 50,
            "type" : "VEC3"
        },
        {
            "bufferView" : 24,
            "componentType" : 5126,
            "count" : 151,
            "max" : [
                6.291666666666667
            ],
            "min" : [
                0.041666666666666664
            ],
            "type" : "SCALAR"
        },
        {
            "bufferView" : 25,
            "componentType" : 5126,
            "count" : 151,
            "type" : "VEC3"
        },
        {
            "bufferView" : 26,
            "componentType" : 5126,
            "count" : 151,
            "type" : "VEC4"
        },
        {
            "bufferView" : 27,
            "componentType" : 5126,
            "count" : 151,
            "type" : "VEC3"
        }
    ],
    "bufferViews" : [
        {
            "buffer" : 0,
            "byteLength" : 2496,
            "byteOffset" : 0
        },
        {
            "buffer" : 0,
            "byteLength" : 2496,
            "byteOffset" : 2496
        },
        {
            "buffer" : 0,
            "byteLength" : 1664,
            "byteOffset" : 4992
        },
        {
            "buffer" : 0,
            "byteLength" : 1920,
            "byteOffset" : 6656
        },
        {
            "buffer" : 0,
            "byteLength" : 2112,
            "byteOffset" : 8576
        },
        {
            "buffer" : 0,
            "byteLength" : 2112,
            "byteOffset" : 10688
        },
        {
            "buffer" : 0,
            "byteLength" : 1408,
            "byteOffset" : 12800
        },
        {
            "buffer" : 0,
            "byteLength" : 1344,
            "byteOffset" : 14208
        },
        {
            "buffer" : 0,
            "byteLength" : 3060,
            "byteOffset" : 15552
        },
        {
            "buffer" : 0,
            "byteLength" : 3060,
            "byteOffset" : 18612
        },
        {
            "buffer" : 0,
            "byteLength" : 2040,
            "byteOffset" : 21672
        },
        {
            "buffer" : 0,
            "byteLength" : 2304,
            "byteOffset" : 23712
        },
        {
            "buffer" : 0,
            "byteLength" : 4716,
            "byteOffset" : 26016
        },
        {
            "buffer" : 0,
            "byteLength" : 4716,
            "byteOffset" : 30732
        },
        {
            "buffer" : 0,
            "byteLength" : 3144,
            "byteOffset" : 35448
        },
        {
            "buffer" : 0,
            "byteLength" : 3456,
            "byteOffset" : 38592
        },
        {
            "buffer" : 0,
            "byteLength" : 1920,
            "byteOffset" : 42048
        },
        {
            "buffer" : 0,
            "byteLength" : 1920,
            "byteOffset" : 43968
        },
        {
            "buffer" : 0,
            "byteLength" : 1280,
            "byteOffset" : 45888
        },
        {
            "buffer" : 0,
            "byteLength" : 1152,
            "byteOffset" : 47168
        },
        {
            "buffer" : 0,
            "byteLength" : 200,
            "byteOffset" : 48320
        },
        {
            "buffer" : 0,
            "byteLength" : 600,
            "byteOffset" : 48520
        },
        {
            "buffer" : 0,
            "byteLength" : 800,
            "byteOffset" : 49120
        },
        {
            "buffer" : 0,
            "byteLength" : 600,
            "byteOffset" : 49920
        },
        {
            "buffer" : 0,
            "byteLength" : 604,
            "byteOffset" : 50520
        },
        {
            "buffer" : 0,
            "byteLength" : 1812,
            "byteOffset" : 51124
        },
        {
            "buffer" : 0,
            "byteLength" : 2416,
            "byteOffset" : 52936
        },
        {
            "buffer" : 0,
            "byteLength" : 1812,
            "byteOffset" : 55352
        }
    ],
    "buffers" : [
        {
            "byteLength" : 57164,
            "uri" : "data:application/octet-stream;base64,"
        }
    ]
}
