{
    "asset" : {
        "generator" : "Khronos glTF Blender I/O v1.6.16",
        "version" : "2.0"
    },
    "scene" : 0,
    "scenes" : [
        {
            "name" : "Scene",
            "nodes" : [
                0,
                1,
                2
            ]
        }
    ],
    "nodes" : [
        {
            "mesh" : 0,
            "name" : "path12",
            "rotation" : [
                -0.843651533126831,
                0.26634424924850464,
                -0.39777272939682007,
                0.24308373034000397
            ],
            "scale" : [
                0,
                0,
                0
            ],
            "translation" : [
                0.8004511594772339,
                0.4500696659088135,
                -0.9188785552978516
            ]
        },
        {
            "mesh" : 1,
            "name" : "path12.001",
            "rotation" : [
                -0.003801662242040038,
                0.0434533953666687,
                -0.08707274496555328,
                0.9952466487884521
            ],
            "scale" : [
                0,
                0,
                0
            ],
            "translation" : [
                0.2835147976875305,
                0.6513752937316895,
                -1.7106387615203857
            ]
        },
        {
            "mesh" : 2,
            "name" : "path12.002",
            "rotation" : [
                0.7007487416267395,
                -0.42114511132240295,
                -0.4738665819168091,
                -0.3271673917770386
            ],
            "scale" : [
                0,
                0,
                0
            ],
            "translation" : [
                1.3208832740783691,
                0.6513752937316895,
                -1.7106387615203857
            ]
        }
    ],
    "animations" : [
        {
            "channels" : [
                {
                    "sampler" : 0,
                    "target" : {
                        "node" : 0,
                        "path" : "translation"
                    }
                },
                {
                    "sampler" : 1,
                    "target" : {
                        "node" : 0,
                        "path" : "rotation"
                    }
                },
                {
                    "sampler" : 2,
                    "target" : {
                        "node" : 0,
                        "path" : "scale"
                    }
                },
                {
                    "sampler" : 3,
                    "target" : {
                        "node" : 1,
                        "path" : "translation"
                    }
                },
                {
                    "sampler" : 4,
                    "target" : {
                        "node" : 1,
                        "path" : "rotation"
                    }
                },
                {
                    "sampler" : 5,
                    "target" : {
                        "node" : 1,
                        "path" : "scale"
                    }
                },
                {
                    "sampler" : 6,
                    "target" : {
                        "node" : 2,
                        "path" : "translation"
                    }
                },
                {
                    "sampler" : 7,
                    "target" : {
                        "node" : 2,
                        "path" : "rotation"
                    }
                },
                {
                    "sampler" : 8,
                    "target" : {
                        "node" : 2,
                        "path" : "scale"
                    }
                }
            ],
            "name" : "Idle",
            "samplers" : [
                {
                    "input" : 10,
                    "interpolation" : "LINEAR",
                    "output" : 11
                },
                {
                    "input" : 10,
                    "interpolation" : "LINEAR",
                    "output" : 12
                },
                {
                    "input" : 10,
                    "interpolation" : "LINEAR",
                    "output" : 13
                },
                {
                    "input" : 10,
                    "interpolation" : "LINEAR",
                    "output" : 14
                },
                {
                    "input" : 10,
                    "interpolation" : "LINEAR",
                    "output" : 15
                },
                {
                    "input" : 10,
                    "interpolation" : "LINEAR",
                    "output" : 16
                },
                {
                    "input" : 10,
                    "interpolation" : "LINEAR",
                    "output" : 17
                },
                {
                    "input" : 10,
                    "interpolation" : "LINEAR",
                    "output" : 18
                },
                {
                    "input" : 10,
                    "interpolation" : "LINEAR",
                    "output" : 19
                }
            ]
        },
        {
            "channels" : [
                {
                    "sampler" : 0,
                    "target" : {
                        "node" : 0,
                        "path" : "translation"
                    }
                },
                {
                    "sampler" : 1,
                    "target" : {
                        "node" : 0,
                        "path" : "rotation"
                    }
                },
                {
                    "sampler" : 2,
                    "target" : {
                        "node" : 0,
                        "path" : "scale"
                    }
                },
                {
                    "sampler" : 3,
                    "target" : {
                        "node" : 1,
                        "path" : "translation"
                    }
                },
                {
                    "sampler" : 4,
                    "target" : {
                        "node" : 1,
                        "path" : "rotation"
                    }
                },
                {
                    "sampler" : 5,
                    "target" : {
                        "node" : 1,
                        "path" : "scale"
                    }
                },
                {
                    "sampler" : 6,
                    "target" : {
                        "node" : 2,
                        "path" : "translation"
                    }
                },
                {
                    "sampler" : 7,
                    "target" : {
                        "node" : 2,
                        "path" : "rotation"
                    }
                },
                {
                    "sampler" : 8,
                    "target" : {
                        "node" : 2,
                        "path" : "scale"
                    }
                }
            ],
            "name" : "Start",
            "samplers" : [
                {
                    "input" : 20,
                    "interpolation" : "LINEAR",
                    "output" : 21
                },
                {
                    "input" : 20,
                    "interpolation" : "LINEAR",
                    "output" : 22
                },
                {
                    "input" : 20,
                    "interpolation" : "LINEAR",
                    "output" : 23
                },
                {
                    "input" : 20,
                    "interpolation" : "LINEAR",
                    "output" : 24
                },
                {
                    "input" : 20,
                    "interpolation" : "LINEAR",
                    "output" : 25
                },
                {
                    "input" : 20,
                    "interpolation" : "LINEAR",
                    "output" : 26
                },
                {
                    "input" : 20,
                    "interpolation" : "LINEAR",
                    "output" : 27
                },
                {
                    "input" : 20,
                    "interpolation" : "LINEAR",
                    "output" : 28
                },
                {
                    "input" : 20,
                    "interpolation" : "LINEAR",
                    "output" : 29
                }
            ]
        }
    ],
    "materials" : [
        {
            "doubleSided" : true,
            "name" : "Material.001",
            "pbrMetallicRoughness" : {
                "baseColorFactor" : [
                    0.02842600643634796,
                    0.3762623071670532,
                    0.2917707562446594,
                    1
                ],
                "metallicFactor" : 0,
                "roughnessFactor" : 0.5
            }
        }
    ],
    "meshes" : [
        {
            "name" : "path12",
            "primitives" : [
                {
                    "attributes" : {
                        "POSITION" : 0,
                        "NORMAL" : 1,
                        "TEXCOORD_0" : 2
                    },
                    "indices" : 3,
                    "material" : 0
                }
            ]
        },
        {
            "name" : "path12.002",
            "primitives" : [
                {
                    "attributes" : {
                        "POSITION" : 4,
                        "NORMAL" : 5,
                        "TEXCOORD_0" : 6
                    },
                    "indices" : 3,
                    "material" : 0
                }
            ]
        },
        {
            "name" : "path12.003",
            "primitives" : [
                {
                    "attributes" : {
                        "POSITION" : 7,
                        "NORMAL" : 8,
                        "TEXCOORD_0" : 9
                    },
                    "indices" : 3,
                    "material" : 0
                }
            ]
        }
    ],
    "accessors" : [
        {
            "bufferView" : 0,
            "componentType" : 5126,
            "count" : 2968,
            "max" : [
                0.009362692013382912,
                0.0022778359707444906,
                0.007177346386015415
            ],
            "min" : [
                -0.009314797818660736,
                -0.0024388509336858988,
                -0.005603695288300514
            ],
            "type" : "VEC3"
        },
        {
            "bufferView" : 1,
            "componentType" : 5126,
            "count" : 2968,
            "type" : "VEC3"
        },
        {
            "bufferView" : 2,
            "componentType" : 5126,
            "count" : 2968,
            "type" : "VEC2"
        },
        {
            "bufferView" : 3,
            "componentType" : 5123,
            "count" : 3936,
            "type" : "SCALAR"
        },
        {
            "bufferView" : 4,
            "componentType" : 5126,
            "count" : 2968,
            "max" : [
                0.009362692013382912,
                0.0022778359707444906,
                0.007177346386015415
            ],
            "min" : [
                -0.009314797818660736,
                -0.0024388509336858988,
                -0.005603695288300514
            ],
            "type" : "VEC3"
        },
        {
            "bufferView" : 5,
            "componentType" : 5126,
            "count" : 2968,
            "type" : "VEC3"
        },
        {
            "bufferView" : 6,
            "componentType" : 5126,
            "count" : 2968,
            "type" : "VEC2"
        },
        {
            "bufferView" : 7,
            "componentType" : 5126,
            "count" : 2968,
            "max" : [
                0.009362692013382912,
                0.0022778359707444906,
                0.007177346386015415
            ],
            "min" : [
                -0.009314797818660736,
                -0.0024388509336858988,
                -0.005603695288300514
            ],
            "type" : "VEC3"
        },
        {
            "bufferView" : 8,
            "componentType" : 5126,
            "count" : 2968,
            "type" : "VEC3"
        },
        {
            "bufferView" : 9,
            "componentType" : 5126,
            "count" : 2968,
            "type" : "VEC2"
        },
        {
            "bufferView" : 10,
            "componentType" : 5126,
            "count" : 90,
            "max" : [
                3.75
            ],
            "min" : [
                0.041666666666666664
            ],
            "type" : "SCALAR"
        },
        {
            "bufferView" : 11,
            "componentType" : 5126,
            "count" : 90,
            "type" : "VEC3"
        },
        {
            "bufferView" : 12,
            "componentType" : 5126,
            "count" : 90,
            "type" : "VEC4"
        },
        {
            "bufferView" : 13,
            "componentType" : 5126,
            "count" : 90,
            "type" : "VEC3"
        },
        {
            "bufferView" : 14,
            "componentType" : 5126,
            "count" : 90,
            "type" : "VEC3"
        },
        {
            "bufferView" : 15,
            "componentType" : 5126,
            "count" : 90,
            "type" : "VEC4"
        },
        {
            "bufferView" : 16,
            "componentType" : 5126,
            "count" : 90,
            "type" : "VEC3"
        },
        {
            "bufferView" : 17,
            "componentType" : 5126,
            "count" : 90,
            "type" : "VEC3"
        },
        {
            "bufferView" : 18,
            "componentType" : 5126,
            "count" : 90,
            "type" : "VEC4"
        },
        {
            "bufferView" : 19,
            "componentType" : 5126,
            "count" : 90,
            "type" : "VEC3"
        },
        {
            "bufferView" : 20,
            "componentType" : 5126,
            "count" : 50,
            "max" : [
                2.0833333333333335
            ],
            "min" : [
                0.041666666666666664
            ],
            "type" : "SCALAR"
        },
        {
            "bufferView" : 21,
            "componentType" : 5126,
            "count" : 50,
            "type" : "VEC3"
        },
        {
            "bufferView" : 22,
            "componentType" : 5126,
            "count" : 50,
            "type" : "VEC4"
        },
        {
            "bufferView" : 23,
            "componentType" : 5126,
            "count" : 50,
            "type" : "VEC3"
        },
        {
            "bufferView" : 24,
            "componentType" : 5126,
            "count" : 50,
            "type" : "VEC3"
        },
        {
            "bufferView" : 25,
            "componentType" : 5126,
            "count" : 50,
            "type" : "VEC4"
        },
        {
            "bufferView" : 26,
            "componentType" : 5126,
            "count" : 50,
            "type" : "VEC3"
        },
        {
            "bufferView" : 27,
            "componentType" : 5126,
            "count" : 50,
            "type" : "VEC3"
        },
        {
            "bufferView" : 28,
            "componentType" : 5126,
            "count" : 50,
            "type" : "VEC4"
        },
        {
            "bufferView" : 29,
            "componentType" : 5126,
            "count" : 50,
            "type" : "VEC3"
        }
    ],
    "bufferViews" : [
        {
            "buffer" : 0,
            "byteLength" : 35616,
            "byteOffset" : 0
        },
        {
            "buffer" : 0,
            "byteLength" : 35616,
            "byteOffset" : 35616
        },
        {
            "buffer" : 0,
            "byteLength" : 23744,
            "byteOffset" : 71232
        },
        {
            "buffer" : 0,
            "byteLength" : 7872,
            "byteOffset" : 94976
        },
        {
            "buffer" : 0,
            "byteLength" : 35616,
            "byteOffset" : 102848
        },
        {
            "buffer" : 0,
            "byteLength" : 35616,
            "byteOffset" : 138464
        },
        {
            "buffer" : 0,
            "byteLength" : 23744,
            "byteOffset" : 174080
        },
        {
            "buffer" : 0,
            "byteLength" : 35616,
            "byteOffset" : 197824
        },
        {
            "buffer" : 0,
            "byteLength" : 35616,
            "byteOffset" : 233440
        },
        {
            "buffer" : 0,
            "byteLength" : 23744,
            "byteOffset" : 269056
        },
        {
            "buffer" : 0,
            "byteLength" : 360,
            "byteOffset" : 292800
        },
        {
            "buffer" : 0,
            "byteLength" : 1080,
            "byteOffset" : 293160
        },
        {
            "buffer" : 0,
            "byteLength" : 1440,
            "byteOffset" : 294240
        },
        {
            "buffer" : 0,
            "byteLength" : 1080,
            "byteOffset" : 295680
        },
        {
            "buffer" : 0,
            "byteLength" : 1080,
            "byteOffset" : 296760
        },
        {
            "buffer" : 0,
            "byteLength" : 1440,
            "byteOffset" : 297840
        },
        {
            "buffer" : 0,
            "byteLength" : 1080,
            "byteOffset" : 299280
        },
        {
            "buffer" : 0,
            "byteLength" : 1080,
            "byteOffset" : 300360
        },
        {
            "buffer" : 0,
            "byteLength" : 1440,
            "byteOffset" : 301440
        },
        {
            "buffer" : 0,
            "byteLength" : 1080,
            "byteOffset" : 302880
        },
        {
            "buffer" : 0,
            "byteLength" : 200,
            "byteOffset" : 303960
        },
        {
            "buffer" : 0,
            "byteLength" : 600,
            "byteOffset" : 304160
        },
        {
            "buffer" : 0,
            "byteLength" : 800,
            "byteOffset" : 304760
        },
        {
            "buffer" : 0,
            "byteLength" : 600,
            "byteOffset" : 305560
        },
        {
            "buffer" : 0,
            "byteLength" : 600,
            "byteOffset" : 306160
        },
        {
            "buffer" : 0,
            "byteLength" : 800,
            "byteOffset" : 306760
        },
        {
            "buffer" : 0,
            "byteLength" : 600,
            "byteOffset" : 307560
        },
        {
            "buffer" : 0,
            "byteLength" : 600,
            "byteOffset" : 308160
        },
        {
            "buffer" : 0,
            "byteLength" : 800,
            "byteOffset" : 308760
        },
        {
            "buffer" : 0,
            "byteLength" : 600,
            "byteOffset" : 309560
        }
    ],
    "buffers" : [
        {
            "byteLength" : 310160,
            "uri" : "data:application/octet-stream;base64,"
        }
    ]
}
