{
    "asset" : {
        "generator" : "Khronos glTF Blender I/O v1.6.16",
        "version" : "2.0"
    },
    "extensionsUsed" : [
        "KHR_materials_unlit"
    ],
    "scene" : 0,
    "scenes" : [
        {
            "name" : "Scene",
            "nodes" : [
                0
            ]
        }
    ],
    "nodes" : [
        {
            "mesh" : 0,
            "name" : "AUNZ",
            "rotation" : [
                0.7366241812705994,
                -0.03102923184633255,
                0.14723648130893707,
                0.6593508124351501
            ],
            "scale" : [
                65.90946960449219,
                38.51273727416992,
                65.9094467163086
            ],
            "translation" : [
                -2.190609931945801,
                18.26387596130371,
                29.2726993560791
            ]
        }
    ],
    "animations" : [
        {
            "channels" : [
                {
                    "sampler" : 0,
                    "target" : {
                        "node" : 0,
                        "path" : "translation"
                    }
                },
                {
                    "sampler" : 1,
                    "target" : {
                        "node" : 0,
                        "path" : "rotation"
                    }
                },
                {
                    "sampler" : 2,
                    "target" : {
                        "node" : 0,
                        "path" : "scale"
                    }
                }
            ],
            "name" : "Idle",
            "samplers" : [
                {
                    "input" : 8,
                    "interpolation" : "LINEAR",
                    "output" : 9
                },
                {
                    "input" : 8,
                    "interpolation" : "LINEAR",
                    "output" : 10
                },
                {
                    "input" : 8,
                    "interpolation" : "LINEAR",
                    "output" : 11
                }
            ]
        },
        {
            "channels" : [
                {
                    "sampler" : 0,
                    "target" : {
                        "node" : 0,
                        "path" : "translation"
                    }
                },
                {
                    "sampler" : 1,
                    "target" : {
                        "node" : 0,
                        "path" : "rotation"
                    }
                },
                {
                    "sampler" : 2,
                    "target" : {
                        "node" : 0,
                        "path" : "scale"
                    }
                }
            ],
            "name" : "Start",
            "samplers" : [
                {
                    "input" : 12,
                    "interpolation" : "LINEAR",
                    "output" : 13
                },
                {
                    "input" : 12,
                    "interpolation" : "LINEAR",
                    "output" : 14
                },
                {
                    "input" : 12,
                    "interpolation" : "LINEAR",
                    "output" : 15
                }
            ]
        }
    ],
    "materials" : [
        {
            "doubleSided" : true,
            "name" : "Land",
            "pbrMetallicRoughness" : {
                "baseColorFactor" : [
                    0.11193244904279709,
                    0.036889445036649704,
                    0.0382043793797493,
                    1
                ],
                "metallicFactor" : 0
            }
        },
        {
            "doubleSided" : true,
            "extensions" : {
                "KHR_materials_unlit" : {}
            },
            "name" : "Material",
            "pbrMetallicRoughness" : {
                "baseColorTexture" : {
                    "index" : 0
                },
                "metallicFactor" : 0,
                "roughnessFactor" : 0.9
            }
        }
    ],
    "meshes" : [
        {
            "name" : "DZ.001",
            "primitives" : [
                {
                    "attributes" : {
                        "POSITION" : 0,
                        "NORMAL" : 1,
                        "TEXCOORD_0" : 2
                    },
                    "indices" : 3,
                    "material" : 0
                },
                {
                    "attributes" : {
                        "POSITION" : 4,
                        "NORMAL" : 5,
                        "TEXCOORD_0" : 6
                    },
                    "indices" : 7,
                    "material" : 1
                }
            ]
        }
    ],
    "textures" : [
        {
            "sampler" : 0,
            "source" : 0
        }
    ],
    "images" : [
        {
            "bufferView" : 8,
            "mimeType" : "image/png",
            "name" : "Aboriginal Artwork Final"
        }
    ],
    "accessors" : [
        {
            "bufferView" : 0,
            "componentType" : 5126,
            "count" : 1034,
            "max" : [
                0.1329975575208664,
                0.0591718852519989,
                0.1396377831697464
            ],
            "min" : [
                -0.1349809765815735,
                -0.09108670055866241,
                -0.11337216943502426
            ],
            "type" : "VEC3"
        },
        {
            "bufferView" : 1,
            "componentType" : 5126,
            "count" : 1034,
            "type" : "VEC3"
        },
        {
            "bufferView" : 2,
            "componentType" : 5126,
            "count" : 1034,
            "type" : "VEC2"
        },
        {
            "bufferView" : 3,
            "componentType" : 5123,
            "count" : 4512,
            "type" : "SCALAR"
        },
        {
            "bufferView" : 4,
            "componentType" : 5126,
            "count" : 1826,
            "max" : [
                0.1281839907169342,
                0.05842152610421181,
                0.09747493267059326
            ],
            "min" : [
                -0.13118037581443787,
                -0.09025900065898895,
                -0.10977383702993393
            ],
            "type" : "VEC3"
        },
        {
            "bufferView" : 5,
            "componentType" : 5126,
            "count" : 1826,
            "type" : "VEC3"
        },
        {
            "bufferView" : 6,
            "componentType" : 5126,
            "count" : 1826,
            "type" : "VEC2"
        },
        {
            "bufferView" : 7,
            "componentType" : 5123,
            "count" : 7428,
            "type" : "SCALAR"
        },
        {
            "bufferView" : 9,
            "componentType" : 5126,
            "count" : 151,
            "max" : [
                6.291666666666667
            ],
            "min" : [
                0.041666666666666664
            ],
            "type" : "SCALAR"
        },
        {
            "bufferView" : 10,
            "componentType" : 5126,
            "count" : 151,
            "type" : "VEC3"
        },
        {
            "bufferView" : 11,
            "componentType" : 5126,
            "count" : 151,
            "type" : "VEC4"
        },
        {
            "bufferView" : 12,
            "componentType" : 5126,
            "count" : 151,
            "type" : "VEC3"
        },
        {
            "bufferView" : 13,
            "componentType" : 5126,
            "count" : 50,
            "max" : [
                2.0833333333333335
            ],
            "min" : [
                0.041666666666666664
            ],
            "type" : "SCALAR"
        },
        {
            "bufferView" : 14,
            "componentType" : 5126,
            "count" : 50,
            "type" : "VEC3"
        },
        {
            "bufferView" : 15,
            "componentType" : 5126,
            "count" : 50,
            "type" : "VEC4"
        },
        {
            "bufferView" : 16,
            "componentType" : 5126,
            "count" : 50,
            "type" : "VEC3"
        }
    ],
    "bufferViews" : [
        {
            "buffer" : 0,
            "byteLength" : 12408,
            "byteOffset" : 0
        },
        {
            "buffer" : 0,
            "byteLength" : 12408,
            "byteOffset" : 12408
        },
        {
            "buffer" : 0,
            "byteLength" : 8272,
            "byteOffset" : 24816
        },
        {
            "buffer" : 0,
            "byteLength" : 9024,
            "byteOffset" : 33088
        },
        {
            "buffer" : 0,
            "byteLength" : 21912,
            "byteOffset" : 42112
        },
        {
            "buffer" : 0,
            "byteLength" : 21912,
            "byteOffset" : 64024
        },
        {
            "buffer" : 0,
            "byteLength" : 14608,
            "byteOffset" : 85936
        },
        {
            "buffer" : 0,
            "byteLength" : 14856,
            "byteOffset" : 100544
        },
        {
            "buffer" : 0,
            "byteLength" : 327886,
            "byteOffset" : 115400
        },
        {
            "buffer" : 0,
            "byteLength" : 604,
            "byteOffset" : 443288
        },
        {
            "buffer" : 0,
            "byteLength" : 1812,
            "byteOffset" : 443892
        },
        {
            "buffer" : 0,
            "byteLength" : 2416,
            "byteOffset" : 445704
        },
        {
            "buffer" : 0,
            "byteLength" : 1812,
            "byteOffset" : 448120
        },
        {
            "buffer" : 0,
            "byteLength" : 200,
            "byteOffset" : 449932
        },
        {
            "buffer" : 0,
            "byteLength" : 600,
            "byteOffset" : 450132
        },
        {
            "buffer" : 0,
            "byteLength" : 800,
            "byteOffset" : 450732
        },
        {
            "buffer" : 0,
            "byteLength" : 600,
            "byteOffset" : 451532
        }
    ],
    "samplers" : [
        {
            "magFilter" : 9729,
            "minFilter" : 9987
        }
    ],
    "buffers" : [
        {
            "byteLength" : 452132,
            "uri" : "data:application/octet-stream;base64,"
        }
    ]
}
