{
    "asset" : {
        "generator" : "Khronos glTF Blender I/O v1.6.16",
        "version" : "2.0"
    },
    "scene" : 0,
    "scenes" : [
        {
            "name" : "Scene",
            "nodes" : [
                0,
                1
            ]
        }
    ],
    "nodes" : [
        {
            "mesh" : 0,
            "name" : "Top",
            "rotation" : [
                -0.21643945574760437,
                0,
                0,
                0.976296067237854
            ],
            "translation" : [
                2.602963924407959,
                1.7006568908691406,
                -1.2191927433013916
            ]
        },
        {
            "mesh" : 1,
            "name" : "Laptop",
            "rotation" : [
                0.7660444974899292,
                0,
                0,
                0.6427875757217407
            ],
            "translation" : [
                2.60658860206604,
                1.6516783237457275,
                -1.213399052619934
            ]
        }
    ],
    "animations" : [
        {
            "channels" : [
                {
                    "sampler" : 0,
                    "target" : {
                        "node" : 0,
                        "path" : "translation"
                    }
                },
                {
                    "sampler" : 1,
                    "target" : {
                        "node" : 0,
                        "path" : "rotation"
                    }
                },
                {
                    "sampler" : 2,
                    "target" : {
                        "node" : 0,
                        "path" : "scale"
                    }
                },
                {
                    "sampler" : 3,
                    "target" : {
                        "node" : 1,
                        "path" : "translation"
                    }
                },
                {
                    "sampler" : 4,
                    "target" : {
                        "node" : 1,
                        "path" : "rotation"
                    }
                },
                {
                    "sampler" : 5,
                    "target" : {
                        "node" : 1,
                        "path" : "scale"
                    }
                }
            ],
            "name" : "Idle",
            "samplers" : [
                {
                    "input" : 16,
                    "interpolation" : "LINEAR",
                    "output" : 17
                },
                {
                    "input" : 16,
                    "interpolation" : "LINEAR",
                    "output" : 18
                },
                {
                    "input" : 16,
                    "interpolation" : "LINEAR",
                    "output" : 19
                },
                {
                    "input" : 20,
                    "interpolation" : "LINEAR",
                    "output" : 21
                },
                {
                    "input" : 20,
                    "interpolation" : "LINEAR",
                    "output" : 22
                },
                {
                    "input" : 20,
                    "interpolation" : "LINEAR",
                    "output" : 23
                }
            ]
        },
        {
            "channels" : [
                {
                    "sampler" : 0,
                    "target" : {
                        "node" : 0,
                        "path" : "translation"
                    }
                },
                {
                    "sampler" : 1,
                    "target" : {
                        "node" : 0,
                        "path" : "rotation"
                    }
                },
                {
                    "sampler" : 2,
                    "target" : {
                        "node" : 0,
                        "path" : "scale"
                    }
                },
                {
                    "sampler" : 3,
                    "target" : {
                        "node" : 1,
                        "path" : "translation"
                    }
                },
                {
                    "sampler" : 4,
                    "target" : {
                        "node" : 1,
                        "path" : "rotation"
                    }
                },
                {
                    "sampler" : 5,
                    "target" : {
                        "node" : 1,
                        "path" : "scale"
                    }
                }
            ],
            "name" : "Start",
            "samplers" : [
                {
                    "input" : 24,
                    "interpolation" : "LINEAR",
                    "output" : 25
                },
                {
                    "input" : 24,
                    "interpolation" : "LINEAR",
                    "output" : 26
                },
                {
                    "input" : 24,
                    "interpolation" : "LINEAR",
                    "output" : 27
                },
                {
                    "input" : 24,
                    "interpolation" : "LINEAR",
                    "output" : 28
                },
                {
                    "input" : 24,
                    "interpolation" : "LINEAR",
                    "output" : 29
                },
                {
                    "input" : 24,
                    "interpolation" : "LINEAR",
                    "output" : 30
                }
            ]
        }
    ],
    "materials" : [
        {
            "doubleSided" : true,
            "name" : "LaptopBaseColor",
            "pbrMetallicRoughness" : {
                "baseColorFactor" : [
                    0.016338301822543144,
                    0.16266927123069763,
                    0.16266927123069763,
                    1
                ],
                "metallicFactor" : 0,
                "roughnessFactor" : 0.5
            }
        },
        {
            "doubleSided" : true,
            "name" : "Material.002",
            "pbrMetallicRoughness" : {
                "baseColorTexture" : {
                    "index" : 0
                },
                "metallicFactor" : 0,
                "roughnessFactor" : 0.6732679605484009
            }
        },
        {
            "doubleSided" : true,
            "name" : "Keys",
            "pbrMetallicRoughness" : {
                "baseColorFactor" : [
                    0.03263487294316292,
                    0.03263487294316292,
                    0.03263487294316292,
                    1
                ],
                "metallicFactor" : 0.657575786113739,
                "roughnessFactor" : 0.5
            }
        }
    ],
    "meshes" : [
        {
            "name" : "Plane.002_Plane.001",
            "primitives" : [
                {
                    "attributes" : {
                        "POSITION" : 0,
                        "NORMAL" : 1,
                        "TEXCOORD_0" : 2
                    },
                    "indices" : 3,
                    "material" : 0
                },
                {
                    "attributes" : {
                        "POSITION" : 4,
                        "NORMAL" : 5,
                        "TEXCOORD_0" : 6
                    },
                    "indices" : 7,
                    "material" : 1
                }
            ]
        },
        {
            "name" : "Plane.005_Plane.001",
            "primitives" : [
                {
                    "attributes" : {
                        "POSITION" : 8,
                        "NORMAL" : 9,
                        "TEXCOORD_0" : 10
                    },
                    "indices" : 11,
                    "material" : 0
                },
                {
                    "attributes" : {
                        "POSITION" : 12,
                        "NORMAL" : 13,
                        "TEXCOORD_0" : 14
                    },
                    "indices" : 15,
                    "material" : 2
                }
            ]
        }
    ],
    "textures" : [
        {
            "sampler" : 0,
            "source" : 0
        }
    ],
    "images" : [
        {
            "bufferView" : 8,
            "mimeType" : "image/png",
            "name" : "LaptopScreen"
        }
    ],
    "accessors" : [
        {
            "bufferView" : 0,
            "componentType" : 5126,
            "count" : 194,
            "max" : [
                3.51407790184021,
                5.023858070373535,
                0.040605515241622925
            ],
            "min" : [
                -3.51407790184021,
                -0.00016319751739501953,
                -0.14503192901611328
            ],
            "type" : "VEC3"
        },
        {
            "bufferView" : 1,
            "componentType" : 5126,
            "count" : 194,
            "type" : "VEC3"
        },
        {
            "bufferView" : 2,
            "componentType" : 5126,
            "count" : 194,
            "type" : "VEC2"
        },
        {
            "bufferView" : 3,
            "componentType" : 5123,
            "count" : 300,
            "type" : "SCALAR"
        },
        {
            "bufferView" : 4,
            "componentType" : 5126,
            "count" : 4,
            "max" : [
                3.176039934158325,
                4.4461469650268555,
                0.007430672645568848
            ],
            "min" : [
                -3.176039934158325,
                0.5658667683601379,
                -0.010738343000411987
            ],
            "type" : "VEC3"
        },
        {
            "bufferView" : 5,
            "componentType" : 5126,
            "count" : 4,
            "type" : "VEC3"
        },
        {
            "bufferView" : 6,
            "componentType" : 5126,
            "count" : 4,
            "type" : "VEC2"
        },
        {
            "bufferView" : 7,
            "componentType" : 5123,
            "count" : 6,
            "type" : "SCALAR"
        },
        {
            "bufferView" : 9,
            "componentType" : 5126,
            "count" : 1467,
            "max" : [
                3.5368711948394775,
                5.0954060554504395,
                0.3048599064350128
            ],
            "min" : [
                -3.5471155643463135,
                -0.00359189510345459,
                -0.008373081684112549
            ],
            "type" : "VEC3"
        },
        {
            "bufferView" : 10,
            "componentType" : 5126,
            "count" : 1467,
            "type" : "VEC3"
        },
        {
            "bufferView" : 11,
            "componentType" : 5126,
            "count" : 1467,
            "type" : "VEC2"
        },
        {
            "bufferView" : 12,
            "componentType" : 5123,
            "count" : 2265,
            "type" : "SCALAR"
        },
        {
            "bufferView" : 13,
            "componentType" : 5126,
            "count" : 2114,
            "max" : [
                3.17339825630188,
                4.634794235229492,
                0.1495039165019989
            ],
            "min" : [
                -3.167355537414551,
                0.5909530520439148,
                -0.007276087999343872
            ],
            "type" : "VEC3"
        },
        {
            "bufferView" : 14,
            "componentType" : 5126,
            "count" : 2114,
            "type" : "VEC3"
        },
        {
            "bufferView" : 15,
            "componentType" : 5126,
            "count" : 2114,
            "type" : "VEC2"
        },
        {
            "bufferView" : 16,
            "componentType" : 5123,
            "count" : 3180,
            "type" : "SCALAR"
        },
        {
            "bufferView" : 17,
            "componentType" : 5126,
            "count" : 161,
            "max" : [
                6.708333333333333
            ],
            "min" : [
                0.041666666666666664
            ],
            "type" : "SCALAR"
        },
        {
            "bufferView" : 18,
            "componentType" : 5126,
            "count" : 161,
            "type" : "VEC3"
        },
        {
            "bufferView" : 19,
            "componentType" : 5126,
            "count" : 161,
            "type" : "VEC4"
        },
        {
            "bufferView" : 20,
            "componentType" : 5126,
            "count" : 161,
            "type" : "VEC3"
        },
        {
            "bufferView" : 21,
            "componentType" : 5126,
            "count" : 160,
            "max" : [
                6.666666666666667
            ],
            "min" : [
                0.041666666666666664
            ],
            "type" : "SCALAR"
        },
        {
            "bufferView" : 22,
            "componentType" : 5126,
            "count" : 160,
            "type" : "VEC3"
        },
        {
            "bufferView" : 23,
            "componentType" : 5126,
            "count" : 160,
            "type" : "VEC4"
        },
        {
            "bufferView" : 24,
            "componentType" : 5126,
            "count" : 160,
            "type" : "VEC3"
        },
        {
            "bufferView" : 25,
            "componentType" : 5126,
            "count" : 100,
            "max" : [
                4.166666666666667
            ],
            "min" : [
                0.041666666666666664
            ],
            "type" : "SCALAR"
        },
        {
            "bufferView" : 26,
            "componentType" : 5126,
            "count" : 100,
            "type" : "VEC3"
        },
        {
            "bufferView" : 27,
            "componentType" : 5126,
            "count" : 100,
            "type" : "VEC4"
        },
        {
            "bufferView" : 28,
            "componentType" : 5126,
            "count" : 100,
            "type" : "VEC3"
        },
        {
            "bufferView" : 29,
            "componentType" : 5126,
            "count" : 100,
            "type" : "VEC3"
        },
        {
            "bufferView" : 30,
            "componentType" : 5126,
            "count" : 100,
            "type" : "VEC4"
        },
        {
            "bufferView" : 31,
            "componentType" : 5126,
            "count" : 100,
            "type" : "VEC3"
        }
    ],
    "bufferViews" : [
        {
            "buffer" : 0,
            "byteLength" : 2328,
            "byteOffset" : 0
        },
        {
            "buffer" : 0,
            "byteLength" : 2328,
            "byteOffset" : 2328
        },
        {
            "buffer" : 0,
            "byteLength" : 1552,
            "byteOffset" : 4656
        },
        {
            "buffer" : 0,
            "byteLength" : 600,
            "byteOffset" : 6208
        },
        {
            "buffer" : 0,
            "byteLength" : 48,
            "byteOffset" : 6808
        },
        {
            "buffer" : 0,
            "byteLength" : 48,
            "byteOffset" : 6856
        },
        {
            "buffer" : 0,
            "byteLength" : 32,
            "byteOffset" : 6904
        },
        {
            "buffer" : 0,
            "byteLength" : 12,
            "byteOffset" : 6936
        },
        {
            "buffer" : 0,
            "byteLength" : 211879,
            "byteOffset" : 6948
        },
        {
            "buffer" : 0,
            "byteLength" : 17604,
            "byteOffset" : 218828
        },
        {
            "buffer" : 0,
            "byteLength" : 17604,
            "byteOffset" : 236432
        },
        {
            "buffer" : 0,
            "byteLength" : 11736,
            "byteOffset" : 254036
        },
        {
            "buffer" : 0,
            "byteLength" : 4530,
            "byteOffset" : 265772
        },
        {
            "buffer" : 0,
            "byteLength" : 25368,
            "byteOffset" : 270304
        },
        {
            "buffer" : 0,
            "byteLength" : 25368,
            "byteOffset" : 295672
        },
        {
            "buffer" : 0,
            "byteLength" : 16912,
            "byteOffset" : 321040
        },
        {
            "buffer" : 0,
            "byteLength" : 6360,
            "byteOffset" : 337952
        },
        {
            "buffer" : 0,
            "byteLength" : 644,
            "byteOffset" : 344312
        },
        {
            "buffer" : 0,
            "byteLength" : 1932,
            "byteOffset" : 344956
        },
        {
            "buffer" : 0,
            "byteLength" : 2576,
            "byteOffset" : 346888
        },
        {
            "buffer" : 0,
            "byteLength" : 1932,
            "byteOffset" : 349464
        },
        {
            "buffer" : 0,
            "byteLength" : 640,
            "byteOffset" : 351396
        },
        {
            "buffer" : 0,
            "byteLength" : 1920,
            "byteOffset" : 352036
        },
        {
            "buffer" : 0,
            "byteLength" : 2560,
            "byteOffset" : 353956
        },
        {
            "buffer" : 0,
            "byteLength" : 1920,
            "byteOffset" : 356516
        },
        {
            "buffer" : 0,
            "byteLength" : 400,
            "byteOffset" : 358436
        },
        {
            "buffer" : 0,
            "byteLength" : 1200,
            "byteOffset" : 358836
        },
        {
            "buffer" : 0,
            "byteLength" : 1600,
            "byteOffset" : 360036
        },
        {
            "buffer" : 0,
            "byteLength" : 1200,
            "byteOffset" : 361636
        },
        {
            "buffer" : 0,
            "byteLength" : 1200,
            "byteOffset" : 362836
        },
        {
            "buffer" : 0,
            "byteLength" : 1600,
            "byteOffset" : 364036
        },
        {
            "buffer" : 0,
            "byteLength" : 1200,
            "byteOffset" : 365636
        }
    ],
    "samplers" : [
        {
            "magFilter" : 9729,
            "minFilter" : 9987
        }
    ],
    "buffers" : [
        {
            "byteLength" : 366836,
            "uri" : "data:application/octet-stream;base64,"
        }
    ]
}
