{
    "asset" : {
        "generator" : "Khronos glTF Blender I/O v1.6.16",
        "version" : "2.0"
    },
    "scene" : 0,
    "scenes" : [
        {
            "name" : "Scene",
            "nodes" : [
                0,
                1
            ]
        }
    ],
    "nodes" : [
        {
            "mesh" : 0,
            "name" : "Heart",
            "rotation" : [
                0.38329803943634033,
                0.3440338373184204,
                0.7365033626556396,
                0.43850448727607727
            ],
            "scale" : [
                0.00023931129544507712,
                0.00023931129544507712,
                0.00023931129544507712
            ],
            "translation" : [
                0.298391193151474,
                1.6735957860946655,
                -0.38899457454681396
            ]
        },
        {
            "mesh" : 1,
            "name" : "cartoon_hand",
            "rotation" : [
                0.029437918215990067,
                -0.7064938545227051,
                -0.706493616104126,
                -0.029437927529215813
            ],
            "scale" : [
                1.5425057426909916e-05,
                1.5425057426909916e-05,
                1.5425057426909916e-05
            ],
            "translation" : [
                0.570966362953186,
                1.4500173330307007,
                -0.39192724227905273
            ]
        }
    ],
    "animations" : [
        {
            "channels" : [
                {
                    "sampler" : 0,
                    "target" : {
                        "node" : 0,
                        "path" : "translation"
                    }
                },
                {
                    "sampler" : 1,
                    "target" : {
                        "node" : 0,
                        "path" : "rotation"
                    }
                },
                {
                    "sampler" : 2,
                    "target" : {
                        "node" : 0,
                        "path" : "scale"
                    }
                },
                {
                    "sampler" : 3,
                    "target" : {
                        "node" : 1,
                        "path" : "translation"
                    }
                },
                {
                    "sampler" : 4,
                    "target" : {
                        "node" : 1,
                        "path" : "rotation"
                    }
                },
                {
                    "sampler" : 5,
                    "target" : {
                        "node" : 1,
                        "path" : "scale"
                    }
                }
            ],
            "name" : "Idle",
            "samplers" : [
                {
                    "input" : 8,
                    "interpolation" : "LINEAR",
                    "output" : 9
                },
                {
                    "input" : 8,
                    "interpolation" : "LINEAR",
                    "output" : 10
                },
                {
                    "input" : 8,
                    "interpolation" : "LINEAR",
                    "output" : 11
                },
                {
                    "input" : 12,
                    "interpolation" : "LINEAR",
                    "output" : 13
                },
                {
                    "input" : 12,
                    "interpolation" : "LINEAR",
                    "output" : 14
                },
                {
                    "input" : 12,
                    "interpolation" : "LINEAR",
                    "output" : 15
                }
            ]
        },
        {
            "channels" : [
                {
                    "sampler" : 0,
                    "target" : {
                        "node" : 0,
                        "path" : "translation"
                    }
                },
                {
                    "sampler" : 1,
                    "target" : {
                        "node" : 0,
                        "path" : "rotation"
                    }
                },
                {
                    "sampler" : 2,
                    "target" : {
                        "node" : 0,
                        "path" : "scale"
                    }
                },
                {
                    "sampler" : 3,
                    "target" : {
                        "node" : 1,
                        "path" : "translation"
                    }
                },
                {
                    "sampler" : 4,
                    "target" : {
                        "node" : 1,
                        "path" : "rotation"
                    }
                },
                {
                    "sampler" : 5,
                    "target" : {
                        "node" : 1,
                        "path" : "scale"
                    }
                }
            ],
            "name" : "Start",
            "samplers" : [
                {
                    "input" : 16,
                    "interpolation" : "LINEAR",
                    "output" : 17
                },
                {
                    "input" : 16,
                    "interpolation" : "LINEAR",
                    "output" : 18
                },
                {
                    "input" : 16,
                    "interpolation" : "LINEAR",
                    "output" : 19
                },
                {
                    "input" : 16,
                    "interpolation" : "LINEAR",
                    "output" : 20
                },
                {
                    "input" : 16,
                    "interpolation" : "LINEAR",
                    "output" : 21
                },
                {
                    "input" : 16,
                    "interpolation" : "LINEAR",
                    "output" : 22
                }
            ]
        }
    ],
    "materials" : [
        {
            "doubleSided" : true,
            "name" : "Default OBJ",
            "pbrMetallicRoughness" : {
                "baseColorFactor" : [
                    0.8000000715255737,
                    0.055231474339962006,
                    0.04749448969960213,
                    1
                ],
                "metallicFactor" : 0,
                "roughnessFactor" : 0.30000001192092896
            }
        },
        {
            "doubleSided" : true,
            "name" : "Mat",
            "pbrMetallicRoughness" : {
                "baseColorFactor" : [
                    0.6579043865203857,
                    0.48435452580451965,
                    0.4362819194793701,
                    1
                ],
                "metallicFactor" : 0.5428571701049805,
                "roughnessFactor" : 0.7642977237701416
            }
        }
    ],
    "meshes" : [
        {
            "name" : "Vert",
            "primitives" : [
                {
                    "attributes" : {
                        "POSITION" : 0,
                        "NORMAL" : 1,
                        "TEXCOORD_0" : 2
                    },
                    "indices" : 3,
                    "material" : 0
                }
            ]
        },
        {
            "name" : "cartoon_hand",
            "primitives" : [
                {
                    "attributes" : {
                        "POSITION" : 4,
                        "NORMAL" : 5,
                        "TEXCOORD_0" : 6
                    },
                    "indices" : 7,
                    "material" : 1
                }
            ]
        }
    ],
    "accessors" : [
        {
            "bufferView" : 0,
            "componentType" : 5126,
            "count" : 1039,
            "max" : [
                1.3819489479064941,
                0.6391781568527222,
                0.030633335933089256
            ],
            "min" : [
                -1.3819559812545776,
                -0.6391781568527222,
                -2.331627607345581
            ],
            "type" : "VEC3"
        },
        {
            "bufferView" : 1,
            "componentType" : 5126,
            "count" : 1039,
            "type" : "VEC3"
        },
        {
            "bufferView" : 2,
            "componentType" : 5126,
            "count" : 1039,
            "type" : "VEC2"
        },
        {
            "bufferView" : 3,
            "componentType" : 5123,
            "count" : 4272,
            "type" : "SCALAR"
        },
        {
            "bufferView" : 4,
            "componentType" : 5126,
            "count" : 830,
            "max" : [
                27.834884643554688,
                47.64583969116211,
                11.743764877319336
            ],
            "min" : [
                -68.6150131225586,
                -36.23349380493164,
                -11.994107246398926
            ],
            "type" : "VEC3"
        },
        {
            "bufferView" : 5,
            "componentType" : 5126,
            "count" : 830,
            "type" : "VEC3"
        },
        {
            "bufferView" : 6,
            "componentType" : 5126,
            "count" : 830,
            "type" : "VEC2"
        },
        {
            "bufferView" : 7,
            "componentType" : 5123,
            "count" : 4182,
            "type" : "SCALAR"
        },
        {
            "bufferView" : 8,
            "componentType" : 5126,
            "count" : 201,
            "max" : [
                8.375
            ],
            "min" : [
                0.041666666666666664
            ],
            "type" : "SCALAR"
        },
        {
            "bufferView" : 9,
            "componentType" : 5126,
            "count" : 201,
            "type" : "VEC3"
        },
        {
            "bufferView" : 10,
            "componentType" : 5126,
            "count" : 201,
            "type" : "VEC4"
        },
        {
            "bufferView" : 11,
            "componentType" : 5126,
            "count" : 201,
            "type" : "VEC3"
        },
        {
            "bufferView" : 12,
            "componentType" : 5126,
            "count" : 200,
            "max" : [
                8.333333333333334
            ],
            "min" : [
                0.041666666666666664
            ],
            "type" : "SCALAR"
        },
        {
            "bufferView" : 13,
            "componentType" : 5126,
            "count" : 200,
            "type" : "VEC3"
        },
        {
            "bufferView" : 14,
            "componentType" : 5126,
            "count" : 200,
            "type" : "VEC4"
        },
        {
            "bufferView" : 15,
            "componentType" : 5126,
            "count" : 200,
            "type" : "VEC3"
        },
        {
            "bufferView" : 16,
            "componentType" : 5126,
            "count" : 50,
            "max" : [
                2.0833333333333335
            ],
            "min" : [
                0.041666666666666664
            ],
            "type" : "SCALAR"
        },
        {
            "bufferView" : 17,
            "componentType" : 5126,
            "count" : 50,
            "type" : "VEC3"
        },
        {
            "bufferView" : 18,
            "componentType" : 5126,
            "count" : 50,
            "type" : "VEC4"
        },
        {
            "bufferView" : 19,
            "componentType" : 5126,
            "count" : 50,
            "type" : "VEC3"
        },
        {
            "bufferView" : 20,
            "componentType" : 5126,
            "count" : 50,
            "type" : "VEC3"
        },
        {
            "bufferView" : 21,
            "componentType" : 5126,
            "count" : 50,
            "type" : "VEC4"
        },
        {
            "bufferView" : 22,
            "componentType" : 5126,
            "count" : 50,
            "type" : "VEC3"
        }
    ],
    "bufferViews" : [
        {
            "buffer" : 0,
            "byteLength" : 12468,
            "byteOffset" : 0
        },
        {
            "buffer" : 0,
            "byteLength" : 12468,
            "byteOffset" : 12468
        },
        {
            "buffer" : 0,
            "byteLength" : 8312,
            "byteOffset" : 24936
        },
        {
            "buffer" : 0,
            "byteLength" : 8544,
            "byteOffset" : 33248
        },
        {
            "buffer" : 0,
            "byteLength" : 9960,
            "byteOffset" : 41792
        },
        {
            "buffer" : 0,
            "byteLength" : 9960,
            "byteOffset" : 51752
        },
        {
            "buffer" : 0,
            "byteLength" : 6640,
            "byteOffset" : 61712
        },
        {
            "buffer" : 0,
            "byteLength" : 8364,
            "byteOffset" : 68352
        },
        {
            "buffer" : 0,
            "byteLength" : 804,
            "byteOffset" : 76716
        },
        {
            "buffer" : 0,
            "byteLength" : 2412,
            "byteOffset" : 77520
        },
        {
            "buffer" : 0,
            "byteLength" : 3216,
            "byteOffset" : 79932
        },
        {
            "buffer" : 0,
            "byteLength" : 2412,
            "byteOffset" : 83148
        },
        {
            "buffer" : 0,
            "byteLength" : 800,
            "byteOffset" : 85560
        },
        {
            "buffer" : 0,
            "byteLength" : 2400,
            "byteOffset" : 86360
        },
        {
            "buffer" : 0,
            "byteLength" : 3200,
            "byteOffset" : 88760
        },
        {
            "buffer" : 0,
            "byteLength" : 2400,
            "byteOffset" : 91960
        },
        {
            "buffer" : 0,
            "byteLength" : 200,
            "byteOffset" : 94360
        },
        {
            "buffer" : 0,
            "byteLength" : 600,
            "byteOffset" : 94560
        },
        {
            "buffer" : 0,
            "byteLength" : 800,
            "byteOffset" : 95160
        },
        {
            "buffer" : 0,
            "byteLength" : 600,
            "byteOffset" : 95960
        },
        {
            "buffer" : 0,
            "byteLength" : 600,
            "byteOffset" : 96560
        },
        {
            "buffer" : 0,
            "byteLength" : 800,
            "byteOffset" : 97160
        },
        {
            "buffer" : 0,
            "byteLength" : 600,
            "byteOffset" : 97960
        }
    ],
    "buffers" : [
        {
            "byteLength" : 98560,
            "uri" : "data:application/octet-stream;base64,"
        }
    ]
}
