{
    "asset" : {
        "generator" : "Khronos glTF Blender I/O v1.6.16",
        "version" : "2.0"
    },
    "scene" : 0,
    "scenes" : [
        {
            "name" : "Scene",
            "nodes" : [
                0,
                1,
                2,
                3,
                4
            ]
        }
    ],
    "nodes" : [
        {
            "mesh" : 0,
            "name" : "Torus",
            "rotation" : [
                0.7071068286895752,
                0,
                0,
                0.7071068286895752
            ],
            "scale" : [
                2.4880220890045166,
                2.4880220890045166,
                2.4880220890045166
            ],
            "translation" : [
                0,
                2.9237568378448486,
                0
            ]
        },
        {
            "mesh" : 1,
            "name" : "Text",
            "rotation" : [
                0.31250694394111633,
                -0.6343023180961609,
                -0.6343023180961609,
                0.31250691413879395
            ],
            "scale" : [
                0.3886191248893738,
                0.3886191248893738,
                0.3886191248893738
            ],
            "translation" : [
                0,
                3.2028801441192627,
                0
            ]
        },
        {
            "mesh" : 2,
            "name" : "Cylinder",
            "rotation" : [
                0.9771555662155151,
                0.2104918360710144,
                -0.006176312454044819,
                -0.028671981766819954
            ],
            "scale" : [
                0.2674439549446106,
                1.3530374765396118,
                0.2674439549446106
            ],
            "translation" : [
                0.0826520323753357,
                2.9752044677734375,
                -0.00022054188593756407
            ]
        },
        {
            "name" : "Point",
            "translation" : [
                0,
                3.8027913570404053,
                2.4695327281951904
            ]
        },
        {
            "name" : "Sun",
            "rotation" : [
                0.29149875044822693,
                -0.7014519572257996,
                -0.5149644017219543,
                0.3972471356391907
            ]
        }
    ],
    "animations" : [
        {
            "channels" : [
                {
                    "sampler" : 0,
                    "target" : {
                        "node" : 0,
                        "path" : "rotation"
                    }
                }
            ],
            "name" : "TorusAction",
            "samplers" : [
                {
                    "input" : 12,
                    "interpolation" : "LINEAR",
                    "output" : 13
                }
            ]
        },
        {
            "channels" : [
                {
                    "sampler" : 0,
                    "target" : {
                        "node" : 2,
                        "path" : "rotation"
                    }
                }
            ],
            "name" : "CylinderAction.001",
            "samplers" : [
                {
                    "input" : 12,
                    "interpolation" : "LINEAR",
                    "output" : 14
                }
            ]
        }
    ],
    "materials" : [
        {
            "doubleSided" : true,
            "name" : "Material.002",
            "pbrMetallicRoughness" : {
                "baseColorTexture" : {
                    "index" : 0
                },
                "roughnessFactor" : 0.1428571343421936
            }
        },
        {
            "doubleSided" : true,
            "name" : "Material.001",
            "pbrMetallicRoughness" : {
                "baseColorTexture" : {
                    "index" : 1
                },
                "metallicFactor" : 0,
                "roughnessFactor" : 0.5
            }
        }
    ],
    "meshes" : [
        {
            "name" : "Torus",
            "primitives" : [
                {
                    "attributes" : {
                        "POSITION" : 0,
                        "NORMAL" : 1,
                        "TEXCOORD_0" : 2
                    },
                    "indices" : 3,
                    "material" : 0
                }
            ]
        },
        {
            "name" : "Text",
            "primitives" : [
                {
                    "attributes" : {
                        "POSITION" : 4,
                        "NORMAL" : 5,
                        "TEXCOORD_0" : 6
                    },
                    "indices" : 7,
                    "material" : 0
                }
            ]
        },
        {
            "name" : "Cylinder",
            "primitives" : [
                {
                    "attributes" : {
                        "POSITION" : 8,
                        "NORMAL" : 9,
                        "TEXCOORD_0" : 10
                    },
                    "indices" : 11,
                    "material" : 1
                }
            ]
        }
    ],
    "textures" : [
        {
            "sampler" : 0,
            "source" : 0
        },
        {
            "sampler" : 0,
            "source" : 1
        }
    ],
    "images" : [
        {
            "bufferView" : 4,
            "mimeType" : "image/jpeg",
            "name" : "gold-polished-metal-steel-texture-gold-texture-seamless-pattern-light-realistic_38679-852"
        },
        {
            "bufferView" : 13,
            "mimeType" : "image/png",
            "name" : "Untitled"
        }
    ],
    "accessors" : [
        {
            "bufferView" : 0,
            "componentType" : 5126,
            "count" : 637,
            "max" : [
                1.0474196672439575,
                0.04742695391178131,
                1.0474196672439575
            ],
            "min" : [
                -1.0474194288253784,
                -0.047426968812942505,
                -1.0474194288253784
            ],
            "type" : "VEC3"
        },
        {
            "bufferView" : 1,
            "componentType" : 5126,
            "count" : 637,
            "type" : "VEC3"
        },
        {
            "bufferView" : 2,
            "componentType" : 5126,
            "count" : 637,
            "type" : "VEC2"
        },
        {
            "bufferView" : 3,
            "componentType" : 5123,
            "count" : 3456,
            "type" : "SCALAR"
        },
        {
            "bufferView" : 5,
            "componentType" : 5126,
            "count" : 6141,
            "max" : [
                -0.018496723845601082,
                0.253961980342865,
                7.1835408210754395
            ],
            "min" : [
                -7.170670509338379,
                -7.267315993431112e-08,
                -1.9580415487289429
            ],
            "type" : "VEC3"
        },
        {
            "bufferView" : 6,
            "componentType" : 5126,
            "count" : 6141,
            "type" : "VEC3"
        },
        {
            "bufferView" : 7,
            "componentType" : 5126,
            "count" : 6141,
            "type" : "VEC2"
        },
        {
            "bufferView" : 8,
            "componentType" : 5123,
            "count" : 8289,
            "type" : "SCALAR"
        },
        {
            "bufferView" : 9,
            "componentType" : 5126,
            "count" : 126,
            "max" : [
                4.109107971191406,
                1.0013842582702637,
                1.0118478536605835
            ],
            "min" : [
                -4.331488609313965,
                -1.0012524127960205,
                -1.0123406648635864
            ],
            "type" : "VEC3"
        },
        {
            "bufferView" : 10,
            "componentType" : 5126,
            "count" : 126,
            "type" : "VEC3"
        },
        {
            "bufferView" : 11,
            "componentType" : 5126,
            "count" : 126,
            "type" : "VEC2"
        },
        {
            "bufferView" : 12,
            "componentType" : 5123,
            "count" : 228,
            "type" : "SCALAR"
        },
        {
            "bufferView" : 14,
            "componentType" : 5126,
            "count" : 61,
            "max" : [
                2.5
            ],
            "min" : [
                0
            ],
            "type" : "SCALAR"
        },
        {
            "bufferView" : 15,
            "componentType" : 5126,
            "count" : 61,
            "type" : "VEC4"
        },
        {
            "bufferView" : 16,
            "componentType" : 5126,
            "count" : 61,
            "type" : "VEC4"
        }
    ],
    "bufferViews" : [
        {
            "buffer" : 0,
            "byteLength" : 7644,
            "byteOffset" : 0
        },
        {
            "buffer" : 0,
            "byteLength" : 7644,
            "byteOffset" : 7644
        },
        {
            "buffer" : 0,
            "byteLength" : 5096,
            "byteOffset" : 15288
        },
        {
            "buffer" : 0,
            "byteLength" : 6912,
            "byteOffset" : 20384
        },
        {
            "buffer" : 0,
            "byteLength" : 60568,
            "byteOffset" : 27296
        },
        {
            "buffer" : 0,
            "byteLength" : 73692,
            "byteOffset" : 87864
        },
        {
            "buffer" : 0,
            "byteLength" : 73692,
            "byteOffset" : 161556
        },
        {
            "buffer" : 0,
            "byteLength" : 49128,
            "byteOffset" : 235248
        },
        {
            "buffer" : 0,
            "byteLength" : 16578,
            "byteOffset" : 284376
        },
        {
            "buffer" : 0,
            "byteLength" : 1512,
            "byteOffset" : 300956
        },
        {
            "buffer" : 0,
            "byteLength" : 1512,
            "byteOffset" : 302468
        },
        {
            "buffer" : 0,
            "byteLength" : 1008,
            "byteOffset" : 303980
        },
        {
            "buffer" : 0,
            "byteLength" : 456,
            "byteOffset" : 304988
        },
        {
            "buffer" : 0,
            "byteLength" : 772418,
            "byteOffset" : 305444
        },
        {
            "buffer" : 0,
            "byteLength" : 244,
            "byteOffset" : 1077864
        },
        {
            "buffer" : 0,
            "byteLength" : 976,
            "byteOffset" : 1078108
        },
        {
            "buffer" : 0,
            "byteLength" : 976,
            "byteOffset" : 1079084
        }
    ],
    "samplers" : [
        {
            "magFilter" : 9729,
            "minFilter" : 9987
        }
    ],
    "buffers" : [
        {
            "byteLength" : 1080060,
            "uri" : "data:application/octet-stream;base64,"
        }
    ]
}
