{
    "asset" : {
        "generator" : "Khronos glTF Blender I/O v1.6.16",
        "version" : "2.0"
    },
    "scene" : 0,
    "scenes" : [
        {
            "name" : "Scene",
            "nodes" : [
                0,
                1
            ]
        }
    ],
    "nodes" : [
        {
            "mesh" : 0,
            "name" : "InnerArrow",
            "scale" : [
                0.10751111060380936,
                0.17963752150535583,
                0.07395467907190323
            ],
            "translation" : [
                0.12217482179403305,
                0.8625938296318054,
                0
            ]
        },
        {
            "mesh" : 1,
            "name" : "OuterArrow",
            "scale" : [
                0.10751111060380936,
                0.17963752150535583,
                0.07395467907190323
            ],
            "translation" : [
                0.12217482179403305,
                0.8633906245231628,
                0
            ]
        }
    ],
    "animations" : [
        {
            "channels" : [
                {
                    "sampler" : 0,
                    "target" : {
                        "node" : 0,
                        "path" : "translation"
                    }
                },
                {
                    "sampler" : 1,
                    "target" : {
                        "node" : 0,
                        "path" : "rotation"
                    }
                },
                {
                    "sampler" : 2,
                    "target" : {
                        "node" : 0,
                        "path" : "scale"
                    }
                },
                {
                    "sampler" : 3,
                    "target" : {
                        "node" : 1,
                        "path" : "translation"
                    }
                },
                {
                    "sampler" : 4,
                    "target" : {
                        "node" : 1,
                        "path" : "rotation"
                    }
                },
                {
                    "sampler" : 5,
                    "target" : {
                        "node" : 1,
                        "path" : "scale"
                    }
                }
            ],
            "name" : "Idle",
            "samplers" : [
                {
                    "input" : 8,
                    "interpolation" : "LINEAR",
                    "output" : 9
                },
                {
                    "input" : 8,
                    "interpolation" : "LINEAR",
                    "output" : 10
                },
                {
                    "input" : 8,
                    "interpolation" : "LINEAR",
                    "output" : 11
                },
                {
                    "input" : 8,
                    "interpolation" : "LINEAR",
                    "output" : 12
                },
                {
                    "input" : 8,
                    "interpolation" : "LINEAR",
                    "output" : 13
                },
                {
                    "input" : 8,
                    "interpolation" : "LINEAR",
                    "output" : 14
                }
            ]
        },
        {
            "channels" : [
                {
                    "sampler" : 0,
                    "target" : {
                        "node" : 0,
                        "path" : "translation"
                    }
                },
                {
                    "sampler" : 1,
                    "target" : {
                        "node" : 0,
                        "path" : "rotation"
                    }
                },
                {
                    "sampler" : 2,
                    "target" : {
                        "node" : 0,
                        "path" : "scale"
                    }
                },
                {
                    "sampler" : 3,
                    "target" : {
                        "node" : 1,
                        "path" : "translation"
                    }
                },
                {
                    "sampler" : 4,
                    "target" : {
                        "node" : 1,
                        "path" : "rotation"
                    }
                },
                {
                    "sampler" : 5,
                    "target" : {
                        "node" : 1,
                        "path" : "scale"
                    }
                }
            ],
            "name" : "Start",
            "samplers" : [
                {
                    "input" : 15,
                    "interpolation" : "LINEAR",
                    "output" : 16
                },
                {
                    "input" : 15,
                    "interpolation" : "LINEAR",
                    "output" : 17
                },
                {
                    "input" : 15,
                    "interpolation" : "LINEAR",
                    "output" : 18
                },
                {
                    "input" : 15,
                    "interpolation" : "LINEAR",
                    "output" : 19
                },
                {
                    "input" : 15,
                    "interpolation" : "LINEAR",
                    "output" : 20
                },
                {
                    "input" : 15,
                    "interpolation" : "LINEAR",
                    "output" : 21
                }
            ]
        }
    ],
    "materials" : [
        {
            "doubleSided" : true,
            "name" : "Material.001",
            "pbrMetallicRoughness" : {
                "baseColorFactor" : [
                    0.800000011920929,
                    0.800000011920929,
                    0.800000011920929,
                    1
                ],
                "metallicFactor" : 0.25,
                "roughnessFactor" : 0.6060606241226196
            }
        },
        {
            "doubleSided" : true,
            "name" : "Land",
            "pbrMetallicRoughness" : {
                "baseColorFactor" : [
                    0.029556840658187866,
                    0.32314333319664,
                    0.32314333319664,
                    1
                ],
                "metallicFactor" : 0
            }
        }
    ],
    "meshes" : [
        {
            "name" : "Cube.001",
            "primitives" : [
                {
                    "attributes" : {
                        "POSITION" : 0,
                        "NORMAL" : 1,
                        "TEXCOORD_0" : 2
                    },
                    "indices" : 3,
                    "material" : 0
                }
            ]
        },
        {
            "name" : "Cube.003",
            "primitives" : [
                {
                    "attributes" : {
                        "POSITION" : 4,
                        "NORMAL" : 5,
                        "TEXCOORD_0" : 6
                    },
                    "indices" : 7,
                    "material" : 1
                }
            ]
        }
    ],
    "accessors" : [
        {
            "bufferView" : 0,
            "componentType" : 5126,
            "count" : 172,
            "max" : [
                1.544683814048767,
                0.827002763748169,
                0.9934537410736084
            ],
            "min" : [
                -1.544683814048767,
                -2.479001522064209,
                -0.9934538006782532
            ],
            "type" : "VEC3"
        },
        {
            "bufferView" : 1,
            "componentType" : 5126,
            "count" : 172,
            "type" : "VEC3"
        },
        {
            "bufferView" : 2,
            "componentType" : 5126,
            "count" : 172,
            "type" : "VEC2"
        },
        {
            "bufferView" : 3,
            "componentType" : 5123,
            "count" : 612,
            "type" : "SCALAR"
        },
        {
            "bufferView" : 4,
            "componentType" : 5126,
            "count" : 276,
            "max" : [
                2.284632444381714,
                1.0708537101745605,
                0.6237121820449829
            ],
            "min" : [
                -2.284632444381714,
                -2.807912826538086,
                -0.6237121820449829
            ],
            "type" : "VEC3"
        },
        {
            "bufferView" : 5,
            "componentType" : 5126,
            "count" : 276,
            "type" : "VEC3"
        },
        {
            "bufferView" : 6,
            "componentType" : 5126,
            "count" : 276,
            "type" : "VEC2"
        },
        {
            "bufferView" : 7,
            "componentType" : 5123,
            "count" : 924,
            "type" : "SCALAR"
        },
        {
            "bufferView" : 8,
            "componentType" : 5126,
            "count" : 81,
            "max" : [
                3.375
            ],
            "min" : [
                0.041666666666666664
            ],
            "type" : "SCALAR"
        },
        {
            "bufferView" : 9,
            "componentType" : 5126,
            "count" : 81,
            "type" : "VEC3"
        },
        {
            "bufferView" : 10,
            "componentType" : 5126,
            "count" : 81,
            "type" : "VEC4"
        },
        {
            "bufferView" : 11,
            "componentType" : 5126,
            "count" : 81,
            "type" : "VEC3"
        },
        {
            "bufferView" : 12,
            "componentType" : 5126,
            "count" : 81,
            "type" : "VEC3"
        },
        {
            "bufferView" : 13,
            "componentType" : 5126,
            "count" : 81,
            "type" : "VEC4"
        },
        {
            "bufferView" : 14,
            "componentType" : 5126,
            "count" : 81,
            "type" : "VEC3"
        },
        {
            "bufferView" : 15,
            "componentType" : 5126,
            "count" : 61,
            "max" : [
                3.3333333333333335
            ],
            "min" : [
                0.8333333333333334
            ],
            "type" : "SCALAR"
        },
        {
            "bufferView" : 16,
            "componentType" : 5126,
            "count" : 61,
            "type" : "VEC3"
        },
        {
            "bufferView" : 17,
            "componentType" : 5126,
            "count" : 61,
            "type" : "VEC4"
        },
        {
            "bufferView" : 18,
            "componentType" : 5126,
            "count" : 61,
            "type" : "VEC3"
        },
        {
            "bufferView" : 19,
            "componentType" : 5126,
            "count" : 61,
            "type" : "VEC3"
        },
        {
            "bufferView" : 20,
            "componentType" : 5126,
            "count" : 61,
            "type" : "VEC4"
        },
        {
            "bufferView" : 21,
            "componentType" : 5126,
            "count" : 61,
            "type" : "VEC3"
        }
    ],
    "bufferViews" : [
        {
            "buffer" : 0,
            "byteLength" : 2064,
            "byteOffset" : 0
        },
        {
            "buffer" : 0,
            "byteLength" : 2064,
            "byteOffset" : 2064
        },
        {
            "buffer" : 0,
            "byteLength" : 1376,
            "byteOffset" : 4128
        },
        {
            "buffer" : 0,
            "byteLength" : 1224,
            "byteOffset" : 5504
        },
        {
            "buffer" : 0,
            "byteLength" : 3312,
            "byteOffset" : 6728
        },
        {
            "buffer" : 0,
            "byteLength" : 3312,
            "byteOffset" : 10040
        },
        {
            "buffer" : 0,
            "byteLength" : 2208,
            "byteOffset" : 13352
        },
        {
            "buffer" : 0,
            "byteLength" : 1848,
            "byteOffset" : 15560
        },
        {
            "buffer" : 0,
            "byteLength" : 324,
            "byteOffset" : 17408
        },
        {
            "buffer" : 0,
            "byteLength" : 972,
            "byteOffset" : 17732
        },
        {
            "buffer" : 0,
            "byteLength" : 1296,
            "byteOffset" : 18704
        },
        {
            "buffer" : 0,
            "byteLength" : 972,
            "byteOffset" : 20000
        },
        {
            "buffer" : 0,
            "byteLength" : 972,
            "byteOffset" : 20972
        },
        {
            "buffer" : 0,
            "byteLength" : 1296,
            "byteOffset" : 21944
        },
        {
            "buffer" : 0,
            "byteLength" : 972,
            "byteOffset" : 23240
        },
        {
            "buffer" : 0,
            "byteLength" : 244,
            "byteOffset" : 24212
        },
        {
            "buffer" : 0,
            "byteLength" : 732,
            "byteOffset" : 24456
        },
        {
            "buffer" : 0,
            "byteLength" : 976,
            "byteOffset" : 25188
        },
        {
            "buffer" : 0,
            "byteLength" : 732,
            "byteOffset" : 26164
        },
        {
            "buffer" : 0,
            "byteLength" : 732,
            "byteOffset" : 26896
        },
        {
            "buffer" : 0,
            "byteLength" : 976,
            "byteOffset" : 27628
        },
        {
            "buffer" : 0,
            "byteLength" : 732,
            "byteOffset" : 28604
        }
    ],
    "buffers" : [
        {
            "byteLength" : 29336,
            "uri" : "data:application/octet-stream;base64,"
        }
    ]
}
