{
    "asset" : {
        "generator" : "Khronos glTF Blender I/O v1.6.16",
        "version" : "2.0"
    },
    "scene" : 0,
    "scenes" : [
        {
            "name" : "Scene",
            "nodes" : [
                0
            ]
        }
    ],
    "nodes" : [
        {
            "mesh" : 0,
            "name" : "FullScreen",
            "scale" : [
                0.29454851150512695,
                0.29454851150512695,
                0.16283579170703888
            ],
            "translation" : [
                -3.314018249511719e-05,
                -0.003265857696533203,
                0.018091201782226562
            ]
        }
    ],
    "materials" : [
        {
            "doubleSided" : true,
            "name" : "DFEColour",
            "pbrMetallicRoughness" : {
                "baseColorFactor" : [
                    1,
                    0.9683251976966858,
                    0.9779942035675049,
                    1
                ],
                "metallicFactor" : 0
            }
        },
        {
            "doubleSided" : true,
            "name" : "DFEMat",
            "pbrMetallicRoughness" : {
                "baseColorFactor" : [
                    0.010329872369766235,
                    0.4677838683128357,
                    0.48514994978904724,
                    1
                ],
                "metallicFactor" : 0
            }
        }
    ],
    "meshes" : [
        {
            "name" : "Cube.002",
            "primitives" : [
                {
                    "attributes" : {
                        "POSITION" : 0,
                        "NORMAL" : 1,
                        "TEXCOORD_0" : 2
                    },
                    "indices" : 3,
                    "material" : 0
                },
                {
                    "attributes" : {
                        "POSITION" : 4,
                        "NORMAL" : 5,
                        "TEXCOORD_0" : 6
                    },
                    "indices" : 7,
                    "material" : 1
                }
            ]
        }
    ],
    "accessors" : [
        {
            "bufferView" : 0,
            "componentType" : 5126,
            "count" : 208,
            "max" : [
                2.4963982105255127,
                2.5008366107940674,
                0.9999914169311523
            ],
            "min" : [
                -2.4963982105255127,
                -2.5008366107940674,
                -1.0000085830688477
            ],
            "type" : "VEC3"
        },
        {
            "bufferView" : 1,
            "componentType" : 5126,
            "count" : 208,
            "type" : "VEC3"
        },
        {
            "bufferView" : 2,
            "componentType" : 5126,
            "count" : 208,
            "type" : "VEC2"
        },
        {
            "bufferView" : 3,
            "componentType" : 5123,
            "count" : 336,
            "type" : "SCALAR"
        },
        {
            "bufferView" : 4,
            "componentType" : 5126,
            "count" : 196,
            "max" : [
                4.321458339691162,
                4.296789169311523,
                0.43392255902290344
            ],
            "min" : [
                -4.272120952606201,
                -4.29679012298584,
                -0.43392255902290344
            ],
            "type" : "VEC3"
        },
        {
            "bufferView" : 5,
            "componentType" : 5126,
            "count" : 196,
            "type" : "VEC3"
        },
        {
            "bufferView" : 6,
            "componentType" : 5126,
            "count" : 196,
            "type" : "VEC2"
        },
        {
            "bufferView" : 7,
            "componentType" : 5123,
            "count" : 768,
            "type" : "SCALAR"
        }
    ],
    "bufferViews" : [
        {
            "buffer" : 0,
            "byteLength" : 2496,
            "byteOffset" : 0
        },
        {
            "buffer" : 0,
            "byteLength" : 2496,
            "byteOffset" : 2496
        },
        {
            "buffer" : 0,
            "byteLength" : 1664,
            "byteOffset" : 4992
        },
        {
            "buffer" : 0,
            "byteLength" : 672,
            "byteOffset" : 6656
        },
        {
            "buffer" : 0,
            "byteLength" : 2352,
            "byteOffset" : 7328
        },
        {
            "buffer" : 0,
            "byteLength" : 2352,
            "byteOffset" : 9680
        },
        {
            "buffer" : 0,
            "byteLength" : 1568,
            "byteOffset" : 12032
        },
        {
            "buffer" : 0,
            "byteLength" : 1536,
            "byteOffset" : 13600
        }
    ],
    "buffers" : [
        {
            "byteLength" : 15136,
            "uri" : "data:application/octet-stream;base64,"
        }
    ]
}
