{
    "asset" : {
        "generator" : "Khronos glTF Blender I/O v1.6.16",
        "version" : "2.0"
    },
    "scene" : 0,
    "scenes" : [
        {
            "name" : "Scene",
            "nodes" : [
                0
            ]
        }
    ],
    "nodes" : [
        {
            "mesh" : 0,
            "name" : "Pause",
            "rotation" : [
                0.7071068286895752,
                0,
                0,
                0.7071068286895752
            ],
            "scale" : [
                1.2656129598617554,
                0.0498146116733551,
                1.2656129598617554
            ],
            "translation" : [
                -0.01837470382452011,
                -0.0032660646829754114,
                0.018091201782226562
            ]
        }
    ],
    "materials" : [
        {
            "doubleSided" : true,
            "name" : "DFEMat",
            "pbrMetallicRoughness" : {
                "baseColorFactor" : [
                    0.010329872369766235,
                    0.4677838683128357,
                    0.48514994978904724,
                    1
                ],
                "metallicFactor" : 0
            }
        },
        {
            "doubleSided" : true,
            "name" : "DFEColour",
            "pbrMetallicRoughness" : {
                "baseColorFactor" : [
                    1,
                    0.9683251976966858,
                    0.9779942035675049,
                    1
                ],
                "metallicFactor" : 0
            }
        }
    ],
    "meshes" : [
        {
            "name" : "Cylinder.001",
            "primitives" : [
                {
                    "attributes" : {
                        "POSITION" : 0,
                        "NORMAL" : 1,
                        "TEXCOORD_0" : 2
                    },
                    "indices" : 3,
                    "material" : 0
                },
                {
                    "attributes" : {
                        "POSITION" : 4,
                        "NORMAL" : 5,
                        "TEXCOORD_0" : 6
                    },
                    "indices" : 7,
                    "material" : 1
                }
            ]
        }
    ],
    "accessors" : [
        {
            "bufferView" : 0,
            "componentType" : 5126,
            "count" : 196,
            "max" : [
                1,
                1.4184207916259766,
                1
            ],
            "min" : [
                -1,
                -1.4184207916259766,
                -1
            ],
            "type" : "VEC3"
        },
        {
            "bufferView" : 1,
            "componentType" : 5126,
            "count" : 196,
            "type" : "VEC3"
        },
        {
            "bufferView" : 2,
            "componentType" : 5126,
            "count" : 196,
            "type" : "VEC2"
        },
        {
            "bufferView" : 3,
            "componentType" : 5123,
            "count" : 768,
            "type" : "SCALAR"
        },
        {
            "bufferView" : 4,
            "componentType" : 5126,
            "count" : 192,
            "max" : [
                0.5479627251625061,
                3.3894026279449463,
                0.6891499757766724
            ],
            "min" : [
                -0.5189787149429321,
                -3.389394998550415,
                -0.6844582557678223
            ],
            "type" : "VEC3"
        },
        {
            "bufferView" : 5,
            "componentType" : 5126,
            "count" : 192,
            "type" : "VEC3"
        },
        {
            "bufferView" : 6,
            "componentType" : 5126,
            "count" : 192,
            "type" : "VEC2"
        },
        {
            "bufferView" : 7,
            "componentType" : 5123,
            "count" : 264,
            "type" : "SCALAR"
        }
    ],
    "bufferViews" : [
        {
            "buffer" : 0,
            "byteLength" : 2352,
            "byteOffset" : 0
        },
        {
            "buffer" : 0,
            "byteLength" : 2352,
            "byteOffset" : 2352
        },
        {
            "buffer" : 0,
            "byteLength" : 1568,
            "byteOffset" : 4704
        },
        {
            "buffer" : 0,
            "byteLength" : 1536,
            "byteOffset" : 6272
        },
        {
            "buffer" : 0,
            "byteLength" : 2304,
            "byteOffset" : 7808
        },
        {
            "buffer" : 0,
            "byteLength" : 2304,
            "byteOffset" : 10112
        },
        {
            "buffer" : 0,
            "byteLength" : 1536,
            "byteOffset" : 12416
        },
        {
            "buffer" : 0,
            "byteLength" : 528,
            "byteOffset" : 13952
        }
    ],
    "buffers" : [
        {
            "byteLength" : 14480,
            "uri" : "data:application/octet-stream;base64,"
        }
    ]
}
