{
    "asset" : {
        "generator" : "Khronos glTF Blender I/O v1.6.16",
        "version" : "2.0"
    },
    "scene" : 0,
    "scenes" : [
        {
            "name" : "Scene",
            "nodes" : [
                0,
                1,
                2,
                3,
                4,
                5,
                6,
                7
            ]
        }
    ],
    "nodes" : [
        {
            "mesh" : 0,
            "name" : "Trophy",
            "scale" : [
                24.583377838134766,
                51.238792419433594,
                24.583377838134766
            ],
            "translation" : [
                -1.5517657995224,
                25.924102783203125,
                -4.067788600921631
            ]
        },
        {
            "mesh" : 1,
            "name" : "Cube",
            "scale" : [
                18.157957077026367,
                12.34012222290039,
                18.021961212158203
            ],
            "translation" : [
                -1.255568027496338,
                -0.7521820068359375,
                -4.106500625610352
            ]
        },
        {
            "mesh" : 2,
            "name" : "Torus.001",
            "rotation" : [
                0.704416036605835,
                -0.06162841618061066,
                -0.06162841245532036,
                0.704416036605835
            ],
            "scale" : [
                3.8176300525665283,
                5.667703628540039,
                5.667703628540039
            ],
            "translation" : [
                24.40472984313965,
                61.270782470703125,
                -1.7143821716308594
            ]
        },
        {
            "mesh" : 3,
            "name" : "Africa",
            "rotation" : [
                0.7010574340820312,
                -0.09229596704244614,
                0.09229596704244614,
                0.7010573744773865
            ],
            "scale" : [
                80.54448699951172,
                47.06440734863281,
                80.54449462890625
            ],
            "translation" : [
                0.6737546920776367,
                78.15355682373047,
                -2.7507035732269287
            ]
        },
        {
            "mesh" : 4,
            "name" : "USA",
            "rotation" : [
                0.7010574340820312,
                -0.09229596704244614,
                0.09229596704244614,
                0.7010573744773865
            ],
            "scale" : [
                80.54448699951172,
                47.06440734863281,
                80.54449462890625
            ],
            "translation" : [
                0.6737546920776367,
                78.15355682373047,
                -2.7507035732269287
            ]
        },
        {
            "mesh" : 5,
            "name" : "AUNZ",
            "rotation" : [
                0.4957224726676941,
                -0.06526309996843338,
                0.11303901672363281,
                0.8586164712905884
            ],
            "scale" : [
                80.54448699951172,
                47.06440353393555,
                80.54449462890625
            ],
            "translation" : [
                0.6737546920776367,
                78.15355682373047,
                -3.507117986679077
            ]
        },
        {
            "mesh" : 6,
            "name" : "Continent",
            "rotation" : [
                0.7010574340820312,
                -0.09229596704244614,
                0.09229596704244614,
                0.7010573744773865
            ],
            "scale" : [
                80.54448699951172,
                47.06440734863281,
                80.54449462890625
            ],
            "translation" : [
                0.6737546920776367,
                78.15355682373047,
                -2.7507035732269287
            ]
        },
        {
            "mesh" : 7,
            "name" : "Bottom.001",
            "rotation" : [
                0.9914448857307434,
                0,
                -0.13052618503570557,
                7.740252527810298e-08
            ],
            "scale" : [
                19.861217498779297,
                19.861217498779297,
                19.861217498779297
            ],
            "translation" : [
                -1.0846158266067505,
                76.89469909667969,
                -3.816181182861328
            ]
        }
    ],
    "materials" : [
        {
            "doubleSided" : true,
            "name" : "TrophyMetal",
            "pbrMetallicRoughness" : {
                "baseColorTexture" : {
                    "index" : 0
                },
                "metallicFactor" : 0.9727272987365723,
                "roughnessFactor" : 0.11212117969989777
            }
        },
        {
            "doubleSided" : true,
            "name" : "Wood",
            "pbrMetallicRoughness" : {
                "baseColorTexture" : {
                    "index" : 1
                },
                "metallicFactor" : 0,
                "roughnessFactor" : 0.699999988079071
            }
        },
        {
            "doubleSided" : true,
            "name" : "Land",
            "pbrMetallicRoughness" : {
                "baseColorFactor" : [
                    0.029556840658187866,
                    0.32314333319664,
                    0.32314333319664,
                    1
                ],
                "metallicFactor" : 0
            }
        },
        {
            "doubleSided" : true,
            "name" : "Material.001",
            "pbrMetallicRoughness" : {
                "baseColorFactor" : [
                    0.08411858975887299,
                    0.13182181119918823,
                    0.4681728184223175,
                    1
                ],
                "metallicFactor" : 0.10000000149011612,
                "roughnessFactor" : 0.8999999761581421
            }
        }
    ],
    "meshes" : [
        {
            "name" : "Cylinder.003",
            "primitives" : [
                {
                    "attributes" : {
                        "POSITION" : 0,
                        "NORMAL" : 1,
                        "TEXCOORD_0" : 2
                    },
                    "indices" : 3,
                    "material" : 0
                }
            ]
        },
        {
            "name" : "Cube",
            "primitives" : [
                {
                    "attributes" : {
                        "POSITION" : 4,
                        "NORMAL" : 5,
                        "TEXCOORD_0" : 6
                    },
                    "indices" : 7,
                    "material" : 1
                }
            ]
        },
        {
            "name" : "Torus.001",
            "primitives" : [
                {
                    "attributes" : {
                        "POSITION" : 8,
                        "NORMAL" : 9,
                        "TEXCOORD_0" : 10
                    },
                    "indices" : 11,
                    "material" : 0
                }
            ]
        },
        {
            "name" : "DZ.004",
            "primitives" : [
                {
                    "attributes" : {
                        "POSITION" : 12,
                        "NORMAL" : 13,
                        "TEXCOORD_0" : 14
                    },
                    "indices" : 15,
                    "material" : 2
                }
            ]
        },
        {
            "name" : "DZ.003",
            "primitives" : [
                {
                    "attributes" : {
                        "POSITION" : 16,
                        "NORMAL" : 17,
                        "TEXCOORD_0" : 18
                    },
                    "indices" : 19,
                    "material" : 2
                }
            ]
        },
        {
            "name" : "DZ.001",
            "primitives" : [
                {
                    "attributes" : {
                        "POSITION" : 20,
                        "NORMAL" : 21,
                        "TEXCOORD_0" : 22
                    },
                    "indices" : 23,
                    "material" : 2
                }
            ]
        },
        {
            "name" : "DZ.002",
            "primitives" : [
                {
                    "attributes" : {
                        "POSITION" : 24,
                        "NORMAL" : 25,
                        "TEXCOORD_0" : 26
                    },
                    "indices" : 27,
                    "material" : 2
                }
            ]
        },
        {
            "name" : "Sphere.002",
            "primitives" : [
                {
                    "attributes" : {
                        "POSITION" : 28,
                        "NORMAL" : 29,
                        "TEXCOORD_0" : 30
                    },
                    "indices" : 31,
                    "material" : 3
                }
            ]
        }
    ],
    "textures" : [
        {
            "sampler" : 0,
            "source" : 0
        },
        {
            "sampler" : 0,
            "source" : 1
        }
    ],
    "images" : [
        {
            "bufferView" : 4,
            "mimeType" : "image/png",
            "name" : "TexturesCom_Metal_BrassPolished_1K_albedo"
        },
        {
            "bufferView" : 9,
            "mimeType" : "image/png",
            "name" : "TextureUV"
        }
    ],
    "accessors" : [
        {
            "bufferView" : 0,
            "componentType" : 5126,
            "count" : 453,
            "max" : [
                0.9817208051681519,
                1.0000001192092896,
                0.9816154837608337
            ],
            "min" : [
                -0.9815102815628052,
                -0.2797911763191223,
                -0.9816154837608337
            ],
            "type" : "VEC3"
        },
        {
            "bufferView" : 1,
            "componentType" : 5126,
            "count" : 453,
            "type" : "VEC3"
        },
        {
            "bufferView" : 2,
            "componentType" : 5126,
            "count" : 453,
            "type" : "VEC2"
        },
        {
            "bufferView" : 3,
            "componentType" : 5123,
            "count" : 2016,
            "type" : "SCALAR"
        },
        {
            "bufferView" : 5,
            "componentType" : 5126,
            "count" : 24,
            "max" : [
                1,
                1,
                1
            ],
            "min" : [
                -1,
                -0.1577581763267517,
                -1
            ],
            "type" : "VEC3"
        },
        {
            "bufferView" : 6,
            "componentType" : 5126,
            "count" : 24,
            "type" : "VEC3"
        },
        {
            "bufferView" : 7,
            "componentType" : 5126,
            "count" : 24,
            "type" : "VEC2"
        },
        {
            "bufferView" : 8,
            "componentType" : 5123,
            "count" : 36,
            "type" : "SCALAR"
        },
        {
            "bufferView" : 10,
            "componentType" : 5126,
            "count" : 362,
            "max" : [
                2.1262013912200928,
                0.2255922555923462,
                2.1262013912200928
            ],
            "min" : [
                -1.8413445949554443,
                -0.2255922555923462,
                -2.1262013912200928
            ],
            "type" : "VEC3"
        },
        {
            "bufferView" : 11,
            "componentType" : 5126,
            "count" : 362,
            "type" : "VEC3"
        },
        {
            "bufferView" : 12,
            "componentType" : 5126,
            "count" : 362,
            "type" : "VEC2"
        },
        {
            "bufferView" : 13,
            "componentType" : 5123,
            "count" : 1824,
            "type" : "SCALAR"
        },
        {
            "bufferView" : 14,
            "componentType" : 5126,
            "count" : 188,
            "max" : [
                -0.11763504147529602,
                0.3505585193634033,
                0.0672040656208992
            ],
            "min" : [
                -0.30024513602256775,
                -0.027215808629989624,
                -0.22934408485889435
            ],
            "type" : "VEC3"
        },
        {
            "bufferView" : 15,
            "componentType" : 5126,
            "count" : 188,
            "type" : "VEC3"
        },
        {
            "bufferView" : 16,
            "componentType" : 5126,
            "count" : 188,
            "type" : "VEC2"
        },
        {
            "bufferView" : 17,
            "componentType" : 5123,
            "count" : 648,
            "type" : "SCALAR"
        },
        {
            "bufferView" : 18,
            "componentType" : 5126,
            "count" : 476,
            "max" : [
                0.23969610035419464,
                0.10126753896474838,
                0.06645440310239792
            ],
            "min" : [
                -0.09874632954597473,
                -0.4748722314834595,
                -0.21680901944637299
            ],
            "type" : "VEC3"
        },
        {
            "bufferView" : 19,
            "componentType" : 5126,
            "count" : 476,
            "type" : "VEC3"
        },
        {
            "bufferView" : 20,
            "componentType" : 5126,
            "count" : 476,
            "type" : "VEC2"
        },
        {
            "bufferView" : 21,
            "componentType" : 5123,
            "count" : 1854,
            "type" : "SCALAR"
        },
        {
            "bufferView" : 22,
            "componentType" : 5126,
            "count" : 474,
            "max" : [
                0.1649337261915207,
                0.4745959937572479,
                0.122209832072258
            ],
            "min" : [
                -0.09899819642305374,
                0.351688414812088,
                -0.10707926750183105
            ],
            "type" : "VEC3"
        },
        {
            "bufferView" : 23,
            "componentType" : 5126,
            "count" : 474,
            "type" : "VEC3"
        },
        {
            "bufferView" : 24,
            "componentType" : 5126,
            "count" : 474,
            "type" : "VEC2"
        },
        {
            "bufferView" : 25,
            "componentType" : 5123,
            "count" : 1950,
            "type" : "SCALAR"
        },
        {
            "bufferView" : 26,
            "componentType" : 5126,
            "count" : 323,
            "max" : [
                -0.058497458696365356,
                -0.05147436261177063,
                -0.1445304900407791
            ],
            "min" : [
                -0.1784411072731018,
                -0.3096325993537903,
                -0.2432527095079422
            ],
            "type" : "VEC3"
        },
        {
            "bufferView" : 27,
            "componentType" : 5126,
            "count" : 323,
            "type" : "VEC3"
        },
        {
            "bufferView" : 28,
            "componentType" : 5126,
            "count" : 323,
            "type" : "VEC2"
        },
        {
            "bufferView" : 29,
            "componentType" : 5123,
            "count" : 1326,
            "type" : "SCALAR"
        },
        {
            "bufferView" : 30,
            "componentType" : 5126,
            "count" : 349,
            "max" : [
                1.0717027187347412,
                -9.325926657766104e-05,
                1.0717002153396606
            ],
            "min" : [
                -1.071706771850586,
                -1.0592544078826904,
                -1.071709394454956
            ],
            "type" : "VEC3"
        },
        {
            "bufferView" : 31,
            "componentType" : 5126,
            "count" : 349,
            "type" : "VEC3"
        },
        {
            "bufferView" : 32,
            "componentType" : 5126,
            "count" : 349,
            "type" : "VEC2"
        },
        {
            "bufferView" : 33,
            "componentType" : 5123,
            "count" : 1824,
            "type" : "SCALAR"
        }
    ],
    "bufferViews" : [
        {
            "buffer" : 0,
            "byteLength" : 5436,
            "byteOffset" : 0
        },
        {
            "buffer" : 0,
            "byteLength" : 5436,
            "byteOffset" : 5436
        },
        {
            "buffer" : 0,
            "byteLength" : 3624,
            "byteOffset" : 10872
        },
        {
            "buffer" : 0,
            "byteLength" : 4032,
            "byteOffset" : 14496
        },
        {
            "buffer" : 0,
            "byteLength" : 1066958,
            "byteOffset" : 18528
        },
        {
            "buffer" : 0,
            "byteLength" : 288,
            "byteOffset" : 1085488
        },
        {
            "buffer" : 0,
            "byteLength" : 288,
            "byteOffset" : 1085776
        },
        {
            "buffer" : 0,
            "byteLength" : 192,
            "byteOffset" : 1086064
        },
        {
            "buffer" : 0,
            "byteLength" : 72,
            "byteOffset" : 1086256
        },
        {
            "buffer" : 0,
            "byteLength" : 1372601,
            "byteOffset" : 1086328
        },
        {
            "buffer" : 0,
            "byteLength" : 4344,
            "byteOffset" : 2458932
        },
        {
            "buffer" : 0,
            "byteLength" : 4344,
            "byteOffset" : 2463276
        },
        {
            "buffer" : 0,
            "byteLength" : 2896,
            "byteOffset" : 2467620
        },
        {
            "buffer" : 0,
            "byteLength" : 3648,
            "byteOffset" : 2470516
        },
        {
            "buffer" : 0,
            "byteLength" : 2256,
            "byteOffset" : 2474164
        },
        {
            "buffer" : 0,
            "byteLength" : 2256,
            "byteOffset" : 2476420
        },
        {
            "buffer" : 0,
            "byteLength" : 1504,
            "byteOffset" : 2478676
        },
        {
            "buffer" : 0,
            "byteLength" : 1296,
            "byteOffset" : 2480180
        },
        {
            "buffer" : 0,
            "byteLength" : 5712,
            "byteOffset" : 2481476
        },
        {
            "buffer" : 0,
            "byteLength" : 5712,
            "byteOffset" : 2487188
        },
        {
            "buffer" : 0,
            "byteLength" : 3808,
            "byteOffset" : 2492900
        },
        {
            "buffer" : 0,
            "byteLength" : 3708,
            "byteOffset" : 2496708
        },
        {
            "buffer" : 0,
            "byteLength" : 5688,
            "byteOffset" : 2500416
        },
        {
            "buffer" : 0,
            "byteLength" : 5688,
            "byteOffset" : 2506104
        },
        {
            "buffer" : 0,
            "byteLength" : 3792,
            "byteOffset" : 2511792
        },
        {
            "buffer" : 0,
            "byteLength" : 3900,
            "byteOffset" : 2515584
        },
        {
            "buffer" : 0,
            "byteLength" : 3876,
            "byteOffset" : 2519484
        },
        {
            "buffer" : 0,
            "byteLength" : 3876,
            "byteOffset" : 2523360
        },
        {
            "buffer" : 0,
            "byteLength" : 2584,
            "byteOffset" : 2527236
        },
        {
            "buffer" : 0,
            "byteLength" : 2652,
            "byteOffset" : 2529820
        },
        {
            "buffer" : 0,
            "byteLength" : 4188,
            "byteOffset" : 2532472
        },
        {
            "buffer" : 0,
            "byteLength" : 4188,
            "byteOffset" : 2536660
        },
        {
            "buffer" : 0,
            "byteLength" : 2792,
            "byteOffset" : 2540848
        },
        {
            "buffer" : 0,
            "byteLength" : 3648,
            "byteOffset" : 2543640
        }
    ],
    "samplers" : [
        {
            "magFilter" : 9729,
            "minFilter" : 9987
        }
    ],
    "buffers" : [
        {
            "byteLength" : 2547288,
            "uri" : "data:application/octet-stream;base64,"
        }
    ]
}
