<?xml version="1.0" encoding="UTF-8" standalone="no"?>
<svg
   xmlns:dc="http://purl.org/dc/elements/1.1/"
   xmlns:cc="http://creativecommons.org/ns#"
   xmlns:rdf="http://www.w3.org/1999/02/22-rdf-syntax-ns#"
   xmlns:svg="http://www.w3.org/2000/svg"
   xmlns="http://www.w3.org/2000/svg"
   width="75mm"
   height="75mm"
   viewBox="0 0 75 75"
   version="1.1"
   id="svg8">
  <defs
     id="defs2" />
  <metadata
     id="metadata5">
    <rdf:RDF>
      <cc:Work
         rdf:about="">
        <dc:format>image/svg+xml</dc:format>
        <dc:type
           rdf:resource="http://purl.org/dc/dcmitype/StillImage" />
        <dc:title></dc:title>
      </cc:Work>
    </rdf:RDF>
  </metadata>
  <g
     id="layer1"
     transform="translate(-66.025396,-119.18801)">
    <g
       aria-label="WORLD-CLASS  "
       id="text835"
       style="font-size:10.5833px;line-height:0;font-family:'Museo Sans';-inkscape-font-specification:'Museo Sans';fill:#339999;fill-opacity:1;stroke-width:0.264583"
       transform="matrix(0.77414931,0,0,0.77414931,23.324333,40.169822)">
      <path
         d="m 70.2058,142.59805 -1.460496,5.48214 c -0.105833,0.41275 -0.158749,0.79375 -0.158749,0.79375 h -0.02117 c 0,0 -0.04233,-0.39158 -0.137583,-0.79375 l -1.322912,-5.48214 h -1.079497 l 1.904994,7.4718 h 1.21708 l 1.291162,-4.84715 c 0.127,-0.47624 0.22225,-1.05833 0.22225,-1.05833 h 0.02117 c 0,0 0.09525,0.58209 0.222249,1.05833 l 1.291163,4.84715 h 1.217079 l 1.957911,-7.4718 h -1.079497 l -1.375829,5.48214 c -0.105833,0.40217 -0.137582,0.79375 -0.137582,0.79375 h -0.02117 c 0,0 -0.05292,-0.381 -0.15875,-0.79375 l -1.460495,-5.48214 z"
         style="fill:#339999;fill-opacity:1;stroke-width:0.264583"
         id="path893" />
      <path
         d="m 76.174763,146.28103 c 0,2.20133 1.682744,3.91582 3.841737,3.91582 2.158994,0 3.831155,-1.71449 3.831155,-3.91582 0,-2.14841 -1.672161,-3.80998 -3.831155,-3.80998 -2.158993,0 -3.841737,1.66157 -3.841737,3.80998 z m 1.079496,0 c 0,-1.62982 1.238246,-2.85749 2.762241,-2.85749 1.523996,0 2.751658,1.22767 2.751658,2.85749 0,1.68275 -1.227662,2.95274 -2.751658,2.95274 -1.523995,0 -2.762241,-1.26999 -2.762241,-2.95274 z"
         style="fill:#339999;fill-opacity:1;stroke-width:0.264583"
         id="path895" />
      <path
         d="m 85.371641,150.06985 h 1.047747 v -2.9739 h 1.598078 l 1.576912,2.9739 h 1.185329 l -1.587495,-2.89982 c -0.137583,-0.24342 -0.222249,-0.33866 -0.222249,-0.33866 v -0.0212 c 0.814914,-0.26458 1.344079,-1.06891 1.344079,-2.02141 0,-0.98425 -0.497415,-1.73566 -1.259413,-2.02141 -0.285749,-0.10584 -0.613831,-0.16933 -1.396995,-0.16933 h -2.285993 z m 1.047747,-3.88407 v -2.67757 h 1.206496 c 0.582081,0 0.825497,0.0635 1.02658,0.16933 0.380999,0.21167 0.592665,0.60325 0.592665,1.15358 0,0.83608 -0.507999,1.35466 -1.322913,1.35466 z"
         style="fill:#339999;fill-opacity:1;stroke-width:0.264583"
         id="path897" />
      <path
         d="m 92.155523,150.06985 h 4.392069 v -0.91016 H 93.20327 v -6.56164 h -1.047747 z"
         style="fill:#339999;fill-opacity:1;stroke-width:0.264583"
         id="path899" />
      <path
         d="m 97.754082,150.06985 h 2.476488 c 2.286,0 3.78882,-1.37582 3.78882,-3.74648 0,-2.36008 -1.50282,-3.72532 -3.78882,-3.72532 h -2.476488 z m 1.047746,-0.91016 v -5.65148 h 1.354662 c 1.67216,0 2.78341,0.98425 2.78341,2.81516 0,1.84149 -1.10066,2.83632 -2.78341,2.83632 z"
         style="fill:#339999;fill-opacity:1;stroke-width:0.264583"
         id="path901" />
      <path
         d="m 105.46929,147.5087 h 3.09033 v -0.91017 h -3.09033 z"
         style="fill:#339999;fill-opacity:1;stroke-width:0.264583"
         id="path903" />
      <path
         d="m 109.96717,146.29162 c 0,2.19074 1.57691,3.90523 3.82057,3.90523 1.87324,0 2.89982,-1.18533 2.89982,-1.18533 l -0.56091,-0.75141 c 0,0 -0.89958,0.97366 -2.30716,0.97366 -1.66158,0 -2.77283,-1.35466 -2.77283,-2.95274 0,-1.58749 1.09008,-2.85749 2.76224,-2.85749 1.29117,0 2.159,0.81492 2.159,0.81492 l 0.51858,-0.78317 c 0,0 -0.92075,-0.98424 -2.71991,-0.98424 -2.16958,0 -3.7994,1.65099 -3.7994,3.82057 z"
         style="fill:#339999;fill-opacity:1;stroke-width:0.264583"
         id="path905" />
      <path
         d="m 118.11629,150.06985 h 4.39207 v -0.91016 h -3.34432 v -6.56164 h -1.04775 z"
         style="fill:#339999;fill-opacity:1;stroke-width:0.264583"
         id="path907" />
      <path
         d="m 128.27623,150.06985 h 1.09008 l -2.68816,-7.4718 h -1.10066 l -2.68816,7.4718 h 1.0795 l 0.74083,-2.14841 h 2.81516 z m -2.13783,-6.44522 c 0,0 0.15875,0.67733 0.28575,1.05833 l 0.8255,2.37065 h -2.26483 l 0.83609,-2.37065 c 0.12699,-0.381 0.29633,-1.05833 0.29633,-1.05833 z"
         style="fill:#339999;fill-opacity:1;stroke-width:0.264583"
         id="path909" />
      <path
         d="m 129.89546,149.21261 c 0,0 0.88899,0.98424 2.47649,0.98424 1.48166,0 2.37066,-0.95249 2.37066,-2.10607 0,-2.42358 -3.61949,-2.01083 -3.61949,-3.55599 0,-0.59267 0.56091,-1.09008 1.35466,-1.09008 0.9525,0 1.64041,0.64558 1.64041,0.64558 l 0.47625,-0.86783 c 0,0 -0.73025,-0.75141 -2.11666,-0.75141 -1.40758,0 -2.41299,0.92074 -2.41299,2.08491 0,2.29657 3.61949,1.94732 3.61949,3.56657 0,0.70908 -0.59267,1.10066 -1.29116,1.10066 -1.11125,0 -1.905,-0.80433 -1.905,-0.80433 z"
         style="fill:#339999;fill-opacity:1;stroke-width:0.264583"
         id="path911" />
      <path
         d="m 135.67394,149.21261 c 0,0 0.88899,0.98424 2.47649,0.98424 1.48166,0 2.37066,-0.95249 2.37066,-2.10607 0,-2.42358 -3.61949,-2.01083 -3.61949,-3.55599 0,-0.59267 0.56092,-1.09008 1.35466,-1.09008 0.9525,0 1.64041,0.64558 1.64041,0.64558 l 0.47625,-0.86783 c 0,0 -0.73025,-0.75141 -2.11666,-0.75141 -1.40758,0 -2.41299,0.92074 -2.41299,2.08491 0,2.29657 3.61949,1.94732 3.61949,3.56657 0,0.70908 -0.59267,1.10066 -1.29116,1.10066 -1.11125,0 -1.905,-0.80433 -1.905,-0.80433 z"
         style="fill:#339999;fill-opacity:1;stroke-width:0.264583"
         id="path913" />
    </g>
    <g
       aria-label="EDUCATION"
       id="text847"
       style="font-size:10.5833px;line-height:0;font-family:'Museo Sans';-inkscape-font-specification:'Museo Sans';letter-spacing:0.264583px;word-spacing:0px;fill:#339999;fill-opacity:1;stroke:#339999;stroke-width:0.8;stroke-miterlimit:4;stroke-dasharray:none;stroke-opacity:1"
       transform="matrix(0.77414931,0,0,0.77414931,23.324333,40.169822)">
      <path
         d="m 72.486471,161.6223 h 4.519069 v -0.91016 h -3.471322 v -2.40241 h 2.677574 v -0.91017 h -2.677574 v -2.33891 h 3.291406 v -0.91016 h -4.339153 z"
         style="font-weight:bold;fill:#339999;fill-opacity:1;stroke:#339999;stroke-width:0.8;stroke-miterlimit:4;stroke-dasharray:none;stroke-opacity:1"
         id="path874" />
      <path
         d="m 78.815285,161.6223 h 2.476492 c 2.285992,0 3.788821,-1.37583 3.788821,-3.74649 0,-2.36007 -1.502829,-3.72532 -3.788821,-3.72532 h -2.476492 z m 1.047746,-0.91016 v -5.65149 h 1.354663 c 1.672161,0 2.783407,0.98425 2.783407,2.81516 0,1.8415 -1.100663,2.83633 -2.783407,2.83633 z"
         style="font-weight:bold;fill:#339999;fill-opacity:1;stroke:#339999;stroke-width:0.8;stroke-miterlimit:4;stroke-dasharray:none;stroke-opacity:1"
         id="path876" />
      <path
         d="m 86.805673,158.97647 c 0,1.66158 1.195913,2.77283 2.942158,2.77283 1.746244,0 2.942157,-1.11125 2.942157,-2.77283 v -4.82598 h -1.047747 v 4.80482 c 0,1.16416 -0.751414,1.83091 -1.904994,1.83091 -1.142996,0 -1.883827,-0.66675 -1.883827,-1.80975 v -4.82598 h -1.047747 z"
         style="font-weight:bold;fill:#339999;fill-opacity:1;stroke:#339999;stroke-width:0.8;stroke-miterlimit:4;stroke-dasharray:none;stroke-opacity:1"
         id="path878" />
      <path
         d="m 94.37272,157.84406 c 0,2.19074 1.576911,3.90524 3.820571,3.90524 1.873239,0 2.899819,-1.18533 2.899819,-1.18533 l -0.56091,-0.75142 c 0,0 -0.89958,0.97367 -2.307159,0.97367 -1.661578,0 -2.772825,-1.35466 -2.772825,-2.95274 0,-1.5875 1.09008,-2.85749 2.762241,-2.85749 1.291163,0 2.158993,0.81491 2.158993,0.81491 l 0.51858,-0.78316 c 0,0 -0.920745,-0.98425 -2.719906,-0.98425 -2.169576,0 -3.799404,1.65099 -3.799404,3.82057 z"
         style="font-weight:bold;fill:#339999;fill-opacity:1;stroke:#339999;stroke-width:0.8;stroke-miterlimit:4;stroke-dasharray:none;stroke-opacity:1"
         id="path880" />
      <path
         d="m 107.24199,161.6223 h 1.09008 l -2.68815,-7.47181 h -1.10067 l -2.68816,7.47181 h 1.0795 l 0.74083,-2.14841 h 2.81516 z m -2.13782,-6.44523 c 0,0 0.15875,0.67733 0.28575,1.05833 l 0.82549,2.37066 h -2.26482 l 0.83608,-2.37066 c 0.127,-0.381 0.29633,-1.05833 0.29633,-1.05833 z"
         style="font-weight:bold;fill:#339999;fill-opacity:1;stroke:#339999;stroke-width:0.8;stroke-miterlimit:4;stroke-dasharray:none;stroke-opacity:1"
         id="path882" />
      <path
         d="m 110.84029,161.6223 h 1.04774 v -6.56165 h 2.56116 v -0.91016 h -6.17006 v 0.91016 h 2.56116 z"
         style="font-weight:bold;fill:#339999;fill-opacity:1;stroke:#339999;stroke-width:0.8;stroke-miterlimit:4;stroke-dasharray:none;stroke-opacity:1"
         id="path884" />
      <path
         d="m 115.78267,161.6223 h 1.04775 v -7.47181 h -1.04775 z"
         style="font-weight:bold;fill:#339999;fill-opacity:1;stroke:#339999;stroke-width:0.8;stroke-miterlimit:4;stroke-dasharray:none;stroke-opacity:1"
         id="path886" />
      <path
         d="m 118.61898,157.83348 c 0,2.20132 1.68274,3.91582 3.84174,3.91582 2.15899,0 3.83115,-1.7145 3.83115,-3.91582 0,-2.14841 -1.67216,-3.80999 -3.83115,-3.80999 -2.159,0 -3.84174,1.66158 -3.84174,3.80999 z m 1.0795,0 c 0,-1.62983 1.23824,-2.85749 2.76224,-2.85749 1.52399,0 2.75166,1.22766 2.75166,2.85749 0,1.68274 -1.22767,2.95274 -2.75166,2.95274 -1.524,0 -2.76224,-1.27 -2.76224,-2.95274 z"
         style="font-weight:bold;fill:#339999;fill-opacity:1;stroke:#339999;stroke-width:0.8;stroke-miterlimit:4;stroke-dasharray:none;stroke-opacity:1"
         id="path888" />
      <path
         d="m 128.08044,161.6223 h 1.04775 v -4.84715 c 0,-0.42333 -0.0741,-1.09008 -0.0741,-1.09008 h 0.0212 c 0,0 0.34925,0.67733 0.62442,1.09008 l 3.33374,4.84715 h 1.02658 v -7.47181 h -1.04775 v 4.85773 c 0,0.41275 0.0741,1.0795 0.0741,1.0795 h -0.0212 c 0,0 -0.34925,-0.67733 -0.62442,-1.0795 l -3.32315,-4.85773 h -1.03717 z"
         style="font-weight:bold;fill:#339999;fill-opacity:1;stroke:#339999;stroke-width:0.8;stroke-miterlimit:4;stroke-dasharray:none;stroke-opacity:1"
         id="path890" />
    </g>
  </g>
</svg>
