<?xml version="1.0" encoding="UTF-8" standalone="no"?>
<svg
   xmlns:dc="http://purl.org/dc/elements/1.1/"
   xmlns:cc="http://creativecommons.org/ns#"
   xmlns:rdf="http://www.w3.org/1999/02/22-rdf-syntax-ns#"
   xmlns:svg="http://www.w3.org/2000/svg"
   xmlns="http://www.w3.org/2000/svg"
   xmlns:sodipodi="http://sodipodi.sourceforge.net/DTD/sodipodi-0.dtd"
   xmlns:inkscape="http://www.inkscape.org/namespaces/inkscape"
   viewBox="0 0 154.11 119.96144"
   version="1.1"
   id="svg174"
   sodipodi:docname="education.svg"
   width="154.11"
   height="119.96144"
   inkscape:version="1.0.1 (3bc2e813f5, 2020-09-07)">
  <metadata
     id="metadata178">
    <rdf:RDF>
      <cc:Work
         rdf:about="">
        <dc:format>image/svg+xml</dc:format>
        <dc:type
           rdf:resource="http://purl.org/dc/dcmitype/StillImage" />
        <dc:title></dc:title>
      </cc:Work>
    </rdf:RDF>
  </metadata>
  <sodipodi:namedview
     pagecolor="#ffffff"
     bordercolor="#666666"
     borderopacity="1"
     objecttolerance="10"
     gridtolerance="10"
     guidetolerance="10"
     inkscape:pageopacity="0"
     inkscape:pageshadow="2"
     inkscape:window-width="1920"
     inkscape:window-height="1017"
     id="namedview176"
     showgrid="false"
     inkscape:zoom="3.8259592"
     inkscape:cx="50.091241"
     inkscape:cy="77.62716"
     inkscape:window-x="-8"
     inkscape:window-y="-8"
     inkscape:window-maximized="1"
     inkscape:current-layer="svg174"
     inkscape:document-rotation="0"
     inkscape:pagecheckerboard="true" />
  <defs
     id="defs4">
    <style
       id="style2">.cls-1,.cls-2{fill:#ffffff;}.cls-2{fill-rule:evenodd;}</style>
  </defs>
  <g
     id="Layer_1-2"
     data-name="Layer 1"
     transform="translate(-85.638762,66.66144)">
    <g
       id="g1178"
       inkscape:label="DfE"
       transform="translate(16.638762,-18)">
      <path
         class="cls-1"
         d="m 69,58.56 h 2.43 c 3.52,0 4.91,2 4.91,4.89 0,3.56 -2.38,4.93 -5.63,4.93 H 69 Z m 1,9 h 0.8 c 2.78,0 4.6,-1.12 4.6,-4.13 0,-3.01 -1.79,-4 -4,-4 H 70 Z"
         id="path6" />
      <path
         class="cls-1"
         d="m 83.2,68.15 a 5.75,5.75 0 0 1 -2.09,0.4 c -2.37,0 -3.26,-1.61 -3.26,-3.76 0,-2.15 1.21,-3.76 3,-3.76 2,0 2.86,1.64 2.86,3.56 V 65 h -4.89 c 0,1.52 0.82,2.75 2.36,2.75 a 4.64,4.64 0 0 0 2,-0.54 z m -0.44,-3.87 c 0,-1.25 -0.51,-2.49 -1.83,-2.49 a 2.35,2.35 0 0 0 -2.11,2.49 z"
         id="path8" />
      <path
         class="cls-1"
         d="m 85.33,61.2 h 0.89 l -0.06,1.31 v 0 A 2.5,2.5 0 0 1 88.49,61 c 2.11,0 3,1.58 3,3.76 0,2.18 -1,3.76 -3,3.76 a 2.23,2.23 0 0 1 -2.24,-1.4 v 0 4.18 h -0.89 z m 3,0.59 c -1.58,0 -2.13,1.69 -2.13,3 0,1.31 0.55,3 2.13,3 1.58,0 2.12,-1.61 2.12,-3 0,-1.39 -0.45,-3 -2.1,-3 z"
         id="path10" />
      <path
         class="cls-1"
         d="m 97.36,67.22 v 0 a 2.54,2.54 0 0 1 -2.28,1.33 c -2,0 -2.37,-1.38 -2.37,-2 0,-2.41 2.56,-2.52 4.42,-2.52 h 0.17 v -0.36 c 0,-1.23 -0.44,-1.85 -1.63,-1.85 a 3.81,3.81 0 0 0 -2.11,0.59 v -0.85 a 5.63,5.63 0 0 1 2.11,-0.5 c 1.77,0 2.52,0.81 2.52,2.68 v 3.16 a 10.34,10.34 0 0 0 0.07,1.51 H 97.38 Z M 97.28,64.76 H 97 c -1.54,0 -3.37,0.16 -3.37,1.73 0,0.94 0.68,1.3 1.5,1.3 2.08,0 2.12,-1.82 2.12,-2.59 z"
         id="path12" />
      <path
         class="cls-1"
         d="m 100.28,62.81 a 12.18,12.18 0 0 0 -0.06,-1.61 h 0.89 v 1.38 0 A 2.14,2.14 0 0 1 103,61 a 2.8,2.8 0 0 1 0.62,0.09 v 0.93 A 2.27,2.27 0 0 0 103,62 c -1.41,0 -1.79,1.58 -1.79,2.87 v 3.55 h -0.88 z"
         id="path14" />
      <path
         class="cls-1"
         d="m 108.06,62 h -1.64 v 4.6 c 0,0.65 0.24,1.19 1,1.19 a 2.06,2.06 0 0 0 0.82,-0.17 v 0.73 a 3.29,3.29 0 0 1 -1.08,0.2 c -1.58,0 -1.63,-1.09 -1.63,-2.4 V 62 h -1.41 v -0.8 h 1.41 v -1.73 l 0.88,-0.31 v 2 h 1.64 z"
         id="path16" />
      <path
         class="cls-1"
         d="m 118.31,68.38 v -4.77 c 0,-1 -0.38,-1.82 -1.52,-1.82 -1,0 -1.92,0.83 -1.92,2.62 v 4 H 114 v -4.8 c 0,-1 -0.38,-1.82 -1.52,-1.82 -1,0 -1.93,0.83 -1.93,2.62 v 4 h -0.88 v -5.52 a 16.19,16.19 0 0 0 -0.06,-1.69 h 0.86 v 1.21 0 a 2.24,2.24 0 0 1 2.23,-1.4 1.8,1.8 0 0 1 1.9,1.52 v 0 a 2.41,2.41 0 0 1 2.33,-1.53 2.2,2.2 0 0 1 2.27,2.41 v 4.94 z"
         id="path18" />
      <path
         class="cls-1"
         d="m 126.18,68.15 a 5.74,5.74 0 0 1 -2.08,0.4 c -2.38,0 -3.27,-1.61 -3.27,-3.76 0,-2.15 1.17,-3.79 3.03,-3.79 2,0 2.85,1.64 2.85,3.56 V 65 h -4.91 c 0,1.52 0.82,2.75 2.37,2.75 a 4.59,4.59 0 0 0 2,-0.54 z m -0.44,-3.87 c 0,-1.25 -0.51,-2.49 -1.83,-2.49 a 2.35,2.35 0 0 0 -2.11,2.49 z"
         id="path20" />
      <path
         class="cls-1"
         d="m 128.4,62.89 a 16.19,16.19 0 0 0 -0.06,-1.69 h 0.86 v 1.28 0 A 2.29,2.29 0 0 1 131.55,61 c 1.77,0 2.45,1.18 2.45,2.76 v 4.59 h -0.89 V 64 c 0,-1.35 -0.48,-2.23 -1.7,-2.23 -1.62,0 -2.12,1.42 -2.12,2.62 v 4 h -0.89 z"
         id="path22" />
      <path
         class="cls-1"
         d="m 139.32,62 h -1.63 v 4.6 c 0,0.65 0.24,1.19 0.95,1.19 a 2,2 0 0 0 0.82,-0.17 l 0.06,0.73 a 3.42,3.42 0 0 1 -1.09,0.2 c -1.57,0 -1.63,-1.09 -1.63,-2.4 V 62 h -1.41 v -0.8 h 1.41 v -1.73 l 0.89,-0.31 v 2 h 1.63 z"
         id="path24" />
      <path
         class="cls-1"
         d="m 144.86,62 h -1.45 v -0.8 h 1.45 v -0.52 c 0,-1.5 0.06,-3 1.9,-3 a 2,2 0 0 1 0.83,0.14 l -0.06,0.77 a 1.54,1.54 0 0 0 -0.7,-0.15 c -1.21,0 -1.08,1.3 -1.08,2.16 v 0.62 h 1.62 V 62 h -1.62 v 6.42 h -0.89 z"
         id="path26" />
      <path
         class="cls-1"
         d="m 151.74,61 c 2.32,0 3.35,1.8 3.35,3.76 0,1.96 -1,3.76 -3.35,3.76 -2.35,0 -3.35,-1.8 -3.35,-3.76 0,-1.96 1.03,-3.76 3.35,-3.76 z m 0,6.76 c 1.55,0 2.38,-1.34 2.38,-3 0,-1.66 -0.83,-3 -2.38,-3 -1.55,0 -2.38,1.34 -2.38,3 0,1.66 0.83,3.03 2.38,3.03 z"
         id="path28" />
      <path
         class="cls-1"
         d="m 156.76,62.81 a 14.6,14.6 0 0 0 0,-1.61 h 0.88 v 1.38 0 a 2.14,2.14 0 0 1 1.82,-1.58 2.63,2.63 0 0 1 0.62,0.09 v 0.93 a 2.15,2.15 0 0 0 -0.64,-0.09 c -1.41,0 -1.79,1.58 -1.79,2.87 v 3.55 h -0.89 z"
         id="path30" />
      <path
         class="cls-1"
         d="m 166,58.56 h 4.81 V 59.4 H 167 v 3.5 h 3.64 v 0.85 H 167 v 3.78 h 4 v 0.85 h -5 z"
         id="path32" />
      <path
         class="cls-1"
         d="m 178.64,68.38 h -0.89 v -1.14 0 a 2.31,2.31 0 0 1 -2.24,1.31 c -2,0 -3,-1.64 -3,-3.76 0,-2.12 0.84,-3.76 3,-3.76 a 2.43,2.43 0 0 1 2.24,1.38 v 0 -4.58 h 0.89 z m -3,-0.59 c 1.58,0 2.12,-1.69 2.12,-3 0,-1.31 -0.54,-3 -2.12,-3 -1.58,0 -2.12,1.61 -2.12,3 0,1.39 0.42,3 2.11,3 z"
         id="path34" />
      <path
         class="cls-1"
         d="m 186.38,66.69 a 16.19,16.19 0 0 0 0.06,1.69 h -0.86 v -1.28 0 a 2.29,2.29 0 0 1 -2.32,1.45 c -1.77,0 -2.45,-1.19 -2.45,-2.76 V 61.2 h 0.89 v 4.36 c 0,1.35 0.47,2.23 1.7,2.23 1.62,0 2.12,-1.42 2.12,-2.62 v -4 h 0.89 z"
         id="path36" />
      <path
         class="cls-1"
         d="m 193.27,62.16 a 4.08,4.08 0 0 0 -1.53,-0.37 c -1.73,0 -2.7,1.25 -2.7,3 a 2.72,2.72 0 0 0 2.6,3 4.59,4.59 0 0 0 1.62,-0.33 l 0.08,0.83 a 5.29,5.29 0 0 1 -1.84,0.26 c -2.31,0 -3.43,-1.76 -3.43,-3.76 a 3.48,3.48 0 0 1 3.54,-3.79 5.47,5.47 0 0 1 1.73,0.28 z"
         id="path38" />
      <path
         class="cls-1"
         d="m 199,67.22 v 0 a 2.52,2.52 0 0 1 -2.28,1.33 c -2,0 -2.36,-1.38 -2.36,-2 0,-2.41 2.56,-2.52 4.42,-2.52 h 0.17 v -0.36 c 0,-1.23 -0.44,-1.85 -1.64,-1.85 a 3.84,3.84 0 0 0 -2.11,0.59 v -0.85 a 5.63,5.63 0 0 1 2.11,-0.5 c 1.78,0 2.52,0.81 2.52,2.68 v 3.16 a 10.34,10.34 0 0 0 0.07,1.51 H 199 Z m -0.08,-2.46 h -0.26 c -1.53,0 -3.36,0.16 -3.36,1.73 0,0.94 0.68,1.3 1.49,1.3 2.08,0 2.13,-1.82 2.13,-2.59 z"
         id="path40" />
      <path
         class="cls-1"
         d="m 205,62 h -1.63 v 4.6 c 0,0.65 0.23,1.19 1,1.19 a 2,2 0 0 0 0.82,-0.17 v 0.73 a 3.29,3.29 0 0 1 -1.08,0.2 c -1.57,0 -1.63,-1.09 -1.63,-2.4 V 62 h -1.41 v -0.8 h 1.41 v -1.73 l 0.89,-0.31 v 2 H 205 Z"
         id="path42" />
      <path
         class="cls-1"
         d="m 207.45,59.29 h -0.88 v -1.18 h 0.88 z m -0.88,1.91 h 0.88 v 7.18 h -0.88 z"
         id="path44" />
      <path
         class="cls-1"
         d="m 212.49,61 c 2.32,0 3.35,1.8 3.35,3.76 0,1.96 -1,3.76 -3.35,3.76 -2.35,0 -3.35,-1.8 -3.35,-3.76 0,-1.96 1.03,-3.76 3.35,-3.76 z m 0,6.76 c 1.55,0 2.38,-1.34 2.38,-3 0,-1.66 -0.83,-3 -2.38,-3 -1.55,0 -2.38,1.34 -2.38,3 0,1.66 0.83,3.03 2.38,3.03 z"
         id="path46" />
      <path
         class="cls-1"
         d="m 217.51,62.89 c 0,-0.55 0,-1.11 0,-1.69 h 0.86 v 1.28 0 A 2.29,2.29 0 0 1 220.66,61 c 1.78,0 2.45,1.18 2.45,2.76 v 4.59 h -0.88 V 64 c 0,-1.35 -0.48,-2.23 -1.71,-2.23 -1.61,0 -2.12,1.42 -2.12,2.62 v 4 h -0.89 z"
         id="path48" />
    </g>
    <rect
       class="cls-1"
       x="103.51537"
       y="33.040001"
       width="118.35678"
       height="2.1199999"
       id="rect50"
       style="stroke-width:0.761397" />
    <g
       id="g1154"
       inkscape:label="Government"
       transform="translate(53.503762,-6)">
      <path
         class="cls-2"
         d="M 76.67,5.24 A 9.41,9.41 0 0 0 73.8,4.83 c -3.32,0 -5.36,1.88 -5.36,5.22 0,3.34 2.2,4.88 5.36,4.88 a 12.25,12.25 0 0 0 3.16,-0.5 V 9.17 H 73 v 1.54 h 2.07 v 2.54 A 5.07,5.07 0 0 1 73.78,13.39 3.21,3.21 0 0 1 70.46,9.91 3.33,3.33 0 0 1 74,6.37 6.36,6.36 0 0 1 76.52,6.89 Z"
         id="path52" />
      <path
         class="cls-2"
         d="m 78.36,11.21 a 3.77,3.77 0 0 0 7.54,0 3.77,3.77 0 1 0 -7.54,0 z m 2,-0.22 a 1.84,1.84 0 1 1 3.63,0 c 0,1.2 -0.38,2.49 -1.82,2.49 -1.44,0 -1.86,-1.3 -1.86,-2.48 z"
         id="path54" />
      <polygon
         class="cls-2"
         points="88.55,7.56 86.53,7.56 89.21,14.77 91.32,14.77 93.98,7.56 92.1,7.56 90.37,12.81 90.34,12.81 "
         id="polygon56" />
      <path
         class="cls-2"
         d="m 96.41,10.46 a 1.63,1.63 0 0 1 1.66,-1.7 c 1.05,0 1.47,0.79 1.53,1.7 z m 4.45,2.37 a 4.81,4.81 0 0 1 -2.4,0.73 1.88,1.88 0 0 1 -2,-1.82 h 5 c 0,-2.52 -0.76,-4.35 -3.43,-4.35 -2.24,0 -3.34,1.72 -3.34,3.81 a 3.42,3.42 0 0 0 3.76,3.73 4.94,4.94 0 0 0 2.48,-0.57 z"
         id="path58" />
      <path
         class="cls-2"
         d="m 102.86,14.76 h 1.88 v -2.64 c 0,-1 0,-2.94 1.52,-2.94 a 1.84,1.84 0 0 1 0.84,0.16 V 7.45 a 1.88,1.88 0 0 0 -0.57,-0.06 2.2,2.2 0 0 0 -2,1.81 v 0 -1.64 h -1.67 z"
         id="path60" />
      <path
         class="cls-2"
         d="m 108.48,14.76 h 1.87 v -3.52 c 0,-0.92 0.3,-2.39 1.66,-2.39 1.2,0 1.21,1.19 1.21,2.07 v 3.84 h 1.88 v -4.54 c 0,-1.63 -0.74,-2.83 -2.45,-2.83 a 2.67,2.67 0 0 0 -2.36,1.15 v 0 -1 h -1.78 z"
         id="path62" />
      <path
         class="cls-2"
         d="m 117,14.76 h 1.87 v -3.49 c 0,-0.94 0.16,-2.42 1.4,-2.42 1.08,0 1.08,1 1.08,1.62 v 4.29 h 1.87 v -3.49 c 0,-0.94 0.16,-2.42 1.4,-2.42 1.08,0 1.08,1 1.08,1.62 v 4.29 h 1.87 v -4.54 c 0,-1.61 -0.5,-2.83 -2.28,-2.83 A 2.49,2.49 0 0 0 123,8.66 2.1,2.1 0 0 0 120.87,7.39 2.53,2.53 0 0 0 118.73,8.57 v 0 -1 H 117 Z"
         id="path64" />
      <path
         class="cls-2"
         d="m 130.73,10.46 a 1.64,1.64 0 0 1 1.67,-1.7 c 1,0 1.47,0.79 1.52,1.7 z m 4.45,2.37 a 4.77,4.77 0 0 1 -2.39,0.73 1.89,1.89 0 0 1 -2.06,-1.82 h 5 c 0,-2.52 -0.75,-4.35 -3.43,-4.35 -2.24,0 -3.34,1.72 -3.34,3.81 a 3.42,3.42 0 0 0 3.76,3.73 4.94,4.94 0 0 0 2.48,-0.57 z"
         id="path66" />
      <path
         class="cls-2"
         d="M 137.15,14.76 H 139 v -3.52 c 0,-0.92 0.29,-2.39 1.65,-2.39 1.2,0 1.22,1.19 1.22,2.07 v 3.84 h 1.87 V 10.22 C 143.74,8.59 143,7.39 141.3,7.39 A 2.69,2.69 0 0 0 139,8.54 v 0 -1 h -1.77 z"
         id="path68" />
      <path
         class="cls-2"
         d="m 146.28,12.6 a 2.12,2.12 0 0 0 2.28,2.33 4.6,4.6 0 0 0 1.38,-0.17 l -0.05,-1.48 a 1.66,1.66 0 0 1 -0.86,0.2 c -0.71,0 -0.88,-0.58 -0.88,-1.19 V 8.93 h 1.67 V 7.56 h -1.67 v -2 l -1.87,0.6 v 1.4 h -1.39 v 1.37 h 1.39 z"
         id="path70" />
    </g>
    <g
       id="g1142"
       inkscape:label="of SA"
       transform="translate(-50.696238,10.205087)">
      <path
         class="cls-2"
         d="m 154.46,11.21 a 3.77,3.77 0 0 0 7.54,0 3.77,3.77 0 1 0 -7.54,0 z m 2,-0.22 A 1.84,1.84 0 1 1 160,11 c 0,1.2 -0.38,2.49 -1.82,2.49 -1.44,0 -1.76,-1.31 -1.76,-2.49 z"
         id="path72" />
      <path
         class="cls-2"
         d="M 164.12,14.76 H 166 V 8.93 h 1.64 V 7.56 H 166 v -0.9 c 0,-0.56 0.2,-1.1 0.83,-1.1 a 1.43,1.43 0 0 1 0.81,0.25 l 0.16,-1.55 a 6.3,6.3 0 0 0 -1.38,-0.16 2.2,2.2 0 0 0 -2.29,2.45 v 1 h -1.39 v 1.38 h 1.39 z"
         id="path74" />
      <path
         class="cls-2"
         d="M 178.29,5.18 A 7.31,7.31 0 0 0 176,4.83 c -1.72,0 -3.41,0.8 -3.41,3 0,3.23 4.28,2.46 4.28,4.32 0,0.89 -1,1.26 -1.73,1.26 a 4.7,4.7 0 0 1 -2.22,-0.6 l -0.18,1.76 a 8.56,8.56 0 0 0 2.51,0.38 c 2,0 3.66,-0.81 3.66,-2.95 0,-3.27 -4.28,-2.56 -4.28,-4.25 a 1.36,1.36 0 0 1 1.54,-1.36 5,5 0 0 1 2,0.42 z"
         id="path76" />
      <path
         class="cls-2"
         d="m 180,11.21 a 3.77,3.77 0 0 0 7.54,0 3.77,3.77 0 1 0 -7.54,0 z m 2,-0.22 a 1.84,1.84 0 1 1 3.62,0 c 0,1.2 -0.38,2.49 -1.82,2.49 -1.44,0 -1.86,-1.3 -1.86,-2.48 z"
         id="path78" />
      <path
         class="cls-2"
         d="m 195.57,7.56 h -1.87 v 3.52 c 0,0.93 -0.3,2.4 -1.66,2.4 -1.2,0 -1.21,-1.19 -1.21,-2.07 V 7.56 H 189 v 4.55 c 0,1.62 0.74,2.82 2.45,2.82 a 3,3 0 0 0 2.37,-1.14 v 0 1 h 1.78 z"
         id="path80" />
      <path
         class="cls-2"
         d="m 198.08,12.6 a 2.12,2.12 0 0 0 2.28,2.33 4.67,4.67 0 0 0 1.39,-0.17 l -0.06,-1.48 a 1.59,1.59 0 0 1 -0.85,0.2 c -0.72,0 -0.88,-0.58 -0.88,-1.19 V 8.93 h 1.66 V 7.56 H 200 v -2 l -1.88,0.6 v 1.4 h -1.42 v 1.37 h 1.38 z"
         id="path82" />
      <path
         class="cls-2"
         d="m 202.87,14.76 h 1.88 v -3.52 c 0,-0.92 0.29,-2.39 1.65,-2.39 1.2,0 1.22,1.19 1.22,2.07 v 3.84 h 1.87 v -4.54 c 0,-1.63 -0.74,-2.83 -2.45,-2.83 a 2.66,2.66 0 0 0 -2.26,1.15 v 0 -4.27 h -1.88 z"
         id="path84" />
      <path
         class="cls-2"
         d="m 220.7,11 h -2.86 l 1.42,-4 v 0 z m -6.3,3.77 h 2 l 0.85,-2.23 h 4 l 0.84,2.23 h 2.17 L 220.42,5 h -2.21 z"
         id="path86" />
      <path
         class="cls-2"
         d="m 231.93,7.56 h -1.88 v 3.52 c 0,0.93 -0.29,2.4 -1.65,2.4 -1.2,0 -1.21,-1.19 -1.21,-2.07 V 7.56 h -1.88 v 4.55 c 0,1.62 0.74,2.82 2.45,2.82 a 3,3 0 0 0 2.36,-1.14 v 0 1 h 1.78 z"
         id="path88" />
      <path
         class="cls-2"
         d="m 238.23,7.66 a 8.41,8.41 0 0 0 -2,-0.27 c -1.47,0 -2.83,0.69 -2.83,2.24 0,2.6 3.26,1.64 3.26,3 0,0.7 -0.75,0.88 -1.23,0.88 a 4.19,4.19 0 0 1 -1.85,-0.47 l -0.11,1.53 a 8.13,8.13 0 0 0 2.13,0.31 c 1.52,0 3,-0.67 3,-2.35 0,-2.6 -3.26,-1.87 -3.26,-3 0,-0.62 0.6,-0.8 1.11,-0.8 a 4.57,4.57 0 0 1 1.68,0.31 z"
         id="path90" />
      <path
         class="cls-2"
         d="m 240.62,12.6 a 2.12,2.12 0 0 0 2.28,2.33 4.6,4.6 0 0 0 1.38,-0.17 l -0.05,-1.48 a 1.66,1.66 0 0 1 -0.86,0.2 c -0.71,0 -0.88,-0.58 -0.88,-1.19 V 8.93 h 1.67 V 7.56 h -1.67 v -2 l -1.87,0.6 v 1.4 h -1.39 v 1.37 h 1.39 z"
         id="path92" />
      <path
         class="cls-2"
         d="m 245.45,14.76 h 1.87 v -2.64 c 0,-1 0,-2.94 1.53,-2.94 a 1.87,1.87 0 0 1 0.84,0.16 V 7.45 a 1.91,1.91 0 0 0 -0.57,-0.06 2.22,2.22 0 0 0 -2,1.81 v 0 -1.64 h -1.67 z"
         id="path94" />
      <path
         class="cls-2"
         d="m 251.19,9.55 a 3.76,3.76 0 0 1 2.23,-0.79 c 1.1,0 1.62,0.39 1.62,1.56 h -1 a 5.72,5.72 0 0 0 -2.42,0.41 2.12,2.12 0 0 0 -1.23,2.06 2.3,2.3 0 0 0 2.52,2.14 2.61,2.61 0 0 0 2.23,-1.24 v 0 a 10.21,10.21 0 0 0 0.09,1.07 h 1.65 c 0,-0.55 -0.07,-1.06 -0.08,-1.6 -0.01,-0.54 0,-1.08 0,-1.81 v -0.92 c 0,-2.13 -0.91,-3 -3.11,-3 a 6.41,6.41 0 0 0 -2.51,0.55 z m 0.95,3.13 c 0,-1.11 1.25,-1.25 2.09,-1.25 H 255 a 2.4,2.4 0 0 1 -0.39,1.49 1.6,1.6 0 0 1 -1.32,0.64 c -0.63,0 -1.15,-0.26 -1.15,-0.88 z"
         id="path96" />
      <rect
         class="cls-1"
         x="258.60001"
         y="4.27"
         width="1.87"
         height="10.49"
         id="rect98" />
      <path
         class="cls-2"
         d="m 262.45,14.76 h 1.88 v -7.2 h -1.88 z m 0,-8.52 h 1.88 V 4.45 h -1.88 z"
         id="path100" />
      <path
         class="cls-2"
         d="m 266.64,9.55 a 3.76,3.76 0 0 1 2.23,-0.79 c 1.1,0 1.62,0.39 1.62,1.56 h -1 a 5.72,5.72 0 0 0 -2.42,0.41 2.12,2.12 0 0 0 -1.23,2.06 2.3,2.3 0 0 0 2.52,2.14 2.58,2.58 0 0 0 2.22,-1.24 v 0 a 10.21,10.21 0 0 0 0.09,1.07 h 1.65 c 0,-0.55 -0.07,-1.06 -0.09,-1.6 -0.02,-0.54 0,-1.08 0,-1.81 v -0.92 c 0,-2.13 -0.91,-3 -3.11,-3 a 6.41,6.41 0 0 0 -2.51,0.55 z m 0.95,3.13 c 0,-1.11 1.25,-1.25 2.09,-1.25 h 0.81 a 2.47,2.47 0 0 1 -0.39,1.49 1.6,1.6 0 0 1 -1.32,0.64 c -0.67,0 -1.19,-0.26 -1.19,-0.88 z"
         id="path102" />
    </g>
    <g
       id="g1039"
       inkscape:label="LOGO"
       transform="translate(35.380012)">
      <path
         class="cls-2"
         d="m 141.12875,-44.769954 a 15.32,15.32 0 0 1 -17.74,21.38 c -5.27,-1 -10.08,-6.2 -11.13,-11.38 a 15.11,15.11 0 0 1 6.29,-16 15.51,15.51 0 0 1 22.58,6 z m 0.4,0.25 a 15.58,15.58 0 0 1 -18.32,21.34 c -5.61,-1.21 -10.61,-6.78 -11.41,-12.47 a 15.36,15.36 0 0 1 6.43,-15.31 c 4.51,-3.41 12,-3.64 16.8,-0.69 a 16,16 0 0 1 6.5,7.13 z"
         id="path104" />
      <path
         class="cls-2"
         d="m 110.43875,-32.339954 a 21.73,21.73 0 0 1 1.17,2.11 c -0.28,0.12 -0.31,-0.3 -0.55,-0.36 l -0.36,0.07 -3.38,1.87 a 1.42,1.42 0 0 0 -0.59,1.13 1.86,1.86 0 0 0 1.07,1.69 c 1.51,0.13 2.66,-1.07 4,-1.67 a 1.14,1.14 0 0 0 0.54,-0.88 l -0.07,-0.5 h 0.15 l 1,1.85 -0.07,0.07 a 1.22,1.22 0 0 0 -1.23,-0.4 l -3.32,1.71 a 1.77,1.77 0 0 1 -1.75,-0.51 3.13,3.13 0 0 1 -0.83,-2.62 1.67,1.67 0 0 1 0.87,-1 l 3.2,-1.78 c 0.33,-0.24 0,-0.58 0,-0.84 z"
         id="path106" />
      <path
         class="cls-2"
         d="m 143.70875,-31.789954 c 0,0.32 -0.24,0.8 0.26,0.91 l 4.32,2 c 0.35,0 0.35,-0.58 0.66,-0.44 -0.34,0.73 -0.63,1.51 -1,2.19 h -0.15 c 0,-0.26 0.17,-0.53 0,-0.77 l -4.49,-2.15 c -0.34,-0.05 -0.41,0.43 -0.69,0.48 a 15.74,15.74 0 0 1 1,-2.22 z"
         id="path108" />
      <path
         class="cls-2"
         d="m 140.03875,-26.159954 c 0,0.28 -0.4,0.47 -0.18,0.8 l 3.56,3.31 c 0.46,0.21 0.75,-0.34 1,-0.62 a 2.62,2.62 0 0 0 -0.11,-2.76 c 0,-0.06 0.1,0 0.15,0 l 1.27,1.75 c -1,1.12 -2,2.21 -3.16,3.24 0,0 0,0 -0.07,0 0,-0.26 0.32,-0.45 0.21,-0.73 l -3.62,-3.48 c -0.31,-0.23 -0.6,0.5 -0.76,0.11 l 1.6,-1.64 z"
         id="path110" />
      <path
         class="cls-2"
         d="m 116.58875,-24.299954 a 1.08,1.08 0 0 0 0.36,0.54 l 0.33,-0.07 v 0.18 c -0.37,0.51 -0.71,1 -1.13,1.53 h -0.11 c 0.21,-0.79 0.74,-1.89 0,-2.62 a 1.31,1.31 0 0 0 -0.84,-0.4 1.07,1.07 0 0 0 -0.87,0.65 c -0.19,1.53 1.95,2.82 0.51,4.29 a 1.79,1.79 0 0 1 -1.39,0.51 3,3 0 0 1 -2.14,-1.67 c -0.15,-0.18 -0.32,-0.11 -0.51,-0.07 v -0.19 l 1.56,-1.78 h 0.11 c -0.36,0.81 -1,1.78 -0.43,2.69 a 1.63,1.63 0 0 0 1.12,0.69 1.19,1.19 0 0 0 1.03,-0.63 c 0.42,-1.63 -2.27,-3.16 -0.22,-4.54 a 2,2 0 0 1 2.62,0.89 z"
         id="path112" />
      <path
         class="cls-2"
         d="m 119.89875,-22.299954 a 28.22,28.22 0 0 0 4,1.27 14,14 0 0 1 -0.33,2.07 c -0.18,-0.2 -0.09,-0.58 -0.22,-0.83 a 2.06,2.06 0 0 0 -1.27,-1.49 l -1.75,4.83 c 0.06,0.36 0.49,0.34 0.66,0.58 l -0.07,0.08 c -0.85,-0.3 -1.72,-0.56 -2.55,-0.91 v -0.08 c 0.25,0 0.55,0.11 0.84,0 0.71,-1.55 1.2,-3.2 1.81,-4.8 0,-0.11 -0.1,-0.14 -0.18,-0.18 a 2.9,2.9 0 0 0 -2.4,1 c -0.16,0 0,-0.17 0,-0.25 l 1,-1.6 z"
         id="path114" />
      <path
         class="cls-2"
         d="m 108.18875,-36.559954 a 9.73,9.73 0 0 1 -1.86,1.06 l -0.14,-1.56 z m -4.18,-1.6 c 1.33,0.87 3,1 4.47,1.46 0.45,-0.54 0.89,0.29 1.42,0.22 l 0.07,0.07 c -1.77,1 -3.56,2.08 -5.34,3.13 -0.31,0.12 -0.11,0.57 -0.37,0.61 a 22.56,22.56 0 0 1 -0.25,-2.29 c 0,-0.06 0.1,0 0.14,0 0.11,0.18 0.05,0.54 0.37,0.54 a 5.69,5.69 0 0 0 1.56,-0.91 l -0.18,-1.81 c -0.5,-0.15 -1.1,-0.51 -1.64,-0.14 -0.32,0.14 -0.12,0.6 -0.43,0.65 a 14.15,14.15 0 0 1 -0.22,-2 c 0.26,-0.02 0.19,0.32 0.4,0.47 z"
         id="path116" />
      <path
         class="cls-2"
         d="m 128.94875,-20.379954 a 1.83,1.83 0 0 1 0.18,2 c -0.36,0.48 -0.94,0.43 -1.49,0.47 a 14.63,14.63 0 0 1 -0.07,-2.65 2.27,2.27 0 0 1 1.38,0.18 z m 1.24,0.15 a 1.39,1.39 0 0 1 0.29,1.2 2.2,2.2 0 0 1 -1.6,1.16 2.1,2.1 0 0 1 1.27,1 c 0.39,0.57 0.6,1.63 1.53,1.56 v 0.11 c -0.55,0 -1.08,0.1 -1.64,0.08 -0.61,-0.85 -0.89,-1.93 -1.82,-2.55 a 1.91,1.91 0 0 0 -0.54,0 l -0.08,0.11 0.11,2.15 c 0.17,0.24 0.45,0.2 0.69,0.25 0.06,0.15 -0.1,0.2 -0.21,0.19 l -2.18,0.07 -0.08,-0.07 c 0.16,-0.26 0.58,-0.08 0.69,-0.44 l -0.18,-4.84 c -0.12,-0.35 -0.53,-0.21 -0.73,-0.4 l 0.11,-0.07 c 1.46,0.07 3.23,-0.56 4.37,0.49 z"
         id="path118" />
      <path
         class="cls-2"
         d="m 136.54875,-19.469954 -1.42,0.69 a 12.65,12.65 0 0 1 -0.18,-2.07 19.33,19.33 0 0 1 1.6,1.38 z m 3.31,1 v 0.07 c -0.7,0.32 -1.39,0.68 -2.11,0.94 -0.06,-0.25 0.55,-0.33 0.33,-0.69 l -1.28,-1.13 a 8.32,8.32 0 0 0 -1.74,0.87 c 0.1,0.57 0,1.32 0.69,1.56 h 0.51 v 0.11 a 13.88,13.88 0 0 1 -1.89,0.8 2.06,2.06 0 0 0 0.58,-1.71 l -0.22,-3.34 c -0.7,-0.22 0,-0.95 -0.29,-1.46 l 0.07,-0.07 4.8,4 z"
         id="path120" />
      <path
         class="cls-2"
         d="m 148.07875,-34.649954 a 11.86,11.86 0 0 1 -1.86,-1 12.34,12.34 0 0 1 2,-0.66 z m 2.72,-3.91 c 0,0.73 -0.12,1.5 -0.18,2.26 h -0.11 c -0.13,-0.18 0,-0.48 -0.25,-0.61 a 4.69,4.69 0 0 0 -1.78,0.54 l -0.19,1.78 a 2,2 0 0 0 1.51,0.54 c 0.34,-0.07 0.32,-0.51 0.62,-0.58 a 9.23,9.23 0 0 1 -0.26,2.07 1.92,1.92 0 0 0 -0.91,-1.2 l -3.38,-1.78 c -0.55,0.5 -0.85,-0.49 -1.38,-0.51 v -0.11 q 3,-0.9 6,-1.92 c 0.2,-0.11 0.07,-0.44 0.31,-0.48 z"
         id="path122" />
      <path
         class="cls-2"
         d="m 129.96875,-61.649954 c -0.08,0.23 -0.42,0.17 -0.58,0.37 -0.48,0.44 -0.34,1.14 -0.37,1.78 -0.11,1.2 0.56,3.18 -1,3.71 a 3.42,3.42 0 0 1 -2.73,-0.33 1.72,1.72 0 0 1 -0.62,-1.34 l -0.11,-3.71 c -0.13,-0.34 -0.59,-0.08 -0.69,-0.37 a 20.49,20.49 0 0 1 2.43,-0.11 c 0,0.32 -0.39,0.14 -0.55,0.29 l -0.15,0.22 0.11,4.07 a 1.41,1.41 0 0 0 0.77,1 2,2 0 0 0 1.74,-0.07 1.66,1.66 0 0 0 0.58,-1.51 c -0.16,-1.15 0.22,-2.53 -0.33,-3.53 -0.19,-0.27 -0.56,-0.28 -0.72,-0.47 h 0.29 c 0.65,0.09 1.28,-0.11 1.93,0 z"
         id="path124" />
      <path
         class="cls-2"
         d="m 137.92875,-59.249954 h 0.26 a 14.5,14.5 0 0 1 -0.39,2.08 c -0.09,-0.31 -0.14,-0.71 -0.22,-1.06 a 2.12,2.12 0 0 0 -1.18,-1.34 c -0.72,1.57 -1.32,3.19 -2,4.8 0.07,0.33 0.44,0.4 0.65,0.62 0,0.11 -0.23,0.08 -0.32,0 -0.74,-0.35 -1.53,-0.6 -2.26,-1 0.12,-0.16 0.44,0 0.66,0 0.22,0 0.38,-0.37 0.51,-0.58 0.5,-1.46 1.17,-2.84 1.67,-4.29 -1,-0.4 -1.9,0.23 -2.65,0.8 a 9,9 0 0 1 1.14,-1.73 l 0.5,0.3 z"
         id="path126" />
      <path
         class="cls-2"
         d="m 143.45875,-55.279954 c 0,0 0,0.12 0,0.14 -0.28,0 -0.43,-0.42 -0.76,-0.21 l -1.49,1.52 a 22.46,22.46 0 0 0 1.59,1.71 h 0.11 c 0.41,-0.73 2.12,-1.3 1.23,-2.22 0.09,-0.17 0.21,0 0.3,0 l 1.52,1.56 -0.07,0.11 c -0.27,0 -0.44,-0.42 -0.76,-0.22 l -3.49,3.57 c -0.08,0.28 0.26,0.4 0.25,0.65 h -0.09 a 19.26,19.26 0 0 1 -1.6,-1.67 c 0.29,-0.15 0.65,0.54 0.94,0 l 1.6,-1.6 a 22.83,22.83 0 0 0 -1.72,-1.71 h -0.11 l -1.74,1.78 c -0.19,0.29 0.5,0.58 0.11,0.73 l -1.64,-1.64 v -0.07 c 0.28,0 0.55,0.5 0.87,0.15 l 3.42,-3.45 c 0.18,-0.35 -0.51,-0.61 -0.11,-0.77 z"
         id="path128" />
      <path
         class="cls-2"
         d="m 112.58875,-54.149954 v 0.14 c -0.77,-0.29 -1.79,-0.85 -2.58,-0.22 a 1.41,1.41 0 0 0 -0.55,0.95 1.29,1.29 0 0 0 0.58,0.84 c 1.47,0.25 2.63,-1.4 4.11,-0.55 a 2.08,2.08 0 0 1 0.77,1.34 2.32,2.32 0 0 1 -1.12,2 2,2 0 0 0 -0.8,0.55 c 0,0.11 0,0.19 0.07,0.29 l -0.07,0.07 a 19.49,19.49 0 0 1 -1.89,-1.75 l 0.07,-0.07 a 3.1,3.1 0 0 0 2.48,0.69 1.58,1.58 0 0 0 0.94,-1.31 1.25,1.25 0 0 0 -0.65,-1 c -1.58,-0.37 -3.74,2.27 -4.69,-0.29 a 2,2 0 0 1 0.65,-2 c 0.34,-0.38 1.22,-0.32 1.06,-1 h 0.1 z"
         id="path130" />
      <path
         class="cls-2"
         d="m 120.36875,-56.989954 a 2.52,2.52 0 0 1 -0.18,2.34 2.13,2.13 0 0 1 -1.38,0.65 c -1.54,-0.09 -2.25,-1.8 -2.62,-3 a 2.08,2.08 0 0 1 0.4,-2 1.81,1.81 0 0 1 1.85,-0.44 4.1,4.1 0 0 1 1.93,2.45 z m 0.8,-1.2 a 3.16,3.16 0 0 1 -0.07,2.87 3.3,3.3 0 0 1 -2.55,1.67 3.23,3.23 0 0 1 -2.75,-1.23 3.29,3.29 0 0 1 -0.48,-2.77 3.27,3.27 0 0 1 2.65,-2.21 3.21,3.21 0 0 1 3.2,1.67 z"
         id="path132" />
      <path
         class="cls-2"
         d="m 100.73875,-48.309954 a 28.49,28.49 0 0 1 53.25,0 l -2.88,1.07 a 25.42,25.42 0 0 0 -47.48,0 z"
         id="path134" />
      <path
         class="cls-2"
         d="m 102.37875,-33.589954 a 25.4,25.4 0 0 0 50,0 l 3,0.57 a 28.49,28.49 0 0 1 -55.999995,0 z"
         id="path136" />
      <path
         class="cls-2"
         d="m 127.34875,-29.429954 a 6.25,6.25 0 0 1 0.45,2.44 c -1.08,-0.46 -0.41,-1.66 -0.55,-2.44 z m -0.47,0 c 0,0.78 0.39,1.89 -0.47,2.4 h -0.11 a 5.89,5.89 0 0 1 0.58,-2.4 z m 0.8,-0.18 a 15,15 0 0 1 1.12,2.25 c 0,0.13 -0.12,0.28 -0.22,0.26 a 21.61,21.61 0 0 1 -0.98,-2.55 z m -5.82,0 c 0,0.18 -0.18,0.32 -0.33,0.37 -0.32,0 -0.82,0.15 -1,-0.15 0.12,-0.54 0.85,-0.19 1.28,-0.29 z m 3.94,2.54 c -0.11,0.1 -0.24,0 -0.29,-0.14 a 14.71,14.71 0 0 1 1.09,-2.55 13.6,13.6 0 0 1 -0.8,2.69 z m 0.55,-2.69 a 19.26,19.26 0 0 1 -1.35,2.26 c -0.06,0 -0.1,0 -0.15,-0.07 a 9.77,9.77 0 0 1 1.45,-2.19 z m -2,1.86 h -0.07 c 0.23,-0.75 1.05,-1.27 1.6,-1.86 -0.23,0.7 -1.21,1.11 -1.55,1.86 z m 0.15,-1.82 c -0.21,0.12 -0.42,0.65 -0.8,0.4 0,-0.18 0.16,-0.31 0.29,-0.4 a 0.89,0.89 0 0 1 0.49,0 z m -1.49,0 a 0.27,0.27 0 0 1 -0.18,0.4 c -0.27,0 -0.44,0.06 -0.66,-0.07 a 0.67,0.67 0 0 1 0.22,-0.33 1.3,1.3 0 0 1 0.6,0 z m 10.59,0.07 c -0.1,0.6 -0.87,0.22 -1.3,0.33 0,-0.25 0.29,-0.35 0.47,-0.47 0.28,0.04 0.68,-0.12 0.83,0.14 z m -1.52,-0.07 c 0,0.17 -0.18,0.32 -0.33,0.36 a 0.42,0.42 0 0 1 -0.51,-0.11 c 0,-0.2 0.12,-0.27 0.26,-0.32 0.14,-0.05 0.43,-0.07 0.58,0.07 z m -1.38,0.07 a 0.51,0.51 0 0 1 -0.19,0.33 c -0.34,0.14 -0.58,-0.22 -0.83,-0.4 0.26,-0.08 0.8,-0.17 1.02,0.07 z m -1.17,2 c 0,0.09 0.05,0.21 -0.07,0.25 -0.44,-0.83 -1.38,-1.56 -1.53,-2.51 z m 0.84,-0.8 v 0.11 a 13.31,13.31 0 0 1 -1.78,-1.82 13,13 0 0 1 1.78,1.75 z m -2.18,-1.71 a 23.28,23.28 0 0 1 1.92,2.22 c 0,0.12 0,0.23 -0.1,0.29 -0.63,-0.87 -1.39,-1.6 -1.93,-2.51 z m -4.11,1.64 h -0.11 c 0,-0.51 0.7,-0.76 1,-1.13 l 0.73,-0.51 c -0.41,0.66 -1.1,1.06 -1.62,1.68 z m 1.82,-2.33 c -0.39,0.82 -1.41,0.71 -2.22,0.66 0,-0.27 0.44,-0.5 0.69,-0.69 0.56,0.13 1.43,-1.32 1.53,0.03 z m 3.78,-0.36 a 6.69,6.69 0 0 1 1,0.94 c -0.75,-0.06 -1.8,0.38 -2.26,-0.5 l 0.3,-0.88 c 0.24,0.31 0.63,0.29 0.96,0.44 z m -0.95,-7.31 a 5.76,5.76 0 0 0 0.4,3.93 l -0.14,0.91 c -0.48,-0.08 -0.14,0.51 -0.29,0.72 a 4.44,4.44 0 0 1 -0.59,1.17 l 0.19,0.11 a 3.68,3.68 0 0 1 -1.13,1.89 3.18,3.18 0 0 1 -1.2,-2 h 0.25 a 4.13,4.13 0 0 0 -0.42,-1.09 c -0.18,-0.29 0.24,-0.85 -0.22,-0.84 l -0.07,0.07 c -0.71,-1.29 0.53,-2.4 0.44,-3.74 0.1,-0.24 -0.24,-0.66 0.21,-0.62 a 1.72,1.72 0 0 0 1.53,-0.87 c 0.19,-0.29 0.05,-0.78 0.4,-0.95 a 1.38,1.38 0 0 1 0.64,1.31 z m -1.63,-1.89 c 0,0.07 0,0.19 -0.11,0.15 h -0.11 v -0.22 c 0.07,0.02 0.22,-0.07 0.22,0.07 z m 4.83,0.07 c 0.2,0 0.2,-0.27 0.44,-0.22 0.18,0.39 -0.6,0.53 -0.26,0.8 0.2,-0.07 0.44,-0.3 0.66,-0.1 0,0.3 -0.4,0.3 -0.47,0.54 a 1,1 0 0 1 0.79,0.4 c 0.06,0.15 -0.1,0.2 -0.21,0.18 -0.28,0.06 -0.56,-0.11 -0.77,0 0.17,0.28 0.59,0.33 0.55,0.73 -0.37,0.15 -0.61,-0.25 -1,-0.29 -0.09,0.26 0.35,0.4 0.29,0.69 -0.33,0.11 -0.58,-0.23 -0.83,-0.36 -0.07,0.17 0.05,0.35 0.14,0.5 a 0.51,0.51 0 0 1 -0.65,-0.29 c -0.36,-0.51 0.32,-0.87 0.47,-1.3 0.48,-0.48 0.47,-1.16 0.77,-1.71 0.11,0.12 -0.05,0.31 0.08,0.43 z m -8.29,1.13 a 1.68,1.68 0 0 1 0.58,1 0.85,0.85 0 0 1 -0.43,0.8 0.23,0.23 0 0 1 -0.26,-0.26 c -0.06,-0.11 0.14,-0.21 0,-0.29 -0.19,0.13 -0.37,0.39 -0.62,0.26 -0.09,-0.26 0.14,-0.47 0.22,-0.69 -0.29,0 -0.5,0.44 -0.88,0.21 -0.08,-0.3 0.19,-0.47 0.33,-0.69 -0.29,-0.16 -0.51,0.17 -0.8,0 0,-0.26 0.46,-0.35 0.69,-0.54 -0.2,-0.14 -0.52,-0.32 -0.54,-0.62 0.33,-0.18 0.56,0.35 0.87,0.11 0,-0.27 -0.32,-0.51 -0.15,-0.77 a 1.55,1.55 0 0 1 0.33,0.3 c 0.23,-0.07 0,-0.3 0,-0.44 0.33,0.47 0.06,1.25 0.66,1.62 z m 2.77,-1.44 c -0.09,0.18 0,0.52 -0.26,0.55 a 1.42,1.42 0 0 1 -0.65,-0.29 c 0.24,-0.12 0.61,0.24 0.83,0 0,-0.37 -0.32,-0.57 -0.54,-0.84 a 0.58,0.58 0 0 1 0.62,0.58 z m 7,-0.94 c 0,0.34 -0.38,0.18 -0.55,0.32 -0.1,-0.21 0.25,-0.32 0.4,-0.4 0.15,-0.08 0.14,0.02 0.13,0.1 z m 0.21,-0.55 c -0.16,0.26 -0.5,0.25 -0.76,0.33 a 1.21,1.21 0 0 1 0.76,-0.58 c 0.18,0.08 -0.02,0.19 -0.02,0.27 z m 0,-0.94 c -0.07,0.35 -0.52,0.6 -0.8,0.83 -0.12,-0.4 0.36,-0.73 0.65,-1.05 0.07,0 0.13,0.14 0.1,0.24 z m -11.46,-0.11 a 5.14,5.14 0 0 0 -0.1,2.14 1.07,1.07 0 0 1 -0.62,-0.25 0.62,0.62 0 0 1 -0.11,-0.44 c 0.18,-0.08 0.34,0.31 0.54,0.07 0,-0.35 -0.5,-0.47 -0.61,-0.8 0.26,-0.18 0.51,0.39 0.69,0 -0.11,-0.31 -0.72,-0.42 -0.55,-0.83 l 0.36,0.18 c 0,-0.3 -0.27,-0.52 -0.18,-0.8 0.22,0.17 0.34,0.5 0.53,0.75 z m 11.24,-0.77 a 2.32,2.32 0 0 1 -0.58,1 v 0 a 1.71,1.71 0 0 1 0.53,-0.98 z m -11.13,0.37 c -0.2,-0.3 -0.53,-0.75 -0.29,-1.13 0.18,0.31 0.14,0.77 0.24,1.15 z m 10.44,-1.2 c -0.08,0.3 -0.3,0.63 -0.15,0.94 0.2,-0.13 0.19,-0.47 0.44,-0.54 a 2.37,2.37 0 0 1 -0.44,1.16 3.32,3.32 0 0 1 -0.14,-1.93 c 0.16,0.03 0.14,0.27 0.24,0.39 z m -10,-0.8 a 2.92,2.92 0 0 1 -0.11,1.56 c 0,-0.5 -0.8,-1.23 0.02,-1.54 z m -0.14,-5 a 8.28,8.28 0 0 1 0.11,1.67 l 0.07,0.07 c 0.24,-0.09 0.27,-0.42 0.55,-0.44 0.65,1.94 -0.25,3.87 -0.48,5.75 a 6.63,6.63 0 0 0 0.68,2.89 c -0.24,0.89 0.81,1.25 0.91,2 0.19,0.3 0.5,0.05 0.76,0.07 0.26,0.02 0.39,0.42 0.69,0.22 0.3,-0.2 0.38,-0.8 0.33,-1.23 -0.37,-0.49 -1.09,-0.56 -1.31,-1.17 a 2.9,2.9 0 0 1 1.09,0.18 l 0.07,-0.07 a 2.51,2.51 0 0 0 -1.09,-0.83 c 0.18,-0.2 0.58,-0.1 0.84,-0.08 1.16,0.47 2.66,0.83 3.16,2.22 0.1,0.3 0.08,0.66 0.29,0.91 0.38,-0.08 0.77,0.17 1.09,-0.07 1.4,-1.19 1,-3.12 1.75,-4.58 a 49.44,49.44 0 0 1 -0.18,-6.22 0.13,0.13 0 0 1 0.21,0 c 0.1,0.1 0.13,0.29 0.29,0.29 0.19,-0.51 0,-1.15 0.44,-1.56 0.41,0.11 0.55,0.59 0.58,1 v 1.42 l 0.08,0.07 a 3.52,3.52 0 0 1 1,-1.68 c 0.13,-0.09 0.26,0.08 0.25,0.22 a 4.53,4.53 0 0 1 -0.58,2.44 c 0,0.15 0,0.32 0.11,0.44 0.57,-0.71 1.06,-1.79 2,-2.08 0.32,0.52 -0.11,1.09 -0.33,1.57 a 5.09,5.09 0 0 0 -0.8,1.23 l 0.07,0.08 a 5.12,5.12 0 0 1 2.58,-1.79 c 0.19,0.21 -0.05,0.41 -0.07,0.62 -0.4,0.3 -0.35,0.79 -0.66,1.13 -0.31,0.34 -0.8,0.64 -1.09,1 0.4,-0.08 0.75,-0.51 1.16,-0.66 a 3.88,3.88 0 0 1 1.86,-0.58 c 0.15,0.42 -0.41,0.68 -0.69,0.95 a 2.28,2.28 0 0 0 -0.73,0.72 c 0.65,-0.1 1.36,-0.57 2.07,-0.29 -0.1,0.47 -0.6,0.68 -0.83,1.09 0.17,0.15 0.41,0 0.62,0 0.21,0 0.64,0 0.87,0.29 -0.07,0.44 -0.66,0.57 -0.84,0.95 0.37,0.21 0.85,0.15 1.17,0.47 v 0.18 l -0.8,0.73 v 0.11 a 3.68,3.68 0 0 1 1.24,0.84 v 0.18 c -0.34,0.23 -0.72,0.37 -1,0.62 0.15,0.32 0.67,0.46 0.69,0.87 l -1.13,0.55 c 0.09,0.36 0.56,0.7 0.44,1.16 -0.39,0.13 -0.88,0 -1.24,0.22 a 2.22,2.22 0 0 1 0.29,1 c -0.43,0.13 -1,0 -1.34,0.25 a 1.14,1.14 0 0 1 -0.18,0.84 h -0.77 l -0.47,0.69 c -0.36,0.06 -0.73,-0.3 -1,0 l -0.29,0.51 c -0.27,0 -0.46,-0.15 -0.73,-0.14 -0.23,0.17 -0.24,0.68 -0.58,0.58 -0.18,-0.07 -0.33,-0.31 -0.55,-0.18 a 2.49,2.49 0 0 1 -0.36,0.43 c -0.25,0 -0.49,-0.37 -0.76,-0.14 -0.27,0.23 -0.25,0.28 -0.44,0.25 -0.12,-0.19 -0.38,-0.47 -0.62,-0.25 -0.24,0.22 -0.33,0.13 -0.51,0 -0.57,-0.43 -0.37,-1.21 -0.72,-1.7 -0.16,-0.08 -0.27,0.1 -0.29,0.21 -0.19,0.71 -0.49,1.65 0.29,2.18 l 1.52,1.46 c 0.93,-0.16 1.54,0.43 2.44,0.33 0.17,0 0.26,0.21 0.33,0.36 a 0.66,0.66 0 0 1 -0.47,0.69 c -0.6,-0.2 -1.07,0.79 -1.53,0.07 -0.26,0.08 -0.43,0.37 -0.77,0.26 -0.15,-0.12 -0.32,-0.31 -0.54,-0.18 0.15,0.55 0.73,0.92 0.69,1.56 -0.54,0 -0.45,0.77 -1,0.69 -0.14,0.17 -0.11,0.55 -0.43,0.51 -0.48,-0.16 -0.66,0.59 -1.17,0.22 l -0.43,0.51 -0.81,-0.16 c -0.26,0.18 -0.4,0.66 -0.76,0.37 -0.13,-0.17 -0.29,-0.41 -0.51,-0.44 -0.22,-0.03 -0.32,0.18 -0.51,0.18 -0.17,-0.76 -1.07,0.16 -1.16,-0.65 -0.29,-0.13 -0.82,0 -0.84,-0.48 -0.16,-0.14 -0.46,0 -0.55,-0.32 0.15,-0.39 -0.39,-0.3 -0.36,-0.62 a 3.8,3.8 0 0 1 0.62,-1.24 c -0.25,-0.17 -0.46,0.16 -0.73,0.15 -0.27,-0.01 -0.5,-0.39 -0.73,0 a 0.88,0.88 0 0 1 -0.65,-0.18 2,2 0 0 1 -1.16,-0.11 0.67,0.67 0 0 1 -0.15,-0.69 c 0.42,-0.7 1.42,-0.14 2,-0.62 1.35,0.43 2,-1 2.84,-1.6 0.62,-0.8 0.09,-1.72 -0.11,-2.54 -0.14,0 -0.18,0.15 -0.22,0.25 0,0.59 0,1.23 -0.47,1.64 a 1.09,1.09 0 0 0 -1.16,0.22 c -0.3,-0.08 -0.44,-0.63 -0.8,-0.44 -0.19,0.14 -0.35,0.48 -0.62,0.33 -0.27,-0.15 -0.21,-0.35 -0.4,-0.44 -0.19,-0.09 -0.56,0.33 -0.76,0 -0.12,-0.17 -0.26,-0.51 -0.55,-0.33 a 0.91,0.91 0 0 1 -0.54,0.11 l -0.37,-0.62 c -0.33,-0.12 -0.84,0.3 -0.91,-0.21 0,-0.16 0,-0.42 -0.29,-0.37 -0.4,0 -0.84,0.19 -1.2,0 0,-0.34 0.23,-0.66 0.26,-1 -0.38,-0.09 -1,0.06 -1.24,-0.29 a 4,4 0 0 1 0.25,-0.91 5.3,5.3 0 0 1 -1.38,-0.29 c -0.09,-0.34 0.21,-0.59 0.37,-0.87 -0.31,-0.24 -0.73,-0.26 -1,-0.55 0,-0.48 0.54,-0.7 0.8,-1.05 -0.2,-0.35 -0.61,-0.49 -0.87,-0.84 a 3.39,3.39 0 0 1 1,-0.91 c -0.21,-0.42 -0.75,-0.65 -0.8,-1.09 a 1.94,1.94 0 0 1 1,-0.44 l 0.1,-0.1 c -0.19,-0.32 -0.53,-0.57 -0.65,-0.91 0.48,-0.2 1.1,0 1.56,-0.29 -0.13,-0.43 -0.66,-0.7 -0.76,-1.13 0.49,-0.28 1,0.06 1.53,0 a 2.07,2.07 0 0 1 -0.77,-1.42 c 0.32,-0.22 0.61,0.08 0.91,0.15 a 11.41,11.41 0 0 0 1.42,0.76 l 0.07,-0.07 c -0.4,-0.66 -1.29,-1.16 -1.2,-2 a 7.12,7.12 0 0 1 2.58,1.49 c 0,-0.31 -0.3,-0.56 -0.39,-0.87 -0.24,-0.63 -0.7,-1.16 -0.62,-1.93 0.4,0 0.73,0.46 1,0.77 l 0.84,1.16 c 0.26,-0.41 -0.14,-0.73 -0.22,-1.09 0,-0.64 -0.35,-1.35 0,-1.93 0.59,0.14 0.68,0.87 0.91,1.35 a 6.1,6.1 0 0 0 0.4,1.34 11.76,11.76 0 0 0 0,-2.65 1.46,1.46 0 0 1 0.62,-0.95 z"
         id="path138" />
      <rect
         class="cls-1"
         y="-38.389954"
         width="3.0799999"
         height="0.77999997"
         id="rect140"
         x="98.798752" />
      <rect
         class="cls-1"
         x="42.921967"
         y="97.178299"
         width="0.76999998"
         height="3.0599999"
         transform="rotate(-87.68)"
         id="rect142" />
      <rect
         class="cls-1"
         x="47.966461"
         y="95.480934"
         width="0.77246004"
         height="3.0597444"
         transform="rotate(-85.426079)"
         id="rect144"
         style="stroke-width:1.00319" />
      <rect
         class="cls-1"
         x="53.048744"
         y="93.395439"
         width="0.76999998"
         height="3.05"
         transform="rotate(-83.14)"
         id="rect146" />
      <rect
         class="cls-1"
         x="58.005707"
         y="91.209343"
         width="0.76999998"
         height="3.05"
         transform="rotate(-80.87)"
         id="rect148" />
      <rect
         class="cls-1"
         x="62.911224"
         y="88.740288"
         width="0.76999998"
         height="3.05"
         transform="rotate(-78.57)"
         id="rect150" />
      <rect
         class="cls-1"
         x="67.636986"
         y="86.193092"
         width="0.76999998"
         height="3.0599999"
         transform="rotate(-76.32)"
         id="rect152" />
      <rect
         class="cls-1"
         x="72.367653"
         y="83.368027"
         width="0.77999997"
         height="3.0799999"
         transform="rotate(-74)"
         id="rect154" />
      <rect
         class="cls-1"
         x="152.74875"
         y="-38.389954"
         width="3.0799999"
         height="0.77999997"
         id="rect156" />
      <rect
         class="cls-1"
         x="154.14368"
         y="-33.57188"
         width="3.0599999"
         height="0.76999998"
         transform="rotate(-2.25)"
         id="rect158" />
      <polygon
         class="cls-1"
         points="53.86,26.66 56.9,26.42 56.84,25.65 53.8,25.89 "
         id="polygon160"
         transform="translate(98.798755,-66.649954)" />
      <rect
         class="cls-1"
         x="156.36101"
         y="-23.398617"
         width="3.05"
         height="0.76999998"
         transform="rotate(-6.86)"
         id="rect162" />
      <rect
         class="cls-1"
         x="157.14449"
         y="-18.342228"
         width="3.05"
         height="0.76999998"
         transform="rotate(-9.14)"
         id="rect164" />
      <rect
         class="cls-1"
         x="157.78291"
         y="-13.221254"
         width="3.05"
         height="0.76999998"
         transform="rotate(-11.43)"
         id="rect166" />
      <rect
         class="cls-1"
         x="158.16524"
         y="-7.8032198"
         width="3.0599999"
         height="0.76999998"
         transform="rotate(-13.82)"
         id="rect168" />
      <rect
         class="cls-1"
         x="158.30606"
         y="-2.9649482"
         width="3.0799999"
         height="0.77999997"
         transform="rotate(-16)"
         id="rect170" />
    </g>
  </g>
</svg>
