<svg xmlns="http://www.w3.org/2000/svg" viewBox="0 0 272.35 56.97"><defs><style>.cls-1,.cls-2{fill:#ffffff;}.cls-2{fill-rule:evenodd;}</style></defs><g id="Layer_2" data-name="Layer 2"><g id="Layer_1-2" data-name="Layer 1"><path class="cls-1" d="M69,28.56h2.43c3.52,0,4.91,2,4.91,4.89,0,3.56-2.38,4.93-5.63,4.93H69Zm1,9h.8c2.78,0,4.6-1.12,4.6-4.13s-1.79-4-4-4H70Z"/><path class="cls-1" d="M83.2,38.15a5.75,5.75,0,0,1-2.09.4c-2.37,0-3.26-1.61-3.26-3.76s1.21-3.76,3-3.76c2,0,2.86,1.64,2.86,3.56V35H78.82c0,1.52.82,2.75,2.36,2.75a4.64,4.64,0,0,0,2-.54Zm-.44-3.87c0-1.25-.51-2.49-1.83-2.49a2.35,2.35,0,0,0-2.11,2.49Z"/><path class="cls-1" d="M85.33,31.2h.89l-.06,1.31h0A2.5,2.5,0,0,1,88.49,31c2.11,0,3,1.58,3,3.76s-1,3.76-3,3.76a2.23,2.23,0,0,1-2.24-1.4h0v4.18h-.89Zm3,.59c-1.58,0-2.13,1.69-2.13,3s.55,3,2.13,3,2.12-1.61,2.12-3S90,31.79,88.35,31.79Z"/><path class="cls-1" d="M97.36,37.22h0a2.54,2.54,0,0,1-2.28,1.33c-2,0-2.37-1.38-2.37-2,0-2.41,2.56-2.52,4.42-2.52h.17v-.36c0-1.23-.44-1.85-1.63-1.85a3.81,3.81,0,0,0-2.11.59v-.85a5.63,5.63,0,0,1,2.11-.5c1.77,0,2.52.81,2.52,2.68v3.16a10.34,10.34,0,0,0,.07,1.51h-.88Zm-.08-2.46H97c-1.54,0-3.37.16-3.37,1.73,0,.94.68,1.3,1.5,1.3,2.08,0,2.12-1.82,2.12-2.59Z"/><path class="cls-1" d="M100.28,32.81a12.18,12.18,0,0,0-.06-1.61h.89v1.38h0A2.14,2.14,0,0,1,103,31a2.8,2.8,0,0,1,.62.09v.93A2.27,2.27,0,0,0,103,32c-1.41,0-1.79,1.58-1.79,2.87v3.55h-.88Z"/><path class="cls-1" d="M108.06,32h-1.64V36.6c0,.65.24,1.19,1,1.19a2.06,2.06,0,0,0,.82-.17l0,.73a3.29,3.29,0,0,1-1.08.2c-1.58,0-1.63-1.09-1.63-2.4V32h-1.41V31.2h1.41V29.47l.88-.31v2h1.64Z"/><path class="cls-1" d="M118.31,38.38V33.61c0-1-.38-1.82-1.52-1.82-1,0-1.92.83-1.92,2.62v4H114V33.61c0-1-.38-1.82-1.52-1.82-1,0-1.93.83-1.93,2.62v4h-.88V32.89a16.19,16.19,0,0,0-.06-1.69h.86v1.21l0,0a2.24,2.24,0,0,1,2.23-1.4,1.8,1.8,0,0,1,1.9,1.52h0A2.41,2.41,0,0,1,116.93,31a2.2,2.2,0,0,1,2.27,2.41v4.94Z"/><path class="cls-1" d="M126.18,38.15a5.74,5.74,0,0,1-2.08.4c-2.38,0-3.27-1.61-3.27-3.76S122,31,123.86,31c2,0,2.85,1.64,2.85,3.56V35H121.8c0,1.52.82,2.75,2.37,2.75a4.59,4.59,0,0,0,2-.54Zm-.44-3.87c0-1.25-.51-2.49-1.83-2.49a2.35,2.35,0,0,0-2.11,2.49Z"/><path class="cls-1" d="M128.4,32.89a16.19,16.19,0,0,0-.06-1.69h.86v1.28h0A2.29,2.29,0,0,1,131.55,31c1.77,0,2.45,1.18,2.45,2.76v4.59h-.89V34c0-1.35-.48-2.23-1.7-2.23-1.62,0-2.12,1.42-2.12,2.62v4h-.89Z"/><path class="cls-1" d="M139.32,32h-1.63V36.6c0,.65.24,1.19.95,1.19a2,2,0,0,0,.82-.17l.06.73a3.42,3.42,0,0,1-1.09.2c-1.57,0-1.63-1.09-1.63-2.4V32h-1.41V31.2h1.41V29.47l.89-.31v2h1.63Z"/><path class="cls-1" d="M144.86,32h-1.45V31.2h1.45v-.52c0-1.5.06-3,1.9-3a2,2,0,0,1,.83.14l-.06.77a1.54,1.54,0,0,0-.7-.15c-1.21,0-1.08,1.3-1.08,2.16v.62h1.62V32h-1.62v6.42h-.89Z"/><path class="cls-1" d="M151.74,31c2.32,0,3.35,1.8,3.35,3.76s-1,3.76-3.35,3.76-3.35-1.8-3.35-3.76S149.42,31,151.74,31Zm0,6.76c1.55,0,2.38-1.34,2.38-3s-.83-3-2.38-3-2.38,1.34-2.38,3S150.19,37.79,151.74,37.79Z"/><path class="cls-1" d="M156.76,32.81a14.6,14.6,0,0,0,0-1.61h.88v1.38h0A2.14,2.14,0,0,1,159.46,31a2.63,2.63,0,0,1,.62.09v.93a2.15,2.15,0,0,0-.64-.09c-1.41,0-1.79,1.58-1.79,2.87v3.55h-.89Z"/><path class="cls-1" d="M166,28.56h4.81v.84H167v3.5h3.64v.85H167v3.78h4v.85h-5Z"/><path class="cls-1" d="M178.64,38.38h-.89V37.24h0a2.31,2.31,0,0,1-2.24,1.31c-2,0-3-1.64-3-3.76s.84-3.76,3-3.76a2.43,2.43,0,0,1,2.24,1.38h0V27.83h.89Zm-3-.59c1.58,0,2.12-1.69,2.12-3s-.54-3-2.12-3-2.12,1.61-2.12,3S173.94,37.79,175.63,37.79Z"/><path class="cls-1" d="M186.38,36.69a16.19,16.19,0,0,0,.06,1.69h-.86V37.1h0a2.29,2.29,0,0,1-2.32,1.45c-1.77,0-2.45-1.19-2.45-2.76V31.2h.89v4.36c0,1.35.47,2.23,1.7,2.23,1.62,0,2.12-1.42,2.12-2.62v-4h.89Z"/><path class="cls-1" d="M193.27,32.16a4.08,4.08,0,0,0-1.53-.37c-1.73,0-2.7,1.25-2.7,3a2.72,2.72,0,0,0,2.6,3,4.59,4.59,0,0,0,1.62-.33l.08.83a5.29,5.29,0,0,1-1.84.26c-2.31,0-3.43-1.76-3.43-3.76A3.48,3.48,0,0,1,191.61,31a5.47,5.47,0,0,1,1.73.28Z"/><path class="cls-1" d="M199,37.22h0a2.52,2.52,0,0,1-2.28,1.33c-2,0-2.36-1.38-2.36-2,0-2.41,2.56-2.52,4.42-2.52h.17v-.36c0-1.23-.44-1.85-1.64-1.85a3.84,3.84,0,0,0-2.11.59v-.85a5.63,5.63,0,0,1,2.11-.5c1.78,0,2.52.81,2.52,2.68v3.16a10.34,10.34,0,0,0,.07,1.51H199Zm-.08-2.46h-.26c-1.53,0-3.36.16-3.36,1.73,0,.94.68,1.3,1.49,1.3,2.08,0,2.13-1.82,2.13-2.59Z"/><path class="cls-1" d="M205,32h-1.63V36.6c0,.65.23,1.19,1,1.19a2,2,0,0,0,.82-.17l0,.73a3.29,3.29,0,0,1-1.08.2c-1.57,0-1.63-1.09-1.63-2.4V32h-1.41V31.2h1.41V29.47l.89-.31v2H205Z"/><path class="cls-1" d="M207.45,29.29h-.88V28.11h.88Zm-.88,1.91h.88v7.18h-.88Z"/><path class="cls-1" d="M212.49,31c2.32,0,3.35,1.8,3.35,3.76s-1,3.76-3.35,3.76-3.35-1.8-3.35-3.76S210.17,31,212.49,31Zm0,6.76c1.55,0,2.38-1.34,2.38-3s-.83-3-2.38-3-2.38,1.34-2.38,3S210.94,37.79,212.49,37.79Z"/><path class="cls-1" d="M217.51,32.89c0-.55,0-1.11,0-1.69h.86v1.28h0A2.29,2.29,0,0,1,220.66,31c1.78,0,2.45,1.18,2.45,2.76v4.59h-.88V34c0-1.35-.48-2.23-1.71-2.23-1.61,0-2.12,1.42-2.12,2.62v4h-.89Z"/><rect class="cls-1" x="68.18" y="21.04" width="204.16" height="2.12"/><path class="cls-2" d="M76.67,5.24a9.41,9.41,0,0,0-2.87-.41c-3.32,0-5.36,1.88-5.36,5.22s2.2,4.88,5.36,4.88a12.25,12.25,0,0,0,3.16-.5V9.17H73v1.54h2.07v2.54a5.07,5.07,0,0,1-1.29.14,3.21,3.21,0,0,1-3.32-3.48A3.33,3.33,0,0,1,74,6.37a6.36,6.36,0,0,1,2.52.52Z"/><path class="cls-2" d="M78.36,11.21a3.77,3.77,0,0,0,7.54,0,3.77,3.77,0,1,0-7.54,0Zm2-.22a1.84,1.84,0,1,1,3.63,0c0,1.2-.38,2.49-1.82,2.49S80.31,12.18,80.31,11Z"/><polygon class="cls-2" points="89.21 14.77 91.32 14.77 93.98 7.56 92.1 7.56 90.37 12.81 90.34 12.81 88.55 7.56 86.53 7.56 89.21 14.77"/><path class="cls-2" d="M96.41,10.46a1.63,1.63,0,0,1,1.66-1.7c1.05,0,1.47.79,1.53,1.7Zm4.45,2.37a4.81,4.81,0,0,1-2.4.73,1.88,1.88,0,0,1-2-1.82h5c0-2.52-.76-4.35-3.43-4.35-2.24,0-3.34,1.72-3.34,3.81a3.42,3.42,0,0,0,3.76,3.73,4.94,4.94,0,0,0,2.48-.57Z"/><path class="cls-2" d="M102.86,14.76h1.88V12.12c0-1,0-2.94,1.52-2.94a1.84,1.84,0,0,1,.84.16V7.45a1.88,1.88,0,0,0-.57-.06,2.2,2.2,0,0,0-2,1.81h0V7.56h-1.67Z"/><path class="cls-2" d="M108.48,14.76h1.87V11.24c0-.92.3-2.39,1.66-2.39,1.2,0,1.21,1.19,1.21,2.07v3.84h1.88V10.22c0-1.63-.74-2.83-2.45-2.83a2.67,2.67,0,0,0-2.36,1.15h0v-1h-1.78Z"/><path class="cls-2" d="M117,14.76h1.87V11.27c0-.94.16-2.42,1.4-2.42,1.08,0,1.08,1,1.08,1.62v4.29h1.87V11.27c0-.94.16-2.42,1.4-2.42,1.08,0,1.08,1,1.08,1.62v4.29h1.87V10.22c0-1.61-.5-2.83-2.28-2.83A2.49,2.49,0,0,0,123,8.66a2.1,2.1,0,0,0-2.13-1.27,2.53,2.53,0,0,0-2.14,1.18h0v-1H117Z"/><path class="cls-2" d="M130.73,10.46a1.64,1.64,0,0,1,1.67-1.7c1,0,1.47.79,1.52,1.7Zm4.45,2.37a4.77,4.77,0,0,1-2.39.73,1.89,1.89,0,0,1-2.06-1.82h5c0-2.52-.75-4.35-3.43-4.35-2.24,0-3.34,1.72-3.34,3.81a3.42,3.42,0,0,0,3.76,3.73,4.94,4.94,0,0,0,2.48-.57Z"/><path class="cls-2" d="M137.15,14.76H139V11.24c0-.92.29-2.39,1.65-2.39,1.2,0,1.22,1.19,1.22,2.07v3.84h1.87V10.22c0-1.63-.74-2.83-2.44-2.83A2.69,2.69,0,0,0,139,8.54h0v-1h-1.77Z"/><path class="cls-2" d="M146.28,12.6a2.12,2.12,0,0,0,2.28,2.33,4.6,4.6,0,0,0,1.38-.17l-.05-1.48a1.66,1.66,0,0,1-.86.2c-.71,0-.88-.58-.88-1.19V8.93h1.67V7.56h-1.67v-2l-1.87.6V7.56h-1.39V8.93h1.39Z"/><path class="cls-2" d="M154.46,11.21a3.77,3.77,0,0,0,7.54,0,3.77,3.77,0,1,0-7.54,0Zm2-.22A1.84,1.84,0,1,1,160,11c0,1.2-.38,2.49-1.82,2.49S156.42,12.18,156.42,11Z"/><path class="cls-2" d="M164.12,14.76H166V8.93h1.64V7.56H166v-.9c0-.56.2-1.1.83-1.1a1.43,1.43,0,0,1,.81.25l.16-1.55a6.3,6.3,0,0,0-1.38-.16,2.2,2.2,0,0,0-2.29,2.45v1h-1.39V8.93h1.39Z"/><path class="cls-2" d="M178.29,5.18A7.31,7.31,0,0,0,176,4.83c-1.72,0-3.41.8-3.41,3,0,3.23,4.28,2.46,4.28,4.32,0,.89-1,1.26-1.73,1.26a4.7,4.7,0,0,1-2.22-.6l-.18,1.76a8.56,8.56,0,0,0,2.51.38c2,0,3.66-.81,3.66-2.95,0-3.27-4.28-2.56-4.28-4.25a1.36,1.36,0,0,1,1.54-1.36,5,5,0,0,1,2,.42Z"/><path class="cls-2" d="M180,11.21a3.77,3.77,0,0,0,7.54,0,3.77,3.77,0,1,0-7.54,0Zm2-.22a1.84,1.84,0,1,1,3.62,0c0,1.2-.38,2.49-1.82,2.49S181.94,12.18,181.94,11Z"/><path class="cls-2" d="M195.57,7.56H193.7v3.52c0,.93-.3,2.4-1.66,2.4-1.2,0-1.21-1.19-1.21-2.07V7.56H189v4.55c0,1.62.74,2.82,2.45,2.82a3,3,0,0,0,2.37-1.14h0v1h1.78Z"/><path class="cls-2" d="M198.08,12.6a2.12,2.12,0,0,0,2.28,2.33,4.67,4.67,0,0,0,1.39-.17l-.06-1.48a1.59,1.59,0,0,1-.85.2c-.72,0-.88-.58-.88-1.19V8.93h1.66V7.56H200v-2l-1.88.6V7.56H196.7V8.93h1.38Z"/><path class="cls-2" d="M202.87,14.76h1.88V11.24c0-.92.29-2.39,1.65-2.39,1.2,0,1.22,1.19,1.22,2.07v3.84h1.87V10.22c0-1.63-.74-2.83-2.45-2.83a2.66,2.66,0,0,0-2.26,1.15h0V4.27h-1.88Z"/><path class="cls-2" d="M220.7,11h-2.86l1.42-4h0Zm-6.3,3.77h2l.85-2.23h4l.84,2.23h2.17L220.42,5h-2.21Z"/><path class="cls-2" d="M231.93,7.56h-1.88v3.52c0,.93-.29,2.4-1.65,2.4-1.2,0-1.21-1.19-1.21-2.07V7.56h-1.88v4.55c0,1.62.74,2.82,2.45,2.82a3,3,0,0,0,2.36-1.14h0v1h1.78Z"/><path class="cls-2" d="M238.23,7.66a8.41,8.41,0,0,0-2-.27c-1.47,0-2.83.69-2.83,2.24,0,2.6,3.26,1.64,3.26,3,0,.7-.75.88-1.23.88a4.19,4.19,0,0,1-1.85-.47l-.11,1.53a8.13,8.13,0,0,0,2.13.31c1.52,0,3-.67,3-2.35,0-2.6-3.26-1.87-3.26-3,0-.62.6-.8,1.11-.8a4.57,4.57,0,0,1,1.68.31Z"/><path class="cls-2" d="M240.62,12.6a2.12,2.12,0,0,0,2.28,2.33,4.6,4.6,0,0,0,1.38-.17l-.05-1.48a1.66,1.66,0,0,1-.86.2c-.71,0-.88-.58-.88-1.19V8.93h1.67V7.56h-1.67v-2l-1.87.6V7.56h-1.39V8.93h1.39Z"/><path class="cls-2" d="M245.45,14.76h1.87V12.12c0-1,0-2.94,1.53-2.94a1.87,1.87,0,0,1,.84.16V7.45a1.91,1.91,0,0,0-.57-.06,2.22,2.22,0,0,0-2,1.81h0V7.56h-1.67Z"/><path class="cls-2" d="M251.19,9.55a3.76,3.76,0,0,1,2.23-.79c1.1,0,1.62.39,1.62,1.56h-1a5.72,5.72,0,0,0-2.42.41,2.12,2.12,0,0,0-1.23,2.06,2.3,2.3,0,0,0,2.52,2.14,2.61,2.61,0,0,0,2.23-1.24h0a10.21,10.21,0,0,0,.09,1.07h1.65c0-.55-.07-1.06-.08-1.6s0-1.08,0-1.81v-.92c0-2.13-.91-3-3.11-3a6.41,6.41,0,0,0-2.51.55Zm.95,3.13c0-1.11,1.25-1.25,2.09-1.25H255a2.4,2.4,0,0,1-.39,1.49,1.6,1.6,0,0,1-1.32.64C252.66,13.56,252.14,13.3,252.14,12.68Z"/><rect class="cls-1" x="258.6" y="4.27" width="1.87" height="10.49"/><path class="cls-2" d="M262.45,14.76h1.88V7.56h-1.88Zm0-8.52h1.88V4.45h-1.88Z"/><path class="cls-2" d="M266.64,9.55a3.76,3.76,0,0,1,2.23-.79c1.1,0,1.62.39,1.62,1.56h-1a5.72,5.72,0,0,0-2.42.41,2.12,2.12,0,0,0-1.23,2.06,2.3,2.3,0,0,0,2.52,2.14,2.58,2.58,0,0,0,2.22-1.24h0a10.21,10.21,0,0,0,.09,1.07h1.65c0-.55-.07-1.06-.09-1.6s0-1.08,0-1.81v-.92c0-2.13-.91-3-3.11-3a6.41,6.41,0,0,0-2.51.55Zm.95,3.13c0-1.11,1.25-1.25,2.09-1.25h.81a2.47,2.47,0,0,1-.39,1.49,1.6,1.6,0,0,1-1.32.64C268.11,13.56,267.59,13.3,267.59,12.68Z"/><path class="cls-2" d="M42.33,21.88A15.32,15.32,0,0,1,24.59,43.26c-5.27-1-10.08-6.2-11.13-11.38a15.11,15.11,0,0,1,6.29-16,15.51,15.51,0,0,1,22.58,6Zm.4.25A15.58,15.58,0,0,1,24.41,43.47C18.8,42.26,13.8,36.69,13,31a15.36,15.36,0,0,1,6.43-15.31c4.51-3.41,12-3.64,16.8-.69A16,16,0,0,1,42.73,22.13Z"/><path class="cls-2" d="M11.64,34.31a21.73,21.73,0,0,1,1.17,2.11c-.28.12-.31-.3-.55-.36l-.36.07L8.52,38a1.42,1.42,0,0,0-.59,1.13A1.86,1.86,0,0,0,9,40.82c1.51.13,2.66-1.07,4-1.67a1.14,1.14,0,0,0,.54-.88l-.07-.5h.15l1,1.85-.07.07a1.22,1.22,0,0,0-1.23-.4L10,41a1.77,1.77,0,0,1-1.75-.51,3.13,3.13,0,0,1-.83-2.62,1.67,1.67,0,0,1,.87-1l3.2-1.78c.33-.24,0-.58,0-.84Z"/><path class="cls-2" d="M44.91,34.86c0,.32-.24.8.26.91l4.32,2c.35,0,.35-.58.66-.44-.34.73-.63,1.51-1,2.19H49c0-.26.17-.53,0-.77L44.51,36.6c-.34-.05-.41.43-.69.48a15.74,15.74,0,0,1,1-2.22Z"/><path class="cls-2" d="M41.24,40.49c0,.28-.4.47-.18.8l3.56,3.31c.46.21.75-.34,1-.62a2.62,2.62,0,0,0-.11-2.76c0-.06.1,0,.15,0l1.27,1.75c-1,1.12-2,2.21-3.16,3.24,0,0,0,0-.07,0,0-.26.32-.45.21-.73L40.29,42c-.31-.23-.6.5-.76.11l1.6-1.64Z"/><path class="cls-2" d="M17.79,42.35a1.08,1.08,0,0,0,.36.54l.33-.07V43c-.37.51-.71,1-1.13,1.53h-.11c.21-.79.74-1.89,0-2.62a1.31,1.31,0,0,0-.84-.4,1.07,1.07,0,0,0-.87.65c-.19,1.53,1.95,2.82.51,4.29a1.79,1.79,0,0,1-1.39.51,3,3,0,0,1-2.14-1.67c-.15-.18-.32-.11-.51-.07v-.19l1.56-1.78h.11c-.36.81-1,1.78-.43,2.69a1.63,1.63,0,0,0,1.12.69A1.19,1.19,0,0,0,15.39,46c.42-1.63-2.27-3.16-.22-4.54A2,2,0,0,1,17.79,42.35Z"/><path class="cls-2" d="M21.1,44.35a28.22,28.22,0,0,0,4,1.27,14,14,0,0,1-.33,2.07c-.18-.2-.09-.58-.22-.83a2.06,2.06,0,0,0-1.27-1.49L21.53,50.2c.06.36.49.34.66.58l-.07.08c-.85-.3-1.72-.56-2.55-.91v-.08c.25,0,.55.11.84,0,.71-1.55,1.2-3.2,1.81-4.8,0-.11-.1-.14-.18-.18a2.9,2.9,0,0,0-2.4,1c-.16,0,0-.17,0-.25l1-1.6Z"/><path class="cls-2" d="M9.39,30.09a9.73,9.73,0,0,1-1.86,1.06l-.14-1.56Zm-4.18-1.6c1.33.87,3,1,4.47,1.46.45-.54.89.29,1.42.22l.07.07c-1.77,1-3.56,2.08-5.34,3.13-.31.12-.11.57-.37.61a22.56,22.56,0,0,1-.25-2.29c0-.06.1,0,.14,0,.11.18.05.54.37.54a5.69,5.69,0,0,0,1.56-.91L7.1,29.51C6.6,29.36,6,29,5.46,29.37c-.32.14-.12.6-.43.65a14.15,14.15,0,0,1-.22-2C5.07,28,5,28.34,5.21,28.49Z"/><path class="cls-2" d="M30.15,46.27a1.83,1.83,0,0,1,.18,2c-.36.48-.94.43-1.49.47a14.63,14.63,0,0,1-.07-2.65A2.27,2.27,0,0,1,30.15,46.27Zm1.24.15a1.39,1.39,0,0,1,.29,1.2,2.2,2.2,0,0,1-1.6,1.16,2.1,2.1,0,0,1,1.27,1c.39.57.6,1.63,1.53,1.56v.11c-.55,0-1.08.1-1.64.08-.61-.85-.89-1.93-1.82-2.55a1.91,1.91,0,0,0-.54,0l-.08.11.11,2.15c.17.24.45.2.69.25.06.15-.1.2-.21.19l-2.18.07-.08-.07c.16-.26.58-.08.69-.44l-.18-4.84c-.12-.35-.53-.21-.73-.4l.11-.07C28.48,46,30.25,45.37,31.39,46.42Z"/><path class="cls-2" d="M37.75,47.18l-1.42.69a12.65,12.65,0,0,1-.18-2.07A19.33,19.33,0,0,1,37.75,47.18Zm3.31,1v.07c-.7.32-1.39.68-2.11.94-.06-.25.55-.33.33-.69L38,47.37a8.32,8.32,0,0,0-1.74.87c.1.57,0,1.32.69,1.56h.51v.11a13.88,13.88,0,0,1-1.89.8A2.06,2.06,0,0,0,36.15,49l-.22-3.34c-.7-.22,0-.95-.29-1.46l.07-.07,4.8,4Z"/><path class="cls-2" d="M49.28,32A11.86,11.86,0,0,1,47.42,31a12.34,12.34,0,0,1,2-.66ZM52,28.09c0,.73-.12,1.5-.18,2.26l-.11,0c-.13-.18,0-.48-.25-.61a4.69,4.69,0,0,0-1.78.54l-.19,1.78A2,2,0,0,0,51,32.6c.34-.07.32-.51.62-.58a9.23,9.23,0,0,1-.26,2.07,1.92,1.92,0,0,0-.91-1.2l-3.38-1.78c-.55.5-.85-.49-1.38-.51v-.11q3-.9,6-1.92C51.89,28.46,51.76,28.13,52,28.09Z"/><path class="cls-2" d="M31.17,5c-.08.23-.42.17-.58.37-.48.44-.34,1.14-.37,1.78-.11,1.2.56,3.18-1,3.71a3.42,3.42,0,0,1-2.73-.33,1.72,1.72,0,0,1-.62-1.34l-.11-3.71c-.13-.34-.59-.08-.69-.37A20.49,20.49,0,0,1,27.5,5c0,.32-.39.14-.55.29l-.15.22.11,4.07a1.41,1.41,0,0,0,.77,1,2,2,0,0,0,1.74-.07A1.66,1.66,0,0,0,30,9c-.16-1.15.22-2.53-.33-3.53-.19-.27-.56-.28-.72-.47L29.24,5C29.89,5.09,30.52,4.89,31.17,5Z"/><path class="cls-2" d="M39.13,7.4h.26A14.5,14.5,0,0,1,39,9.48c-.09-.31-.14-.71-.22-1.06A2.12,2.12,0,0,0,37.6,7.08c-.72,1.57-1.32,3.19-2,4.8.07.33.44.4.65.62,0,.11-.23.08-.32,0-.74-.35-1.53-.6-2.26-1,.12-.16.44,0,.66,0s.38-.37.51-.58c.5-1.46,1.17-2.84,1.67-4.29-1-.4-1.9.23-2.65.8A9,9,0,0,1,35,5.7L35.5,6Z"/><path class="cls-2" d="M44.66,11.37s0,.12,0,.14c-.28,0-.43-.42-.76-.21l-1.49,1.52A22.46,22.46,0,0,0,44,14.53h.11c.41-.73,2.12-1.3,1.23-2.22.09-.17.21,0,.3,0l1.52,1.56-.07.11c-.27,0-.44-.42-.76-.22l-3.49,3.57c-.08.28.26.4.25.65H43a19.26,19.26,0,0,1-1.6-1.67c.29-.15.65.54.94,0l1.6-1.6A22.83,22.83,0,0,0,42.22,13h-.11l-1.74,1.78c-.19.29.5.58.11.73l-1.64-1.64V13.8c.28,0,.55.5.87.15l3.42-3.45c.18-.35-.51-.61-.11-.77Z"/><path class="cls-2" d="M13.79,12.5v.14c-.77-.29-1.79-.85-2.58-.22a1.41,1.41,0,0,0-.55.95,1.29,1.29,0,0,0,.58.84c1.47.25,2.63-1.4,4.11-.55A2.08,2.08,0,0,1,16.12,15,2.32,2.32,0,0,1,15,17a2,2,0,0,0-.8.55c0,.11,0,.19.07.29l-.07.07a19.49,19.49,0,0,1-1.89-1.75l.07-.07a3.1,3.1,0,0,0,2.48.69,1.58,1.58,0,0,0,.94-1.31,1.25,1.25,0,0,0-.65-1c-1.58-.37-3.74,2.27-4.69-.29a2,2,0,0,1,.65-2c.34-.38,1.22-.32,1.06-1h.1Z"/><path class="cls-2" d="M21.57,9.66A2.52,2.52,0,0,1,21.39,12a2.13,2.13,0,0,1-1.38.65c-1.54-.09-2.25-1.8-2.62-3a2.08,2.08,0,0,1,.4-2,1.81,1.81,0,0,1,1.85-.44A4.1,4.1,0,0,1,21.57,9.66Zm.8-1.2a3.16,3.16,0,0,1-.07,2.87A3.3,3.3,0,0,1,19.75,13,3.23,3.23,0,0,1,17,11.77,3.29,3.29,0,0,1,16.52,9a3.27,3.27,0,0,1,2.65-2.21A3.21,3.21,0,0,1,22.37,8.46Z"/><path class="cls-2" d="M1.94,18.34a28.49,28.49,0,0,1,53.25,0l-2.88,1.07a25.42,25.42,0,0,0-47.48,0Z"/><path class="cls-2" d="M3.58,33.06a25.4,25.4,0,0,0,50,0l3,.57a28.49,28.49,0,0,1-56,0Z"/><path class="cls-2" d="M28.55,37.22A6.25,6.25,0,0,1,29,39.66c-1.08-.46-.41-1.66-.55-2.44Zm-.47,0c0,.78.39,1.89-.47,2.4H27.5A5.89,5.89,0,0,1,28.08,37.22Zm.8-.18A15,15,0,0,1,30,39.29c0,.13-.12.28-.22.26A21.61,21.61,0,0,1,28.8,37Zm-5.82,0c0,.18-.18.32-.33.37-.32,0-.82.15-1-.15.12-.54.85-.19,1.28-.29ZM27,39.58c-.11.1-.24,0-.29-.14a14.71,14.71,0,0,1,1.09-2.55A13.6,13.6,0,0,1,27,39.58Zm.55-2.69a19.26,19.26,0,0,1-1.35,2.26c-.06,0-.1,0-.15-.07A9.77,9.77,0,0,1,27.5,36.89Zm-2,1.86h-.07c.23-.75,1.05-1.27,1.6-1.86C26.85,37.59,25.87,38,25.53,38.75Zm.15-1.82c-.21.12-.42.65-.8.4,0-.18.16-.31.29-.4A.89.89,0,0,1,25.68,36.93Zm-1.49,0a.27.27,0,0,1-.18.4c-.27,0-.44.06-.66-.07a.67.67,0,0,1,.22-.33A1.3,1.3,0,0,1,24.19,36.93ZM34.8,37c-.1.6-.87.22-1.3.33,0-.25.29-.35.47-.47C34.25,36.9,34.65,36.74,34.8,37Zm-1.52-.07c0,.17-.18.32-.33.36a.42.42,0,0,1-.51-.11c0-.2.12-.27.26-.32S33.13,36.79,33.28,36.93ZM31.9,37a.51.51,0,0,1-.19.33c-.34.14-.58-.22-.83-.4C31.14,36.85,31.68,36.76,31.9,37Zm-1.17,2c0,.09.05.21-.07.25-.44-.83-1.38-1.56-1.53-2.51Zm.84-.8v.11a13.31,13.31,0,0,1-1.78-1.82A13,13,0,0,1,31.57,38.24Zm-2.18-1.71a23.28,23.28,0,0,1,1.92,2.22c0,.12,0,.23-.1.29-.63-.87-1.39-1.6-1.93-2.51Zm-4.11,1.64h-.11c0-.51.7-.76,1-1.13l.73-.51C26.49,37.15,25.8,37.55,25.28,38.17ZM27.1,35.8c-.39.82-1.41.71-2.22.66,0-.27.44-.5.69-.69C26.13,35.9,27,34.45,27.1,35.8Zm3.78-.36a6.69,6.69,0,0,1,1,.94c-.75-.06-1.8.38-2.26-.5l.3-.88C30.16,35.31,30.55,35.29,30.88,35.44Zm-.95-7.31a5.76,5.76,0,0,0,.4,3.93l-.14.91c-.48-.08-.14.51-.29.72a4.44,4.44,0,0,1-.59,1.17l.19.11a3.68,3.68,0,0,1-1.13,1.89,3.18,3.18,0,0,1-1.2-2h.25A4.13,4.13,0,0,0,27,33.77c-.18-.29.24-.85-.22-.84l-.07.07c-.71-1.29.53-2.4.44-3.74.1-.24-.24-.66.21-.62a1.72,1.72,0,0,0,1.53-.87c.19-.29.05-.78.4-.95A1.38,1.38,0,0,1,29.93,28.13ZM28.3,26.24c0,.07,0,.19-.11.15h-.11v-.22C28.15,26.19,28.3,26.1,28.3,26.24Zm4.83.07c.2,0,.2-.27.44-.22.18.39-.6.53-.26.8.2-.07.44-.3.66-.1,0,.3-.4.3-.47.54a1,1,0,0,1,.79.4c.06.15-.1.2-.21.18-.28.06-.56-.11-.77,0,.17.28.59.33.55.73-.37.15-.61-.25-1-.29-.09.26.35.4.29.69-.33.11-.58-.23-.83-.36-.07.17.05.35.14.5a.51.51,0,0,1-.65-.29c-.36-.51.32-.87.47-1.3.48-.48.47-1.16.77-1.71C33.16,26,33,26.19,33.13,26.31Zm-8.29,1.13a1.68,1.68,0,0,1,.58,1,.85.85,0,0,1-.43.8.23.23,0,0,1-.26-.26c-.06-.11.14-.21,0-.29-.19.13-.37.39-.62.26-.09-.26.14-.47.22-.69-.29,0-.5.44-.88.21-.08-.3.19-.47.33-.69-.29-.16-.51.17-.8,0,0-.26.46-.35.69-.54-.2-.14-.52-.32-.54-.62.33-.18.56.35.87.11,0-.27-.32-.51-.15-.77a1.55,1.55,0,0,1,.33.3c.23-.07,0-.3,0-.44C24.51,26.29,24.24,27.07,24.84,27.44ZM27.61,26c-.09.18,0,.52-.26.55a1.42,1.42,0,0,1-.65-.29c.24-.12.61.24.83,0,0-.37-.32-.57-.54-.84A.58.58,0,0,1,27.61,26Zm7-.94c0,.34-.38.18-.55.32-.1-.21.25-.32.4-.4S34.6,25,34.59,25.08Zm.21-.55c-.16.26-.5.25-.76.33a1.21,1.21,0,0,1,.76-.58C35,24.34,34.8,24.45,34.8,24.53Zm0-.94c-.07.35-.52.6-.8.83-.12-.4.36-.73.65-1.05C34.74,23.35,34.8,23.49,34.77,23.59Zm-11.46-.11a5.14,5.14,0,0,0-.1,2.14,1.07,1.07,0,0,1-.62-.25.62.62,0,0,1-.11-.44c.18-.08.34.31.54.07,0-.35-.5-.47-.61-.8.26-.18.51.39.69,0-.11-.31-.72-.42-.55-.83l.36.18c0-.3-.27-.52-.18-.8C23,22.9,23.12,23.23,23.31,23.48Zm11.24-.77a2.32,2.32,0,0,1-.58,1h0A1.71,1.71,0,0,1,34.55,22.71Zm-11.13.37c-.2-.3-.53-.75-.29-1.13C23.36,22.24,23.32,22.7,23.42,23.08Zm10.44-1.2c-.08.3-.3.63-.15.94.2-.13.19-.47.44-.54a2.37,2.37,0,0,1-.44,1.16,3.32,3.32,0,0,1-.14-1.93C33.78,21.52,33.76,21.76,33.86,21.88Zm-10-.8a2.92,2.92,0,0,1-.11,1.56C23.8,22.12,23,21.39,23.82,21.08Zm-.14-5a8.28,8.28,0,0,1,.11,1.67l.07.07c.24-.09.27-.42.55-.44.65,1.94-.25,3.87-.48,5.75A6.63,6.63,0,0,0,24.7,26c-.24.89.81,1.25.91,2,.19.3.5.05.76.07s.39.42.69.22.38-.8.33-1.23c-.37-.49-1.09-.56-1.31-1.17a2.9,2.9,0,0,1,1.09.18l.07-.07a2.51,2.51,0,0,0-1.09-.83c.18-.2.58-.1.84-.08,1.16.47,2.66.83,3.16,2.22.1.3.08.66.29.91.38-.08.77.17,1.09-.07,1.4-1.19,1-3.12,1.75-4.58a49.44,49.44,0,0,1-.18-6.22.13.13,0,0,1,.21,0c.1.1.13.29.29.29.19-.51,0-1.15.44-1.56.41.11.55.59.58,1V18.5l.08.07a3.52,3.52,0,0,1,1-1.68c.13-.09.26.08.25.22a4.53,4.53,0,0,1-.58,2.44c0,.15,0,.32.11.44.57-.71,1.06-1.79,2-2.08.32.52-.11,1.09-.33,1.57a5.09,5.09,0,0,0-.8,1.23l.07.08A5.12,5.12,0,0,1,39,19c.19.21-.05.41-.07.62-.4.3-.35.79-.66,1.13s-.8.64-1.09,1c.4-.08.75-.51,1.16-.66a3.88,3.88,0,0,1,1.86-.58c.15.42-.41.68-.69.95a2.28,2.28,0,0,0-.73.72c.65-.1,1.36-.57,2.07-.29-.1.47-.6.68-.83,1.09.17.15.41,0,.62,0s.64,0,.87.29c-.07.44-.66.57-.84.95.37.21.85.15,1.17.47v.18l-.8.73,0,.11a3.68,3.68,0,0,1,1.24.84l0,.18c-.34.23-.72.37-1,.62.15.32.67.46.69.87l-1.13.55c.09.36.56.7.44,1.16-.39.13-.88,0-1.24.22a2.22,2.22,0,0,1,.29,1c-.43.13-1,0-1.34.25a1.14,1.14,0,0,1-.18.84l-.77,0-.47.69c-.36.06-.73-.3-1,0l-.29.51c-.27,0-.46-.15-.73-.14-.23.17-.24.68-.58.58-.18-.07-.33-.31-.55-.18a2.49,2.49,0,0,1-.36.43c-.25,0-.49-.37-.76-.14s-.25.28-.44.25c-.12-.19-.38-.47-.62-.25s-.33.13-.51,0c-.57-.43-.37-1.21-.72-1.7-.16-.08-.27.1-.29.21-.19.71-.49,1.65.29,2.18l1.52,1.46c.93-.16,1.54.43,2.44.33.17,0,.26.21.33.36a.66.66,0,0,1-.47.69c-.6-.2-1.07.79-1.53.07-.26.08-.43.37-.77.26-.15-.12-.32-.31-.54-.18.15.55.73.92.69,1.56-.54,0-.45.77-1,.69-.14.17-.11.55-.43.51-.48-.16-.66.59-1.17.22l-.43.51L28.84,41c-.26.18-.4.66-.76.37-.13-.17-.29-.41-.51-.44s-.32.18-.51.18c-.17-.76-1.07.16-1.16-.65-.29-.13-.82,0-.84-.48-.16-.14-.46,0-.55-.32.15-.39-.39-.3-.36-.62a3.8,3.8,0,0,1,.62-1.24c-.25-.17-.46.16-.73.15s-.5-.39-.73,0a.88.88,0,0,1-.65-.18,2,2,0,0,1-1.16-.11.67.67,0,0,1-.15-.69c.42-.7,1.42-.14,2-.62,1.35.43,2-1,2.84-1.6.62-.8.09-1.72-.11-2.54-.14,0-.18.15-.22.25,0,.59,0,1.23-.47,1.64a1.09,1.09,0,0,0-1.16.22c-.3-.08-.44-.63-.8-.44-.19.14-.35.48-.62.33s-.21-.35-.4-.44-.56.33-.76,0c-.12-.17-.26-.51-.55-.33a.91.91,0,0,1-.54.11l-.37-.62c-.33-.12-.84.3-.91-.21,0-.16,0-.42-.29-.37-.4,0-.84.19-1.2,0,0-.34.23-.66.26-1-.38-.09-1,.06-1.24-.29a4,4,0,0,1,.25-.91,5.3,5.3,0,0,1-1.38-.29c-.09-.34.21-.59.37-.87-.31-.24-.73-.26-1-.55,0-.48.54-.7.8-1.05-.2-.35-.61-.49-.87-.84a3.39,3.39,0,0,1,1-.91c-.21-.42-.75-.65-.8-1.09a1.94,1.94,0,0,1,1-.44l.1-.1c-.19-.32-.53-.57-.65-.91.48-.2,1.1,0,1.56-.29-.13-.43-.66-.7-.76-1.13.49-.28,1,.06,1.53,0a2.07,2.07,0,0,1-.77-1.42c.32-.22.61.08.91.15a11.41,11.41,0,0,0,1.42.76l.07-.07c-.4-.66-1.29-1.16-1.2-2a7.12,7.12,0,0,1,2.58,1.49c0-.31-.3-.56-.39-.87-.24-.63-.7-1.16-.62-1.93.4,0,.73.46,1,.77l.84,1.16c.26-.41-.14-.73-.22-1.09,0-.64-.35-1.35,0-1.93.59.14.68.87.91,1.35a6.1,6.1,0,0,0,.4,1.34,11.76,11.76,0,0,0,0-2.65,1.46,1.46,0,0,1,.62-.95Z"/><rect class="cls-1" y="28.26" width="3.08" height="0.78"/><rect class="cls-1" x="1.2" y="25.84" width="0.77" height="3.06" transform="translate(-25.83 27.85) rotate(-87.68)"/><rect class="cls-1" x="1.29" y="24.63" width="0.77" height="3.05" transform="matrix(0.08, -1, 1, 0.08, -24.53, 25.77)"/><rect class="cls-1" x="1.44" y="23.41" width="0.77" height="3.05" transform="translate(-23.15 23.77) rotate(-83.14)"/><rect class="cls-1" x="1.64" y="22.19" width="0.77" height="3.05" transform="translate(-21.71 21.95) rotate(-80.87)"/><rect class="cls-1" x="1.84" y="20.97" width="0.77" height="3.05" transform="translate(-20.27 20.22) rotate(-78.57)"/><rect class="cls-1" x="2.14" y="19.77" width="0.77" height="3.06" transform="translate(-18.77 18.72) rotate(-76.32)"/><rect class="cls-1" x="2.49" y="18.57" width="0.78" height="3.08" transform="translate(-17.25 17.34) rotate(-74)"/><rect class="cls-1" x="53.95" y="28.26" width="3.08" height="0.78"/><rect class="cls-1" x="53.92" y="26.99" width="3.06" height="0.77" transform="translate(-1.03 2.2) rotate(-2.25)"/><polygon class="cls-1" points="56.9 26.42 56.84 25.65 53.8 25.89 53.86 26.66 56.9 26.42"/><rect class="cls-1" x="53.68" y="24.55" width="3.05" height="0.77" transform="translate(-2.58 6.78) rotate(-6.86)"/><rect class="cls-1" x="53.48" y="23.33" width="3.05" height="0.77" transform="translate(-3.07 9.04) rotate(-9.14)"/><rect class="cls-1" x="53.28" y="22.11" width="3.05" height="0.77" transform="translate(-3.37 11.31) rotate(-11.43)"/><rect class="cls-1" x="52.97" y="20.92" width="3.06" height="0.77" transform="translate(-3.51 13.63) rotate(-13.82)"/><rect class="cls-1" x="52.61" y="19.72" width="3.08" height="0.78" transform="translate(-3.45 15.71) rotate(-16)"/></g></g></svg>