<?xml version="1.0" encoding="UTF-8" standalone="no"?>
<svg
   xmlns:dc="http://purl.org/dc/elements/1.1/"
   xmlns:cc="http://creativecommons.org/ns#"
   xmlns:rdf="http://www.w3.org/1999/02/22-rdf-syntax-ns#"
   xmlns:svg="http://www.w3.org/2000/svg"
   xmlns="http://www.w3.org/2000/svg"
   xmlns:sodipodi="http://sodipodi.sourceforge.net/DTD/sodipodi-0.dtd"
   xmlns:inkscape="http://www.inkscape.org/namespaces/inkscape"
   width="220.17957mm"
   height="21.728735mm"
   viewBox="0 0 220.17958 21.728735"
   version="1.1"
   id="svg1931"
   sodipodi:docname="heading2.svg"
   inkscape:version="1.0.1 (3bc2e813f5, 2020-09-07)">
  <defs
     id="defs1925" />
  <sodipodi:namedview
     id="base"
     pagecolor="#ffffff"
     bordercolor="#666666"
     borderopacity="1.0"
     inkscape:pageopacity="0.0"
     inkscape:pageshadow="2"
     inkscape:zoom="0.93829921"
     inkscape:cx="349.72618"
     inkscape:cy="-97.974119"
     inkscape:document-units="mm"
     inkscape:current-layer="layer1"
     inkscape:document-rotation="0"
     showgrid="false"
     inkscape:window-width="1920"
     inkscape:window-height="1017"
     inkscape:window-x="-8"
     inkscape:window-y="-8"
     inkscape:window-maximized="1" />
  <metadata
     id="metadata1928">
    <rdf:RDF>
      <cc:Work
         rdf:about="">
        <dc:format>image/svg+xml</dc:format>
        <dc:type
           rdf:resource="http://purl.org/dc/dcmitype/StillImage" />
        <dc:title />
      </cc:Work>
    </rdf:RDF>
  </metadata>
  <g
     inkscape:label="Layer 1"
     inkscape:groupmode="layer"
     id="layer1"
     transform="translate(161.14692,256.67613)">
    <path
       id="path10584-4-9-3-8"
       style="font-weight:bold;font-size:10.6638px;line-height:1;font-family:'Fill Me With Color';-inkscape-font-specification:'Fill Me With Color';letter-spacing:-0.399896px;word-spacing:1.06639px;fill:#999999;stroke-width:0.710941"
       d="m -72.271854,-255.22267 c -0.544423,0 -1.002678,0.0279 -1.547104,0.0561 -0.51577,0.0283 -0.917285,0.22608 -1.232482,0.5929 -0.343847,0.36691 -0.487129,0.79042 -0.458468,1.27022 0.229235,4.88251 0.229235,9.87771 0,16.00202 -0.02866,0.47979 0.114721,0.90333 0.48724,1.27022 0.315195,0.33868 0.744894,0.5359 1.232015,0.56412 h 0.08635 c 1.002897,0 1.719148,-0.73384 1.805109,-1.72161 0.08599,-1.55226 0.0859,-2.93518 0.114613,-4.28989 1.633277,1.60872 3.123142,3.07652 7.27798,5.72944 0.257878,0.1976 0.601983,0.28206 0.974483,0.28206 0.659049,0 1.145824,-0.28213 1.518327,-0.81836 0.544423,-0.81848 0.286656,-1.91932 -0.544308,-2.45554 -3.323872,-2.08846 -4.842491,-3.35851 -6.045956,-4.62853 1.575975,-0.47981 2.894098,-1.07219 3.896997,-1.77775 2.52155,-1.72158 2.664623,-3.66904 2.578653,-4.65683 -0.08599,-0.93136 -0.544445,-1.83456 -1.260786,-2.59657 -0.630397,-0.67736 -1.489692,-1.24173 -2.549892,-1.69331 -1.747898,-0.762 -3.839829,-1.12872 -6.332737,-1.12872 z m 34.49927,0 c -0.200593,0 -0.314962,1e-5 -0.515545,0.0283 -1.34673,0.0848 -2.636202,0.50792 -3.667734,1.15702 -0.859633,0.53621 -1.490375,1.21352 -1.920188,2.03197 -0.544426,0.90315 -0.744891,1.89114 -0.658929,2.99183 0.114614,1.72159 0.859752,3.07621 2.20649,4.09225 1.03154,0.76201 2.234929,1.18507 3.409735,1.6084 2.149039,0.762 3.037224,1.15753 3.180499,2.37111 0.08599,0.56444 -0.08571,0.9876 -0.515538,1.29805 -0.372501,0.31043 -0.859752,0.47993 -1.51879,0.56459 -0.315189,0.0845 -0.572975,0.0561 -0.888165,0.0561 -0.573077,0 -1.117521,-0.0845 -1.604634,-0.22545 -0.429804,-0.14108 -0.572967,-0.2823 -0.658931,-0.36696 -0.200595,-0.79024 -0.888531,-1.35466 -1.776797,-1.35466 -0.143283,0 -0.229109,1e-5 -0.315079,0.0283 -0.487113,0.0848 -0.888284,0.33833 -1.14617,0.73346 -0.286539,0.39514 -0.372739,0.84704 -0.286776,1.32682 0.257868,1.38291 1.260929,2.39867 3.00881,2.99136 0.830966,0.31044 1.776696,0.42357 2.779577,0.42357 v -4.8e-4 c 0.487115,0 0.974019,-0.0282 1.432473,-0.11274 1.690585,-0.25387 3.008947,-0.9033 3.954524,-1.94755 0.916927,-1.04423 1.289318,-2.34218 1.11739,-3.838 -0.200582,-1.58047 -0.974254,-2.85053 -2.292332,-3.7819 -1.002887,-0.76201 -2.148849,-1.10061 -3.266351,-1.52396 -2.435579,-0.81844 -3.123305,-1.27005 -3.209269,-2.56829 -0.05732,-0.76201 0.257523,-1.38278 0.94524,-1.83432 0.601726,-0.36693 1.404295,-0.5929 2.23526,-0.5929 0.573075,0 1.060217,0.11273 1.49002,0.31037 0.544425,0.31045 0.630279,0.56451 0.658929,0.87494 0.02866,0.98781 0.859753,1.74986 1.862641,1.72162 0.487113,-0.0283 0.916945,-0.22561 1.260784,-0.59243 0.34386,-0.36689 0.487125,-0.79045 0.458474,-1.27022 -0.02866,-0.93136 -0.315208,-1.7215 -0.802322,-2.37063 -0.429812,-0.6209 -1.003144,-1.12887 -1.776797,-1.52398 -0.945585,-0.47979 -2.005696,-0.70563 -3.180499,-0.70563 z m -96.849946,0.0283 c -1.60463,0.22588 -3.20919,0.31037 -5.12899,0.31037 -1.46136,0 -2.83667,-0.0283 -4.32668,-0.11274 -0.31519,0 -0.63051,-0.0283 -0.94569,-0.0283 -1.00289,-0.0283 -1.834,0.70549 -1.86266,1.6933 -0.0287,0.98779 0.74514,1.80613 1.74803,1.83435 l 0.91694,0.0566 h 0.0288 c 0.68772,0.0283 1.43238,0.0566 2.20603,0.0566 0.31521,4.28982 0.14328,8.07163 0,12.1357 l -0.0859,1.97538 c -0.0287,0.98782 0.74514,1.8061 1.74802,1.83434 h 0.0571 c 1.00289,0 1.77644,-0.73381 1.8051,-1.72162 l 0.0864,-1.91923 v -0.0283 c 0.14328,-4.06407 0.25787,-7.93037 0,-12.24843 1.49001,-0.0283 2.86532,-0.1127 4.21204,-0.31036 1.0029,-0.11281 1.69049,-0.98807 1.57587,-1.97586 -0.11463,-0.87491 -0.88817,-1.55181 -1.80509,-1.55181 z m 39.112217,0 c -0.916925,0 -1.690487,0.677 -1.8051,1.58011 -0.544426,4.93898 -1.059973,8.69266 -1.547099,11.31735 -0.08597,0.25387 -0.08616,0.50814 -0.172162,0.73394 l -0.08588,-0.39527 c -0.659042,-2.37069 -1.461256,-6.03971 -2.607406,-11.65602 -0.2006,-0.81844 -0.88854,-1.41077 -1.77681,-1.41077 -0.88829,0 -1.6043,0.62062 -1.74758,1.43906 -0.91692,4.76964 -1.74791,8.55148 -2.63618,11.28906 -0.0861,0.1976 -0.0862,0.36705 -0.17215,0.5646 l -0.0857,-0.508 c -0.48711,-2.56827 -1.00268,-6.23752 -1.5471,-11.06359 -0.086,-0.90314 -0.85986,-1.5801 -1.77679,-1.5801 -0.0861,0 -0.17179,0 -0.20046,0.0283 -1.00288,0.1128 -1.69059,0.95927 -1.60464,1.94708 0.60173,5.27763 1.17472,9.25739 1.6905,11.93855 0.25785,1.32649 0.51599,2.25763 0.74522,3.01965 0.37251,1.04424 0.7448,1.66511 1.31786,2.03198 0.34384,0.25416 0.74513,0.36697 1.17495,0.36697 0.20059,0 0.31496,-0.0284 0.51553,-0.0566 1.00289,-0.25414 1.54722,-1.10048 1.91972,-1.80604 0.40116,-0.76201 0.80255,-1.75001 1.20371,-2.99183 0.42982,-1.21356 0.80221,-2.62475 1.23203,-4.28989 0.54442,2.34248 0.94583,4.00796 1.31832,5.24974 0.37251,1.27002 0.71602,2.08833 1.05987,2.68099 0.68769,1.1007 1.575988,1.32635 2.17772,1.32635 0.114649,0 0.257999,0 0.37263,-0.0283 0.429803,-0.0848 0.945597,-0.28195 1.490012,-0.93109 0.257878,-0.31044 0.458591,-0.64924 0.601865,-1.07258 0.315189,-0.76204 0.601736,-1.74987 0.916935,-3.10457 0.573077,-2.79403 1.146053,-6.88629 1.805092,-12.64371 0.11465,-0.98779 -0.572977,-1.86248 -1.575856,-1.97537 z m 11.218301,0 c -1.174813,0 -2.23504,0.33871 -3.209273,1.04428 -0.773655,0.56447 -1.48991,1.35456 -2.148949,2.34234 -0.945581,1.49582 -1.690845,3.55595 -2.235266,6.12422 -0.916924,4.20516 -1.002778,8.26949 -1.002778,8.46703 0,0.98781 0.773441,1.77774 1.776326,1.77774 h 0.02877 c 0.487115,0 0.916939,-0.16931 1.260785,-0.50799 0.372503,-0.31044 0.544313,-0.73383 0.544313,-1.21363 0,0 0.02888,-2.17285 0.401393,-4.854 1.604618,0.0848 3.065784,0.14103 4.64175,0.14103 1.375383,0 2.579012,-0.0565 3.811129,-0.14103 0.171925,2.56827 0.08583,4.65637 0.08583,4.65637 -0.02863,0.47977 0.114707,0.90335 0.487238,1.27023 0.315194,0.36692 0.716242,0.56467 1.232015,0.59289 h 0.08586 c 1.002886,0 1.719606,-0.76242 1.805566,-1.69378 0,-0.14107 0.114304,-2.96296 -0.200931,-6.34968 -0.458469,-4.76964 -1.575766,-8.07208 -3.38096,-9.90657 -0.544425,-0.53624 -1.1463,-0.95933 -1.748027,-1.26976 -0.745001,-0.31046 -1.489791,-0.47969 -2.234794,-0.47969 z m 83.66897375,0.0278 c -1.71923845,0 -3.35208585,0.76226 -4.69881465,2.14517 -0.9455771,0.93136 -1.6905969,2.1165 -2.1777201,3.52766 -0.5444163,1.46757 -0.8024405,3.04839 -0.716478,4.74173 0.085981,2.68116 0.8880561,4.96679 2.3494074,6.68835 1.3753894,1.69337 3.2951399,2.65317 5.24360535,2.65317 1.63326685,0 3.03736155,-0.62076 4.24082615,-1.83433 1.2034635,-1.27005 2.6937301,-3.80999 2.4644936,-8.52317 -0.1432828,-2.90696 -0.8024403,-5.19339 -1.9772526,-6.83032 -1.2321059,-1.69336 -2.8655735,-2.56826 -4.72806715,-2.56826 z m -14.94264475,4.9e-4 c -1.375389,0 -2.951409,0.79026 -4.699291,2.39893 -1.232124,1.12892 -2.062987,2.17276 -2.148949,2.25743 -0.601729,0.76202 -0.458573,1.89116 0.315079,2.48383 0.31519,0.25414 0.68758,0.39527 1.117393,0.39527 0.573077,0 1.031676,-0.22588 1.404177,-0.67732 0.143282,-0.19761 0.314951,-0.39534 0.515536,-0.59289 0.31519,-0.33868 0.716361,-0.81867 1.260786,-1.27023 1.232117,-1.10067 1.862769,-1.32611 2.120656,-1.41077 0.02867,0.11281 0.143274,0.70565 -0.343858,2.25791 -0.429813,1.32645 -1.11776,2.85043 -2.120648,4.76956 -1.71923,3.24559 -3.724815,6.20871 -3.724815,6.23695 -0.34384,0.53623 -0.401015,1.21384 -0.0859,1.80652 0.31519,0.56444 0.916828,0.93108 1.575866,0.93108 l 2.492801,0.0566 7.507171,0.11271 h 0.02876 c 0.5157917,0 0.945604,-0.16931 1.2607929,-0.50799 0.3724912,-0.36688 0.5443067,-0.76214 0.5443067,-1.24192 0.028666,-0.45154 -0.1429267,-0.87456 -0.486767,-1.24145 -0.3438499,-0.36692 -0.802313,-0.53637 -1.2607856,-0.56458 -2.09173,-0.0283 -4.470438,-0.0281 -6.848717,-0.11275 0.802314,-1.32645 1.547451,-2.59668 2.2065,-3.83847 1.060191,-2.00381 1.86277,-3.78192 2.349884,-5.33417 0.31518,-0.93134 0.486995,-1.77794 0.544307,-2.53996 0.05732,-1.04424 -0.114851,-1.89096 -0.516012,-2.56828 -0.630379,-1.10069 -1.547216,-1.72136 -2.722038,-1.80603 z m 29.656531,0 c -1.375381,0 -2.951409,0.79026 -4.6992989,2.39893 -1.2321162,1.12892 -2.0629867,2.17276 -2.1489402,2.25743 -0.6017361,0.76202 -0.4585811,1.89116 0.3150694,2.48383 0.3151997,0.25414 0.6875811,0.39527 1.1174019,0.39527 0.5730668,0 1.0316763,-0.22588 1.4041678,-0.67732 0.143283,-0.19761 0.315445,-0.39534 0.516021,-0.59289 0.315189,-0.33868 0.716368,-0.81867 1.260784,-1.27023 1.232116,-1.10067 1.862285,-1.32611 2.120171,-1.41077 0.02867,0.11281 0.143284,0.70565 -0.343849,2.25791 -0.429811,1.32645 -1.1173,2.85043 -2.12018,4.76956 -1.7192379,3.24559 -3.7252802,6.20871 -3.7252802,6.23695 -0.3438498,0.53623 -0.4010142,1.21384 -0.085893,1.80652 0.3151974,0.56444 0.9168243,0.93108 1.5758631,0.93108 l 2.4928011,0.0566 7.507643,0.11271 h 0.02829 c 0.515775,0 0.945596,-0.16931 1.260785,-0.50799 0.372501,-0.36688 0.54479,-0.76214 0.54479,-1.24192 0.02867,-0.45154 -0.143419,-0.87456 -0.48724,-1.24145 -0.343851,-0.36692 -0.802331,-0.53637 -1.260786,-0.56458 -2.091739,-0.0283 -4.469963,-0.0281 -6.84824,-0.11275 0.802312,-1.32645 1.547452,-2.59668 2.20649,-3.83847 1.06019,-2.00381 1.862285,-3.78192 2.349407,-5.33417 0.31519,-0.93134 0.487005,-1.77794 0.544316,-2.53996 0.05722,-1.04424 -0.114358,-1.89096 -0.515546,-2.56828 -0.630388,-1.10069 -1.547222,-1.72136 -2.722026,-1.80603 z m -137.122928,0.0278 c -2.40692,0 -4.6992,0.98818 -6.38977,2.70977 -0.91693,0.95956 -1.60452,2.03201 -2.03434,3.24559 -0.48711,1.29823 -0.6878,2.70925 -0.60184,4.23329 0.0859,1.46758 0.34373,2.79384 0.88815,4.03564 0.51578,1.15714 1.23191,2.17343 2.12018,3.02013 0.88827,0.79023 1.80547,1.43929 2.92297,1.86264 1.08885,0.42334 2.17761,0.64903 3.29512,0.64903 2.26366,0 4.29804,-0.84678 5.81669,-2.42725 1.28942,-1.27 2.75068,-3.69686 2.60741,-7.76092 -0.0859,-2.93517 -1.0028,-5.41911 -2.72204,-7.14069 -1.57597,-1.58047 -3.61022,-2.42723 -5.90253,-2.42723 z m 64.470918,0 c -0.487104,0 -0.91658,0.16939 -1.289089,0.5363 -0.372492,0.36688 -0.515892,0.81871 -0.487241,1.29852 0.114585,3.04804 0.172161,5.47489 0.172161,7.76092 0.02867,3.04805 -0.02893,5.78573 -0.172161,8.2411 -0.02867,0.508 0.114602,0.93163 0.458471,1.29853 0.3152,0.36687 0.71637,0.56419 1.260784,0.59241 0.372502,0.0282 0.744894,0.0282 1.117394,0.0282 5.616169,0 8.481908,-1.91894 10.029213,-3.52764 1.575963,-1.69335 2.291985,-3.89495 2.091412,-6.23742 -0.143283,-1.27005 -0.544208,-2.54002 -1.203247,-3.75359 -0.687691,-1.21358 -1.604542,-2.28589 -2.722037,-3.189 -1.14616,-0.93137 -2.493055,-1.69338 -4.040358,-2.22961 -1.633277,-0.53622 -3.323792,-0.81883 -5.128983,-0.81883 z m 86.563569,0 c -1.575965,0 -3.008703,0.45178 -4.126205,1.27022 -0.659039,0.4798 -1.174593,1.07251 -1.547094,1.72161 -0.429802,0.76202 -0.601746,1.55233 -0.6877,2.42724 -0.08598,1.60869 0.400815,2.9917 1.518317,4.14885 l 0.429702,0.39479 c -1.260775,1.01602 -1.948365,2.25776 -2.034337,3.75358 -0.08598,1.43934 0.372756,2.7378 1.432948,3.83849 0.716351,0.70556 1.546985,1.24158 2.549874,1.63671 0.974228,0.36689 1.948857,0.5646 2.951737,0.5646 1.575964,0 2.894088,-0.4517 4.01159,-1.24192 1.289427,-1.01602 2.005668,-2.39896 2.14895,-4.12056 0.143284,-1.66512 -0.286904,-3.0477 -1.347103,-4.14838 -0.143283,-0.16934 -0.314844,-0.33901 -0.486767,-0.48015 0.916916,-0.93136 1.46137,-2.11659 1.604635,-3.55595 0.114613,-1.66514 -0.343987,-3.07607 -1.404177,-4.20498 -1.232116,-1.27003 -2.979942,-2.00415 -5.01437,-2.00415 z m -99.844568,3.47153 c 1.805213,0.0565 3.295269,0.33857 4.470091,0.81835 1.174813,0.53623 1.633532,1.07265 1.662192,1.43954 0.02867,0.31046 -0.229374,0.79021 -1.060336,1.35465 -0.773661,0.53624 -2.235185,1.24199 -4.957322,1.77822 0,-1.83448 -0.02867,-3.58452 -0.114625,-5.39076 z m -12.449851,0.0283 c 0.487116,0 0.945591,0.2257 1.3754,0.64903 0.601731,0.64912 1.146056,1.6935 1.575866,3.13286 0.200592,0.70557 0.372272,1.49559 0.515539,2.31404 -1.060193,0.0847 -2.148844,0.1132 -3.38096,0.1132 -1.375389,0 -2.693636,-0.0285 -4.040365,-0.1132 0.315191,-1.15711 0.688068,-2.62444 1.347101,-3.83802 0.773659,-1.4958 1.661841,-2.25791 2.607419,-2.25791 z m -38.740068,0.0283 c 2.20635,0 4.89987,1.60876 5.04314,6.18083 0.0573,2.28604 -0.48713,4.00771 -1.60463,5.16484 -0.83095,0.8749 -2.00593,1.32633 -3.23804,1.32633 -2.66482,0 -5.41578,-2.11666 -5.645,-6.1525 -0.11466,-2.51183 0.83121,-4.00789 1.66217,-4.88278 1.00289,-1.04426 2.37831,-1.63672 3.78236,-1.63672 z m 122.40904175,0 c 0.83096361,0 1.43294718,0.53636 1.77679605,1.0726 0.5444166,0.76199 1.2032458,2.173 1.3178592,4.91059 0.1146492,2.73763 -0.4010511,4.82592 -1.461242,5.9266 -0.48711431,0.47979 -1.03167638,0.73391 -1.63341325,0.73391 -0.88826565,0 -1.71901935,-0.45143 -2.46402065,-1.32634 -0.6590389,-0.79022 -1.4328373,-2.2017 -1.5187904,-4.57241 -0.085981,-2.3707 0.6018643,-4.3742 1.8626399,-5.70065 0.6590389,-0.67734 1.4324813,-1.0443 2.12017115,-1.0443 z m 28.62544525,0 c 1.002887,0 1.862292,0.33873 2.349407,0.87497 0.37251,0.3669 0.515783,0.87477 0.458472,1.49567 -0.143283,1.94736 -2.034464,2.11689 -2.636192,2.11689 -0.945577,0 -1.862522,-0.33874 -2.406947,-0.87497 -0.401151,-0.42335 -0.572967,-0.93138 -0.544316,-1.55227 0.08599,-1.94736 2.378424,-2.06029 2.779576,-2.06029 z m -84.672159,0.14104 c 2.43558,0.33867 4.069031,1.32663 5.071917,2.11687 1.518655,1.21356 2.435609,2.85027 2.636193,4.54365 0.114587,1.35467 -0.286666,2.51203 -1.174951,3.49981 -1.346729,1.43936 -3.495715,2.22952 -6.504379,2.37063 0.08598,-2.06026 0.114457,-4.17682 0.08579,-6.63219 0,-1.80625 -0.02866,-3.66919 -0.114622,-5.89877 z m 85.159401,8.2411 c 1.002887,0 1.719257,0.25413 2.177719,0.73392 0.31519,0.33866 0.458235,0.81827 0.400925,1.46738 -0.143285,1.72158 -1.461142,2.08856 -2.578644,2.08856 -1.117502,0 -2.206381,-0.42354 -2.86542,-1.10088 -0.343841,-0.33868 -0.515893,-0.73376 -0.487242,-1.18531 0.02867,-0.50801 0.343859,-0.95946 0.916935,-1.32635 0.659039,-0.42334 1.54746,-0.67732 2.435727,-0.67732 z"
       inkscape:label="grey shadow" />
    <path
       id="path10584-4-94-7"
       style="font-weight:bold;font-size:10.6638px;line-height:1;font-family:'Fill Me With Color';-inkscape-font-specification:'Fill Me With Color';letter-spacing:-0.399896px;word-spacing:1.06639px;fill:#000000;stroke:#000000;stroke-width:1.06668;stroke-miterlimit:4;stroke-dasharray:none;stroke-opacity:1"
       d="m -73.862823,-256.0316 c -0.544416,0 -1.002673,0.0279 -1.547088,0.0561 -0.515781,0.0283 -0.91682,0.22609 -1.232015,0.5929 -0.343846,0.36691 -0.48713,0.79041 -0.458469,1.2702 0.229231,4.88252 0.229231,9.87773 0,16.00203 -0.02867,0.47979 0.114247,0.90334 0.486772,1.27023 0.315187,0.33867 0.745362,0.53589 1.232482,0.56413 h 0.0859 c 1.002892,0 1.71914,-0.73384 1.805099,-1.72162 0.08599,-1.55224 0.0859,-2.93519 0.114615,-4.28987 1.633277,1.60869 3.123144,3.0765 7.27798,5.72941 0.257877,0.1976 0.601981,0.28208 0.974484,0.28208 0.659047,0 1.146288,-0.28215 1.518798,-0.81837 0.544435,-0.81846 0.286191,-1.91931 -0.544782,-2.45553 -3.323872,-2.08849 -4.842489,-3.35853 -6.045962,-4.62855 1.575982,-0.47979 2.894106,-1.07217 3.897003,-1.77774 2.521551,-1.7216 2.66509,-3.66906 2.579129,-4.65684 -0.08598,-0.93136 -0.544443,-1.83455 -1.260795,-2.59656 -0.630388,-0.67735 -1.490156,-1.24173 -2.550358,-1.69332 -1.747907,-0.76197 -3.839829,-1.12872 -6.332738,-1.12872 z m 34.499277,0 c -0.200584,0 -0.314961,1e-5 -0.515536,0.0283 -1.346739,0.0848 -2.636201,0.50789 -3.667743,1.15701 -0.859614,0.53623 -1.489909,1.21352 -1.919713,2.03197 -0.544426,0.90314 -0.744901,1.89115 -0.658929,2.99183 0.114614,1.72158 0.859295,3.07621 2.206024,4.09224 1.031531,0.76202 2.234922,1.18507 3.409727,1.60842 2.149041,0.762 3.037697,1.15752 3.180974,2.37111 0.08598,0.56443 -0.08625,0.98758 -0.516012,1.29804 -0.3725,0.31043 -0.859744,0.47993 -1.518792,0.5646 -0.315189,0.0845 -0.572985,0.0561 -0.888164,0.0561 -0.573077,0 -1.117522,-0.0843 -1.604637,-0.22546 -0.429802,-0.14107 -0.572967,-0.2823 -0.658927,-0.36697 -0.200585,-0.79023 -0.888059,-1.35464 -1.776323,-1.35464 -0.143284,0 -0.229592,0 -0.315554,0.0283 -0.487114,0.0848 -0.888268,0.33832 -1.146163,0.73344 -0.286548,0.39512 -0.372262,0.84704 -0.286308,1.32682 0.257877,1.38292 1.260919,2.39869 3.008809,2.99136 0.830964,0.31043 1.776223,0.42357 2.779103,0.42357 v -4.9e-4 c 0.487104,0 0.974493,-0.0283 1.432956,-0.11273 1.690577,-0.25387 3.008472,-0.9033 3.954039,-1.94753 0.916928,-1.04424 1.289318,-2.34221 1.117403,-3.83803 -0.200594,-1.58046 -0.974263,-2.85052 -2.292342,-3.78189 -1.002889,-0.762 -2.148841,-1.10063 -3.266344,-1.52398 -2.435587,-0.81845 -3.123316,-1.27001 -3.209276,-2.56826 -0.05722,-0.76201 0.258005,-1.38277 0.945713,-1.83434 0.601737,-0.36691 1.403822,-0.5929 2.234794,-0.5929 0.573059,0 1.06021,0.11274 1.490013,0.31036 0.544423,0.31046 0.630277,0.56452 0.65893,0.87495 0.02865,0.98782 0.859759,1.74986 1.862639,1.72161 0.487115,-0.0283 0.916953,-0.22559 1.260792,-0.59241 0.34385,-0.36688 0.487115,-0.79045 0.458464,-1.27023 -0.02866,-0.93134 -0.315209,-1.72149 -0.802312,-2.37064 -0.429812,-0.62088 -1.00267,-1.12886 -1.776332,-1.52396 -0.945577,-0.47979 -2.006159,-0.70563 -3.180973,-0.70563 z m -96.849934,0.0283 c -1.60463,0.22585 -3.20919,0.31035 -5.129,0.31035 -1.46134,0 -2.83667,-0.0282 -4.32667,-0.11274 -0.31519,0 -0.63051,-0.0283 -0.94571,-0.0283 -1.00289,-0.0283 -1.83351,0.7055 -1.86217,1.69332 -0.0287,0.98777 0.74467,1.80612 1.74756,1.83433 l 0.91693,0.0566 h 0.0288 c 0.68768,0.0283 1.43282,0.0561 2.20649,0.0561 0.31519,4.28983 0.14328,8.0721 0,12.1362 l -0.0864,1.97536 c -0.0287,0.98781 0.74514,1.8061 1.74803,1.83433 h 0.0574 c 1.00289,0 1.77645,-0.7338 1.8051,-1.7216 l 0.0857,-1.91924 v -0.0283 c 0.14328,-4.06408 0.25787,-7.93036 0,-12.24845 1.49001,-0.0283 2.86531,-0.11269 4.21205,-0.31035 1.00289,-0.1128 1.69048,-0.98807 1.57585,-1.97585 -0.11462,-0.87492 -0.88815,-1.55179 -1.80508,-1.55179 z m 39.11268,0 c -0.916925,0 -1.690483,0.677 -1.805104,1.5801 -0.544421,4.93896 -1.060444,8.69265 -1.547576,11.31735 -0.0859,0.25387 -0.0856,0.50813 -0.17169,0.73393 l -0.0863,-0.39526 c -0.65904,-2.3707 -1.46127,-6.0397 -2.60744,-11.65602 -0.20059,-0.81843 -0.88806,-1.41078 -1.77633,-1.41078 -0.88827,0 -1.60475,0.62063 -1.74802,1.43907 -0.91693,4.76964 -1.74792,8.55149 -2.6362,11.28906 -0.0861,0.1976 -0.0856,0.36705 -0.17168,0.56461 l -0.0863,-0.50801 c -0.48711,-2.56828 -1.00267,-6.23753 -1.54709,-11.0636 -0.086,-0.90312 -0.85939,-1.5801 -1.77632,-1.5801 -0.0861,0 -0.17227,0 -0.20093,0.0283 -1.00289,0.11282 -1.6906,0.95928 -1.60464,1.94709 0.60174,5.27761 1.17519,9.2574 1.69096,11.93854 0.25787,1.32649 0.51554,2.25765 0.74476,3.01966 0.37251,1.04424 0.74479,1.66508 1.31786,2.03198 0.34385,0.25413 0.74513,0.36696 1.17495,0.36696 0.20058,0 0.31542,-0.0284 0.516,-0.0566 1.00288,-0.25413 1.54723,-1.10049 1.91972,-1.80604 0.40116,-0.76203 0.80208,-1.75002 1.20324,-2.99184 0.42981,-1.21354 0.80268,-2.62474 1.23249,-4.28986 0.54444,2.34247 0.94535,4.00746 1.31787,5.24926 0.3725,1.27003 0.71647,2.08881 1.06032,2.68146 0.6877,1.10068 1.57601,1.32634 2.17774,1.32634 0.11465,0 0.25752,0 0.37215,-0.0283 0.429811,-0.0848 0.945601,-0.28196 1.490027,-0.93108 0.257868,-0.31045 0.458581,-0.64926 0.601855,-1.07261 0.31519,-0.76201 0.601745,-1.74985 0.916934,-3.10455 0.573078,-2.79403 1.146054,-6.8863 1.805103,-12.6437 0.114639,-0.98781 -0.572987,-1.86249 -1.575866,-1.97537 z m 11.217829,0 c -1.174811,0 -2.235037,0.33869 -3.209271,1.04427 -0.773656,0.56447 -1.48991,1.35456 -2.148949,2.34233 -0.945582,1.49583 -1.690374,3.55596 -2.234795,6.12423 -0.916925,4.20517 -1.003253,8.26948 -1.003253,8.46702 0,0.98782 0.773917,1.77774 1.7768,1.77774 h 0.02877 c 0.487114,0 0.916938,-0.16931 1.260784,-0.50798 0.372503,-0.31043 0.544314,-0.73381 0.544314,-1.21363 0,0 0.02842,-2.17284 0.400922,-4.854 1.604616,0.0848 3.066254,0.14104 4.64222,0.14104 1.375384,0 2.578542,-0.0565 3.810658,-0.14104 0.171924,2.56827 0.08631,4.65638 0.08631,4.65638 -0.02863,0.47976 0.11424,0.90333 0.486767,1.27021 0.315195,0.36692 0.716716,0.5642 1.232486,0.59243 h 0.08585 c 1.002888,0 1.719137,-0.76196 1.805098,-1.69331 0,-0.14107 0.114772,-2.96297 -0.200462,-6.34968 -0.458465,-4.76964 -1.576239,-8.07209 -3.381433,-9.90659 -0.544425,-0.53621 -1.145826,-0.9593 -1.747554,-1.26973 -0.745002,-0.31047 -1.490264,-0.47969 -2.235264,-0.47969 z m 83.6694462,0.0278 c -1.7192387,0 -3.3525514,0.76227 -4.6992896,2.14518 -0.9455772,0.93134 -1.6906059,2.11648 -2.1777205,3.52764 -0.5444245,1.46758 -0.8024397,3.0484 -0.716468,4.74175 0.085978,2.68115 0.8885306,4.96677 2.3498817,6.68834 1.3753892,1.69336 3.2951308,2.65317 5.2435964,2.65317 1.63327606,0 3.03737115,-0.62077 4.2408266,-1.83435 1.2034636,-1.27002 2.6932552,-3.80998 2.4640276,-8.52315 -0.1432821,-2.90695 -0.8024394,-5.1934 -1.9772605,-6.83032 -1.2321064,-1.69337 -2.86509079,-2.56826 -4.7275937,-2.56826 z m -14.9431202,4.7e-4 c -1.37538,0 -2.951401,0.79028 -4.69929,2.39895 -1.232116,1.1289 -2.062998,2.17277 -2.14895,2.25743 -0.601737,0.76202 -0.458573,1.89114 0.31508,2.48383 0.315198,0.25414 0.68758,0.39527 1.117392,0.39527 0.573077,0 1.031677,-0.22587 1.404177,-0.67732 0.143284,-0.1976 0.315436,-0.39535 0.516011,-0.5929 0.31519,-0.33866 0.716369,-0.81866 1.260785,-1.27022 1.232125,-1.10066 1.862294,-1.32611 2.120181,-1.41078 0.02867,0.11281 0.143275,0.70518 -0.343849,2.25744 -0.429813,1.32646 -1.117293,2.8509 -2.12018,4.77004 -1.71923,3.24559 -3.725282,6.2087 -3.725282,6.23695 -0.343848,0.53621 -0.401014,1.21383 -0.0859,1.80651 0.315201,0.56444 0.916826,0.93108 1.575866,0.93108 l 2.492799,0.0566 7.507638,0.11273 h 0.02829 c 0.515775,0 0.945586,-0.16932 1.260786,-0.50797 0.3725,-0.36691 0.544781,-0.76215 0.544781,-1.24194 0.02867,-0.45155 -0.143402,-0.87502 -0.487233,-1.24192 -0.343849,-0.36692 -0.802331,-0.5359 -1.260794,-0.56412 -2.091732,-0.0283 -4.469965,-0.0283 -6.848243,-0.11273 0.802312,-1.32646 1.54746,-2.5967 2.2065,-3.8385 1.060191,-2.00379 1.862293,-3.7819 2.349408,-5.33416 0.31519,-0.93133 0.487015,-1.77794 0.544307,-2.53996 0.05732,-1.04424 -0.114384,-1.89093 -0.515538,-2.56826 -0.630388,-1.1007 -1.547213,-1.72139 -2.722037,-1.80605 z m 29.65653,0 c -1.375388,0 -2.950943,0.79028 -4.6988225,2.39895 -1.2321244,1.1289 -2.0634436,2.17277 -2.1494146,2.25743 -0.6017264,0.76202 -0.4581071,1.89114 0.3155454,2.48383 0.3151899,0.25414 0.6875898,0.39527 1.1174015,0.39527 0.5730752,0 1.0316747,-0.22587 1.404167,-0.67732 0.143283,-0.1976 0.3149796,-0.39535 0.5155465,-0.5929 0.3151977,-0.33866 0.7163585,-0.81866 1.2607837,-1.27022 1.232115,-1.10066 1.862294,-1.32611 2.120181,-1.41078 0.02867,0.11281 0.143273,0.70518 -0.343858,2.25744 -0.429803,1.32646 -1.117284,2.8509 -2.1201716,4.77004 -1.7192306,3.24559 -3.7248136,6.2087 -3.7248136,6.23695 -0.3438399,0.53621 -0.4014892,1.21383 -0.086348,1.80651 0.3151896,0.56444 0.9172998,0.93108 1.5763383,0.93108 l 2.4927999,0.0566 7.507169,0.11273 h 0.02875 c 0.515775,0 0.945595,-0.16932 1.260784,-0.50797 0.3725,-0.36691 0.544317,-0.76215 0.544317,-1.24194 0.02866,-0.45155 -0.143411,-0.87502 -0.487243,-1.24192 -0.343849,-0.36692 -0.802321,-0.5359 -1.260784,-0.56412 -2.091739,-0.0283 -4.469963,-0.0283 -6.84824,-0.11273 0.802313,-1.32646 1.547452,-2.5967 2.20649,-3.8385 1.06019,-2.00379 1.862301,-3.7819 2.349417,-5.33416 0.315189,-0.93133 0.487468,-1.77794 0.544781,-2.53996 0.05732,-1.04424 -0.114824,-1.89093 -0.516013,-2.56826 -0.630387,-1.1007 -1.547222,-1.72139 -2.722036,-1.80605 z m -137.122905,0.0278 c -2.40694,0 -4.69921,0.98817 -6.38978,2.70977 -0.91694,0.95956 -1.60453,2.03201 -2.03434,3.24559 -0.48712,1.29823 -0.68782,2.70924 -0.60186,4.23327 0.0861,1.46759 0.34374,2.79388 0.88816,4.03565 0.51578,1.15715 1.23238,2.17344 2.12065,3.02014 0.88827,0.79022 1.805,1.43928 2.9225,1.86263 1.08885,0.42335 2.17762,0.64903 3.29511,0.64903 2.26367,0 4.29853,-0.84677 5.81716,-2.42724 1.28944,-1.27 2.75069,-3.69686 2.60742,-7.76092 -0.0861,-2.93518 -1.0028,-5.4191 -2.72204,-7.14069 -1.57595,-1.58047 -3.61068,-2.42725 -5.90298,-2.42725 z m 64.471372,0 c -0.487113,0 -0.917055,0.16938 -1.289564,0.5363 -0.372483,0.36689 -0.515885,0.81871 -0.487233,1.29851 0.114585,3.04805 0.172161,5.47492 0.172161,7.76094 0.02865,3.04804 -0.02893,5.78572 -0.172161,8.24108 -0.02867,0.50802 0.114585,0.93164 0.458463,1.29853 0.315188,0.36689 0.716368,0.5642 1.260786,0.59242 0.372499,0.0283 0.745356,0.0283 1.117866,0.0283 5.61617,0 8.481443,-1.91894 10.028748,-3.52765 1.575966,-1.69335 2.292463,-3.89495 2.091876,-6.23742 -0.143283,-1.27003 -0.54468,-2.54001 -1.203719,-3.75359 -0.6877,-1.21357 -1.604534,-2.28589 -2.722027,-3.18898 -1.146164,-0.93137 -2.493047,-1.69339 -4.040362,-2.22961 -1.633274,-0.53623 -3.323789,-0.81884 -5.128992,-0.81884 z m 86.563103,0 c -1.575956,0 -3.008711,0.45177 -4.126214,1.27021 -0.659038,0.47981 -1.174603,1.07251 -1.547095,1.72162 -0.429811,0.76203 -0.601736,1.55233 -0.687699,2.42723 -0.08598,1.60872 0.401289,2.9917 1.518792,4.14886 l 0.429702,0.39478 c -1.260767,1.01603 -1.948375,2.25778 -2.034337,3.75359 -0.08598,1.43934 0.372273,2.73781 1.432472,3.83849 0.716341,0.70556 1.54746,1.24157 2.550348,1.6367 0.974229,0.36689 1.948375,0.5646 2.951263,0.5646 1.575965,0 2.894098,-0.45169 4.011592,-1.24192 1.289425,-1.01602 2.005676,-2.39896 2.148949,-4.12055 0.143282,-1.66513 -0.286429,-3.04772 -1.346628,-4.14836 -0.143284,-0.16936 -0.315318,-0.33905 -0.487243,-0.48017 0.916927,-0.93135 1.461379,-2.11659 1.604635,-3.55597 0.114623,-1.66513 -0.343968,-3.07606 -1.404169,-4.20497 -1.232115,-1.27001 -2.97994,-2.00414 -5.014368,-2.00414 z m -99.844102,3.47152 c 1.805201,0.0564 3.294793,0.33857 4.469608,0.81835 1.174811,0.53624 1.633532,1.07266 1.662192,1.43956 0.02867,0.31045 -0.229364,0.7902 -1.060328,1.35465 -0.773663,0.53622 -2.234722,1.24198 -4.956857,1.77822 0,-1.83448 -0.02866,-3.58453 -0.114615,-5.39078 z m -12.450324,0.0283 c 0.487117,0 0.945593,0.22569 1.375402,0.64901 0.601729,0.64912 1.146055,1.6935 1.575865,3.13287 0.200592,0.70556 0.372746,1.49558 0.516012,2.31403 -1.060194,0.0847 -2.149316,0.1132 -3.381432,0.1132 -1.375389,0 -2.693163,-0.0285 -4.039894,-0.1132 0.315193,-1.15712 0.687597,-2.62442 1.346631,-3.83801 0.773657,-1.4958 1.661839,-2.2579 2.607416,-2.2579 z m -38.740049,0.0283 c 2.20634,0 4.89986,1.60874 5.04312,6.1808 0.0574,2.28604 -0.48713,4.00772 -1.60463,5.16484 -0.83096,0.8749 -2.00593,1.32636 -3.23805,1.32636 -2.66481,0 -5.4153,-2.11667 -5.64453,-6.15253 -0.11464,-2.5118 0.83075,-4.00787 1.66173,-4.88277 1.00287,-1.04424 2.37831,-1.6367 3.78236,-1.6367 z m 122.4094952,0 c 0.8309636,0 1.43248127,0.53635 1.77633063,1.07257 0.54442515,0.76201 1.20371101,2.17303 1.31832442,4.91061 0.1146405,2.73761 -0.40104262,4.82591 -1.46124215,5.92659 -0.4871138,0.47979 -1.0316853,0.73393 -1.6334129,0.73393 -0.8882749,0 -1.7194943,-0.45145 -2.4644954,-1.32636 -0.6590391,-0.79023 -1.4323536,-2.20169 -1.5183161,-4.5724 -0.085981,-2.37072 0.601399,-4.37419 1.8621655,-5.70066 0.659039,-0.67734 1.4329559,-1.04428 2.120646,-1.04428 z m 28.6249798,0 c 1.002888,0 1.862758,0.33872 2.349881,0.87495 0.372501,0.3669 0.515774,0.87478 0.458464,1.49568 -0.143284,1.94736 -2.034447,2.11687 -2.636183,2.11687 -0.945587,0 -1.862531,-0.33873 -2.406956,-0.87494 -0.401153,-0.42335 -0.572977,-0.9314 -0.544317,-1.5523 0.08598,-1.94736 2.37795,-2.06026 2.779111,-2.06026 z m -84.67216,0.14102 c 2.43558,0.33867 4.069021,1.32664 5.071909,2.11688 1.518654,1.21356 2.435617,2.85027 2.636192,4.54363 0.114596,1.3547 -0.286674,2.51203 -1.17494,3.49983 -1.346738,1.43934 -3.495733,2.22951 -6.504391,2.37064 0.08598,-2.06026 0.11445,-4.17686 0.08579,-6.63222 0,-1.80625 -0.02865,-3.66917 -0.114615,-5.89876 z m 85.159392,8.24109 c 1.00288,0 1.719258,0.25415 2.17772,0.73393 0.315189,0.33867 0.458244,0.81825 0.400923,1.46739 -0.143282,1.72157 -1.46114,2.08857 -2.578643,2.08857 -1.117502,0 -2.20638,-0.42355 -2.865419,-1.10089 -0.343849,-0.33868 -0.515903,-0.73375 -0.487242,-1.18533 0.02867,-0.50801 0.343849,-0.95945 0.916936,-1.32634 0.659029,-0.42334 1.54745,-0.67733 2.435725,-0.67733 z"
       inkscape:label="black" />
    <path
       id="path10582-4-4-1"
       style="font-weight:bold;font-size:10.6638px;line-height:1;font-family:'Fill Me With Color';-inkscape-font-specification:'Fill Me With Color';letter-spacing:-0.399896px;word-spacing:1.06639px;fill:#339999;fill-opacity:1;stroke:#339999;stroke-width:0.533346;stroke-linecap:round;stroke-linejoin:round;stroke-miterlimit:4;stroke-dasharray:none;stroke-opacity:1;paint-order:markers stroke fill"
       d="m -74.119412,-255.36276 c -0.487112,0 -1.002902,0.0282 -1.490021,0.0566 -0.544415,0.0282 -0.916801,0.42315 -0.88816,0.95938 0.229232,4.96718 0.229232,9.93439 0,16.08693 -0.02867,0.53621 0.372508,0.93156 0.916938,0.95986 h 0.02875 c 0.544424,0 0.916592,-0.36703 0.945234,-0.90326 0.08598,-1.91914 0.114748,-3.61251 0.143389,-5.30587 0,-0.1693 0.08608,-0.28244 0.258007,-0.36697 0.02866,-0.0283 0.08571,-0.0283 0.171687,-0.0283 v 5e-4 c 0.143272,0 0.2296,0.0281 0.315553,0.11271 l 0.687706,0.70563 c 1.604627,1.58047 3.065706,3.07625 7.134587,5.64453 0.200576,0.0846 0.37273,0.14103 0.516013,0.14103 0.372499,0 0.630396,-0.14135 0.802321,-0.42356 0.3152,-0.42335 0.143037,-1.01588 -0.286775,-1.26975 -3.896957,-2.48358 -5.243533,-3.83866 -6.704893,-5.27804 -0.143228,-0.1411 -0.171909,-0.28201 -0.114623,-0.42309 0.02866,-0.14117 0.143163,-0.25376 0.315089,-0.28206 1.747897,-0.47977 3.209176,-1.10109 4.326689,-1.86311 2.17772,-1.43938 2.29246,-3.04786 2.206507,-3.86633 -0.08599,-0.76198 -0.42983,-1.46776 -1.031559,-2.11686 -0.544425,-0.56446 -1.317986,-1.07235 -2.263571,-1.49569 -1.633277,-0.70557 -3.639255,-1.04428 -5.988887,-1.04428 z m 34.499275,0 c -0.143273,0 -0.31518,1e-5 -0.458464,0.0282 -1.232133,0.0847 -2.349297,0.42331 -3.237572,1.01598 -0.71634,0.4798 -1.289683,1.04427 -1.662183,1.72162 -0.429812,0.79023 -0.601545,1.63683 -0.544316,2.53995 0.114624,1.4958 0.745149,2.65308 1.86265,3.47153 0.916916,0.67736 2.062995,1.10048 3.180498,1.46738 1.060193,0.36689 1.890835,0.70585 2.549873,1.12919 0.687691,0.4798 1.08909,1.1569 1.203712,1.97537 0.114615,0.87489 -0.172052,1.58047 -0.831091,2.06028 -0.458453,0.33866 -1.117522,0.59286 -1.948495,0.73393 -0.315178,0.0848 -0.658926,0.0566 -1.002778,0.0566 -0.716349,0 -1.346509,-0.0849 -1.890933,-0.28254 -0.687691,-0.22579 -1.11774,-0.59241 -1.203722,-0.93109 -0.08598,-0.42333 -0.487241,-0.73392 -0.945704,-0.73392 h -0.171688 c -0.257897,0.0564 -0.458571,0.19767 -0.601855,0.39528 -0.143283,0.19755 -0.200712,0.42344 -0.143393,0.67731 0.200567,1.04426 1.060466,1.89078 2.464504,2.34234 0.773664,0.25405 1.604517,0.39526 2.492791,0.39526 0.458455,0 0.888403,-0.0284 1.289564,-0.0849 2.980007,-0.45158 4.670639,-2.37088 4.355441,-4.85447 -0.171926,-1.35469 -0.802688,-2.42705 -1.92019,-3.21729 -0.916932,-0.64912 -2.005696,-0.98791 -3.065875,-1.41124 -1.289426,-0.45157 -2.148952,-0.7899 -2.722036,-1.24146 -0.65904,-0.47979 -1.003007,-1.18538 -1.06033,-2.06027 -0.08598,-1.10068 0.344226,-1.94743 1.347105,-2.59658 0.71636,-0.47963 1.69037,-0.73392 2.693266,-0.73392 0.716349,0 1.346519,0.1414 1.890938,0.39527 0.716347,0.36691 1.089204,0.90284 1.117865,1.6084 0.02866,0.53623 0.429583,0.90327 0.97401,0.90327 0.286537,-0.0282 0.515645,-0.14104 0.658929,-0.31037 0.200573,-0.19755 0.257895,-0.42345 0.229235,-0.67732 -0.02865,-0.73381 -0.257658,-1.38304 -0.630161,-1.91925 -0.372499,-0.53622 -0.888292,-0.93148 -1.490019,-1.24192 -0.802295,-0.42332 -1.719385,-0.62072 -2.779576,-0.62072 z m -96.735323,0.0282 c -1.69058,0.19762 -3.29515,0.31035 -5.24362,0.31035 -1.46133,0 -2.86542,-0.0279 -4.35544,-0.11273 -0.31519,0 -0.63051,-0.0283 -0.94569,-0.0283 h -0.0283 c -0.54442,0 -0.91707,0.39468 -0.9457,0.87449 -0.0287,0.53623 0.3725,0.95984 0.91693,0.95984 l 0.91692,0.0566 h 0.0288 l 2.60743,0.0844 c 0.25786,0 0.40092,0.14111 0.40092,0.39524 0.34383,4.43097 0.22936,8.38197 0.0288,12.58712 l -0.0859,1.97585 c 0,0.53622 0.37251,0.93109 0.91694,0.95937 h 0.0283 c 0.54442,0 0.91705,-0.36651 0.94571,-0.90277 l 0.0859,-1.91924 v -0.0283 c 0.14328,-4.20516 0.31554,-8.12798 -0.0283,-12.61539 0,-0.0846 0.0287,-0.19803 0.11462,-0.31084 0.0859,-0.0846 0.20049,-0.14102 0.31508,-0.14102 1.63326,-0.0283 3.09454,-0.11278 4.55591,-0.31037 0.54442,-0.0847 0.91703,-0.47977 0.83109,-1.01599 -0.0861,-0.47978 -0.45861,-0.81835 -0.94572,-0.81835 z m 38.998069,0 c -0.487114,0 -0.859769,0.36675 -0.945713,0.81835 -0.544423,4.96718 -1.031448,8.72062 -1.575869,11.40179 -0.200577,0.90311 -0.343717,1.69319 -0.544317,2.34234 -0.0287,0.19762 -0.17216,0.31082 -0.40139,0.31082 -0.20056,0.0282 -0.31497,-0.0849 -0.40093,-0.28252 -0.20057,-0.53624 -0.37249,-1.18512 -0.57309,-1.97539 -0.65904,-2.37069 -1.46173,-6.06805 -2.60789,-11.7126 -0.086,-0.42332 -0.48677,-0.73346 -0.94525,-0.73346 -0.45846,0 -0.83097,0.31019 -0.91693,0.76175 -0.88828,4.74142 -1.74793,8.52347 -2.6362,11.37396 -0.22921,0.76201 -0.45847,1.46758 -0.68769,2.06027 -0.0861,0.19764 -0.22911,0.28205 -0.4297,0.25375 -0.20056,0 -0.31544,-0.11275 -0.4014,-0.31036 -0.14327,-0.62089 -0.2864,-1.29825 -0.42968,-2.06027 -0.48713,-2.59649 -0.97436,-6.26536 -1.5188,-11.09142 -0.086,-0.47979 -0.45859,-0.84666 -0.94571,-0.84666 -0.0573,0 -0.0861,1e-5 -0.11462,0.0283 -0.54442,0.0847 -0.91655,0.47972 -0.83061,1.01598 0.60174,5.27761 1.14606,9.22894 1.69049,11.85364 0.22922,1.27003 0.48723,2.22957 0.71646,2.90694 0.25789,0.81844 0.60152,1.35453 0.97402,1.60839 0.28655,0.2259 0.60151,0.28217 0.97399,0.19764 0.65905,-0.19754 1.08898,-0.81849 1.40418,-1.38294 0.34385,-0.67737 0.71635,-1.63686 1.14617,-2.87863 0.54442,-1.60869 1.06022,-3.61256 1.60464,-6.0115 0.0859,-0.19765 0.2291,-0.31036 0.42969,-0.31036 0.22923,0 0.37287,0.11278 0.43018,0.33867 0.71634,3.27384 1.26079,5.41865 1.71926,6.97087 0.34384,1.21361 0.65882,1.94761 0.97402,2.48384 0.37249,0.6209 0.83121,0.93107 1.43294,0.93107 0.0859,0 0.17192,-1e-5 0.22924,-0.0283 0.25788,-0.0282 0.630035,-0.1691 0.945235,-0.59244 0.200581,-0.254 0.372733,-0.53636 0.516014,-0.90325 0.315191,-0.67736 0.51543,-1.63708 0.830619,-2.96353 0.601738,-2.73761 1.174832,-6.80139 1.833871,-12.55881 0.08598,-0.53622 -0.2862,-0.93119 -0.830616,-1.01598 z m 11.21783,0 c -0.945582,0 -1.862416,0.28227 -2.722035,0.87495 -0.68769,0.53623 -1.346984,1.21327 -1.891414,2.11641 -0.888271,1.43933 -1.604525,3.38685 -2.148946,5.87045 -0.916921,4.06405 -0.974012,8.10006 -0.974012,8.2694 0,0.53622 0.400813,0.93109 0.945239,0.93109 0.544423,0 0.945707,-0.36656 0.945707,-0.90279 0,-0.0281 0.05731,-2.42724 0.458466,-5.33417 0.02866,-0.1976 0.229235,-0.36695 0.458469,-0.33867 1.747886,0.0845 3.295019,0.14104 4.985599,0.14104 1.461346,0 2.86567,-0.0565 4.183752,-0.16933 0.114598,-0.0281 0.229125,1.1e-4 0.315077,0.0849 0.08597,0.0846 0.143388,0.19727 0.143388,0.28207 0.229288,2.87871 0.114618,5.16483 0.114618,5.19313 0,0.25399 0.08608,0.47972 0.258007,0.67733 0.171923,0.19762 0.401057,0.28205 0.658929,0.31035 0.54442,0 0.945364,-0.36703 0.974006,-0.90325 0,-0.11291 0.114734,-2.93528 -0.200461,-6.20913 -0.458461,-4.54383 -1.518457,-7.70437 -3.151728,-9.42592 -0.48712,-0.4798 -1.0029,-0.8467 -1.490019,-1.0443 -0.573075,-0.28229 -1.203599,-0.42356 -1.862642,-0.42356 z m 68.693312,0.0217 c -1.17873,0.0135 -2.535134,0.72438 -4.093191,2.17962 -1.146154,1.04423 -2.005668,2.08821 -2.034337,2.17301 -0.31518,0.42333 -0.28642,0.95984 0.143392,1.29851 0.200576,0.14111 0.400795,0.19763 0.601382,0.19763 0.286554,0 0.515883,-0.11282 0.716477,-0.36696 0.02866,0 0.830744,-0.95976 1.890944,-1.94755 1.604616,-1.49582 2.550476,-1.665 2.808346,-1.665 h 0.05705 c 0.315199,0.0282 0.458446,0.22595 0.573087,0.42357 0.143291,0.22575 0.344205,0.95925 -0.257532,2.96305 -0.429804,1.32645 -1.174833,2.99146 -2.17773,4.9106 -1.776533,3.27384 -3.753695,6.29402 -3.782355,6.29402 -0.200576,0.31046 -0.200686,0.64893 -0.02875,0.95938 0.143274,0.31045 0.429821,0.47971 0.802322,0.47971 l 2.4928,0.0566 h 0.02875 l 7.507173,0.11273 c 0.544425,0 0.945704,-0.36654 0.945704,-0.90278 0,-0.25401 -0.08607,-0.48019 -0.258005,-0.6778 -0.143274,-0.14114 -0.3724,-0.25377 -0.65893,-0.28206 l -7.535942,-0.11273 h -0.02875 c -0.200586,0 -0.315309,-0.0849 -0.372629,-0.22593 -0.08599,-0.14111 -0.08599,-0.28202 0,-0.42309 0.945587,-1.55225 1.776696,-3.02017 2.550351,-4.40309 1.060199,-2.06024 1.83387,-3.80983 2.292333,-5.22095 0.286539,-0.93133 0.458692,-1.72153 0.516012,-2.37064 0.05732,-0.81847 -0.08616,-1.52405 -0.401398,-2.06027 -0.458463,-0.81844 -1.174831,-1.29844 -2.063099,-1.38295 -0.07704,-0.005 -0.154902,-0.007 -0.233481,-0.006 z m 29.656995,0 c -1.17871,0.0135 -2.5356065,0.72438 -4.0936545,2.17962 -1.14617,1.04423 -2.0056751,2.08821 -2.034336,2.17301 -0.3151702,0.42333 -0.2864096,0.95984 0.1433935,1.29851 0.2005839,0.14111 0.4012613,0.19763 0.6018544,0.19763 0.2865374,0 0.5154084,-0.11282 0.7160022,-0.36696 0.028669,0 0.83121,-0.95976 1.8914096,-1.94755 1.6046158,-1.49582 2.5500008,-1.665 2.8078798,-1.665 h 0.05751 c 0.315198,0.0282 0.458498,0.22595 0.573085,0.42357 0.143283,0.22575 0.34373,0.95925 -0.258006,2.96305 -0.429802,1.32645 -1.174841,2.99146 -2.17772,4.9106 -1.77655,3.27384 -3.7536924,6.29402 -3.7823524,6.29402 -0.2005852,0.31046 -0.2006958,0.64893 -0.028747,0.95938 0.1432723,0.31045 0.4298108,0.47971 0.8023114,0.47971 l 2.493274,0.0566 h 0.028292 l 7.507644,0.11273 c 0.544435,0 0.94524,-0.36654 0.94524,-0.90278 0,-0.25401 -0.08561,-0.48019 -0.257531,-0.6778 -0.143274,-0.14114 -0.372865,-0.25377 -0.659404,-0.28206 l -7.535949,-0.11273 H 9.92265 c -0.2005766,0 -0.3153905,-0.0849 -0.3726289,-0.22593 -0.08598,-0.14111 -0.08598,-0.28202 0,-0.42309 0.9455779,-1.55225 1.7766959,-3.02017 2.5503489,-4.40309 1.060191,-2.06024 1.833405,-3.80983 2.291868,-5.22095 0.286538,-0.93133 0.458691,-1.72153 0.516011,-2.37064 0.05732,-0.81847 -0.08625,-1.52405 -0.401398,-2.06027 -0.458471,-0.81844 -1.174356,-1.29844 -2.062631,-1.38295 -0.07705,-0.005 -0.154903,-0.007 -0.233481,-0.006 z m -14.6808619,0.006 c -1.4613515,0 -2.8657934,0.64911 -4.0978996,1.86265 -0.8309729,0.90314 -1.4896741,1.97556 -1.9767881,3.24559 -0.4871145,1.38292 -0.71625,2.85044 -0.6589383,4.43091 0.085978,2.5118 0.802221,4.57214 2.1489499,6.18082 1.2321245,1.49579 2.8654375,2.34233 4.5846761,2.34233 1.3753891,0 2.57865244,-0.53586 3.6102009,-1.5801 1.1461531,-1.12892 2.46403,-3.4997 2.2347937,-7.90244 -0.1146228,-2.70935 -0.7159025,-4.8262 -1.8333954,-6.37844 -1.00289735,-1.43935 -2.40697404,-2.20132 -4.0115992,-2.20132 z m -122.4095141,0.0283 c -2.17768,0 -4.26961,0.87458 -5.75961,2.45506 -0.80231,0.79024 -1.43238,1.77811 -1.86217,2.93523 -0.42984,1.21358 -0.63075,2.48354 -0.54478,3.92291 0.0573,1.32647 0.34397,2.56861 0.83108,3.72576 0.45847,1.04423 1.08875,1.97559 1.91972,2.73761 0.77364,0.73379 1.6333,1.29817 2.63618,1.69331 0.94559,0.39504 1.91985,0.59241 2.98005,0.59241 2.03442,0 3.83992,-0.79007 5.21529,-2.173 1.14617,-1.12891 2.49271,-3.3866 2.34942,-7.14021 -0.0861,-2.79403 -0.91684,-4.96738 -2.4928,-6.57609 -1.37538,-1.43934 -3.20929,-2.17299 -5.27238,-2.17299 z m 64.471392,0 c -0.257889,0 -0.458812,0.0844 -0.659407,0.28206 -0.200547,0.19754 -0.286192,0.42318 -0.25753,0.67732 0.114605,3.04805 0.171687,5.50319 0.171687,7.78924 0.02867,3.04805 -0.02839,5.81408 -0.171687,8.29769 -0.02867,0.254 0.02866,0.47972 0.229237,0.67731 0.171924,0.19764 0.401049,0.31036 0.658927,0.31036 0.372502,0.0283 0.716115,0.0283 1.088625,0.0283 5.243659,0 8.051857,-1.778 9.398579,-3.24558 1.404048,-1.55226 2.063241,-3.47124 1.862648,-5.58793 -0.114614,-1.21358 -0.487013,-2.34244 -1.117401,-3.41493 -0.601737,-1.12891 -1.46126,-2.08865 -2.492799,-2.96354 -1.117501,-0.90312 -2.378324,-1.58046 -3.782354,-2.06026 -1.46136,-0.53635 -3.094793,-0.79005 -4.842683,-0.79005 z m 86.563101,0 c -1.40404,0 -2.607322,0.36663 -3.610201,1.1004 -0.544434,0.36691 -0.974475,0.87517 -1.318334,1.46786 -0.34383,0.59267 -0.544416,1.26997 -0.573075,2.03197 -0.08598,1.38292 0.343977,2.56808 1.289553,3.52765 0.229228,0.254 0.486896,0.45143 0.744774,0.64903 0.143265,0.0847 0.200931,0.19763 0.200931,0.36696 0,0.14107 -0.05768,0.25388 -0.200931,0.33868 -1.318086,0.87488 -2.034191,2.00388 -2.120171,3.44321 -0.08598,1.18537 0.314961,2.25811 1.203235,3.18947 0.601728,0.62089 1.346994,1.10039 2.235269,1.43908 0.830954,0.33864 1.690606,0.50798 2.636192,0.50798 1.375381,0 2.549992,-0.36702 3.49557,-1.07258 1.08885,-0.8467 1.690478,-2.00356 1.805101,-3.49936 0.114603,-1.43937 -0.257777,-2.62451 -1.117393,-3.52765 -0.229236,-0.25401 -0.458362,-0.45189 -0.773552,-0.6495 -0.08598,-0.0848 -0.171797,-0.19759 -0.200457,-0.33866 0,-0.14106 0.05715,-0.25387 0.171687,-0.33866 1.002889,-0.84668 1.575837,-1.97541 1.690488,-3.35832 0.114604,-1.38291 -0.286211,-2.56814 -1.174476,-3.55596 -1.03154,-1.10066 -2.636329,-1.7216 -4.38421,-1.7216 z m -100.274275,1.77773 c 2.063093,0 3.896892,0.3106 5.243631,0.90326 1.289437,0.53624 2.091793,1.32655 2.177738,2.08857 0.08598,0.70556 -0.429593,1.46745 -1.432482,2.17301 -0.888283,0.64912 -2.607478,1.43962 -5.816728,1.97584 0,0.0281 -0.02893,0.0278 -0.05751,0.0278 v 4.9e-4 c -0.08598,0 -0.171656,-0.0285 -0.286307,-0.11321 -0.08598,-0.0846 -0.143381,-0.19748 -0.143381,-0.31036 0,-2.17316 -0.02866,-4.23329 -0.11462,-6.29355 0,-0.1411 0.02866,-0.25388 0.11462,-0.31037 0.08598,-0.0847 0.200483,-0.14149 0.315078,-0.14149 z m -12.020149,0.0283 c 0.773654,0 1.432834,0.31057 1.977259,0.90325 0.716346,0.73379 1.317863,1.89066 1.776325,3.49935 0.257885,0.87492 0.430038,1.80656 0.63063,2.8508 0.0287,0.11287 -4.82e-4,0.22578 -0.08631,0.33866 -0.08594,0.0847 -0.200351,0.14102 -0.286304,0.14102 -1.232114,0.11285 -2.550362,0.16935 -3.925746,0.16935 -1.60462,0 -3.123332,-0.0281 -4.584679,-0.11273 -0.143267,-0.0283 -0.229131,-0.0846 -0.315075,-0.16934 -0.08595,-0.11288 -0.114487,-0.22584 -0.08585,-0.36696 0.315195,-1.24179 0.773436,-3.07653 1.547091,-4.54411 0.916923,-1.80626 2.034581,-2.70929 3.352662,-2.70929 z m -38.740069,0.0283 c 1.46136,0 2.83667,0.56464 3.8682,1.60888 0.60174,0.59267 1.06033,1.2981 1.40418,2.17301 0.37251,0.90312 0.57285,1.9754 0.63017,3.18898 0.0861,2.4836 -0.51544,4.4874 -1.8622,5.81386 -1.00287,1.01604 -2.34988,1.58059 -3.83988,1.58059 -0.8023,0 -1.51869,-0.14095 -2.29234,-0.4514 -0.77365,-0.31046 -1.46126,-0.73415 -2.03434,-1.32682 -1.34672,-1.32646 -2.0631,-3.04774 -2.17772,-5.19265 -0.14326,-2.79406 1.00315,-4.54393 1.89142,-5.50351 1.17481,-1.21358 2.77925,-1.89093 4.41251,-1.89093 z m 122.4095141,0 c 0.9742281,0 1.80510039,0.4799 2.49279973,1.41125 0.60172775,0.87491 1.34666467,2.45515 1.46125087,5.3903 0.1432733,2.93515 -0.48714141,5.27777 -1.71925672,6.54779 -0.63038783,0.64912 -1.37517918,0.98767 -2.23479388,0.98767 -1.1175019,0 -2.2351498,-0.59247 -3.1234248,-1.6367 -0.7736525,-0.87491 -1.6332766,-2.48392 -1.7192571,-5.08041 -0.085981,-2.59648 0.6588291,-4.85427 2.1201806,-6.32186 0.8309636,-0.8749 1.7482639,-1.29804 2.7225013,-1.29804 z m 28.6249789,0 c 1.232125,0 2.320994,0.42316 2.980033,1.12871 0.544416,0.56447 0.773689,1.29858 0.687708,2.17349 -0.08598,1.15712 -0.658829,2.00358 -1.661708,2.48337 -0.773662,0.3669 -1.518682,0.39525 -1.833872,0.39525 -1.232123,0 -2.32113,-0.39501 -3.00882,-1.15701 -0.573067,-0.56446 -0.830972,-1.27027 -0.802312,-2.14518 0.05732,-0.98779 0.486895,-1.72167 1.317859,-2.2579 0.659039,-0.42332 1.432846,-0.62073 2.321112,-0.62073 z m -85.073083,0.0845 c 2.951356,0.31045 4.870997,1.43977 6.017149,2.37111 1.71923,1.35468 2.72191,3.1891 2.922494,5.10824 0.171926,1.60869 -0.286548,2.99131 -1.375399,4.17666 -1.575956,1.66515 -4.125902,2.54017 -7.593023,2.62487 -0.08598,0 -0.200457,-0.028 -0.31507,-0.11272 -0.08598,-0.0847 -0.114621,-0.19755 -0.114621,-0.33867 0.08598,-2.14492 0.143283,-4.431 0.114621,-7.02748 0,-1.91914 -0.05741,-3.92307 -0.143391,-6.37844 0,-0.11288 0.05741,-0.22566 0.143391,-0.31036 0.08598,-0.0847 0.200566,-0.11321 0.343849,-0.11321 z m 85.560325,8.29769 c 1.174795,0 2.206143,0.36687 2.80787,1.01598 0.487106,0.50802 0.687956,1.21368 0.630635,2.0886 -0.08598,1.10068 -0.544444,1.91914 -1.375407,2.39893 -0.6877,0.42338 -1.490031,0.47968 -2.063098,0.47968 -1.346747,0 -2.7224,-0.53619 -3.496053,-1.35465 -0.515756,-0.53622 -0.744664,-1.1287 -0.716003,-1.80604 0.05732,-0.81846 0.486776,-1.49611 1.289088,-2.00413 0.802303,-0.53623 1.862759,-0.81837 2.922968,-0.81837 z"
       inkscape:label="green inner" />
  </g>
</svg>
