<?xml version="1.0" encoding="UTF-8" standalone="no"?>
<svg
   xmlns:dc="http://purl.org/dc/elements/1.1/"
   xmlns:cc="http://creativecommons.org/ns#"
   xmlns:rdf="http://www.w3.org/1999/02/22-rdf-syntax-ns#"
   xmlns:svg="http://www.w3.org/2000/svg"
   xmlns="http://www.w3.org/2000/svg"
   xmlns:sodipodi="http://sodipodi.sourceforge.net/DTD/sodipodi-0.dtd"
   xmlns:inkscape="http://www.inkscape.org/namespaces/inkscape"
   width="220.17957mm"
   height="21.728735mm"
   viewBox="0 0 220.17958 21.728735"
   version="1.1"
   id="svg1931"
   sodipodi:docname="heading1.svg"
   inkscape:version="1.0.1 (3bc2e813f5, 2020-09-07)">
  <defs
     id="defs1925" />
  <sodipodi:namedview
     id="base"
     pagecolor="#ffffff"
     bordercolor="#666666"
     borderopacity="1.0"
     inkscape:pageopacity="0.0"
     inkscape:pageshadow="2"
     inkscape:zoom="2.6539109"
     inkscape:cx="887.33447"
     inkscape:cy="-24.75329"
     inkscape:document-units="mm"
     inkscape:current-layer="layer1"
     inkscape:document-rotation="0"
     showgrid="false"
     inkscape:window-width="1920"
     inkscape:window-height="1017"
     inkscape:window-x="-8"
     inkscape:window-y="-8"
     inkscape:window-maximized="1" />
  <metadata
     id="metadata1928">
    <rdf:RDF>
      <cc:Work
         rdf:about="">
        <dc:format>image/svg+xml</dc:format>
        <dc:type
           rdf:resource="http://purl.org/dc/dcmitype/StillImage" />
        <dc:title />
      </cc:Work>
    </rdf:RDF>
  </metadata>
  <g
     inkscape:label="Layer 1"
     inkscape:groupmode="layer"
     id="layer1"
     transform="translate(161.14692,256.67613)">
    <path
       id="path2533-33"
       style="fill:#999999;stroke-width:0.508;stroke-linecap:round;stroke-linejoin:round"
       d="m 59.032647,-249.21855 a 2.3153222,2.3153222 0 0 1 -2.315323,2.31532 2.3153222,2.3153222 0 0 1 -2.315322,-2.31532 2.3153222,2.3153222 0 0 1 2.315322,-2.31532 2.3153222,2.3153222 0 0 1 2.315323,2.31532 z" />
    <path
       id="path2533-3-3"
       style="fill:#999999;stroke-width:0.508;stroke-linecap:round;stroke-linejoin:round"
       d="m 58.900551,-241.41263 a 2.3153222,2.3153222 0 0 1 -2.315322,2.31532 2.3153222,2.3153222 0 0 1 -2.315322,-2.31532 2.3153222,2.3153222 0 0 1 2.315322,-2.31532 2.3153222,2.3153222 0 0 1 2.315322,2.31532 z" />
    <path
       id="path2533"
       style="fill:#000000;stroke-width:0.508;stroke-linecap:round;stroke-linejoin:round"
       d="m 58.703793,-250.05298 a 2.3153222,2.3153222 0 0 1 -2.315322,2.31532 2.3153222,2.3153222 0 0 1 -2.315322,-2.31532 2.3153222,2.3153222 0 0 1 2.315322,-2.31532 2.3153222,2.3153222 0 0 1 2.315322,2.31532 z" />
    <path
       id="path2533-3"
       style="fill:#000000;stroke-width:0.508;stroke-linecap:round;stroke-linejoin:round"
       d="m 58.571701,-242.24681 a 2.3153222,2.3153222 0 0 1 -2.315322,2.31532 2.3153222,2.3153222 0 0 1 -2.315322,-2.31532 2.3153222,2.3153222 0 0 1 2.315322,-2.31532 2.3153222,2.3153222 0 0 1 2.315322,2.31532 z" />
    <path
       id="path2533-0"
       style="fill:#339999;fill-opacity:1;stroke-width:0.291786;stroke-linecap:round;stroke-linejoin:round"
       d="m 57.678666,-250.09941 a 1.329883,1.329883 0 0 1 -1.329883,1.32988 1.329883,1.329883 0 0 1 -1.329883,-1.32988 1.329883,1.329883 0 0 1 1.329883,-1.32988 1.329883,1.329883 0 0 1 1.329883,1.32988 z" />
    <path
       id="path2533-3-0"
       style="fill:#339999;fill-opacity:1;stroke-width:0.302434;stroke-linecap:round;stroke-linejoin:round"
       d="m 57.643989,-242.27303 a 1.378413,1.378413 0 0 1 -1.378413,1.37842 1.378413,1.378413 0 0 1 -1.378412,-1.37842 1.378413,1.378413 0 0 1 1.378412,-1.37841 1.378413,1.378413 0 0 1 1.378413,1.37841 z" />
    <g
       id="g10616-0-1-9"
       transform="matrix(2.7354178,0,0,2.7354178,-231.24652,-452.05799)"
       style="fill:#999999"
       inkscape:label="grey shadow">
      <path
         id="path10584-4-9-3"
         style="font-weight:bold;font-size:10.6638px;line-height:1;font-family:'Fill Me With Color';-inkscape-font-specification:'Fill Me With Color';letter-spacing:-0.399896px;word-spacing:1.06639px;fill:#999999;stroke-width:2.75624"
         transform="matrix(0.09672502,0,0,0.09672502,25.60581,68.787287)"
         d="m 34.740234,32.492188 c -0.777668,0 -1.222393,-2.15e-4 -2,0.109374 -5.22112,0.328776 -10.219598,1.969813 -14.21875,4.486329 -3.332633,2.078986 -5.777048,4.70589 -7.443359,7.878906 -2.1106647,3.501266 -2.8879415,7.330404 -2.5546875,11.597656 0.4444559,6.674385 3.3316035,11.926225 8.5527345,15.865235 3.999151,2.954251 8.666101,4.595284 13.220703,6.236328 8.331578,2.954251 11.774638,4.486625 12.330078,9.191406 0.333213,2.188369 -0.333637,3.829585 -2,5.033203 -1.444145,1.203515 -3.331692,1.85925 -5.886719,2.1875 -1.221969,0.328767 -2.22139,0.220703 -3.443359,0.220703 -2.221752,0 -4.334169,-0.329008 -6.222656,-0.876953 C 23.407907,93.874964 22.852806,93.32825 22.519531,93 c -0.777668,-3.063737 -3.443,-5.251953 -6.886719,-5.251953 -0.555492,0 -0.889402,-2.14e-4 -1.222656,0.109375 -1.888498,0.328767 -3.443566,1.313938 -4.4433591,2.845703 -1.1108717,1.531868 -1.4446036,3.28246 -1.1113281,5.142578 0.9997413,5.361387 4.8877082,9.299907 11.6640622,11.597657 3.221535,1.20351 6.889281,1.64062 10.777344,1.64062 1.888498,0 3.775345,-0.10976 5.552734,-0.4375 6.554197,-0.98526 11.664173,-3.50239 15.330079,-7.55078 3.554809,-4.048357 5.000513,-9.079886 4.333984,-14.878903 C 55.736003,80.08953 52.735033,75.165336 47.625,71.554688 43.736926,68.600428 39.293353,67.287735 34.960938,65.646484 25.518471,62.473469 22.852806,60.722587 22.519531,55.689453 c -0.222176,-2.954148 0.999849,-5.362545 3.666016,-7.113281 2.33283,-1.422383 5.444481,-2.296875 8.666015,-2.296875 2.221771,0 4.109069,0.436829 5.775391,1.203125 2.110664,1.203618 2.4436,2.189063 2.554688,3.392578 0.111036,3.829619 3.332629,6.78321 7.220703,6.673828 1.888498,-0.109589 3.555625,-0.874802 4.888672,-2.296875 1.333057,-1.422383 1.888431,-3.063813 1.777343,-4.923828 -0.111036,-3.610751 -1.22284,-6.674891 -3.111328,-9.191406 C 52.29072,38.729586 50.069689,36.760384 47.070312,35.228516 43.404425,33.3685 39.294845,32.492188 34.740234,32.492188 Z m 95.646486,0 c -2.11067,0 -3.88934,0.109152 -6,0.21875 -1.99959,0.109589 -3.55342,0.876755 -4.77539,2.298828 -1.33306,1.422382 -1.89039,3.063709 -1.7793,4.923828 0.88871,18.928919 0.88871,38.295845 0,62.039066 -0.11104,1.86011 0.44463,3.50144 1.88867,4.92382 1.22197,1.313 2.88885,2.07812 4.77735,2.1875 h 0.33398 c 3.88806,0 6.66478,-2.84431 6.99805,-6.67382 0.33321,-6.01792 0.33232,-11.378861 0.44336,-16.630863 6.33201,6.236752 12.10908,11.925936 28.21679,22.210933 0.99985,0.76609 2.3332,1.09375 3.77735,1.09375 2.55502,0 4.44455,-1.09494 5.88867,-3.17382 2.11067,-3.17312 1.11022,-7.440652 -2.11133,-9.519535 -12.88617,-8.096768 -18.77376,-13.019607 -23.43945,-17.943359 6.10981,-1.860119 11.21937,-4.157092 15.10742,-6.892578 9.77572,-6.67429 10.33129,-14.225172 9.99805,-18.054688 -0.33322,-3.610751 -2.11148,-7.112155 -4.88867,-10.066406 -2.44393,-2.625898 -5.77647,-4.81382 -9.88672,-6.564453 -6.77635,-2.954252 -14.88421,-4.376961 -24.54883,-4.376953 z m 194.90234,0 c -5.66546,0 -10.22036,0.328376 -13.66406,1.09375 -2.88829,0.6565 -5.22038,1.532827 -6.88672,2.517578 -3.88806,2.297751 -5.00073,5.469945 -5.33398,7.548828 -0.88871,4.486016 -1.88672,18.163184 -1.88672,30.964844 -0.11104,7.221399 0.11052,13.131163 0.66601,17.726562 0.33322,2.954251 0.8879,5.14182 1.44336,7.220703 1.11088,3.282497 2.77802,5.579687 4.88867,6.783207 2.11076,1.42238 6.11021,2.73632 17.33008,2.73632 2.33284,0 4.88663,2.2e-4 7.55274,-0.10937 8.77593,-0.32877 16.66281,-1.20313 16.99609,-1.20313 3.88806,-0.32876 6.667,-3.72126 6.22266,-7.55078 -0.33322,-3.501342 -3.33386,-6.12695 -6.88867,-6.12695 h -0.77735 l -4.77734,0.4375 c -2.99938,0.328767 -6.77648,0.546661 -10.88672,0.65625 -2.66611,0.109589 -5.10835,0.109375 -7.33008,0.109375 -5.22115,0 -7.77657,-0.219142 -9.2207,-0.546875 -0.33321,-1.641251 -1.11157,-5.471702 -1.22266,-13.458984 2.66611,0.109589 5.3317,0.111328 7.88672,0.111328 8.33159,0 16.32979,-0.438782 24.32813,-1.205078 1.88847,-0.219178 3.44405,-1.093243 4.66601,-2.515625 1.22197,-1.641251 1.66746,-3.282452 1.44531,-5.142579 -0.33321,-3.501265 -3.33386,-6.126953 -6.88867,-6.126953 -0.33321,0 -0.6662,-2.14e-4 -0.77734,0.109375 -7.44285,0.76609 -14.88622,1.203125 -22.77344,1.203125 -2.55502,0 -5.22037,-0.109161 -7.77539,-0.21875 0.33321,-8.206253 0.88766,-15.756185 1.33203,-20.023437 1.44411,-0.437322 4.88915,-1.203125 12.33203,-1.203125 h 3.99805 c 8.2205,0.328767 15.99829,1.3125 16.10937,1.3125 h 0.88868 c 3.55482,0 6.44261,-2.51632 6.99804,-5.908203 0.22208,-1.860119 -0.22334,-3.610813 -1.44531,-5.142578 -1.22196,-1.531869 -2.77558,-2.408181 -4.66406,-2.626954 -0.33321,0 -10.1098,-1.421882 -20.21875,-1.421874 z m 145.63477,0 c -0.33321,0 -0.77616,0.109374 -1.10938,0.109374 -4.99895,0.875687 -9.99954,1.203126 -16.10937,1.203126 -4.33244,0 -8.44225,-0.218528 -12.44141,-0.328126 -2.99936,-0.109589 -5.66421,-0.328124 -8.4414,-0.328124 -2.11068,0 -3.77831,0.655844 -5.11133,1.96875 -1.33308,1.203618 -1.99829,2.954445 -2.10938,4.705078 0,3.829619 2.99866,7.001842 6.88672,7.111328 2.66611,0 5.22131,0.111114 8.2207,0.220703 0.5555,0.109589 1.11105,0.109375 1.88868,0.109375 0,3.938898 0.11132,7.986912 0.11132,11.488281 0.33322,12.254534 0.44425,23.74327 0,36.544922 -3.44373,-0.327733 -6.33219,-0.65611 -9.10937,-1.203125 -0.44425,-0.109589 -1.00091,-0.109375 -1.44531,-0.109375 -3.44372,0 -6.10909,2.188209 -6.88672,5.361328 -0.33321,1.860017 2.6e-4,3.610707 1,5.142577 0.99974,1.53187 2.44353,2.51549 4.33203,3.0625 5.22112,1.20362 10.44147,1.53125 16.77344,1.53125 v 0.002 c 3.99916,0 8.22225,-0.10894 12.55468,-0.32812 3.55479,-0.32877 7.21887,-0.4375 10.88477,-0.4375 1.99959,-0.10959 3.66673,-0.87687 4.88867,-2.08008 1.33308,-1.42238 2,-3.06371 2,-4.92383 -0.11103,-1.969474 -0.88938,-3.610935 -2.11133,-4.81445 -1.33304,-1.313001 -2.99816,-1.96875 -4.88672,-1.96875 h -0.11132 c -3.99915,0.109589 -7.77746,0.109767 -11.44336,0.4375 -0.77767,0 -1.66599,0.109375 -2.55469,0.109375 0.55549,-13.02052 0.44454,-24.290285 0.11133,-36.544922 0,-3.391883 -0.11133,-7.11189 -0.11133,-10.941406 5.44332,-0.109589 10.55357,-0.546404 15.44141,-1.421875 3.88809,-0.546911 6.55497,-4.049287 5.77734,-7.878906 -0.55549,-3.391884 -3.44495,-5.798828 -6.88867,-5.798828 z m 39.49219,0 c -3.88808,0.219178 -7.33072,1.093227 -10.33008,2.734374 -3.44373,1.641259 -6.55436,4.049523 -9.10938,7.441407 -5.33221,6.893253 -8.10962,16.520628 -8.2207,29.103515 -0.11104,11.051027 2.33137,19.913617 7.44141,26.478516 4.55461,6.01788 10.99876,9.51916 18.55273,10.50391 1.44414,0.21917 2.77656,0.33007 4.2207,0.33007 5.22112,0 10.33211,-1.2043 14.88672,-3.50195 6.332,-3.06374 10.77438,-7.876896 12.10742,-13.23828 0.5555,-1.750633 0.33373,-3.501327 -0.66601,-5.142578 -0.99974,-1.641251 -2.44354,-2.736196 -4.33203,-3.173828 -0.33322,-0.109589 -0.88841,-0.21875 -1.66602,-0.21875 -3.22152,0 -5.99972,2.078944 -6.77734,5.142578 -0.55549,2.297751 -6.22094,6.345703 -13.55274,6.345703 -0.77767,0 -1.55441,2.14e-4 -2.33203,-0.109375 -4.33243,-0.546911 -7.77701,-2.734826 -10.33203,-6.673828 -2.55502,-4.048384 -3.66576,-9.520684 -3.55469,-16.632813 0,-9.1909 2.00084,-24.726194 14.10938,-25.601562 h 1.10937 c 2.8883,0 5.66571,0.655742 8.22071,2.078125 2.22176,1.203618 3.00073,2.408078 3.33398,2.736328 0.44446,3.391884 3.44299,5.908203 6.88672,5.908203 0.33321,0 0.6662,2.14e-4 0.77734,-0.109375 1.9996,-0.219178 3.55514,-1.095195 4.66602,-2.517578 1.22197,-1.531868 1.66552,-3.28246 1.44336,-5.142578 -0.55549,-4.704884 -4.22123,-9.409016 -9.88672,-12.582031 -4.77677,-2.735487 -10.1092,-4.158211 -15.44141,-4.158203 z m 288.77148,0 c -3.777,0 -6.99728,3.391194 -6.66406,7.111328 0,0.109589 0.44336,13.020127 0.44336,26.916015 0,5.251899 -0.11008,9.848101 -0.22071,13.896485 -1.44409,-3.50137 -2.77709,-7.221258 -4.44336,-11.160157 -3.11046,-7.878003 -6.22137,-16.085513 -9.2207,-22.322265 -1.66637,-3.610752 -3.11196,-6.235585 -4.33398,-8.095703 -0.88912,-1.750633 -3.88733,-5.798829 -8.66407,-5.798829 h -0.66601 c -1.4441,0.109598 -4.22136,0.766645 -6.33203,3.939454 -0.77767,1.203618 -1.33274,2.515117 -1.66602,3.9375 -0.55549,1.860118 -1.11206,4.705654 -1.44531,8.316406 -0.44425,5.361384 -0.66572,12.801287 -0.55469,21.992187 0,15.318279 1,30.636571 1,31.292971 0.33321,3.82962 3.22081,6.56445 6.88672,6.56445 0.22228,0 0.33366,2.2e-4 0.44531,-0.10937 1.88845,-0.10959 3.55348,-0.87481 4.77539,-2.1875 1.33306,-1.42239 1.88838,-3.06371 1.77735,-5.03321 0.11062,-0.10959 -0.77702,-13.129595 -0.88867,-27.025388 -0.11166,-5.689634 -0.11166,-10.722975 0,-15.099609 1.88834,4.48612 3.77599,9.519593 5.88671,14.662109 2.99923,7.549658 5.77696,14.769461 8.33204,20.34961 1.44419,3.391883 2.77768,5.800258 3.88867,7.441408 1.33295,2.29775 3.77613,5.47057 7.66406,5.9082 0.22228,0.10959 0.55577,0.10938 0.88867,0.10938 1.99959,0 3.7769,-0.65575 5.33203,-2.07813 2.33291,-2.07888 3.88864,-5.58008 4.77735,-16.083983 0.44456,-5.580252 0.66764,-12.692037 0.77929,-21.445313 0,-14.552284 -0.55664,-28.886579 -0.55664,-29.433593 -0.11165,-3.82962 -2.99868,-6.564461 -6.88672,-6.564453 z m -692.51953,0.109374 c -6.22092,0.875687 -12.441894,1.203126 -19.884767,1.203126 -5.665473,0 -10.996876,-0.107814 -16.773437,-0.435547 -1.22197,0 -2.444057,-0.111321 -3.666016,-0.111329 -3.888063,-0.109589 -7.109625,2.736787 -7.220703,6.566407 -0.111037,3.829516 2.88927,7.001842 6.777344,7.111328 l 3.554687,0.21875 h 0.111328 c 2.666105,0.109589 5.553376,0.220703 8.552735,0.220703 1.221969,16.631176 0.555492,31.292925 0,47.048828 l -0.333985,7.658202 c -0.111036,3.82952 2.88927,7.00184 6.777344,7.11133 h 0.222656 c 3.888074,0 6.886959,-2.84431 6.998047,-6.67383 l 0.333985,-7.441405 V 94.96875 c 0.555492,-15.755903 0.999741,-30.745675 0,-47.486328 5.776561,-0.109589 11.107002,-0.436829 16.328122,-1.203125 3.88807,-0.437322 6.55568,-3.830537 6.11133,-7.660156 -0.44425,-3.391884 -3.44519,-6.017579 -7,-6.017579 z m 101.20117,0 c -4.5546,0 -8.6644,1.313445 -12.44141,4.048829 -2.99934,2.188368 -5.77701,5.252515 -8.33203,9.082031 -3.66589,5.79912 -6.5534,13.785301 -8.66406,23.742187 -3.55481,16.302926 -3.88867,32.060291 -3.88867,32.826171 0,3.82962 2.99864,6.89258 6.88672,6.89258 h 0.11133 c 1.8885,0 3.55561,-0.65575 4.88867,-1.96875 1.44413,-1.20362 2.11133,-2.84496 2.11133,-4.70508 0,0 0.11048,-8.425793 1.55468,-18.820311 6.22091,0.327733 11.88627,0.546875 17.9961,0.546875 5.3322,0 9.99863,-0.219142 14.77539,-0.546875 0.66653,9.956886 0.33203,18.054691 0.33203,18.054691 -0.11104,1.86001 0.44453,3.49949 1.88867,4.92187 1.22196,1.42249 2.77777,2.18945 4.77734,2.29883 h 0.33204 c 3.88806,0 6.66674,-2.95381 7,-6.56445 0,-0.54692 0.44262,-11.489242 -0.7793,-24.619144 -1.77742,-18.491295 -6.10889,-31.29228 -13.10742,-38.404297 -2.11068,-2.078883 -4.4445,-3.72021 -6.77735,-4.923828 -2.88827,-1.203515 -5.77578,-1.861329 -8.66406,-1.861329 z m 78.81641,0 c -6.22092,0.875687 -12.44189,1.203126 -19.88477,1.203126 -5.66547,0 -10.99689,-0.107814 -16.77344,-0.435547 -1.22197,0 -2.44406,-0.111321 -3.66601,-0.111329 -3.88808,-0.109589 -7.10954,2.736787 -7.22071,6.566407 -0.11103,3.829516 2.88732,7.001842 6.7754,7.111328 l 3.55468,0.21875 h 0.11133 c 2.66611,0.109589 5.55532,0.220703 8.55469,0.220703 1.22196,16.631176 0.55549,31.292925 0,47.048828 l -0.33399,7.658202 c -0.11103,3.82952 2.88927,7.00184 6.77735,7.11133 h 0.2207 c 3.88808,0 6.8889,-2.84431 7,-6.67383 l 0.33203,-7.441405 V 94.96875 c 0.55549,-15.755903 0.99974,-30.745675 0,-47.486328 5.77656,-0.109589 11.10896,-0.436829 16.33008,-1.203125 3.88807,-0.437322 6.55372,-3.830537 6.10938,-7.660156 -0.44436,-3.391884 -3.44321,-6.017579 -6.99805,-6.017579 z m 434.79687,0 c -4.5546,0 -8.66445,1.313445 -12.4414,4.048829 -2.99936,2.188368 -5.77702,5.250562 -8.33204,9.080078 -3.66589,5.79912 -6.55534,13.787254 -8.66601,23.74414 -2.95301,13.542945 -3.65196,26.176962 -3.81445,30.685551 -0.77772,-3.022162 -3.41901,-5.19141 -6.68164,-5.19141 h -0.44532 c -4.77676,0.327733 -12.21849,0.546875 -19.32812,0.546875 -4.77678,0 -8.44303,-0.109767 -10.99805,-0.4375 -0.33321,-1.422383 -0.55546,-3.830272 -0.88867,-8.535156 -0.33321,-5.142517 -0.22178,-11.815348 0.11133,-19.69336 0.66653,-13.567534 1.88867,-26.589843 1.88867,-26.589843 0.44425,-3.829516 -2.33458,-7.111093 -6.22266,-7.548828 h -0.66601 c -3.55481,0 -6.55371,2.625576 -6.99805,6.236328 -0.11104,0 -1.55591,15.209176 -2.11133,30.527343 -0.33321,9.190909 -0.2213,16.521318 0.33399,21.992188 0.33321,3.610648 0.77714,6.565561 1.55468,8.753903 1.44415,4.26715 3.88806,6.89221 7.22071,7.76758 3.33261,0.87568 8.88792,1.31445 16.66406,1.31445 1.77739,0 3.55536,-0.002 5.66601,-0.11132 7.66513,0 14.32886,-0.54688 14.66211,-0.54688 3.04055,-0.26466 5.57567,-2.30149 6.27539,-5.14062 0.55434,3.24664 3.30766,5.6875 6.77735,5.6875 h 0.11133 c 1.88847,0 3.55562,-0.65575 4.88867,-1.96875 1.44416,-1.20362 2.10937,-2.84496 2.10937,-4.70508 0,0 0.11246,-8.423843 1.55664,-18.818361 6.22092,0.328767 11.88627,0.546875 17.9961,0.546875 5.33224,0 9.99666,-0.219142 14.77344,-0.546875 0.66652,9.956886 0.33398,18.052731 0.33398,18.052731 -0.11104,1.86002 0.44442,3.50145 1.88867,4.92383 1.22197,1.42249 2.77778,2.18749 4.77735,2.29688 h 0.33203 c 3.88807,0 6.66479,-2.95381 6.99804,-6.56446 0,-0.54691 0.44468,-11.489227 -0.77734,-24.619138 -1.77739,-18.491286 -6.10888,-31.292176 -13.10742,-38.404296 -2.11066,-2.078883 -4.4445,-3.720314 -6.77735,-4.923828 -2.88827,-1.203627 -5.77578,-1.859376 -8.66406,-1.859376 z M 385.2207,32.710938 c -3.66589,0 -6.99845,0.657695 -9.88672,2.080078 -3.55482,1.64125 -6.55411,3.938312 -8.99804,7.111328 -5.22112,6.674385 -7.88747,16.850551 -8.22071,30.089844 -0.22207,11.707519 1.88827,20.897998 6.22071,27.353515 4.33241,6.236757 10.55268,9.847647 17.77344,9.957027 h 0.55664 c 6.55419,0 13.32991,-2.73456 18.6621,-7.43945 5.22121,-4.486007 8.44308,-10.394341 9.22071,-16.193358 2.11064,-0.109589 4.1103,-0.219142 6.33203,-0.546875 1.88851,-0.219178 3.44397,-1.095092 4.66602,-2.517578 1.22196,-1.531765 1.66553,-3.173085 1.44335,-5.033203 -0.33321,-3.501163 -3.33194,-6.126946 -6.88671,-6.126954 h -0.77735 c -3.11044,0.328776 -5.99858,0.546868 -8.99805,0.546876 -2.55498,0 -5.22254,-0.108939 -7.88867,-0.328126 -2.11068,-0.109589 -4.33122,-0.220703 -6.66406,-0.220703 -1.9996,0 -3.66694,0.657703 -5,1.970703 -1.33305,1.203523 -1.99829,2.954446 -2.10937,4.705079 0,1.9695 0.66499,3.610931 1.99804,4.923828 1.22197,1.313 2.88909,2.078117 4.88867,2.1875 1.66632,0 3.22039,-2.14e-4 4.88672,0.109375 -0.77767,2.297751 -2.33097,4.485577 -4.55273,6.455078 -2.77718,2.297751 -6.22135,3.830078 -9.2207,3.830078 0,0 -0.11162,2.14e-4 -0.22266,-0.109375 -2.66613,0 -4.77703,-1.313459 -6.44336,-3.830078 -1.77739,-2.626001 -4.22196,-8.423591 -3.88867,-19.474609 0.33321,-8.643791 1.33365,-15.209297 3.88867,-19.695313 1.55524,-2.954251 3.55606,-4.814196 6,-5.580078 0.77767,-0.328767 1.77608,-0.4375 2.99805,-0.4375 1.66631,0 3.22286,0.327483 4.22265,0.65625 1.77739,0.766089 3.10861,1.421639 3.66407,1.859375 1.22195,2.625898 3.55532,4.486328 6.55468,4.486328 3.88808,0 6.99805,-3.062959 6.99805,-6.892578 0,-5.251899 -4.99845,-8.753281 -7.88672,-10.394531 -4.11024,-2.188266 -8.5533,-3.392571 -13.33008,-3.501953 z m 201.83203,0.0957 c -1.12476,0.0137 -2.26326,0.06804 -3.42968,0.232421 -1.88851,0.109598 -3.44406,0.876756 -4.66602,2.298829 -1.33306,1.531765 -1.8884,3.173195 -1.77734,4.923828 1.22199,20.023155 1.44365,41.685839 0.66601,61.927734 -0.33321,3.82952 2.77794,7.0039 6.66602,7.11328 0.11104,0.10959 0.11154,0.10938 0.22266,0.10938 3.88809,0 6.88695,-2.84627 6.99804,-6.67578 0.33321,-4.486037 0.33232,-8.970902 0.44336,-13.675786 12.55292,-2.297648 22.43945,-6.017654 29.66016,-10.941406 11.33094,-7.987394 12.1102,-16.631068 11.55468,-21.117188 -0.44424,-4.048384 -2.22158,-7.770115 -5.33203,-11.271484 -2.77718,-3.063634 -6.44322,-5.688695 -10.88671,-7.767578 -7.44297,-3.391884 -16.55338,-5.142571 -26.77344,-5.142579 -1.11088,0 -2.22095,-0.02737 -3.34571,-0.01367 z m -455,13.470703 c 6.99852,0.218868 12.7755,1.313751 17.33008,3.173828 4.5546,2.078904 6.33031,4.157664 6.44141,5.580078 0.11104,1.203567 -0.88783,3.063636 -4.10938,5.251953 -2.99937,2.078894 -8.66542,4.813685 -19.21875,6.892578 0,-7.112027 -0.11004,-13.895812 -0.44336,-20.898437 z m 75.81641,0.109375 c 1.8885,0 3.66572,0.876379 5.33203,2.517578 2.33285,2.516557 4.44307,6.56432 6.10938,12.144531 0.77767,2.735394 1.44456,5.799599 2,8.972656 -4.11025,0.328251 -8.33057,0.4375 -13.10743,0.4375 -5.3322,0 -10.44294,-0.109249 -15.66406,-0.4375 1.22196,-4.486047 2.66569,-10.175975 5.22071,-14.880859 2.99936,-5.799037 6.44348,-8.753906 10.10937,-8.753906 z m 513.61328,0.002 c 1.88849,0 3.66571,0.874426 5.33203,2.515625 2.33284,2.516557 4.44306,6.56432 6.10938,12.144531 0.77767,2.735394 1.44457,5.799599 2,8.972656 -4.11024,0.328251 -8.33065,0.4375 -13.10742,0.4375 -5.3322,0 -10.44295,-0.109249 -15.66407,-0.4375 1.22197,-4.486047 2.6657,-10.175975 5.22071,-14.880859 2.99938,-5.799037 6.44347,-8.751953 10.10937,-8.751953 z m -129.97265,0.109375 c 7.66504,0.32825 14.44091,1.420933 19.66211,3.9375 2.77719,1.203577 4.99921,2.735723 6.44335,4.376953 1.22195,1.422403 1.77759,2.626539 1.88868,3.720703 0.33321,2.625981 -1.77696,5.79781 -6.10938,8.533203 -4.88787,3.391884 -12.22064,5.90937 -21.21875,7.988282 0,-9.738017 -0.22167,-19.256296 -0.66601,-28.556641 z" />
    </g>
    <g
       id="g10616-0-2"
       transform="matrix(2.7354178,0,0,2.7354178,-232.87824,-452.88775)"
       style="fill:#000000;stroke:#000000;stroke-width:0.4;stroke-miterlimit:4;stroke-dasharray:none;stroke-opacity:1"
       inkscape:label="black">
      <path
         id="path10584-4-94"
         style="font-weight:bold;font-size:10.6638px;line-height:1;font-family:'Fill Me With Color';-inkscape-font-specification:'Fill Me With Color';letter-spacing:-0.399896px;word-spacing:1.06639px;fill:#000000;stroke:#000000;stroke-width:4.13543;stroke-miterlimit:4;stroke-dasharray:none;stroke-opacity:1"
         transform="matrix(0.09672502,0,0,0.09672502,26.202326,69.090627)"
         d="m 319.12109,29.355469 c -5.66546,0 -10.22036,0.330337 -13.66406,1.095703 -2.88829,0.6565 -5.22038,1.530874 -6.88672,2.515625 -3.88806,2.297751 -4.99877,5.471898 -5.33203,7.550781 -0.8887,4.486016 -1.88867,18.163184 -1.88867,30.964844 -0.11104,7.221399 0.11052,13.129211 0.66601,17.724609 0.3333,2.954251 0.88986,5.14182 1.44532,7.220703 1.11088,3.282502 2.77606,5.581646 4.88672,6.785156 2.11067,1.42238 6.11021,2.73438 17.33007,2.73438 2.33284,0 4.88859,2.1e-4 7.55469,-0.10938 8.77593,-0.32877 16.66281,-1.20312 16.9961,-1.20312 3.88806,-0.32877 6.66504,-3.72127 6.2207,-7.550786 -0.33321,-3.501369 -3.33191,-6.126953 -6.88672,-6.126953 h -0.7793 l -4.77539,0.4375 c -2.99938,0.328767 -6.77648,0.546661 -10.88672,0.65625 -2.6661,0.109589 -5.1103,0.109375 -7.33203,0.109375 -5.22115,0 -7.77657,-0.219142 -9.2207,-0.546875 -0.33321,-1.64125 -1.10962,-5.469749 -1.2207,-13.457031 2.6661,0.109589 5.33162,0.109375 7.88672,0.109375 8.33158,0 16.32979,-0.436829 24.32812,-1.203125 1.88848,-0.219178 3.44406,-1.095195 4.66602,-2.517578 1.22196,-1.641251 1.6655,-3.28246 1.44336,-5.142578 -0.3333,-3.501266 -3.33191,-6.126953 -6.88672,-6.126953 -0.33322,0 -0.66621,-2.14e-4 -0.77735,0.109375 -7.44285,0.766089 -14.88622,1.203125 -22.77343,1.203125 -2.5551,0 -5.22233,-0.109161 -7.77735,-0.21875 0.33321,-8.206262 0.88961,-15.756186 1.33399,-20.023438 1.4441,-0.437322 4.88719,-1.203125 12.33007,-1.203125 h 4 c 8.2205,0.328767 15.99634,1.3125 16.10743,1.3125 h 0.88867 c 3.55482,0 6.44261,-2.516319 6.99804,-5.908203 0.22208,-1.860119 -0.22139,-3.610813 -1.44335,-5.142578 -1.22204,-1.531869 -2.77754,-2.406236 -4.66602,-2.625 -0.33321,0 -10.10979,-1.423828 -20.21875,-1.423828 z m 145.63672,0 c -0.33321,0 -0.77811,0.109375 -1.11133,0.109375 -4.99895,0.875678 -9.99758,1.205078 -16.10742,1.205078 -4.33243,0 -8.44224,-0.220489 -12.4414,-0.330078 -2.99936,-0.109589 -5.66617,-0.328125 -8.44336,-0.328125 -2.11068,0 -3.77635,0.655853 -5.10938,1.96875 -1.33308,1.203618 -2.00024,2.954445 -2.11133,4.705078 0,3.829619 2.99866,7.003795 6.88672,7.113281 2.66611,0 5.22132,0.109161 8.22071,0.21875 0.55549,0.109589 1.11104,0.109375 1.88867,0.109375 0,3.938898 0.11133,7.986912 0.11133,11.488281 0.33321,12.254542 0.44424,23.74327 0,36.544922 -3.44374,-0.327733 -6.3322,-0.65611 -9.10938,-1.203125 -0.44425,-0.109589 -0.99895,-0.109375 -1.44336,-0.109375 -3.44372,0 -6.11104,2.188209 -6.88867,5.361328 -0.33321,1.860016 2.6e-4,3.610726 1,5.142576 0.99974,1.53187 2.44353,2.51549 4.33203,3.0625 5.22112,1.20362 10.44342,1.53321 16.77539,1.53321 3.99916,0 8.2203,-0.10895 12.55274,-0.32813 3.55478,-0.32877 7.22082,-0.4375 10.88671,-0.4375 1.99959,-0.10959 3.66478,-0.87492 4.88672,-2.07812 1.33308,-1.42239 2,-3.06371 2,-4.923832 -0.11103,-1.969509 -0.88742,-3.610939 -2.10937,-4.814454 -1.33305,-1.313 -3.0002,-1.970703 -4.88867,-1.970703 h -0.11133 c -3.99915,0.109589 -7.77551,0.109767 -11.44141,0.4375 -0.77767,0 -1.66598,0.109375 -2.55469,0.109375 0.5555,-13.02052 0.44455,-24.290276 0.11133,-36.544922 0,-3.391883 -0.11133,-7.11189 -0.11133,-10.941406 5.44332,-0.109589 10.55357,-0.546403 15.44141,-1.421875 3.8881,-0.546911 6.55302,-4.049287 5.77539,-7.878906 -0.55549,-3.391884 -3.443,-5.798828 -6.88672,-5.798828 z m 39.49219,0 c -3.88807,0.219178 -7.33267,1.095181 -10.33203,2.736328 -3.44373,1.641251 -6.55436,4.047569 -9.10938,7.439453 -5.33221,6.893253 -8.10962,16.522573 -8.2207,29.105469 -0.11104,11.051019 2.33333,19.913616 7.44336,26.478515 4.55461,6.017886 10.99681,9.519156 18.55078,10.503906 1.44414,0.21918 2.77851,0.32813 4.22266,0.32813 5.22112,0 10.33015,-1.20236 14.88476,-3.5 6.33201,-3.063773 10.77633,-7.878854 12.10938,-13.240239 0.55549,-1.750633 0.33177,-3.501327 -0.66797,-5.142578 -0.99974,-1.641251 -2.44353,-2.736196 -4.33203,-3.173828 -0.33321,-0.109589 -0.88841,-0.21875 -1.66602,-0.21875 -3.22152,0 -5.99776,2.078945 -6.77539,5.142578 -0.55549,2.297751 -6.22094,6.345703 -13.55273,6.345703 -0.77767,0 -1.55637,2.14e-4 -2.33399,-0.109375 -4.33243,-0.546911 -7.77498,-2.734826 -10.33008,-6.673828 -2.55501,-4.048384 -3.66576,-9.518739 -3.55468,-16.630859 0,-9.190909 1.99888,-24.728148 14.10742,-25.603516 h 1.11133 c 2.8883,0 5.6657,0.655742 8.2207,2.078125 2.22176,1.203618 2.99878,2.408078 3.33203,2.736328 0.44446,3.391884 3.44299,5.908203 6.88672,5.908203 0.33321,0 0.6662,2.14e-4 0.77734,-0.109375 1.9996,-0.219178 3.55514,-1.095195 4.66602,-2.517578 1.22197,-1.531868 1.66748,-3.282459 1.44531,-5.142578 -0.55549,-4.704884 -4.22122,-9.409015 -9.88672,-12.582031 -4.77676,-2.735487 -10.10919,-4.158203 -15.4414,-4.158203 z m 288.77148,0 c -3.77699,0 -6.99922,3.391194 -6.66601,7.111328 0,0.109589 0.44531,13.022073 0.44531,26.917969 0,5.251898 -0.11195,9.846147 -0.22266,13.894531 -1.44409,-3.501369 -2.77708,-7.221258 -4.44335,-11.160156 -3.11047,-7.878012 -6.22138,-16.08356 -9.22071,-22.320313 -1.66637,-3.610751 -3.11001,-6.237538 -4.33203,-8.097656 -0.88912,-1.750633 -3.88732,-5.798828 -8.66406,-5.798828 H 759.25 c -1.44409,0.109589 -4.22136,0.766644 -6.33203,3.939453 -0.77767,1.203618 -1.33274,2.51707 -1.66602,3.939453 -0.55549,1.860119 -1.1101,4.703702 -1.44336,8.314453 -0.44425,5.361385 -0.66767,12.801279 -0.55664,21.992188 0,15.31827 1,30.636571 1,31.292968 0.33322,3.829621 3.22081,6.566411 6.88672,6.566411 0.22228,0 0.33366,2.1e-4 0.44531,-0.10938 1.88845,-0.10959 3.55543,-0.87676 4.77735,-2.18945 1.33306,-1.42239 1.88838,-3.0637 1.77734,-5.033206 0.11062,-0.109589 -0.77897,-13.129606 -0.89062,-27.02539 -0.11166,-5.689635 -0.11166,-10.722968 0,-15.09961 1.88834,4.486128 3.77794,9.519593 5.88867,14.66211 2.99922,7.549649 5.77695,14.771413 8.33203,20.351562 1.4442,3.391884 2.77573,5.798306 3.88672,7.439453 1.33295,2.297751 3.77809,5.470571 7.66601,5.908201 0.22228,0.10959 0.55577,0.10938 0.88868,0.10938 1.99958,0 3.7769,-0.65574 5.33203,-2.07813 2.3329,-2.07888 3.88668,-5.580081 4.77539,-16.083982 0.44456,-5.580252 0.66756,-12.692044 0.7793,-21.445312 0,-14.552293 -0.55469,-28.886579 -0.55469,-29.433594 -0.11166,-3.82962 -3.00064,-6.564453 -6.88867,-6.564453 z m -764.449214,0.002 c -0.777669,0 -1.222394,-2.14e-4 -2,0.109375 -5.221129,0.328767 -10.219599,1.969813 -14.21875,4.486328 -3.3326375,2.078986 -5.7770475,4.703937 -7.4433598,7.876953 -2.1106638,3.501266 -2.8879423,7.330405 -2.5546874,11.597656 0.4444558,6.674393 3.3335571,11.926233 8.5546872,15.865235 3.999152,2.954251 8.664148,4.597237 13.21875,6.238281 8.331586,2.954251 11.774638,4.484672 12.330078,9.189453 0.333213,2.188369 -0.331683,3.829585 -1.998046,5.033203 -1.444154,1.203515 -3.333646,1.861203 -5.888672,2.189453 -1.22197,0.328767 -2.22139,0.21875 -3.44336,0.21875 -2.221752,0 -4.332215,-0.327055 -6.220703,-0.875 -1.666311,-0.546911 -2.221413,-1.095578 -2.554687,-1.423828 -0.777669,-3.063737 -3.444961,-5.251953 -6.8886722,-5.251953 -0.5554931,0 -0.8874492,-2.14e-4 -1.2207032,0.109375 -1.888498,0.328767 -3.4435655,1.313938 -4.4433594,2.845703 -1.1108708,1.531869 -1.4446028,3.28246 -1.1113281,5.142578 0.9997422,5.361393 4.8877033,9.299909 11.6640629,11.597659 3.221534,1.20352 6.887327,1.64258 10.77539,1.64258 v -0.002 c 1.888498,0 3.777299,-0.10977 5.554688,-0.4375 6.554188,-0.98527 11.66418,-3.50045 15.330078,-7.548835 3.554809,-4.048392 4.99856,-9.081843 4.332031,-14.88086 C 49.568035,76.952835 46.569025,72.028617 41.458984,68.417969 37.570911,65.463718 33.127338,64.151016 28.794922,62.509766 19.352463,59.33675 16.68679,57.585877 16.353516,52.552734 c -0.222177,-2.954147 0.999849,-5.360591 3.666015,-7.111328 2.33283,-1.422383 5.442528,-2.298828 8.664063,-2.298828 2.221762,0 4.111014,0.438782 5.777344,1.205078 2.110663,1.203619 2.443599,2.18711 2.554687,3.390625 0.111036,3.82962 3.332629,6.783211 7.220703,6.673828 1.888498,-0.109589 3.553672,-0.874802 4.886719,-2.296875 1.333057,-1.422382 1.888432,-3.063813 1.777344,-4.923828 C 50.789354,43.580655 49.679503,40.516515 47.791016,38 46.124704,35.592867 43.901713,33.623665 40.902344,32.091797 37.236457,30.231782 33.126868,29.357422 28.572266,29.357422 Z m 95.646484,0 c -2.11066,0 -3.88738,0.109161 -5.99805,0.21875 -1.99958,0.109589 -3.55537,0.874802 -4.77734,2.296875 -1.33306,1.422383 -1.88843,3.063709 -1.77734,4.923828 0.8887,18.928927 0.8887,38.295869 0,62.039063 -0.11104,1.860125 0.44463,3.501445 1.88867,4.923835 1.22197,1.313 2.88884,2.07811 4.77734,2.1875 h 0.33203 c 3.88807,0 6.66479,-2.84432 6.99805,-6.673835 0.33321,-6.017893 0.33428,-11.378858 0.44531,-16.63086 6.33201,6.236753 12.10908,11.925865 28.2168,22.210945 0.99984,0.76608 2.33124,1.09375 3.77539,1.09375 2.55503,0 4.44455,-1.093 5.88867,-3.17188 2.11068,-3.173113 1.11022,-7.440651 -2.11133,-9.519534 -12.88617,-8.096767 -18.77376,-13.02156 -23.43945,-17.945312 6.10982,-1.860119 11.22124,-4.157092 15.10938,-6.892578 9.77572,-6.674282 10.32933,-14.223219 9.99609,-18.052735 -0.33321,-3.610751 -2.10953,-7.112155 -4.88672,-10.066406 -2.44393,-2.625898 -5.77647,-4.815773 -9.88672,-6.566406 -6.77634,-2.954251 -14.88616,-4.375 -24.55078,-4.375 z m 591.0957,0.107422 c -4.5546,0 -8.66445,1.313445 -12.4414,4.048828 -2.99936,2.188369 -5.77702,5.252515 -8.33203,9.082031 -3.6659,5.79912 -6.55339,13.785293 -8.66407,23.742188 -2.95301,13.542936 -3.6539,26.176986 -3.8164,30.685547 -0.77772,-3.022135 -3.41901,-5.191407 -6.68164,-5.191407 h -0.44336 c -4.77676,0.327733 -12.22045,0.546875 -19.33008,0.546875 -4.77678,0 -8.44303,-0.109767 -10.99805,-0.4375 -0.33321,-1.422383 -0.55546,-3.828319 -0.88867,-8.533203 -0.33321,-5.142516 -0.22178,-11.817309 0.11133,-19.695312 0.66653,-13.567543 1.88867,-26.587891 1.88867,-26.587891 0.44425,-3.829516 -2.33263,-7.113045 -6.2207,-7.550781 h -0.66602 c -3.55481,0 -6.55566,2.625576 -7,6.236328 -0.11104,0 -1.55395,15.209168 -2.10937,30.527344 -0.33322,9.1909 -0.22326,16.52327 0.33203,21.99414 0.33321,3.610648 0.77909,6.563585 1.55664,8.751953 1.44414,4.267149 3.88806,6.894169 7.2207,7.769539 3.33261,0.87567 8.88597,1.3125 16.66211,1.3125 1.77739,0 3.55536,2.1e-4 5.66602,-0.10938 7.66505,0 14.3308,-0.54687 14.66406,-0.54687 3.04054,-0.26467 5.57372,-2.30345 6.27344,-5.14258 0.55425,3.24664 3.3096,5.68945 6.77929,5.68945 h 0.11133 c 1.88848,0 3.55367,-0.6577 4.88672,-1.9707 1.44417,-1.20362 2.11133,-2.84496 2.11133,-4.705084 0,0 0.1105,-8.42384 1.55469,-18.818359 6.22091,0.328767 11.88626,0.546875 17.99609,0.546875 5.33224,0 9.99861,-0.219142 14.77539,-0.546875 0.66653,9.956886 0.33203,18.052734 0.33203,18.052734 -0.11104,1.860019 0.44442,3.501449 1.88867,4.923829 1.22197,1.42249 2.77778,2.18945 4.77735,2.29883 h 0.33398 c 3.88808,0 6.66479,-2.95576 6.99805,-6.566409 0,-0.546911 0.44468,-11.487285 -0.77735,-24.617187 -1.77738,-18.491295 -6.11083,-31.294129 -13.10937,-38.40625 -2.11065,-2.078883 -4.44254,-3.720313 -6.77539,-4.923828 -2.88827,-1.203619 -5.77774,-1.859375 -8.66602,-1.859375 z m -614.8125,0.002 c -6.220887,0.875678 -12.44189,1.203125 -19.884762,1.203125 -5.665482,0 -10.99883,-0.109767 -16.775391,-0.4375 -1.221969,0 -2.442104,-0.109375 -3.664063,-0.109375 -3.888063,-0.109589 -7.109625,2.734834 -7.220703,6.564453 -0.111036,3.829516 2.887317,7.001842 6.775391,7.111328 l 3.554687,0.220703 h 0.111329 c 2.666104,0.109589 5.553375,0.21875 8.552734,0.21875 1.221969,16.631176 0.555492,31.292925 0,47.048828 l -0.332031,7.658203 c -0.111037,3.829514 2.887316,7.003794 6.77539,7.113274 l 0.222657,-0.002 c 3.888073,0 6.886958,-2.84431 6.998046,-6.673824 l 0.333985,-7.439453 v -0.111328 c 0.555492,-15.755903 0.999741,-30.745666 0,-47.486328 5.776561,-0.109589 11.108933,-0.436829 16.330081,-1.203125 3.88806,-0.437322 6.55372,-3.828584 6.10937,-7.658203 -0.44425,-3.391884 -3.44316,-6.017578 -6.99805,-6.017578 z m 101.20117,0 c -4.5546,0 -8.66635,1.311492 -12.44335,4.046875 -2.99935,2.188369 -5.77507,5.252515 -8.33008,9.082031 -3.6659,5.79912 -6.55535,13.787246 -8.66602,23.744141 -3.55481,16.302918 -3.88867,32.058336 -3.88867,32.824218 0,3.829614 3.0006,6.892574 6.88867,6.892574 h 0.11133 c 1.88851,0 3.55366,-0.65575 4.88672,-1.96875 1.44413,-1.20362 2.11133,-2.84496 2.11133,-4.705074 0,0 0.11048,-8.425793 1.55468,-18.820312 6.22091,0.327733 11.88627,0.546875 17.9961,0.546875 5.3322,0 9.99863,-0.219142 14.77539,-0.546875 0.66653,9.956886 0.33398,18.05468 0.33398,18.054688 -0.11103,1.860008 0.44445,3.501438 1.88868,4.923828 1.22195,1.42248 2.77581,2.18749 4.77539,2.29687 h 0.33398 c 3.88806,0 6.66479,-2.9538 6.99805,-6.564448 0,-0.54692 0.44457,-11.489239 -0.77735,-24.619141 -1.77742,-18.491483 -6.11084,-31.29228 -13.10937,-38.404297 -2.11068,-2.078883 -4.44254,-3.72021 -6.77539,-4.923828 -2.88827,-1.203515 -5.7757,-1.859375 -8.66407,-1.859375 z m 78.81641,0 c -6.22091,0.875678 -12.44188,1.203125 -19.88476,1.203125 -5.66548,0 -10.99884,-0.109767 -16.77539,-0.4375 -1.22205,0 -2.44407,-0.109375 -3.66602,-0.109375 -3.88807,-0.109589 -7.10962,2.734834 -7.2207,6.564453 -0.11104,3.829516 2.88927,7.001842 6.77734,7.111328 l 3.55469,0.220703 h 0.11133 c 2.6661,0.109589 5.55336,0.21875 8.55273,0.21875 1.22196,16.631176 0.55549,31.292925 0,47.048828 l -0.33203,7.658203 c -0.11104,3.829514 2.88732,7.003794 6.77539,7.113274 l 0.22266,-0.002 c 3.88807,0 6.88694,-2.84431 6.99804,-6.673824 l 0.33399,-7.439453 v -0.111328 c 0.55549,-15.755903 0.99974,-30.745666 0,-47.486328 5.77656,-0.109589 11.10887,-0.436829 16.33008,-1.203125 3.88807,-0.437322 6.55371,-3.828584 6.10937,-7.658203 -0.44435,-3.391884 -3.44321,-6.017578 -6.99805,-6.017578 z m 98.5332,0.109375 c -3.66589,0 -6.99844,0.655742 -9.88671,2.078125 -3.55482,1.641251 -6.55412,3.938312 -8.99805,7.111328 -5.22112,6.674385 -7.88747,16.850551 -8.2207,30.089844 -0.22208,11.707519 1.89022,20.897998 6.22265,27.353515 4.33242,6.236752 10.55276,9.847642 17.77344,9.957032 h 0.55469 c 6.5542,0 13.33186,-2.73457 18.66406,-7.439454 5.22112,-4.486016 8.44112,-10.394342 9.21875,-16.193359 2.11064,-0.109589 4.1103,-0.219142 6.33203,-0.546875 1.88851,-0.219178 3.44405,-1.095092 4.66602,-2.517578 1.22197,-1.531765 1.66553,-3.173085 1.44336,-5.033203 -0.33322,-3.501163 -3.33194,-6.126953 -6.88672,-6.126953 h -0.77735 c -3.11044,0.328767 -5.99865,0.546875 -8.99804,0.546875 -2.55499,0 -5.2206,-0.108947 -7.88672,-0.328125 -2.11069,-0.109589 -4.33318,-0.21875 -6.66602,-0.21875 -1.99959,0 -3.66499,0.655749 -4.99804,1.96875 -1.33313,1.203515 -2.00025,2.954445 -2.11133,4.705078 0,1.969501 0.66694,3.610931 2,4.923828 1.22197,1.313001 2.88713,2.078118 4.88672,2.1875 1.66631,0 3.22234,0.0017 4.88867,0.111328 -0.77767,2.297751 -2.33293,4.485577 -4.55469,6.455078 -2.77718,2.297751 -6.22134,3.830078 -9.2207,3.830078 0,0 -0.11162,-0.0017 -0.22266,-0.111328 -2.66612,0 -4.77507,-1.311506 -6.44141,-3.828125 -1.77738,-2.626001 -4.22195,-8.425543 -3.88867,-19.476562 0.33322,-8.643791 1.33366,-15.209296 3.88867,-19.695313 1.55525,-2.954251 3.55411,-4.814195 5.99805,-5.580078 0.77767,-0.328767 1.77803,-0.4375 3,-0.4375 1.66631,0 3.22091,0.327483 4.2207,0.65625 1.77739,0.766089 3.11057,1.423592 3.66602,1.861328 1.22196,2.625898 3.55533,4.486328 6.55469,4.486328 3.88807,0 6.99804,-3.064911 6.99804,-6.894531 0,-5.251899 -4.99844,-8.75328 -7.88671,-10.394531 -4.11024,-2.188265 -8.55526,-3.390618 -13.33204,-3.5 z m 201.83204,0.09375 c -1.12476,0.0137 -2.26327,0.06999 -3.42969,0.234375 -1.88851,0.109589 -3.44406,0.874802 -4.66602,2.296875 -1.33305,1.531765 -1.8884,3.173195 -1.77734,4.923828 1.22199,20.023163 1.4456,41.68776 0.66797,61.929688 -0.33322,3.829508 2.77599,7.001938 6.66406,7.111328 0.11104,0.10958 0.11162,0.10937 0.22266,0.10937 3.88809,0 6.88696,-2.84431 6.99804,-6.673824 0.33322,-4.486016 0.33428,-8.97285 0.44532,-13.677734 12.55291,-2.297647 22.43944,-6.017654 29.66015,-10.941406 11.33095,-7.987386 12.10817,-16.63106 11.55274,-21.117188 -0.44425,-4.048384 -2.22151,-7.768162 -5.33204,-11.269531 -2.77718,-3.063633 -6.44322,-5.690648 -10.88671,-7.769531 -7.44289,-3.391884 -16.55142,-5.142578 -26.77149,-5.142578 -1.11088,0 -2.22289,-0.02737 -3.34765,-0.01367 z m -455,13.472656 c 6.99852,0.218868 12.77549,1.311798 17.33007,3.171875 4.55461,2.078904 6.33226,4.157664 6.44336,5.580078 0.11104,1.203567 -0.88978,3.063636 -4.11132,5.251953 -2.99945,2.078894 -8.66347,4.815638 -19.2168,6.894532 0,-7.112036 -0.112,-13.895813 -0.44531,-20.898438 z m 75.81835,0.109375 c 1.88858,0 3.66572,0.874426 5.33204,2.515625 2.33285,2.516557 4.44306,6.566274 6.10937,12.146484 0.77767,2.735402 1.44456,5.797647 2,8.970704 -4.11025,0.32825 -8.3326,0.4375 -13.10937,0.4375 -5.33221,0 -10.44099,-0.10925 -15.66211,-0.4375 1.22196,-4.486056 2.66568,-10.175976 5.2207,-14.88086 2.99937,-5.799037 6.44349,-8.751953 10.10937,-8.751953 z m 513.61133,0 c 1.88849,0 3.66571,0.874426 5.33203,2.515625 2.33284,2.516557 4.44501,6.566274 6.11133,12.146484 0.77767,2.735402 1.44262,5.797647 1.99805,8.970704 -4.11024,0.32825 -8.33064,0.4375 -13.10742,0.4375 -5.3322,0 -10.44294,-0.10925 -15.66406,-0.4375 1.22196,-4.486056 2.66765,-10.174014 5.22265,-14.878907 2.99938,-5.799037 6.44153,-8.753906 10.10742,-8.753906 z m -129.9707,0.109375 c 7.66505,0.32825 14.441,1.422886 19.66211,3.939453 2.77719,1.203577 4.99921,2.73377 6.44336,4.375 1.22195,1.422404 1.77758,2.62654 1.88867,3.720703 0.33321,2.625981 -1.77891,5.799763 -6.11133,8.535157 -4.88786,3.391883 -12.21869,5.907424 -21.21679,7.986328 0,-9.738016 -0.22168,-19.256296 -0.66602,-28.556641 z" />
    </g>
    <g
       id="g10603-8-0"
       style="fill:#339999;fill-opacity:1;stroke:#339999;stroke-width:0.2;stroke-linecap:round;stroke-linejoin:round;stroke-miterlimit:4;stroke-dasharray:none;stroke-opacity:1;paint-order:markers stroke fill"
       transform="matrix(2.7354178,0,0,2.7354178,-233.14153,-453.07004)"
       inkscape:label="green inner">
      <path
         id="path10582-4-4"
         style="font-weight:bold;font-size:10.6638px;line-height:1;font-family:'Fill Me With Color';-inkscape-font-specification:'Fill Me With Color';letter-spacing:-0.399896px;word-spacing:1.06639px;fill:#339999;fill-opacity:1;stroke:#339999;stroke-width:2.06772;stroke-linecap:round;stroke-linejoin:round;stroke-miterlimit:4;stroke-dasharray:none;stroke-opacity:1;paint-order:markers stroke fill"
         transform="matrix(0.09672502,0,0,0.09672502,26.298578,69.157267)"
         d="m 27.578125,31.949219 c -0.555441,0 -1.221851,-8e-6 -1.777344,0.109375 -4.776768,0.32826 -9.109013,1.641723 -12.552734,3.939453 -2.777193,1.860077 -4.9992243,4.047848 -6.4433595,6.673828 -1.6662188,3.063644 -2.3335044,6.346339 -2.1113281,9.847656 0.4443628,5.799048 2.8882888,10.283954 7.2207026,13.457031 3.554824,2.625975 7.997659,4.269003 12.330079,5.691407 4.11025,1.422414 7.331702,2.733749 9.886718,4.375 2.666115,1.860067 4.221767,4.487099 4.666016,7.660156 0.444352,3.391894 -0.665697,6.126261 -3.220703,7.986328 -1.77741,1.31299 -4.333132,2.298585 -7.554688,2.845703 -1.221959,0.32825 -2.55561,0.21875 -3.888672,0.21875 -2.777192,0 -5.219414,-0.327764 -7.330078,-1.09375 -2.666114,-0.875306 -4.332803,-2.298358 -4.666015,-3.611328 -0.333265,-1.641251 -1.888616,-2.84375 -3.6660159,-2.84375 H 7.8046875 c -0.9997931,0.218837 -1.7784921,0.765264 -2.3339844,1.53125 -0.5554923,0.765924 -0.7768637,1.64025 -0.5546875,2.625 0.7776168,4.048405 4.1094365,7.331374 9.5527344,9.082032 2.999369,0.98472 6.220352,1.53125 9.664062,1.53125 1.777414,0 3.444777,-0.10926 5,-0.32813 C 40.68595,99.895857 47.239547,92.45671 46.017578,82.828125 45.351049,77.576144 42.906655,73.417149 38.574219,70.353516 35.01942,67.836938 30.799693,66.524057 26.689453,64.882812 21.690509,63.132149 18.356518,61.819013 16.134766,60.068359 13.579739,58.208293 12.247567,55.473925 12.025391,52.082031 11.692126,47.81481 13.35803,44.532202 17.246094,42.015625 c 2.777192,-1.860057 6.555296,-2.845703 10.443359,-2.845703 2.777193,0 5.219425,0.548349 7.330078,1.533203 2.777193,1.422403 4.222948,3.500924 4.333985,6.236328 0.111088,2.078894 1.664726,3.501953 3.77539,3.501953 1.110871,-0.109413 2.001149,-0.548578 2.556641,-1.205078 0.777668,-0.765913 0.999708,-1.640249 0.888672,-2.625 -0.111088,-2.844817 -1.001167,-5.362502 -2.445313,-7.441406 -1.444135,-2.078904 -3.44255,-3.610876 -5.77539,-4.814453 -3.110468,-1.641158 -6.665141,-2.40625 -10.775391,-2.40625 z m 95.646485,0 c -1.8885,0 -3.88885,0.109367 -5.77734,0.21875 -2.11067,0.109413 -3.5544,1.641799 -3.44336,3.720703 0.8887,19.2572 0.8887,38.514516 0,62.367187 -0.11109,2.078901 1.44401,3.609371 3.55468,3.718751 h 0.11133 c 2.11067,0 3.55498,-1.42109 3.66602,-3.500001 0.33331,-7.440267 0.44365,-14.005351 0.55468,-20.570312 0,-0.656418 0.33348,-1.095578 1,-1.423828 0.11108,-0.109383 0.33281,-0.109375 0.66602,-0.109375 0.55544,0 0.88944,0.10925 1.22266,0.4375 l 2.66601,2.736328 c 6.22093,6.127308 11.88571,11.925952 27.66016,21.882808 0.77762,0.32825 1.44451,0.54688 2,0.54688 1.44413,0 2.4448,-0.54647 3.11133,-1.64063 1.22197,-1.64123 0.55498,-3.939073 -1.11133,-4.923824 -15.10793,-9.628605 -20.32867,-14.880726 -25.99414,-20.460937 -0.55549,-0.547087 -0.66749,-1.093507 -0.44531,-1.640625 0.11108,-0.547036 0.55612,-0.984368 1.22265,-1.09375 6.77636,-1.860067 12.44101,-4.268426 16.77344,-7.222656 8.44272,-5.580215 8.8879,-11.817178 8.55469,-14.990235 -0.33328,-2.95423 -1.66715,-5.688511 -4,-8.205078 -2.11067,-2.188317 -5.1095,-4.157577 -8.77539,-5.798828 -6.33201,-2.735394 -14.10762,-4.048828 -23.2168,-4.048828 z m 194.90234,0 c -5.22112,0 -9.66516,0.327764 -12.88672,1.09375 -2.55502,0.437663 -4.55364,1.095327 -5.88671,2.080078 -2.7772,1.64123 -3.55546,3.610723 -3.88868,5.251953 -0.55545,4.595471 -1.77734,17.835139 -1.77734,30.417969 -0.11114,7.112027 0.11052,12.910475 0.66602,17.287109 0.3333,2.735404 0.77849,4.923175 1.33398,6.673828 0.77763,2.407154 1.88814,4.048556 3.44336,5.033203 1.77739,0.875321 4.88832,2.187501 15.55273,2.187501 2.22177,0 4.77532,1e-5 7.44141,-0.10938 8.66485,-0.3282 16.44218,-1.20312 16.77539,-1.20312 2.11067,-0.32824 3.55392,-1.86054 3.2207,-3.939454 -0.11108,-1.860067 -1.66619,-3.171875 -3.55468,-3.171875 h -0.44336 l -4.77735,0.4375 c -2.99936,0.32825 -6.99914,0.546868 -11.10937,0.65625 -2.66611,0.109383 -5.22162,0.109375 -7.44336,0.109375 -6.55419,0 -9.44063,-0.437375 -10.88477,-0.765625 -0.55539,-0.109516 -1.00029,-0.546632 -1.11132,-1.09375 -0.77767,-1.64123 -1.55546,-6.019324 -1.88868,-17.070312 0,-0.437591 0.22148,-0.874875 0.55469,-1.203125 0.33326,-0.32825 0.77841,-0.546883 1.22266,-0.4375 3.22155,0.109382 6.44228,0.109375 9.55273,0.109375 8.10942,0 15.99774,-0.437139 23.9961,-1.203125 0.99979,-0.109414 1.77683,-0.546514 2.44335,-1.3125 0.66664,-0.875327 0.88838,-1.751585 0.77735,-2.626953 -0.33326,-1.860067 -1.77751,-3.28125 -3.66602,-3.28125 -0.11114,0 -0.33232,-8e-6 -0.44336,0.109375 -7.55396,0.765934 -15.10908,1.203125 -23.10742,1.203125 -3.11044,0 -6.44227,-0.109368 -9.55273,-0.21875 -0.88864,-0.109424 -1.66602,-0.767203 -1.66602,-1.751953 0.33326,-9.409773 0.9992,-18.599929 1.55469,-22.976563 0.11104,-0.547077 0.44451,-0.984257 1,-1.203125 1.33306,-0.765914 5.22134,-1.861328 14.55273,-1.861328 h 4.10938 c 8.44267,0.32824 16.4414,1.314453 16.4414,1.314453 h 0.44532 c 1.88849,0 3.33085,-1.3138 3.66406,-3.064453 0.11104,-1.094153 -0.11082,-1.968389 -0.77734,-2.734375 -0.66654,-0.765872 -1.44362,-1.205071 -2.44336,-1.314453 -0.33326,0 -9.88687,-1.421875 -19.88477,-1.421875 z m 145.63477,0 c -0.33342,0 -0.22148,0.109375 -0.55469,0.109375 -5.22112,0.875327 -10.44315,1.203125 -16.66406,1.203125 -4.33244,0 -8.55358,-0.218743 -12.55274,-0.328125 -2.88828,-0.218868 -5.66422,-0.328125 -8.4414,-0.328125 h -0.11133 c -1.88851,0 -3.55498,1.423049 -3.66602,3.501953 0,2.078893 1.55535,3.609471 3.66602,3.71875 2.66609,0 5.22135,0.111321 8.2207,0.220703 l 3.44336,0.21875 c 0.88865,0 1.66602,0.765257 1.66602,1.640625 0,4.486047 0.11133,8.971186 0.11133,12.910156 0.11103,12.801667 0.44416,24.838685 -0.11133,38.40625 0,0.875327 -0.7776,1.640633 -1.77735,1.53125 -3.99915,-0.109423 -7.77698,-0.546514 -11.2207,-1.3125 h -0.77734 c -1.77742,0 -3.22137,1.093135 -3.55469,2.734375 -0.22228,1.094164 -0.11018,1.970342 0.44531,2.736328 0.55545,0.875255 1.33229,1.421761 2.33203,1.640621 4.55461,0.98468 9.88627,1.42188 15.9961,1.42188 3.99915,0 8.11068,-0.10926 12.33203,-0.32813 3.55479,-0.32825 7.10997,-0.4375 10.99805,-0.4375 0.99979,0 1.77701,-0.32776 2.55468,-1.09375 0.77769,-0.765893 1.10938,-1.640349 1.10938,-2.624996 -0.11111,-2.078893 -1.55339,-3.501953 -3.66406,-3.501953 h -0.11133 c -3.88808,0.109486 -7.66589,0.10925 -11.22071,0.4375 l -4.44336,0.21875 c -0.5554,0 -0.88944,-0.10925 -1.22265,-0.4375 -0.33342,-0.328353 -0.44336,-0.765382 -0.44336,-1.3125 0.55539,-13.567565 0.44454,-25.385833 0.11133,-38.1875 L 445.98828,42.125 c 0,-0.437591 0.22148,-0.874875 0.55469,-1.203125 0.22214,-0.328354 0.55583,-0.4375 1.11133,-0.4375 5.99874,-0.109413 11.55402,-0.548467 16.66406,-1.314453 2.11069,-0.32825 3.44259,-2.077346 3.10937,-4.15625 -0.33325,-1.750654 -1.88859,-3.064453 -3.66601,-3.064453 z m 39.60351,0 c -3.22152,0.218826 -6.22086,0.983895 -8.99804,2.296875 -2.99936,1.531837 -5.66496,3.721609 -7.88672,6.566406 -4.99895,6.236711 -7.44365,15.31786 -7.55469,27.134766 -0.11109,10.394508 2.22078,18.491891 6.77539,24.509765 3.99915,5.251961 9.66482,8.423459 16.33008,9.298829 1.22197,0.10949 2.44429,0.21875 3.77734,0.21875 4.66569,0 9.10897,-1.09298 13.44141,-3.171876 5.44329,-2.626001 9.11006,-6.674137 10.33203,-11.050781 0.33332,-0.765903 0.22151,-1.751681 -0.33398,-2.736328 -0.55545,-0.875254 -1.22096,-1.421757 -2.22071,-1.640625 -0.22217,-0.109382 -0.55546,-0.109375 -0.88867,-0.109375 -1.66631,0 -3.11033,0.98377 -3.55469,2.625 -0.55542,2.297751 -2.55606,4.268829 -5.88867,6.128906 -3.33264,1.860026 -6.99865,2.734375 -10.88672,2.734375 -0.88871,0 -1.88864,8e-6 -2.77734,-0.109375 -2.77719,-0.437653 -5.22138,-1.31202 -7.33203,-2.625 -2.11068,-1.422403 -3.8879,-3.284301 -5.33203,-5.582031 -2.77722,-4.704884 -4.22041,-10.831179 -4.10938,-18.380859 0.11106,-8.753283 1.55485,-15.537217 4.33203,-20.460938 1.44414,-2.407154 3.2216,-4.376386 5.44336,-5.908203 2.11068,-1.422414 4.66618,-2.29871 7.44336,-2.517578 h 1.33203 c 3.44373,0 6.88736,0.876338 9.88672,2.517578 3.11044,1.750654 4.55536,3.720293 4.88867,4.923828 v 0.109375 c 0.33324,1.750643 1.77754,3.171875 3.66602,3.171875 0.11104,0 0.33232,7e-6 0.44336,-0.109375 0.99977,-0.109413 1.77878,-0.546514 2.44531,-1.3125 0.55549,-0.765903 0.77705,-1.640353 0.66602,-2.625 -0.44434,-3.829557 -3.44393,-7.440387 -8.22071,-10.175781 -4.22132,-2.516567 -8.77644,-3.720703 -13.77539,-3.720703 z m 288.77149,0 c -2.11062,0 -3.55502,1.641809 -3.44336,3.720703 0,0.109423 0.44531,13.020151 0.44531,27.02539 0,8.315599 -0.22178,14.990189 -0.55469,20.351563 0,0.437632 -0.002,0.765507 -0.11328,0.984375 0,0.875316 -0.44291,1.421868 -1.33203,1.53125 -0.99891,0.109413 -1.55506,-0.218389 -1.77734,-0.984375 H 785.25 c -2.22176,-5.142548 -4.66562,-11.378408 -7.2207,-17.943359 -3.11047,-7.877946 -6.33223,-15.976239 -9.10938,-22.103516 -1.55523,-3.391894 -2.88931,-6.016925 -4.11133,-7.767578 -0.77756,-1.313001 -2.77626,-4.267578 -5.88671,-4.267578 h -0.33399 c -0.88868,0.109403 -2.55561,0.548136 -3.88867,2.408203 -0.55543,0.875337 -0.88749,1.858923 -1.2207,3.0625 -0.55539,1.860056 -1.00078,4.48705 -1.33399,7.769531 -0.44445,5.251961 -0.66572,12.473127 -0.55469,21.664063 0,15.318219 1,30.636475 1,31.183593 0.11109,1.860076 1.66619,3.390626 3.55469,3.390626 0.11104,0 0.2207,1e-5 0.2207,-0.10938 0.9998,0 1.77702,-0.32776 2.55469,-1.09375 0.66663,-0.76591 0.99971,-1.640245 0.88867,-2.624996 0.11104,0 -0.77763,-13.240875 -0.88867,-27.246093 -0.33331,-9.190946 7.7e-4,-16.849439 0.33399,-22.539063 0.11108,-0.765903 0.66569,-1.312493 1.44336,-1.421875 0.77766,-0.109382 1.44444,0.109014 1.77734,0.875 l 0.89062,2.078125 c 2.55498,5.580211 5.22061,12.473972 7.88672,19.367188 2.99933,7.549691 5.66563,14.661976 8.22071,20.242187 1.44409,3.063644 2.66627,5.360664 3.66601,7.111328 1.22192,1.860057 2.88787,3.939329 5.22071,4.267579 0.11165,0.10938 0.3324,0.10937 0.55468,0.10937 1.11088,0 2.11159,-0.43713 3.11133,-1.203121 1.77741,-1.422413 2.7769,-4.596119 3.66602,-13.896484 0.44559,-5.361364 0.66568,-12.47329 0.77734,-21.226563 0,-14.442902 -0.55469,-28.775147 -0.55469,-29.322265 0,-2.078904 -1.66662,-3.501961 -3.77734,-3.392578 z M 99.951172,32.058594 c -6.554178,0.765841 -12.776117,1.203125 -20.330078,1.203125 -5.665474,0 -11.108204,-0.10925 -16.884766,-0.4375 -1.221969,0 -2.444042,-0.109375 -3.666016,-0.109375 h -0.111328 c -2.110674,0 -3.554979,1.532501 -3.666015,3.392578 -0.111088,2.078893 1.445966,3.720703 3.55664,3.720703 l 3.554688,0.21875 h 0.109375 L 72.623047,40.375 c 0.999741,0 1.556641,0.5465 1.556641,1.53125 1.333005,17.1783 0.887047,32.495869 0.109374,48.798828 l -0.332031,7.660156 c 0,2.078906 1.444014,3.609476 3.554688,3.718746 h 0.111328 c 2.110674,0 3.554979,-1.4211 3.666015,-3.499996 l 0.332032,-7.441406 V 91.033203 C 82.176586,74.730234 82.842823,59.522127 81.509766,42.125 c 0,-0.328209 0.112099,-0.765493 0.445312,-1.203125 0.333244,-0.32825 0.776454,-0.546875 1.220703,-0.546875 6.332002,-0.109413 11.998605,-0.439092 17.664059,-1.205078 2.11067,-0.32825 3.55392,-1.858596 3.22071,-3.9375 -0.33328,-1.860067 -1.77752,-3.173828 -3.66602,-3.173828 z m 100.755858,0 c -3.6659,0 -7.2201,1.094848 -10.55273,3.392578 -2.66612,2.078893 -5.22138,4.703781 -7.33203,8.205078 -3.44373,5.580211 -6.22135,13.131167 -8.33204,22.759766 -3.55479,15.755892 -3.77734,31.402093 -3.77734,32.058593 0,2.078911 1.55536,3.609371 3.66602,3.609371 2.11068,0 3.66601,-1.4211 3.66601,-3.499996 0,-0.109434 0.2221,-9.409842 1.77735,-20.679687 0.11107,-0.765862 0.88863,-1.421882 1.77734,-1.3125 6.77635,0.32825 12.77588,0.546875 19.33008,0.546875 5.66546,0 11.10871,-0.220467 16.21875,-0.658203 0.44429,-0.109383 0.88944,0.0018 1.22265,0.330078 0.33332,0.328167 0.55469,0.7655 0.55469,1.09375 0.8886,11.160422 0.44336,20.02343 0.44336,20.132812 0,0.98474 0.33347,1.85901 1,2.625001 0.66652,0.76595 1.5569,1.09374 2.55664,1.20312 2.11068,0 3.66436,-1.42109 3.77539,-3.499996 0,-0.437673 0.44462,-11.380016 -0.77734,-24.072265 -1.77742,-17.615954 -5.88675,-29.870558 -12.21875,-36.544922 -1.8885,-1.860077 -3.88884,-3.282842 -5.77735,-4.048828 -2.22174,-1.094123 -4.66568,-1.640625 -7.2207,-1.640625 z m 79.26172,0 c -6.55418,0.765841 -12.77613,1.203125 -20.33008,1.203125 -5.66548,0 -11.1082,-0.10925 -16.88476,-0.4375 -1.22197,0 -2.44406,-0.109375 -3.66602,-0.109375 h -0.11133 c -2.11066,0 -3.55498,1.532501 -3.66601,3.392578 -0.11108,2.078893 1.44402,3.71875 3.55468,3.71875 l 3.55469,0.220703 h 0.11133 L 252.64062,40.375 c 0.99978,0 1.55469,0.5465 1.55469,1.53125 1.33301,17.1783 0.889,32.495869 0.11133,48.798828 l -0.33398,7.660156 c 0,2.078906 1.44598,3.609366 3.55664,3.718746 h 0.10937 c 2.11068,0 3.55498,-1.4211 3.66602,-3.499996 l 0.33398,-7.441406 v -0.109375 c 0.55549,-16.302969 1.22173,-31.511076 -0.11133,-48.908203 0,-0.328209 0.1121,-0.765493 0.44532,-1.203125 0.33323,-0.32825 0.77635,-0.546875 1.2207,-0.546875 6.33202,-0.109413 11.99861,-0.439092 17.66406,-1.205078 2.11069,-0.32825 3.55396,-1.858596 3.2207,-3.9375 -0.33328,-1.860067 -1.77753,-3.173828 -3.66601,-3.173828 z m 434.35156,0 c -3.6659,0 -7.22012,1.094848 -10.55273,3.392578 -2.66611,2.078893 -5.22139,4.703781 -7.33203,8.205078 -3.44373,5.580211 -6.22135,13.131167 -8.33203,22.759766 -3.55491,15.755892 -3.77735,31.402093 -3.77735,32.058593 0,2.078901 1.55536,3.609371 3.66602,3.609371 2.11067,0 3.66601,-1.4211 3.66601,-3.499996 0,-0.109423 0.22212,-9.409842 1.77735,-20.679687 0.11108,-0.765862 0.88864,-1.421882 1.77734,-1.3125 6.77634,0.32825 12.7759,0.546875 19.33008,0.546875 5.66548,0 11.10872,-0.218514 16.21875,-0.65625 0.4443,-0.109382 0.88749,-1.25e-4 1.2207,0.328125 0.33342,0.328167 0.55664,0.7655 0.55664,1.09375 0.8885,11.160411 0.44336,20.02343 0.44336,20.132812 0,0.98474 0.33347,1.85901 1,2.625001 0.66654,0.76595 1.55495,1.09374 2.55469,1.20312 2.11067,0 3.66631,-1.42109 3.77734,-3.499996 0,-0.437673 0.4446,-11.380016 -0.77734,-24.072265 -1.77742,-17.615954 -5.88871,-29.870558 -12.2207,-36.544922 -1.88851,-1.860077 -3.88689,-3.282842 -5.77539,-4.048828 -2.22174,-1.094123 -4.66569,-1.640625 -7.22071,-1.640625 z m -336.48437,0.109375 c -2.77718,0 -5.55482,0.546423 -8.33203,1.75 -2.99936,1.422403 -5.55339,3.502877 -7.66407,6.238281 -4.77674,6.127277 -7.22147,15.426926 -7.55468,28.009766 -0.11108,11.050998 1.77794,19.585679 5.66601,25.49414 3.55481,5.361385 8.88651,8.423824 15.10742,8.533204 h 0.44532 c 5.66546,0 11.66292,-2.297233 16.55078,-6.564454 4.88786,-4.376634 7.88749,-9.956898 8.2207,-15.537109 0,-0.765841 0.66794,-1.53125 1.55664,-1.53125 2.55502,-0.109486 4.88639,-0.218625 7.44141,-0.546875 0.9998,-0.109413 1.88816,-0.548467 2.55468,-1.314453 0.55564,-0.875327 0.89034,-1.749632 0.7793,-2.625 -0.33327,-1.860077 -1.77753,-3.173828 -3.66601,-3.173828 h -0.44532 c -3.22155,0.32825 -6.22156,0.546875 -9.33203,0.546875 -2.77719,0 -5.44327,-0.109257 -8.10937,-0.328125 -2.11065,-0.109486 -4.21965,-0.21875 -6.44141,-0.21875 h -0.11133 c -2.11067,0 -3.55498,1.423049 -3.66601,3.501953 0,0.984729 0.33347,1.861078 1,2.517578 0.66651,0.656448 1.55513,1.093743 2.66601,1.203125 2.11068,0 4.11002,0.109368 6.22071,0.21875 h 0.66601 c 0.33321,0 0.77812,0.218625 1.11133,0.546875 0.33332,0.32825 0.44336,0.765382 0.44336,1.3125 -0.33326,3.501297 -2.55433,7.221561 -5.99805,10.175781 -3.4437,2.954241 -7.55334,4.705078 -11.4414,4.705078 -0.11114,0 -0.22295,-0.109375 -0.33399,-0.109375 -3.6659,0 -6.66548,-1.750625 -9.10937,-5.251953 -2.11068,-3.173057 -4.77658,-9.518987 -4.44336,-21.445312 0.22216,-9.081533 1.66568,-16.193477 4.2207,-21.117188 1.99959,-3.720144 4.66712,-6.128531 7.88867,-7.113281 1.33305,-0.437633 2.66524,-0.65625 4.10938,-0.65625 2.11067,0 4.11007,0.439321 5.33203,0.876953 2.55503,0.765914 4.332,1.968389 5.2207,2.734375 0.11114,0.32825 0.33428,0.437375 0.44531,0.765625 0.44435,1.641333 1.77706,2.626953 3.44336,2.626953 2.11069,0 3.66602,-1.532424 3.66602,-3.611328 0,-3.61072 -3.99896,-6.3453 -6.2207,-7.439453 -3.6659,-1.96948 -7.55383,-3.064446 -11.66407,-3.173828 z m 260,0 c -1.88848,0 -3.33281,1.423136 -3.66602,3.283203 -0.11108,0 -1.55388,15.207248 -2.10937,30.30664 -0.33332,8.972109 -0.22346,16.195267 0.33203,21.556641 0.33325,3.391894 0.66764,6.0168 1.44531,8.095703 0.99976,3.173057 2.55388,5.032964 4.88672,5.580074 3.11045,0.76593 8.33251,1.20313 15.77539,1.20313 h 5.55469 c 7.55397,-0.32825 14.21757,-0.65625 14.55078,-0.65625 2.11067,-0.1094 3.44502,-1.749222 3.33398,-3.828126 -0.11108,-1.860056 -1.66621,-3.283203 -3.55468,-3.283203 h -0.33399 c -4.77675,0.32825 -12.32983,0.546875 -19.43945,0.546875 -5.66546,0 -9.88661,-0.218625 -12.55274,-0.546875 -0.66651,-0.109434 -1.11191,-0.546624 -1.33398,-1.203125 -0.44435,-1.422403 -0.99882,-4.267271 -1.33203,-10.285156 -0.33342,-5.251961 -0.22384,-12.036079 0.10937,-20.023438 0.55546,-13.676999 2,-26.697258 2,-26.80664 0.11108,-2.078904 -1.22135,-3.611203 -3.33203,-3.939453 z m -57.83399,0.0957 c -1.09699,0.01369 -2.20749,0.0683 -3.31836,0.232422 -1.8885,0.109403 -3.44502,1.860636 -3.33398,3.720703 1.22202,20.023103 1.44564,41.797066 0.66797,62.257812 -0.11109,2.078904 1.3327,3.718744 3.44336,3.828124 h 0.11133 c 2.11064,0 3.66601,-1.42111 3.66601,-3.499999 0.33332,-4.814318 0.33232,-9.847686 0.44336,-14.990234 0,-0.875316 0.44528,-1.421868 1.33398,-1.53125 12.77514,-2.297741 22.77298,-5.908359 29.77149,-10.722656 9.88691,-7.002615 10.44063,-14.115755 10.10742,-17.945313 -0.33325,-3.391894 -1.88834,-6.5653 -4.44336,-9.519531 -2.33285,-2.62598 -5.6654,-4.923049 -9.88672,-7.001953 -6.99851,-3.173057 -15.5524,-4.814453 -25.32812,-4.814453 -1.05534,0 -2.13739,-0.02736 -3.23438,-0.01367 z m -456.77734,6.90625 c 7.9983,0 15.107,1.204212 20.32812,3.501953 4.99895,2.078904 8.11015,5.143436 8.44336,8.097656 0.33327,2.735404 -1.66661,5.688435 -5.55468,8.423828 -3.44373,2.516568 -10.10892,5.581253 -22.55079,7.660157 0,0.109382 -0.11161,0.109375 -0.22265,0.109375 -0.3332,0 -0.66708,-0.10925 -1.11133,-0.4375 -0.33332,-0.328209 -0.55469,-0.767442 -0.55469,-1.205079 0,-8.425017 -0.1121,-16.411072 -0.44531,-24.398437 0,-0.547077 0.1121,-0.984257 0.44531,-1.203125 0.33327,-0.32825 0.7782,-0.548828 1.22266,-0.548828 z m 77.48242,0.109375 c 2.99938,0 5.55535,1.204223 7.66602,3.501953 2.77719,2.844817 5.10931,7.331658 6.88672,13.568359 0.99978,3.391894 1.66569,7.002387 2.44335,11.050782 0.11118,0.437622 10e-4,0.874764 -0.33203,1.3125 -0.33321,0.32825 -0.77811,0.546875 -1.11132,0.546875 -4.77677,0.437632 -9.88654,0.65625 -15.21875,0.65625 -6.22091,0 -12.10988,-0.10925 -17.7754,-0.4375 -0.55543,-0.109383 -0.88749,-0.328 -1.2207,-0.65625 -0.33321,-0.437653 -0.44502,-0.874757 -0.33398,-1.421875 1.22197,-4.814302 2.99868,-11.927553 5.99804,-17.617188 3.55481,-7.002614 7.88802,-10.503906 12.99805,-10.503906 z m 513.61328,0 c 2.99936,0 5.55336,1.204223 7.66407,3.501953 2.77719,2.844817 5.11127,7.331658 6.88867,13.568359 0.99979,3.391894 1.66569,7.002387 2.44336,11.050782 0.11103,0.437622 -7.8e-4,0.874764 -0.33399,1.3125 -0.3332,0.32825 -0.77616,0.546875 -1.10937,0.546875 -4.77678,0.437632 -9.88849,0.65625 -15.22071,0.65625 -6.22091,0 -12.10796,-0.10925 -17.77343,-0.4375 -0.55544,-0.109383 -0.88945,-0.328 -1.22266,-0.65625 -0.33321,-0.437653 -0.44307,-0.874757 -0.33203,-1.421875 1.22197,-4.814302 2.99869,-11.927553 5.99805,-17.617188 3.55481,-7.002614 7.88801,-10.503906 12.99804,-10.503906 z m -131.75,0.109375 c 8.88702,0 16.77495,1.313358 22.88477,4.267578 3.11046,1.422414 5.77509,3.063685 7.4414,5.142578 1.66633,1.860067 2.55517,3.720011 2.77735,5.580078 0.44435,4.048384 -2.10944,7.879466 -7.55274,11.59961 -5.66547,3.829557 -13.88612,6.782424 -24.43945,8.861328 h -0.33398 c -0.33322,0 -0.66679,-0.109257 -1,-0.328125 -0.44436,-0.328343 -0.66602,-0.765382 -0.66602,-1.3125 0,-10.941589 -0.22185,-21.554672 -0.77734,-32.058594 0,-0.547077 0.11014,-0.874875 0.44336,-1.203125 0.33326,-0.32825 0.7784,-0.548828 1.22265,-0.548828 z" />
    </g>
  </g>
</svg>
