<?xml version="1.0" encoding="UTF-8" standalone="no"?>
<svg
   xmlns:dc="http://purl.org/dc/elements/1.1/"
   xmlns:cc="http://creativecommons.org/ns#"
   xmlns:rdf="http://www.w3.org/1999/02/22-rdf-syntax-ns#"
   xmlns:svg="http://www.w3.org/2000/svg"
   xmlns="http://www.w3.org/2000/svg"
   width="98.726669mm"
   height="92.662231mm"
   viewBox="0 0 98.726669 92.662231"
   version="1.1"
   id="svg8">
  <defs
     id="defs2" />
  <metadata
     id="metadata5">
    <rdf:RDF>
      <cc:Work
         rdf:about="">
        <dc:format>image/svg+xml</dc:format>
        <dc:type
           rdf:resource="http://purl.org/dc/dcmitype/StillImage" />
        <dc:title></dc:title>
      </cc:Work>
    </rdf:RDF>
  </metadata>
  <g
     id="layer1"
     transform="translate(-51.612649,-21.736527)">
    <path
       style="fill:#ffffff;fill-opacity:1;stroke-width:0.415031"
       d="m 103.98671,112.37874 c -6.061483,-0.90313 -9.311315,-2.15862 -12.346232,-4.76964 -1.718344,-1.47834 -23.759143,-31.530211 -25.049124,-34.153643 -0.288739,-0.587203 -0.403707,-1.805889 -0.2816,-2.98498 0.528527,-5.103583 7.537912,-7.326633 11.566679,-3.668437 1.037822,0.942364 8.965552,8.912587 10.868738,10.926987 0.308025,0.32604 0.625401,0.520882 0.705274,0.43299 0.143827,-0.158241 1.777444,-14.362947 3.429385,-29.819323 0.505581,-4.730467 1.143576,-8.738599 1.558187,-9.789134 2.271354,-5.755157 9.442133,-5.836298 12.149753,-0.137492 0.55544,1.169063 0.63368,2.055815 0.41544,4.709225 -0.82701,10.055358 -0.92867,9.075548 0.91369,8.806576 3.41852,-0.499041 6.80931,2.0359 7.40547,5.536337 0.26368,1.548249 0.26368,1.548249 2.40329,1.355134 1.79377,-0.161905 2.43185,-0.0059 3.9476,0.960095 1.79383,1.144181 3.39822,3.656388 3.39769,5.320218 -2e-4,0.663505 0.29201,0.752935 2.03159,0.621819 3.71292,-0.279868 6.8845,2.263304 7.35116,5.894634 0.11719,0.911881 -0.0754,3.500296 -0.42776,5.751998 -0.35246,2.251702 -0.98086,6.334716 -1.39646,9.073352 -1.02552,6.757925 -1.85272,11.174082 -2.43308,12.989565 -1.89809,5.937459 -7.91608,11.650239 -13.88582,13.181639 -3.20419,0.82193 -5.50924,0.77745 -12.32387,-0.23792 z m 10.52338,-3.01788 c 3.4444,-0.69302 6.46898,-2.3846 8.79999,-4.92166 3.71289,-4.04108 4.08839,-5.354314 7.00234,-24.488532 1.16472,-7.648046 1.14673,-8.527107 -0.20023,-9.788136 -0.60894,-0.570083 -1.61008,-1.036503 -2.22478,-1.036503 -1.48226,0 -3.09015,1.431306 -3.41472,3.03977 -0.31825,1.576983 -1.25467,2.191182 -2.53774,1.664452 -0.87202,-0.357967 -0.9274,-0.553948 -0.68906,-2.4385 0.76527,-6.050995 0.76051,-6.328128 -0.12977,-7.553707 -1.19932,-1.651043 -3.2174,-1.997996 -4.74324,-0.815464 -1.07251,0.831198 -1.22209,1.264576 -1.67133,4.842525 -0.49438,3.937548 -1.11189,5.318985 -2.2668,5.071161 -1.3623,-0.292304 -1.47131,-1.414843 -0.76105,-7.835701 0.78988,-7.140387 0.6275,-8.152818 -1.48322,-9.248326 -1.16838,-0.606414 -1.55715,-0.629464 -2.61007,-0.154789 -0.68045,0.306771 -1.43159,0.95312 -1.6692,1.436344 -0.23761,0.483224 -0.76236,3.68039 -1.1661,7.10483 -0.40375,3.424429 -0.83964,6.412099 -0.96863,6.639291 -0.35576,0.626505 -2.01773,0.493757 -2.54951,-0.203661 -0.27186,-0.356499 -0.38619,-1.315561 -0.271,-2.273167 0.10968,-0.91107 0.31348,-2.728127 0.45308,-4.037911 0.13959,-1.309784 0.31698,-2.868531 0.39419,-3.463883 1.08344,-8.354505 2.19763,-19.796972 2.00785,-20.619962 -1.51333,-2.626051 -3.36682,-3.533739 -5.399574,-1.57056 -1.2117,1.190693 -1.2117,1.190693 -2.599282,13.314301 -0.76317,6.667989 -1.470148,12.805573 -1.571065,13.639062 -0.100914,0.8335 -0.54784,5.006085 -0.993165,9.272421 -0.445325,4.266325 -1.008017,8.017075 -1.250426,8.334966 -0.242411,0.317914 -0.802525,0.57802 -1.2447,0.57802 -0.705667,0 -5.779223,-4.860268 -13.221253,-12.665427 -2.224987,-2.333559 -3.087349,-2.704114 -5.480103,-2.354812 -1.73161,0.25279 -2.786847,1.286851 -2.590777,2.538792 0.126339,0.80668 19.762519,28.370297 22.530823,31.626856 5.048307,5.60733 12.004412,6.28606 19.381212,6.79251 0.45213,0.0227 1.86392,-0.1684 3.13731,-0.4246 z m -2.33965,-59.533643 c -0.75667,-0.823554 -0.78465,-0.374606 0.21499,-3.44796 1.19672,-3.679239 0.91361,-8.763223 -0.63998,-11.492689 -1.60752,-2.824215 -3.3344,-4.665684 -5.57073,-5.940382 -2.71442,-1.547204 -8.164677,-1.666002 -10.999421,-0.239768 -2.470934,1.243216 -4.74642,3.799951 -6.149045,6.909096 -1.021821,2.265017 -1.151295,3.009592 -1.151295,6.620807 0,3.824176 -0.05484,4.095473 -0.912005,4.512481 -0.713345,0.347047 -1.059971,0.282652 -1.591282,-0.295627 -0.554628,-0.603654 -0.675878,-1.550879 -0.660754,-5.161965 0.01593,-3.805635 0.160215,-4.754868 1.034158,-6.80406 1.910779,-4.480319 5.680167,-8.136331 10.055608,-9.753156 3.640266,-1.345152 9.411746,-0.681718 12.756856,1.466416 2.03042,1.303878 2.97709,2.280365 4.83052,4.982671 3.4714,5.061321 4.14452,11.964651 1.70206,17.456062 -0.88992,2.000849 -1.82377,2.380845 -2.91968,1.188074 z"
       id="path863" />
  </g>
</svg>
