<?xml version="1.0" encoding="UTF-8" standalone="no"?>
<svg
   xmlns:osb="http://www.openswatchbook.org/uri/2009/osb"
   xmlns:dc="http://purl.org/dc/elements/1.1/"
   xmlns:cc="http://creativecommons.org/ns#"
   xmlns:rdf="http://www.w3.org/1999/02/22-rdf-syntax-ns#"
   xmlns:svg="http://www.w3.org/2000/svg"
   xmlns="http://www.w3.org/2000/svg"
   xmlns:xlink="http://www.w3.org/1999/xlink"
   xmlns:sodipodi="http://sodipodi.sourceforge.net/DTD/sodipodi-0.dtd"
   xmlns:inkscape="http://www.inkscape.org/namespaces/inkscape"
   width="123.38766mm"
   height="65.669281mm"
   viewBox="0 0 123.38767 65.669282"
   version="1.1"
   id="svg8"
   sodipodi:docname="help3.svg"
   inkscape:version="1.0.1 (3bc2e813f5, 2020-09-07)">
  <sodipodi:namedview
     pagecolor="#ffffff"
     bordercolor="#666666"
     borderopacity="1"
     objecttolerance="10"
     gridtolerance="10"
     guidetolerance="10"
     inkscape:pageopacity="0"
     inkscape:pageshadow="2"
     inkscape:window-width="1920"
     inkscape:window-height="1017"
     id="namedview7"
     showgrid="false"
     inkscape:zoom="1.6940957"
     inkscape:cx="62.989865"
     inkscape:cy="58.605556"
     inkscape:window-x="-8"
     inkscape:window-y="-8"
     inkscape:window-maximized="1"
     inkscape:current-layer="svg8"
     inkscape:pagecheckerboard="true"
     inkscape:document-rotation="0" />
  <defs
     id="defs2">
    <pattern
       inkscape:collect="always"
       xlink:href="#Wavywhite"
       id="pattern4685"
       patternTransform="translate(0.01528822,-36.922285)" />
    <pattern
       inkscape:collect="always"
       xlink:href="#Wavywhite"
       id="pattern4683"
       patternTransform="translate(-1.0430452,-36.922285)" />
    <pattern
       inkscape:collect="always"
       xlink:href="#Wavywhite"
       id="pattern4681"
       patternTransform="matrix(3.7795273,0,0,3.7795273,-9.9422176,-139.54878)" />
    <pattern
       inkscape:collect="always"
       patternUnits="userSpaceOnUse"
       width="30.066020"
       height="5.1805778"
       id="Wavywhite"
       inkscape:stockid="Wavy white">
      <path
         style="fill:white;stroke:none;"
         d="M 7.597,0.061 C 5.079,-0.187 2.656,0.302 -0.01,1.788 L -0.01,3.061 C 2.773,1.431 5.173,1.052 7.472,1.280 C 9.770,1.508 11.969,2.361 14.253,3.218 C 18.820,4.931 23.804,6.676 30.066,3.061 L 30.062,1.788 C 23.622,5.497 19.246,3.770 14.691,2.061 C 12.413,1.207 10.115,0.311 7.597,0.061 z "
         id="path3129" />
    </pattern>
    <linearGradient
       id="linearGradient3621"
       osb:paint="solid">
      <stop
         style="stop-color:#000000;stop-opacity:1;"
         offset="0"
         id="stop3619" />
    </linearGradient>
  </defs>
  <metadata
     id="metadata5">
    <rdf:RDF>
      <cc:Work
         rdf:about="">
        <dc:format>image/svg+xml</dc:format>
        <dc:type
           rdf:resource="http://purl.org/dc/dcmitype/StillImage" />
        <dc:title />
      </cc:Work>
    </rdf:RDF>
  </metadata>
  <path
     id="path4365"
     style="fill:url(#pattern4681);fill-opacity:1;stroke:#ffffff;stroke-width:5.00001;stroke-linecap:round;stroke-linejoin:round;stroke-miterlimit:4;stroke-dasharray:none;stroke-opacity:1;paint-order:markers fill stroke"
     d="M 101.24219 89.294922 A 62.025738 41.831464 0 0 0 53.125 104.72852 L 53.125 157.52344 A 62.025738 41.831464 0 0 0 101.24219 172.95703 A 62.025738 41.831464 0 0 0 148.75195 158.01562 L 148.75195 104.23438 A 62.025738 41.831464 0 0 0 101.24219 89.294922 z "
     transform="scale(0.26458335)" />
  <path
     style="fill:none;fill-opacity:1;stroke:#ffffff;stroke-width:1.32292;stroke-linecap:round;stroke-linejoin:round;stroke-miterlimit:4;stroke-dasharray:none;stroke-opacity:1;paint-order:markers fill stroke"
     d="m 15.00723,49.494864 10.537204,0.126838 h 13.969029 m 3.123594,0 h 55.206168 l 11.161925,-0.126838 c 8.1536,-0.09262 11.30848,-0.210541 11.70544,-0.437995 0.87554,-0.501678 1.8338,-1.793658 2.00418,-2.701794 0.20813,-1.109457 -8.04259,-42.492363 -8.6935,-43.603728 -0.24746,-0.42254 -0.77178,-1.008458 -1.16534,-1.302091 -0.6772,-0.50524102 -1.09899,-0.54091902 -7.86408,-0.66095602 l -7.148625,-0.12684 H 25.544434 l -7.148627,0.12684 c -6.765101,0.120037 -7.186881,0.155715 -7.864081,0.66095602 -0.39355,0.293633 -0.9178603,0.879551 -1.1653403,1.302091 -0.6509,1.111365 -8.90163003,42.494271 -8.69350003,43.603728 0.17037,0.908136 1.12865393,2.200127 2.00418003,2.701794 0.3021156,0.173109 2.826421,0.282751 7.3113245,0.366109"
     id="path1024-9-2"
     sodipodi:nodetypes="ccccccsssssccsccssc" />
  <ellipse
     style="fill:url(#pattern4683);fill-opacity:1;stroke:#ffffff;stroke-width:1.32292;stroke-linecap:round;stroke-linejoin:round;stroke-miterlimit:4;stroke-dasharray:none;stroke-opacity:1;paint-order:markers fill stroke"
     id="path4365-7"
     cx="63.097092"
     cy="15.203371"
     rx="16.410978"
     ry="11.067909" />
  <ellipse
     style="fill:url(#pattern4685);fill-opacity:1;stroke:#ffffff;stroke-width:1.32292;stroke-linecap:round;stroke-linejoin:round;stroke-miterlimit:4;stroke-dasharray:none;stroke-opacity:1;paint-order:markers fill stroke"
     id="path4365-0"
     cx="97.994781"
     cy="34.69363"
     rx="16.410978"
     ry="11.067909" />
  <g
     id="layer1"
     transform="matrix(0.61634213,0,0,0.61634213,-21.539599,-5.2004154)"
     style="fill:#ffffff">
    <path
       id="path885"
       style="fill:#ffffff;fill-opacity:1;stroke-width:0.352778"
       d="m 57.225027,114.01119 c -3.611669,-0.88403 -6.0689,-4.76708 -5.541055,-8.38913 l -0.01488,-77.926467 c -7e-4,-3.666916 3.434155,-5.794591 8.256162,-5.959066 H 99.47049 c 3.73559,1.154796 6.35374,4.965863 5.82083,8.85854 l 0.17678,67.266753 c -0.20435,3.79072 0.37797,7.75237 -0.48511,11.40775 -0.95151,2.71112 -3.94728,5.19356 -6.546107,5.07479 l -39.796441,0.0544 c -0.471804,-0.12919 -0.943608,-0.25837 -1.415412,-0.38756 z m 45.581253,-6.74154 0.012,-78.316673 c -0.48499,-2.124828 -1.53224,-4.155209 -4.487818,-4.59352 -13.511917,-0.06166 -37.239065,-0.407004 -39.212832,-0.184972 -2.188821,0.246224 -5.152925,1.615741 -5.144993,4.070898 l 0.254424,78.749647 c 0.008,2.46919 3.90683,5.14887 6.486263,4.65738 12.566384,0.004 25.134631,0.22779 37.69915,0.0113 2.177166,-0.54584 4.344826,-2.25597 4.393806,-4.39406 z m -45.963212,-3.2338 C 56.437312,80.2555 56.801208,55.93714 56.740174,32.152801 l 43.914536,-0.06892 c 0.3471,4.799426 0.0176,51.875394 -0.29603,72.290599 z m 41.030779,-4.7919 0.011,-2.083551 0.02358,-62.386589 h -38.8311 v 67.02778 h 38.80556 l -0.009,-2.55764 z M 72.01986,29.2334 c -1.615354,-0.08158 -1.720344,-2.49412 0.03683,-2.573479 l 11.64726,0.127682 c 1.460817,0.01601 1.514218,2.517584 -0.04266,2.557593 z"
       sodipodi:nodetypes="ccsccccccccccccsscccccccccccccccccccccc" />
  </g>
</svg>
