<?xml version="1.0" encoding="UTF-8" standalone="no"?>
<svg
   xmlns:dc="http://purl.org/dc/elements/1.1/"
   xmlns:cc="http://creativecommons.org/ns#"
   xmlns:rdf="http://www.w3.org/1999/02/22-rdf-syntax-ns#"
   xmlns:svg="http://www.w3.org/2000/svg"
   xmlns="http://www.w3.org/2000/svg"
   xmlns:sodipodi="http://sodipodi.sourceforge.net/DTD/sodipodi-0.dtd"
   xmlns:inkscape="http://www.inkscape.org/namespaces/inkscape"
   width="120mm"
   height="92.662231mm"
   viewBox="0 0 120 92.662231"
   version="1.1"
   id="svg8"
   sodipodi:docname="help1.svg"
   inkscape:version="1.0.1 (3bc2e813f5, 2020-09-07)">
  <sodipodi:namedview
     pagecolor="#ffffff"
     bordercolor="#666666"
     borderopacity="1"
     objecttolerance="10"
     gridtolerance="10"
     guidetolerance="10"
     inkscape:pageopacity="0"
     inkscape:pageshadow="2"
     inkscape:window-width="1920"
     inkscape:window-height="1017"
     id="namedview7"
     showgrid="false"
     inkscape:zoom="1.2135248"
     inkscape:cx="225.18807"
     inkscape:cy="196.23342"
     inkscape:window-x="-8"
     inkscape:window-y="-8"
     inkscape:window-maximized="1"
     inkscape:current-layer="svg8" />
  <defs
     id="defs2" />
  <metadata
     id="metadata5">
    <rdf:RDF>
      <cc:Work
         rdf:about="">
        <dc:format>image/svg+xml</dc:format>
        <dc:type
           rdf:resource="http://purl.org/dc/dcmitype/StillImage" />
        <dc:title></dc:title>
      </cc:Work>
    </rdf:RDF>
  </metadata>
  <g
     id="layer1"
     transform="translate(-30.445969,-21.736527)"
     style="fill:#ffffff">
    <path
       id="path885"
       style="fill:#ffffff;fill-opacity:1;stroke-width:0.352778"
       d="m 57.225027,114.01119 c -3.611669,-0.88403 -6.0689,-4.76708 -5.541055,-8.38913 l -0.01488,-77.926467 c -7e-4,-3.666916 3.434155,-5.794591 8.256162,-5.959066 H 99.47049 c 3.73559,1.154796 6.35374,4.965863 5.82083,8.85854 v 10.014276 c 8.69821,3.965473 17.58995,7.579624 26.10555,11.889749 l -0.26959,33.604449 c -5.99497,3.361878 -12.53602,5.78223 -18.78531,8.698697 l -6.87387,3.059582 c -0.20435,3.79072 0.37797,7.75237 -0.48511,11.40775 -0.95151,2.71112 -3.94728,5.19356 -6.546107,5.07479 l -39.796441,0.0544 c -0.471804,-0.12919 -0.943608,-0.25837 -1.415412,-0.38756 z m 45.581253,-6.74154 0.012,-78.316673 c -0.48499,-2.124828 -1.53224,-4.155209 -4.487818,-4.59352 -13.511917,-0.06166 -37.239065,-0.407004 -39.212832,-0.184972 -2.188821,0.246224 -5.152925,1.615741 -5.144993,4.070898 l 0.254424,78.749647 c 0.008,2.46919 3.90683,5.14887 6.486263,4.65738 12.566384,0.004 25.134631,0.22779 37.69915,0.0113 2.177166,-0.54584 4.344826,-2.25597 4.393806,-4.39406 z m -45.963212,-3.2338 C 56.437312,80.2555 56.801208,55.93714 56.740174,32.152801 l 43.914536,-0.06892 c 0.3471,4.799426 0.0176,51.875394 -0.29603,72.290599 z m 41.030779,-4.7919 0.011,-2.083551 C 90.767831,93.958675 81.25712,89.58599 74.334967,85.981116 73.369048,84.558035 74.142047,82.517059 73.893997,80.838895 V 52.90033 c 3.103586,-2.631796 7.320794,-3.690131 10.918794,-5.563158 4.300233,-1.926037 8.596732,-3.860388 12.893706,-5.793677 0.06731,-2.256562 0.134615,-4.513123 0.20193,-6.769685 h -38.8311 v 67.02778 h 38.80556 l -0.009,-2.55764 z m 0.009,-20.042264 V 64.715674 c -6.930979,-3.165939 -13.860665,-6.334246 -20.81389,-9.451243 0.0027,9.691553 0.0053,19.383107 0.008,29.07466 6.949597,3.011357 13.804323,6.23555 20.71787,9.327779 0.111409,-4.819792 0.07093,-9.644279 0.08802,-14.465184 z M 97.627499,45.061423 c -5.813607,2.654572 -12.395834,5.154158 -18.088172,8.006943 5.88755,3.104383 12.123028,5.566761 18.16722,8.382554 0.232827,-3.622745 0.01755,-16.429194 -0.07905,-16.389497 z M 72.01986,29.2334 c -1.615354,-0.08158 -1.720344,-2.49412 0.03683,-2.573479 l 11.64726,0.127682 c 1.460817,0.01601 1.514218,2.517584 -0.04266,2.557593 z m 40.02547,62.42394 c 5.37253,-2.465689 10.77928,-4.855699 16.17644,-7.266737 V 55.303336 c -7.63699,3.458897 -15.27457,6.916605 -22.93055,10.333321 V 94.70721 c 2.26154,-0.993976 4.51342,-2.009688 6.75411,-3.04987 z m 3.56152,-33.795172 c 3.03905,-1.602107 8.80836,-3.422453 10.2134,-5.09669 -6.8781,-2.951304 -13.6196,-6.248203 -20.52903,-9.147149 0.0465,6.223546 -0.12789,12.455371 0.17327,18.672149 3.40521,-1.418551 6.76663,-2.941284 10.14236,-4.42831 z m 27.11465,4.110743 c -2.11373,-0.07207 -3.19276,-2.239548 -1.26329,-2.677597 2.0754,-0.47118 5.073,-0.497796 7.84453,0.28883 1.70354,0.483506 1.30953,2.737938 -1.19821,2.674804 z m -4.60788,-13.600208 c -0.94963,-1.259957 1.64929,-2.710758 2.80815,-3.810233 1.48423,-0.814796 3.34819,-2.985096 4.59623,-1.894865 0.8486,0.741296 0.78042,2.172706 -0.8568,3.269954 -1.93256,0.983128 -5.14603,4.294704 -6.54758,2.435144 z m -9.98004,-7.27715 c -2.2155,-0.874907 0.23178,-4.369818 0.98793,-7.077354 1.33058,-2.509049 3.82487,-0.835445 2.88851,1.572345 -0.81197,1.869859 -1.78901,6.329341 -3.87644,5.505009 z" />
  </g>
</svg>
