<?xml version="1.0" encoding="UTF-8" standalone="no"?>
<svg
   xmlns:dc="http://purl.org/dc/elements/1.1/"
   xmlns:cc="http://creativecommons.org/ns#"
   xmlns:rdf="http://www.w3.org/1999/02/22-rdf-syntax-ns#"
   xmlns:svg="http://www.w3.org/2000/svg"
   xmlns="http://www.w3.org/2000/svg"
   xmlns:sodipodi="http://sodipodi.sourceforge.net/DTD/sodipodi-0.dtd"
   xmlns:inkscape="http://www.inkscape.org/namespaces/inkscape"
   width="160mm"
   height="160mm"
   viewBox="0 0 160 160"
   version="1.1"
   id="svg5544"
   inkscape:version="1.0.1 (3bc2e813f5, 2020-09-07)"
   sodipodi:docname="icon_swap_mode.svg">
  <defs
     id="defs5538" />
  <sodipodi:namedview
     id="base"
     pagecolor="#ffffff"
     bordercolor="#666666"
     borderopacity="1.0"
     inkscape:pageopacity="0.0"
     inkscape:pageshadow="2"
     inkscape:zoom="0.96377841"
     inkscape:cx="41.926699"
     inkscape:cy="254.36956"
     inkscape:document-units="mm"
     inkscape:current-layer="layer1"
     inkscape:document-rotation="0"
     showgrid="false"
     inkscape:window-width="1920"
     inkscape:window-height="1017"
     inkscape:window-x="-8"
     inkscape:window-y="-8"
     inkscape:window-maximized="1" />
  <metadata
     id="metadata5541">
    <rdf:RDF>
      <cc:Work
         rdf:about="">
        <dc:format>image/svg+xml</dc:format>
        <dc:type
           rdf:resource="http://purl.org/dc/dcmitype/StillImage" />
        <dc:title></dc:title>
      </cc:Work>
    </rdf:RDF>
  </metadata>
  <g
     inkscape:label="Layer 1"
     inkscape:groupmode="layer"
     id="layer1"
     transform="translate(-29.575522,129.17166)">
    <g
       id="g6145"
       transform="translate(-3.5908342e-6,-26.354605)"
       style="fill:#000000">
      <path
         style="fill:#000000;fill-opacity:1;stroke-width:0.264583"
         d="M 101.19201,37.200205 99.207638,36.957952 96.297221,36.416747 93.386804,35.875539 90.476388,35.059705 87.565971,34.24387 84.593401,33.095248 81.620829,31.946623 78.11111,30.162453 74.601388,28.378285 71.55868,26.337737 68.515972,24.297188 66.295935,22.487864 64.075898,20.678543 63.583956,19.756629 63.092013,18.834715 v -0.872522 -0.872522 l 0.3609,-0.86375 0.360897,-0.863751 0.837515,-0.704723 0.837514,-0.704723 0.943777,-0.177054 0.943774,-0.177051 0.966666,0.294555 0.966666,0.294555 2.116666,1.735344 2.116667,1.735344 2.645833,1.773904 2.645833,1.773904 3.739851,1.878563 3.739849,1.878565 3.668484,1.218346 3.668483,1.218345 3.307291,0.657482 3.307291,0.657484 2.89022,0.281244 2.89023,0.281247 h 2.43955 2.43956 l 2.74001,-0.269526 2.74001,-0.269526 2.82318,-0.528179 2.82317,-0.528178 2.73308,-0.811021 2.73307,-0.811025 2.64584,-1.07482 2.64583,-1.074822 0.10325,-0.08758 0.10325,-0.08758 -0.97495,-1.079159 -0.97496,-1.079156 -0.25277,-0.664853 -0.25278,-0.66485 v -1.134274 -1.134271 l 0.59621,-0.884719 0.59622,-0.884719 0.79285,-0.461973 0.79285,-0.461973 8.23696,-0.05797 8.23696,-0.05797 0.89026,0.519941 0.89027,0.519943 0.59621,0.884719 0.59621,0.884719 -0.001,8.361391 -0.001,8.361394 -0.52575,0.862314 -0.52576,0.862314 -0.86232,0.525759 -0.86231,0.525759 -1.10726,0.0011 -1.10725,0.0011 -0.73971,-0.281236 -0.7397,-0.281233 -3.50075,-3.466455 -3.50075,-3.466454 -2.88488,1.353172 -2.88488,1.353174 -3.13888,1.082331 -3.13888,1.082331 -2.58387,0.654976 -2.58387,0.654979 -3.11028,0.556503 -3.11029,0.556504 -6.35,0.08214 -6.35,0.08214 -1.98438,-0.242256 z M 49.002951,0.23962174 34.517014,-8.141555 v -16.824941 -16.824943 l 14.528499,-8.38636 14.5285,-8.386362 h 0.318463 0.318466 l 14.521785,8.38545 14.521786,8.385449 V -24.96208 -8.1308975 L 78.732727,0.25455218 64.210942,8.6400019 l -0.361027,-0.0096 -0.361027,-0.0096 z M 62.03368,-10.376115 v -13.459864 l -11.178646,-6.434258 -11.178645,-6.434257 -0.595313,-0.37693 -0.595312,-0.376931 v 13.597 13.597 l 11.56351,6.6740538 11.56351,6.6740534 h 0.210449 0.210447 z m 15.824234,6.7227821 11.427849,-6.6047911 v -13.600117 -13.600114 l -0.595313,0.376751 -0.595312,0.376748 -11.178646,6.441032 -11.178645,6.441032 v 13.472673 13.4726723 l 0.346109,-0.085548 0.346109,-0.085545 z m -2.065901,-30.3827691 11.244791,-6.505694 -0.02299,-0.213786 -0.02299,-0.213788 -11.54799,-6.682108 -11.547991,-6.68211 -11.315477,6.519836 -11.315478,6.519833 -0.349941,0.323228 -0.349941,0.323226 11.462441,6.649251 11.46244,6.649252 0.529167,-0.09072 0.529167,-0.09073 z m 41.023947,39.7792208 -0.5427,-0.5427001 v -27.0692207 -27.06922 l 0.34406,-0.47053 0.34406,-0.470529 8.45334,-2.344613 8.45333,-2.344613 8.14215,2.252043 8.14214,2.252046 8.14244,-2.252282 8.14243,-2.252278 8.43809,2.341371 8.43809,2.34137 0.3466,0.474009 0.3466,0.474006 v 27.06922 27.0692207 l -0.5427,0.5427001 -0.5427,0.5427001 -0.44948,-0.1316143 -0.44949,-0.1316144 -7.80521,-2.1490198 -7.80521,-2.1490171 -8.12677,2.2523263 -8.12677,2.252329 -8.13885,-2.2526967 -8.13885,-2.2526968 -7.81146,2.1525282 -7.81146,2.1525282 -0.44949,0.1284737 -0.44949,0.1284737 z m 15.51739,-6.21489017 0.34408,-0.13203501 V -4.9777364 -9.3516638 h -0.3099 -0.30989 l -0.48386,-0.4378828 -0.48385,-0.4378824 v -0.500465 -0.500465 l 0.79208,-0.450715 0.79207,-0.450715 0.002,-11.654895 0.002,-11.654895 0.3175,-0.3175 0.3175,-0.3175 h 0.55562 0.55563 l 0.3175,0.3175 0.3175,0.3175 v 11.624555 11.624556 l 0.66145,0.613018 0.66146,0.613019 v 0.289851 0.289851 l -0.66815,0.6192225 -0.66816,0.6192255 0.0729,4.3268104 0.0728,4.32680773 1.71979,0.46422731 1.71979,0.46422731 5.09323,1.42062985 5.09323,1.4206299 v -6.3143577 -6.3143576 h -0.48816 -0.48816 l -0.46107,-0.5094816 -0.46108,-0.5094786 0.0893,-0.482709 0.0893,-0.482706 0.85417,-0.396875 0.85417,-0.396875 0.006,-4.762499 0.006,-4.7625 -1.33296,0.09235 -1.33297,0.09235 -0.66057,-0.165794 -0.66058,-0.165796 -0.29756,-0.653084 -0.29757,-0.653084 0.47987,-0.530241 0.47986,-0.530241 h 1.81108 1.81107 v -4.882702 -4.882703 l -1.78594,-0.07823 -1.78593,-0.07823 -0.0853,-0.743604 -0.0853,-0.743603 0.3161,-0.380876 0.31609,-0.380875 h 1.55511 1.5551 l -2.6e-4,-5.754688 -2.7e-4,-5.754687 -6.54809,-1.79697 -6.5481,-1.796973 -0.33072,0.01103 -0.33074,0.01103 v 2.592917 2.592917 l -0.3175,0.317499 -0.3175,0.3175 h -0.55563 -0.55562 l -0.3175,-0.3175 -0.3175,-0.317499 v -2.592917 -2.592917 l -0.33073,-0.0057 -0.33073,-0.0057 -6.54825,1.791655 -6.54826,1.791653 -1.8e-4,25.559971 -1.8e-4,25.5599736 6.53508,-1.8055722 6.53509,-1.80556946 0.34408,-0.13203766 z m -7.42012,-9.36374653 -0.43788,-0.4838541 -0.006,-1.566667 -0.006,-1.566666 -0.85388,-0.41859 -0.85389,-0.418592 -0.61849,-0.904324 -0.61849,-0.904327 0.10174,-1.651765 0.10174,-1.651765 0.90434,-0.933034 0.90433,-0.933035 1.0054,-0.270724 1.00539,-0.270727 0.94104,0.176541 0.94103,0.176538 0.78434,0.659979 0.78434,0.659982 0.38738,0.749096 0.38737,0.749094 v 1.238681 1.238678 l -0.54251,0.87779 -0.5425,0.877789 -0.91271,0.564082 -0.9127,0.564083 v 1.688904 1.6889018 l -0.51177,0.273894 -0.51178,0.2738914 h -0.24096 -0.24097 l -0.43789,-0.4838541 z m 1.77539,-6.4145161 0.69714,-0.54837 v -0.642254 -0.642255 l -0.52916,-0.529167 -0.52917,-0.529167 h -0.77875 -0.77874 l -0.41188,0.588039 -0.41188,0.588037 v 0.583385 0.583382 l 0.69714,0.54837 0.69714,0.548371 h 0.32551 0.32551 z m 12.77669,6.4145161 -0.43788,-0.4838541 v -0.427186 -0.427183 l 0.58804,-0.411879 0.58803,-0.411877 h 1.47806 1.47806 l 0.41047,0.330729 0.41048,0.330729 0.16326,0.469022 0.16326,0.469021 -0.52316,0.5231663 -0.52317,0.5231659 h -1.67878 -1.67879 z m 0.0387,-14.2666661 -0.68076,-0.727604 -0.45283,-0.89657 -0.45284,-0.896569 0.28467,-0.624785 0.28467,-0.624784 0.60098,0.004 0.60099,0.004 0.29381,0.194384 0.29381,0.194387 0.41635,0.813019 0.41634,0.813023 0.41432,0.343855 0.41432,0.343855 v 0.576143 0.576146 l -0.3175,0.3175 -0.3175,0.3175 h -0.55904 -0.55904 l -0.68075,-0.727604 z m -0.83245,-6.899999 -0.43788,-0.483855 v -0.315568 -0.315569 l 0.68798,-1.039608 0.68798,-1.039609 0.62563,-0.409927 0.62562,-0.409927 h 0.48556 0.48556 l 0.3175,0.3175 0.3175,0.3175 v 0.493911 0.493911 l -1.24109,1.437547 -1.24108,1.437548 h -0.4377 -0.4377 z m -5.67663,-8.829479 -0.3175,-0.3175 v -0.555625 -0.555625 l 0.3175,-0.3175 0.3175,-0.3175 h 0.55562 0.55563 l 0.3175,0.3175 0.3175,0.3175 v 0.555625 0.555625 l -0.3175,0.3175 -0.3175,0.3175 h -0.55563 -0.55562 z m 31.88217,39.35989063 0.34408,-0.13203501 V -14.385446 -28.167086 l -0.58804,0.41188 -0.58804,0.411876 h -0.55565 -0.55566 l -2.1636,-2.216628 -2.1636,-2.216632 v -0.485333 -0.485336 l 1.1024,-1.123254 1.10239,-1.123254 -1.10239,-1.195953 -1.1024,-1.195951 v -0.487199 -0.487198 l 2.34718,-2.296837 2.34718,-2.29684 h 0.24809 0.24808 l 0.51359,0.388461 0.51359,0.388458 0.19844,0.0084 0.19844,0.0084 v -4.630208 -4.630208 l -0.33073,-0.0057 -0.33073,-0.0057 -6.54825,1.791655 -6.54826,1.791652 -1.8e-4,17.934828 -1.9e-4,17.934831 0.42731,0.652147 0.4273,0.652151 -0.4273,0.65215 -0.42731,0.6521475 v 6.3208452 6.3208452 l 6.53509,-1.8055721 6.53509,-1.80556951 z m -9.54857,-9.54991763 -0.45426,-0.454266 0.0802,-0.562335 0.0802,-0.562332 0.84133,-0.420426 0.84133,-0.420428 0.67072,-0.439467 0.67071,-0.439471 h 0.50608 0.50608 l 0.31729,0.382313 0.31729,0.382312 -0.0865,0.598829 -0.0865,0.598829 -1.05834,0.736245 -1.05833,0.7362428 -0.81659,0.1591098 -0.81658,0.1591072 z m 4.5097,-5.899245 -0.43789,-0.483854 v -0.438391 -0.438391 l -0.31398,-1.173938 -0.31398,-1.173937 0.35748,-0.430737 0.35748,-0.430736 0.68411,0.07952 0.6841,0.07952 0.46261,0.926042 0.46261,0.926042 5.3e-4,1.247462 5.3e-4,1.24746 -0.51177,0.273894 -0.51178,0.273892 h -0.24097 -0.24096 l -0.43789,-0.483854 z m -7.04111,-6.119368 -0.54053,-0.540528 v -0.355867 -0.355867 l 0.52489,-0.47502 0.52489,-0.475017 1.65289,0.149879 1.65289,0.149878 0.45476,0.561607 0.45476,0.56161 -0.21454,0.58242 -0.21454,0.582419 -1.87747,0.07751 -1.87747,0.07751 z m 0.42961,-12.094 -0.17639,-0.176387 v -0.696738 -0.696735 l 0.3175,-0.3175 0.3175,-0.3175 h 1.26391 1.26389 l 0.42178,0.643715 0.42178,0.643715 -0.29269,0.54691 -0.2927,0.54691 h -1.53409 -1.5341 z m 28.13369,11.884201 -3.5e-4,-25.598436 -6.54809,-1.79697 -6.54809,-1.796973 -0.33073,0.01104 -0.33073,0.01103 v 4.630209 4.630208 l 0.19844,-0.0084 0.19843,-0.0084 0.51359,-0.388458 0.51359,-0.388462 h 0.24809 0.24808 l 2.34718,2.29684 2.34718,2.296837 v 0.487199 0.487198 l -1.10239,1.195951 -1.10239,1.195954 1.10239,1.123254 1.10239,1.123254 v 0.485336 0.485333 l -2.1636,2.216631 -2.1636,2.216629 h -0.55565 -0.55566 l -0.5904,-0.413536 -0.59041,-0.413538 0.0685,13.831852 0.0685,13.83185263 6.74687,1.90015807 6.74688,1.9001553 0.0661,0.027361 0.0661,0.027358 z m -16.50547,-9.326562 1.14815,-1.058333 h 0.4087 0.4087 l 1.19931,1.105479 1.1993,1.10548 0.96983,-0.969833 0.96983,-0.969833 -1.11671,-1.137848 -1.11672,-1.137849 v -0.458917 -0.45892 l 1.10548,-1.199303 1.10548,-1.199303 -0.96983,-0.969833 -0.96983,-0.969833 -1.13785,1.116716 -1.13785,1.116714 h -0.50914 -0.50913 l -1.13785,-1.116714 -1.13785,-1.116716 -0.96983,0.969833 -0.96984,0.969833 1.10548,1.199303 1.10548,1.199303 v 0.45892 0.458917 l -1.11182,1.132861 -1.11182,1.132859 0.89914,0.927677 0.89914,0.927674 h 0.11695 0.11694 z m -17.30536,-31.355184 -0.87054,-0.378222 -1.99834,-1.632906 -1.99835,-1.632905 -2.95194,-1.961942 -2.95195,-1.961941 -3.175,-1.545832 -3.175,-1.545831 -2.58211,-0.958269 -2.58211,-0.958269 -2.99959,-0.773411 -2.99958,-0.77341 -3.01726,-0.467179 -3.01727,-0.467179 -5.42395,-0.0012 -5.42396,-0.0012 -2.910419,0.472813 -2.910417,0.472814 -2.513541,0.632954 -2.513542,0.632953 -2.248958,0.765478 -2.248959,0.765478 -2.05052,0.855656 -2.050521,0.855655 v 0.193773 0.193772 l 0.646552,0.607404 0.646551,0.607404 0.411782,0.867765 0.411782,0.867766 v 1.177657 1.177657 l -0.596213,0.884718 -0.596212,0.884718 -0.798184,0.466166 -0.798184,0.466165 -8.245975,0.0454 -8.245975,0.0454 -0.875916,-0.511563 -0.875917,-0.511563 -0.596212,-0.884718 -0.596212,-0.884692 9.9e-4,-8.361393 9.89e-4,-8.361393 0.525759,-0.862314 0.525759,-0.862314 0.862314,-0.525759 0.862314,-0.52576 1.107255,-9.89e-4 1.107255,-9.89e-4 0.740891,0.281687 0.740892,0.281687 3.620695,3.587646 3.620694,3.587646 2.336366,-1.122199 2.336368,-1.122199 2.538511,-1.012621 2.53851,-1.012621 2.642986,-0.785171 2.642984,-0.78517 2.623714,-0.546216 2.623712,-0.546215 3.122406,-0.403127 3.122406,-0.403127 h 4.55213 4.55213 l 3.42063,0.400133 3.42063,0.400132 3.06004,0.676463 3.06004,0.676463 3.96875,1.310197 3.96875,1.310196 3.96875,1.963393 3.96875,1.963392 2.8928,1.889402 2.8928,1.889402 1.60512,1.226532 1.60512,1.226531 1.38924,1.303685 1.38925,1.303684 0.2746,1.019781 0.27459,1.01978 -0.26822,0.992187 -0.26822,0.992188 -0.43849,0.623944 -0.43849,0.623944 -1.08943,0.494724 -1.08942,0.494724 -0.66146,-0.0045 -0.66145,-0.0045 z"
         id="path6147" />
    </g>
  </g>
</svg>
