<?xml version="1.0" encoding="UTF-8" standalone="no"?>
<svg
   xmlns:dc="http://purl.org/dc/elements/1.1/"
   xmlns:cc="http://creativecommons.org/ns#"
   xmlns:rdf="http://www.w3.org/1999/02/22-rdf-syntax-ns#"
   xmlns:svg="http://www.w3.org/2000/svg"
   xmlns="http://www.w3.org/2000/svg"
   xmlns:sodipodi="http://sodipodi.sourceforge.net/DTD/sodipodi-0.dtd"
   xmlns:inkscape="http://www.inkscape.org/namespaces/inkscape"
   width="145mm"
   height="145mm"
   viewBox="0 0 145 145"
   version="1.1"
   id="svg6170"
   inkscape:version="1.0.1 (3bc2e813f5, 2020-09-07)"
   sodipodi:docname="icon_camera.svg">
  <defs
     id="defs6164" />
  <sodipodi:namedview
     id="base"
     pagecolor="#ffffff"
     bordercolor="#666666"
     borderopacity="1.0"
     inkscape:pageopacity="0.0"
     inkscape:pageshadow="2"
     inkscape:zoom="0.34074713"
     inkscape:cx="272.67545"
     inkscape:cy="240.92189"
     inkscape:document-units="mm"
     inkscape:current-layer="layer1"
     inkscape:document-rotation="0"
     showgrid="false"
     inkscape:window-width="1920"
     inkscape:window-height="1017"
     inkscape:window-x="-8"
     inkscape:window-y="-8"
     inkscape:window-maximized="1" />
  <metadata
     id="metadata6167">
    <rdf:RDF>
      <cc:Work
         rdf:about="">
        <dc:format>image/svg+xml</dc:format>
        <dc:type
           rdf:resource="http://purl.org/dc/dcmitype/StillImage" />
        <dc:title></dc:title>
      </cc:Work>
    </rdf:RDF>
  </metadata>
  <g
     inkscape:label="Layer 1"
     inkscape:groupmode="layer"
     id="layer1"
     transform="translate(-33.687953,-84.422749)">
    <path
       style="fill:#000000;stroke-width:0.264583"
       d="m 90.186198,222.4581 c -0.94415,-0.26932 -1.90549,-1.54484 -1.90716,-2.53046 -0.002,-1.20662 0.707,-1.9788 4.85119,-5.28312 l 4.25722,-3.39443 -2.2396,-0.20566 c -18.74555,-1.72138 -33.13069,-5.88562 -43.3823,-12.55841 -7.40566,-4.82036 -11.58956,-9.75224 -13.53491,-15.95462 -0.88062,-2.80771 -0.88035,-7.22452 6.3e-4,-10.03345 1.12064,-3.57308 3.53984,-7.57666 5.75181,-9.5188 1.65695,-1.45482 3.92539,-0.89163 4.59626,1.14113 0.36989,1.12078 0.0534,2.01149 -1.21249,3.41271 -4.9153,5.44066 -5.53638,11.8874 -1.70713,17.71994 5.93329,9.03733 21.95066,16.40725 41.82458,19.24433 3.52767,0.50359 9.02529,1.05635 9.20319,0.92534 0.0413,-0.0304 -1.65301,-1.44095 -3.76511,-3.13453 -2.11209,-1.69359 -4.03631,-3.37859 -4.27604,-3.74447 -0.98829,-1.50833 0.22682,-3.74722 2.1756,-4.00861 1.22366,-0.16412 0.95458,-0.35221 10.547522,7.3727 6.85448,5.5197 7.19395,5.91768 6.49239,7.61141 -0.22757,0.54939 -2.54103,2.56902 -7.38157,6.44404 -3.877562,3.10413 -7.346142,5.83124 -7.707952,6.06025 -0.9567,0.60557 -1.60507,0.71455 -2.58613,0.43471 z m 27.930272,-12.2819 c -0.93167,-0.5056 -1.26342,-1.1531 -1.26342,-2.46584 0,-1.59017 0.80569,-2.36735 2.77812,-2.67979 0.87313,-0.1383 3.55203,-0.55867 5.95313,-0.93414 27.83584,-4.35281 45.5033,-17.62294 40.97723,-30.7782 -0.63714,-1.85189 -1.4874,-3.29438 -3.17129,-5.38022 -1.68632,-2.08885 -1.92389,-2.6752 -1.54682,-3.81773 0.39881,-1.20841 1.41439,-1.9504 2.66954,-1.9504 0.80672,0 1.25,0.20608 2.1052,0.9787 2.21089,1.9974 4.439,5.73461 5.57407,9.34937 0.8746,2.78525 0.87094,7.20378 -0.008,10.03817 -1.14537,3.69229 -2.95673,6.63077 -6.09845,9.8932 -8.33039,8.65047 -23.15642,14.87554 -41.95639,17.61641 -4.36211,0.63595 -5.0535,0.65096 -6.01262,0.13047 z M 62.052118,182.4611 c -3.1421,-1.07105 -5.56523,-3.42355 -7.00158,-6.79747 -0.48532,-1.14003 -0.50996,-2.22934 -0.57968,-25.63212 -0.0639,-21.45356 -0.0223,-24.63954 0.34059,-26.06146 1.10903,-4.34583 4.72183,-7.6338 9.18355,-8.35784 0.91364,-0.14827 5.11589,-0.27048 9.33832,-0.27158 l 7.67715,-0.002 3.30306,-6.64206 c 3.61846,-7.27629 4.34709,-8.28023 6.87493,-9.472597 l 1.45521,-0.68642 h 12.567712 12.56771 l 1.49632,0.70151 c 2.48457,1.164817 3.20958,2.168087 6.83382,9.456797 l 3.30306,6.64277 7.67715,0.002 c 4.22243,10e-4 8.4408,0.12591 9.37415,0.27735 4.4474,0.7216 8.03681,3.99885 9.14775,8.3522 0.36285,1.42185 0.40453,4.59473 0.34059,25.92917 -0.0689,22.99272 -0.0996,24.38071 -0.56742,25.63199 -1.25386,3.35385 -3.99267,6.00827 -7.23148,7.00863 -1.6947,0.52344 -2.38669,0.53188 -43.03567,0.52516 l -41.313272,-0.007 z m 85.259862,-5.68469 c 1.0303,-0.53824 1.63217,-1.09026 2.21302,-2.02974 l 0.79784,-1.29043 v -24.09787 -24.09786 l -0.56957,-1.05834 c -0.7149,-1.32839 -1.54486,-2.1092 -2.79898,-2.6332 -0.8208,-0.34295 -2.47569,-0.40957 -10.18285,-0.40991 -8.23143,-2.7e-4 -9.30051,-0.0492 -10.12881,-0.46303 -0.83535,-0.4173 -1.29144,-1.18616 -4.65712,-7.85085 -2.23419,-4.42414 -4.01812,-7.63518 -4.44653,-8.00369 l -0.71544,-0.6154 H 105.21138 93.599218 l -0.71544,0.6154 c -0.42841,0.36851 -2.21234,3.57955 -4.44653,8.00369 -3.36568,6.66469 -3.82177,7.43355 -4.65712,7.85085 -0.8283,0.41379 -1.89738,0.46266 -10.12881,0.46303 -7.70716,2.6e-4 -9.36205,0.067 -10.18285,0.40991 -1.25412,0.524 -2.08408,1.30481 -2.79898,2.6332 l -0.56957,1.05834 v 24.09783 24.09783 l 0.79784,1.29047 c 0.58086,0.93952 1.1827,1.49152 2.21302,2.02977 l 1.41519,0.7393 h 40.685412 40.68541 z m -46.8631,-11.1793 c -8.828212,-2.27953 -14.898482,-10.03655 -14.897942,-19.03765 2.1e-4,-3.4825 0.5249,-5.72385 2.09961,-8.96895 1.00441,-2.06986 1.59053,-2.87248 3.49677,-4.7884 2.61973,-2.63304 4.66662,-3.92314 8.09797,-5.10392 2.219232,-0.76366 2.655272,-0.82378 5.966092,-0.82244 3.34769,0.001 3.7334,0.0565 6.1455,0.87815 5.01768,1.70927 9.14862,5.28243 11.41763,9.87596 1.56229,3.16281 2.08737,5.41891 2.07827,8.9296 -0.0284,10.95406 -8.7809,19.62446 -19.74987,19.5646 -1.73747,-0.009 -3.36255,-0.19348 -4.65403,-0.52695 z m 9.26042,-5.7941 c 4.29905,-1.44358 7.83498,-5.153 9.03409,-9.47734 2.50322,-9.02742 -4.20126,-17.89216 -13.53201,-17.89216 -6.539292,0 -12.250742,4.53235 -13.755812,10.916 -0.46943,1.99107 -0.22409,6.12284 0.46997,7.91457 1.78029,4.59586 5.77685,8.04373 10.507722,9.06509 1.7371,0.37502 5.37589,0.11189 7.27604,-0.52616 z"
       id="path6747" />
  </g>
</svg>
