<?xml version="1.0" encoding="UTF-8" standalone="no"?>
<svg
   xmlns:dc="http://purl.org/dc/elements/1.1/"
   xmlns:cc="http://creativecommons.org/ns#"
   xmlns:rdf="http://www.w3.org/1999/02/22-rdf-syntax-ns#"
   xmlns:svg="http://www.w3.org/2000/svg"
   xmlns="http://www.w3.org/2000/svg"
   xmlns:sodipodi="http://sodipodi.sourceforge.net/DTD/sodipodi-0.dtd"
   xmlns:inkscape="http://www.inkscape.org/namespaces/inkscape"
   width="160mm"
   height="160mm"
   viewBox="0 0 160 160"
   version="1.1"
   id="svg6778"
   inkscape:version="1.0.1 (3bc2e813f5, 2020-09-07)"
   sodipodi:docname="icon_help.svg">
  <defs
     id="defs6772" />
  <sodipodi:namedview
     id="base"
     pagecolor="#ffffff"
     bordercolor="#666666"
     borderopacity="1.0"
     inkscape:pageopacity="0.0"
     inkscape:pageshadow="2"
     inkscape:zoom="0.34074713"
     inkscape:cx="751.46838"
     inkscape:cy="978.64986"
     inkscape:document-units="mm"
     inkscape:current-layer="layer1"
     inkscape:document-rotation="0"
     showgrid="false"
     inkscape:window-width="1920"
     inkscape:window-height="1017"
     inkscape:window-x="-8"
     inkscape:window-y="-8"
     inkscape:window-maximized="1" />
  <metadata
     id="metadata6775">
    <rdf:RDF>
      <cc:Work
         rdf:about="">
        <dc:format>image/svg+xml</dc:format>
        <dc:type
           rdf:resource="http://purl.org/dc/dcmitype/StillImage" />
        <dc:title></dc:title>
      </cc:Work>
    </rdf:RDF>
  </metadata>
  <g
     inkscape:label="Layer 1"
     inkscape:groupmode="layer"
     id="layer1"
     transform="translate(92.992676,110.76778)">
    <path
       style="fill:#000000;stroke-width:0.264583"
       d="m -16.953977,38.516646 c -9.996919,-1.019869 -17.281834,-3.04183 -25.24802,-7.007701 -16.463038,-8.195929 -28.79568,-22.5469916 -34.375982,-40.0021248 -2.208602,-6.9084822 -3.06523,-12.6556052 -3.06523,-20.5646302 0,-8.168108 0.893558,-13.93413 3.280188,-21.166666 11.633117,-35.253431 49.578752,-54.634044 84.8755006,-43.349884 22.2411594,7.11037 39.2586744,25.180834 45.0597514,47.847801 1.426942,5.575591 1.925298,9.773835 1.947275,16.404166 0.02252,6.7922 -0.396267,10.523949 -1.840876,16.404166 -1.223769,4.9812942 -2.777103,9.1925342 -5.16515,14.0032282 -3.430297,6.9102891 -7.467198,12.4870338 -12.991774,17.9473748 -5.642261,5.576659 -10.593181,9.089299 -17.815268,12.639793 -9.4307341,4.636299 -17.83856976,6.663531 -28.442707,6.857883 -2.837657,0.05201 -5.635625,0.04598 -6.217708,-0.01341 z M -2.7987699,28.504225 C 9.5160917,26.401412 20.421174,20.790164 29.086251,12.097679 37.884633,3.2714652 43.449775,-7.5961078 45.542865,-20.038688 c 0.666261,-3.960643 0.666261,-14.077601 0,-18.038244 C 41.653413,-61.198167 25.0275,-79.559757 2.6700622,-85.425475 -2.7647179,-86.85135 -5.2406279,-87.13461 -12.191478,-87.12576 c -6.825593,0.009 -9.624456,0.34771 -15.140079,1.833855 -23.116938,6.228702 -40.219721,26.392748 -42.68747,50.32819 -0.395182,3.83299 -0.18686,11.66051 0.403637,15.166321 2.063499,12.2510862 7.67841,23.1635692 16.407034,31.886783 9.627817,9.621853 21.470828,15.24545 35.59292,16.901125 2.212589,0.259405 12.4095531,-0.07526 14.8166661,-0.486289 z M -16.244204,2.1890072 c -2.58605,-0.893162 -4.251496,-3.12457899 -4.482806,-6.006198 -0.108712,-1.354331 -0.0199,-1.870477 0.524997,-3.050492 2.448288,-5.3021152 9.033213,-5.6074842 12.1505871,-0.563467 0.873731,1.413726 0.97776,4.082859 0.227134,5.827736 -0.777613,1.807606 -2.4697791,3.350032 -4.2577881,3.881016 -1.771285,0.526013 -2.422737,0.512146 -4.162124,-0.08859 z m 0.613143,-19.5814812 c -2.592742,-0.453089 -3.29507,-1.698128 -3.296885,-5.844503 -0.0013,-3.316356 0.470548,-5.751234 1.555599,-8.024756 1.194673,-2.503213 2.631985,-4.131231 6.095354,-6.904122 4.8723041,-3.900927 5.9445231,-5.459947 5.9568661,-8.661368 0.0071,-1.836523 -0.06763,-2.13415 -0.796184,-3.171682 -0.538067,-0.76626 -1.31939,-1.408618 -2.362176,-1.942044 -1.4675011,-0.750684 -1.7363551,-0.797068 -4.6199581,-0.797068 -4.421907,0 -5.824016,0.714856 -8.362342,4.263488 -1.41398,1.976776 -2.574662,2.618247 -4.307667,2.380712 -4.068712,-0.557678 -5.735421,-4.343442 -3.765521,-8.553018 1.574834,-3.365341 5.614738,-6.394865 10.198748,-7.648035 2.065771,-0.56474 8.494482,-0.791168 10.9027531,-0.384013 8.77768714,1.484002 14.3796885,6.99749 14.4017574,14.174199 0.017727,5.762675 -2.8138043,10.574681 -9.5392344,16.211361 -2.928937,2.454783 -4.32177,4.180906 -4.817776,5.970622 -0.167878,0.605742 -0.384818,2.351505 -0.482087,3.879474 -0.09727,1.527969 -0.322871,3.045627 -0.5013351,3.372572 -0.696352,1.275718 -3.800681,2.107938 -6.259912,1.678181 z"
       id="path7347" />
  </g>
</svg>
