<?xml version="1.0" encoding="UTF-8" standalone="no"?>
<svg
   xmlns:dc="http://purl.org/dc/elements/1.1/"
   xmlns:cc="http://creativecommons.org/ns#"
   xmlns:rdf="http://www.w3.org/1999/02/22-rdf-syntax-ns#"
   xmlns:svg="http://www.w3.org/2000/svg"
   xmlns="http://www.w3.org/2000/svg"
   xmlns:sodipodi="http://sodipodi.sourceforge.net/DTD/sodipodi-0.dtd"
   xmlns:inkscape="http://www.inkscape.org/namespaces/inkscape"
   width="75mm"
   height="75mm"
   viewBox="0 0 75 75"
   version="1.1"
   id="svg8"
   inkscape:version="1.0.1 (3bc2e813f5, 2020-09-07)"
   sodipodi:docname="loading-text.svg">
  <defs
     id="defs2" />
  <sodipodi:namedview
     id="base"
     pagecolor="#ffffff"
     bordercolor="#666666"
     borderopacity="1.0"
     inkscape:pageopacity="0.0"
     inkscape:pageshadow="2"
     inkscape:zoom="0.98994949"
     inkscape:cx="227.86692"
     inkscape:cy="1.9142106"
     inkscape:document-units="mm"
     inkscape:current-layer="layer1"
     inkscape:document-rotation="0"
     showgrid="false"
     inkscape:window-width="1920"
     inkscape:window-height="1017"
     inkscape:window-x="-8"
     inkscape:window-y="-8"
     inkscape:window-maximized="1" />
  <metadata
     id="metadata5">
    <rdf:RDF>
      <cc:Work
         rdf:about="">
        <dc:format>image/svg+xml</dc:format>
        <dc:type
           rdf:resource="http://purl.org/dc/dcmitype/StillImage" />
        <dc:title></dc:title>
      </cc:Work>
    </rdf:RDF>
  </metadata>
  <g
     inkscape:label="Layer 1"
     inkscape:groupmode="layer"
     id="layer1"
     transform="translate(-66.025396,-119.18801)">
    <g
       aria-label="WORLD-CLASS

"
       id="text835"
       style="font-size:10.5833px;line-height:0;font-family:'Museo Sans';-inkscape-font-specification:'Museo Sans';fill:#339999;fill-opacity:1;stroke-width:0.264583"
       transform="matrix(0.77414931,0,0,0.77414931,23.324333,38.053154)">
      <path
         d="m 70.2058,142.59805 -1.460496,5.48214 c -0.105833,0.41275 -0.158749,0.79375 -0.158749,0.79375 h -0.02117 c 0,0 -0.04233,-0.39158 -0.137583,-0.79375 l -1.322912,-5.48214 h -1.079497 l 1.904994,7.4718 h 1.21708 l 1.291162,-4.84715 c 0.127,-0.47624 0.22225,-1.05833 0.22225,-1.05833 h 0.02117 c 0,0 0.09525,0.58209 0.222249,1.05833 l 1.291163,4.84715 h 1.217079 l 1.957911,-7.4718 h -1.079497 l -1.375829,5.48214 c -0.105833,0.40217 -0.137582,0.79375 -0.137582,0.79375 h -0.02117 c 0,0 -0.05292,-0.381 -0.15875,-0.79375 l -1.460495,-5.48214 z"
         style="fill:#339999;fill-opacity:1;stroke-width:0.264583"
         id="path893" />
      <path
         d="m 76.174763,146.28103 c 0,2.20133 1.682744,3.91582 3.841737,3.91582 2.158994,0 3.831155,-1.71449 3.831155,-3.91582 0,-2.14841 -1.672161,-3.80998 -3.831155,-3.80998 -2.158993,0 -3.841737,1.66157 -3.841737,3.80998 z m 1.079496,0 c 0,-1.62982 1.238246,-2.85749 2.762241,-2.85749 1.523996,0 2.751658,1.22767 2.751658,2.85749 0,1.68275 -1.227662,2.95274 -2.751658,2.95274 -1.523995,0 -2.762241,-1.26999 -2.762241,-2.95274 z"
         style="fill:#339999;fill-opacity:1;stroke-width:0.264583"
         id="path895" />
      <path
         d="m 85.371641,150.06985 h 1.047747 v -2.9739 h 1.598078 l 1.576912,2.9739 h 1.185329 l -1.587495,-2.89982 c -0.137583,-0.24342 -0.222249,-0.33866 -0.222249,-0.33866 v -0.0212 c 0.814914,-0.26458 1.344079,-1.06891 1.344079,-2.02141 0,-0.98425 -0.497415,-1.73566 -1.259413,-2.02141 -0.285749,-0.10584 -0.613831,-0.16933 -1.396995,-0.16933 h -2.285993 z m 1.047747,-3.88407 v -2.67757 h 1.206496 c 0.582081,0 0.825497,0.0635 1.02658,0.16933 0.380999,0.21167 0.592665,0.60325 0.592665,1.15358 0,0.83608 -0.507999,1.35466 -1.322913,1.35466 z"
         style="fill:#339999;fill-opacity:1;stroke-width:0.264583"
         id="path897" />
      <path
         d="m 92.155523,150.06985 h 4.392069 v -0.91016 H 93.20327 v -6.56164 h -1.047747 z"
         style="fill:#339999;fill-opacity:1;stroke-width:0.264583"
         id="path899" />
      <path
         d="m 97.754082,150.06985 h 2.476488 c 2.286,0 3.78882,-1.37582 3.78882,-3.74648 0,-2.36008 -1.50282,-3.72532 -3.78882,-3.72532 h -2.476488 z m 1.047746,-0.91016 v -5.65148 h 1.354662 c 1.67216,0 2.78341,0.98425 2.78341,2.81516 0,1.84149 -1.10066,2.83632 -2.78341,2.83632 z"
         style="fill:#339999;fill-opacity:1;stroke-width:0.264583"
         id="path901" />
      <path
         d="m 105.46929,147.5087 h 3.09033 v -0.91017 h -3.09033 z"
         style="fill:#339999;fill-opacity:1;stroke-width:0.264583"
         id="path903" />
      <path
         d="m 109.96717,146.29162 c 0,2.19074 1.57691,3.90523 3.82057,3.90523 1.87324,0 2.89982,-1.18533 2.89982,-1.18533 l -0.56091,-0.75141 c 0,0 -0.89958,0.97366 -2.30716,0.97366 -1.66158,0 -2.77283,-1.35466 -2.77283,-2.95274 0,-1.58749 1.09008,-2.85749 2.76224,-2.85749 1.29117,0 2.159,0.81492 2.159,0.81492 l 0.51858,-0.78317 c 0,0 -0.92075,-0.98424 -2.71991,-0.98424 -2.16958,0 -3.7994,1.65099 -3.7994,3.82057 z"
         style="fill:#339999;fill-opacity:1;stroke-width:0.264583"
         id="path905" />
      <path
         d="m 118.11629,150.06985 h 4.39207 v -0.91016 h -3.34432 v -6.56164 h -1.04775 z"
         style="fill:#339999;fill-opacity:1;stroke-width:0.264583"
         id="path907" />
      <path
         d="m 128.27623,150.06985 h 1.09008 l -2.68816,-7.4718 h -1.10066 l -2.68816,7.4718 h 1.0795 l 0.74083,-2.14841 h 2.81516 z m -2.13783,-6.44522 c 0,0 0.15875,0.67733 0.28575,1.05833 l 0.8255,2.37065 h -2.26483 l 0.83609,-2.37065 c 0.12699,-0.381 0.29633,-1.05833 0.29633,-1.05833 z"
         style="fill:#339999;fill-opacity:1;stroke-width:0.264583"
         id="path909" />
      <path
         d="m 129.89546,149.21261 c 0,0 0.88899,0.98424 2.47649,0.98424 1.48166,0 2.37066,-0.95249 2.37066,-2.10607 0,-2.42358 -3.61949,-2.01083 -3.61949,-3.55599 0,-0.59267 0.56091,-1.09008 1.35466,-1.09008 0.9525,0 1.64041,0.64558 1.64041,0.64558 l 0.47625,-0.86783 c 0,0 -0.73025,-0.75141 -2.11666,-0.75141 -1.40758,0 -2.41299,0.92074 -2.41299,2.08491 0,2.29657 3.61949,1.94732 3.61949,3.56657 0,0.70908 -0.59267,1.10066 -1.29116,1.10066 -1.11125,0 -1.905,-0.80433 -1.905,-0.80433 z"
         style="fill:#339999;fill-opacity:1;stroke-width:0.264583"
         id="path911" />
      <path
         d="m 135.67394,149.21261 c 0,0 0.88899,0.98424 2.47649,0.98424 1.48166,0 2.37066,-0.95249 2.37066,-2.10607 0,-2.42358 -3.61949,-2.01083 -3.61949,-3.55599 0,-0.59267 0.56092,-1.09008 1.35466,-1.09008 0.9525,0 1.64041,0.64558 1.64041,0.64558 l 0.47625,-0.86783 c 0,0 -0.73025,-0.75141 -2.11666,-0.75141 -1.40758,0 -2.41299,0.92074 -2.41299,2.08491 0,2.29657 3.61949,1.94732 3.61949,3.56657 0,0.70908 -0.59267,1.10066 -1.29116,1.10066 -1.11125,0 -1.905,-0.80433 -1.905,-0.80433 z"
         style="fill:#339999;fill-opacity:1;stroke-width:0.264583"
         id="path913" />
    </g>
    <g
       aria-label="EDUCATION"
       id="text847"
       style="font-size:10.5833px;line-height:0;font-family:'Museo Sans';-inkscape-font-specification:'Museo Sans';letter-spacing:0.264583px;word-spacing:0px;fill:#339999;fill-opacity:1;stroke:#339999;stroke-width:0.8;stroke-miterlimit:4;stroke-dasharray:none;stroke-opacity:1"
       transform="matrix(0.77414931,0,0,0.77414931,23.324333,38.053154)">
      <path
         d="m 72.486471,161.6223 h 4.519069 v -0.91016 h -3.471322 v -2.40241 h 2.677574 v -0.91017 h -2.677574 v -2.33891 h 3.291406 v -0.91016 h -4.339153 z"
         style="font-weight:bold;fill:#339999;fill-opacity:1;stroke:#339999;stroke-width:0.8;stroke-miterlimit:4;stroke-dasharray:none;stroke-opacity:1"
         id="path874" />
      <path
         d="m 78.815285,161.6223 h 2.476492 c 2.285992,0 3.788821,-1.37583 3.788821,-3.74649 0,-2.36007 -1.502829,-3.72532 -3.788821,-3.72532 h -2.476492 z m 1.047746,-0.91016 v -5.65149 h 1.354663 c 1.672161,0 2.783407,0.98425 2.783407,2.81516 0,1.8415 -1.100663,2.83633 -2.783407,2.83633 z"
         style="font-weight:bold;fill:#339999;fill-opacity:1;stroke:#339999;stroke-width:0.8;stroke-miterlimit:4;stroke-dasharray:none;stroke-opacity:1"
         id="path876" />
      <path
         d="m 86.805673,158.97647 c 0,1.66158 1.195913,2.77283 2.942158,2.77283 1.746244,0 2.942157,-1.11125 2.942157,-2.77283 v -4.82598 h -1.047747 v 4.80482 c 0,1.16416 -0.751414,1.83091 -1.904994,1.83091 -1.142996,0 -1.883827,-0.66675 -1.883827,-1.80975 v -4.82598 h -1.047747 z"
         style="font-weight:bold;fill:#339999;fill-opacity:1;stroke:#339999;stroke-width:0.8;stroke-miterlimit:4;stroke-dasharray:none;stroke-opacity:1"
         id="path878" />
      <path
         d="m 94.37272,157.84406 c 0,2.19074 1.576911,3.90524 3.820571,3.90524 1.873239,0 2.899819,-1.18533 2.899819,-1.18533 l -0.56091,-0.75142 c 0,0 -0.89958,0.97367 -2.307159,0.97367 -1.661578,0 -2.772825,-1.35466 -2.772825,-2.95274 0,-1.5875 1.09008,-2.85749 2.762241,-2.85749 1.291163,0 2.158993,0.81491 2.158993,0.81491 l 0.51858,-0.78316 c 0,0 -0.920745,-0.98425 -2.719906,-0.98425 -2.169576,0 -3.799404,1.65099 -3.799404,3.82057 z"
         style="font-weight:bold;fill:#339999;fill-opacity:1;stroke:#339999;stroke-width:0.8;stroke-miterlimit:4;stroke-dasharray:none;stroke-opacity:1"
         id="path880" />
      <path
         d="m 107.24199,161.6223 h 1.09008 l -2.68815,-7.47181 h -1.10067 l -2.68816,7.47181 h 1.0795 l 0.74083,-2.14841 h 2.81516 z m -2.13782,-6.44523 c 0,0 0.15875,0.67733 0.28575,1.05833 l 0.82549,2.37066 h -2.26482 l 0.83608,-2.37066 c 0.127,-0.381 0.29633,-1.05833 0.29633,-1.05833 z"
         style="font-weight:bold;fill:#339999;fill-opacity:1;stroke:#339999;stroke-width:0.8;stroke-miterlimit:4;stroke-dasharray:none;stroke-opacity:1"
         id="path882" />
      <path
         d="m 110.84029,161.6223 h 1.04774 v -6.56165 h 2.56116 v -0.91016 h -6.17006 v 0.91016 h 2.56116 z"
         style="font-weight:bold;fill:#339999;fill-opacity:1;stroke:#339999;stroke-width:0.8;stroke-miterlimit:4;stroke-dasharray:none;stroke-opacity:1"
         id="path884" />
      <path
         d="m 115.78267,161.6223 h 1.04775 v -7.47181 h -1.04775 z"
         style="font-weight:bold;fill:#339999;fill-opacity:1;stroke:#339999;stroke-width:0.8;stroke-miterlimit:4;stroke-dasharray:none;stroke-opacity:1"
         id="path886" />
      <path
         d="m 118.61898,157.83348 c 0,2.20132 1.68274,3.91582 3.84174,3.91582 2.15899,0 3.83115,-1.7145 3.83115,-3.91582 0,-2.14841 -1.67216,-3.80999 -3.83115,-3.80999 -2.159,0 -3.84174,1.66158 -3.84174,3.80999 z m 1.0795,0 c 0,-1.62983 1.23824,-2.85749 2.76224,-2.85749 1.52399,0 2.75166,1.22766 2.75166,2.85749 0,1.68274 -1.22767,2.95274 -2.75166,2.95274 -1.524,0 -2.76224,-1.27 -2.76224,-2.95274 z"
         style="font-weight:bold;fill:#339999;fill-opacity:1;stroke:#339999;stroke-width:0.8;stroke-miterlimit:4;stroke-dasharray:none;stroke-opacity:1"
         id="path888" />
      <path
         d="m 128.08044,161.6223 h 1.04775 v -4.84715 c 0,-0.42333 -0.0741,-1.09008 -0.0741,-1.09008 h 0.0212 c 0,0 0.34925,0.67733 0.62442,1.09008 l 3.33374,4.84715 h 1.02658 v -7.47181 h -1.04775 v 4.85773 c 0,0.41275 0.0741,1.0795 0.0741,1.0795 h -0.0212 c 0,0 -0.34925,-0.67733 -0.62442,-1.0795 l -3.32315,-4.85773 h -1.03717 z"
         style="font-weight:bold;fill:#339999;fill-opacity:1;stroke:#339999;stroke-width:0.8;stroke-miterlimit:4;stroke-dasharray:none;stroke-opacity:1"
         id="path890" />
    </g>
    <g
       aria-label="loading..."
       id="text851"
       style="font-size:7.05556px;line-height:0;font-family:'Museo Sans';-inkscape-font-specification:'Museo Sans';fill:#adcb00;fill-opacity:1;stroke-width:0.264583"
       transform="matrix(0.77414931,0,0,0.77414931,24.382667,38.053154)">
      <path
         d="m 88.883454,173.30587 c 0,0.89606 0.5715,1.00189 0.959556,1.00189 0.119944,0 0.225778,-0.0141 0.225778,-0.0141 v -0.60678 c 0,0 -0.05644,0.007 -0.119945,0.007 -0.211667,0 -0.381,-0.0776 -0.381,-0.508 v -3.88761 h -0.684389 z"
         style="font-size:7.05556px;fill:#adcb00;fill-opacity:1;stroke-width:0.264583"
         id="path853" />
      <path
         d="m 90.534451,172.48743 c 0,1.08656 0.860778,1.87678 1.926167,1.87678 1.06539,0 1.926168,-0.79022 1.926168,-1.87678 0,-1.0795 -0.860778,-1.86267 -1.926168,-1.86267 -1.065389,0 -1.926167,0.78317 -1.926167,1.86267 z m 0.6985,0 c 0,-0.74084 0.557389,-1.27 1.227667,-1.27 0.677334,0 1.227668,0.52916 1.227668,1.27 0,0.74789 -0.550334,1.28411 -1.227668,1.28411 -0.670278,0 -1.227667,-0.53622 -1.227667,-1.28411 z"
         style="font-size:7.05556px;fill:#adcb00;fill-opacity:1;stroke-width:0.264583"
         id="path855" />
      <path
         d="m 94.908888,173.27765 c 0,0.71261 0.599723,1.08656 1.213556,1.08656 0.853723,0 1.143001,-0.70556 1.143001,-0.70556 h 0.01411 c 0,0 -0.01411,0.11995 -0.01411,0.28222 v 0.33867 h 0.635001 v -2.25778 c 0,-0.90311 -0.508001,-1.397 -1.411112,-1.397 -0.818445,0 -1.333501,0.42333 -1.333501,0.42333 l 0.282222,0.50095 c 0,0 0.4445,-0.34572 0.994834,-0.34572 0.451556,0 0.783167,0.19755 0.783167,0.78316 v 0.0635 h -0.155222 c -0.599723,0 -2.151946,0.0494 -2.151946,1.22767 z m 0.691445,-0.0353 c 0,-0.64205 0.931334,-0.67733 1.44639,-0.67733 h 0.176389 v 0.11289 c 0,0.52917 -0.373945,1.13594 -0.952501,1.13594 -0.4445,0 -0.670278,-0.28222 -0.670278,-0.5715 z"
         style="font-size:7.05556px;fill:#adcb00;fill-opacity:1;stroke-width:0.264583"
         id="path857" />
      <path
         d="m 98.690668,172.49448 c 0,1.10773 0.606778,1.86973 1.573392,1.86973 0.88194,0 1.17122,-0.66322 1.17122,-0.66322 h 0.0141 c 0,0 -0.007,0.0988 -0.007,0.23988 v 0.33867 h 0.64911 v -4.98122 h -0.68439 v 1.651 c 0,0.13405 0.0141,0.23989 0.0141,0.23989 h -0.0141 c 0,0 -0.27517,-0.56445 -1.10067,-0.56445 -0.945444,0 -1.615722,0.73378 -1.615722,1.86972 z m 0.6985,0 c 0,-0.81139 0.465667,-1.27705 1.030112,-1.27705 0.67733,0 1.00894,0.635 1.00894,1.27 0,0.91017 -0.50094,1.28411 -1.03011,1.28411 -0.592664,0 -1.008942,-0.50094 -1.008942,-1.27706 z"
         style="font-size:7.05556px;fill:#adcb00;fill-opacity:1;stroke-width:0.264583"
         id="path859" />
      <path
         d="m 103.15684,169.99682 h 0.69144 v -0.6985 h -0.69144 z m 0.007,4.28272 h 0.68439 v -3.57011 h -0.68439 z"
         style="font-size:7.05556px;fill:#adcb00;fill-opacity:1;stroke-width:0.264583"
         id="path861" />
      <path
         d="m 104.92072,174.27954 h 0.68439 v -1.67217 c 0,-0.17639 0.0141,-0.33866 0.0564,-0.47977 0.14817,-0.51506 0.58561,-0.87489 1.12889,-0.87489 0.5715,0 0.67733,0.39511 0.67733,0.89605 v 2.13078 h 0.68439 v -2.286 c 0,-0.91017 -0.38805,-1.36878 -1.22766,-1.36878 -0.77612,0 -1.19945,0.508 -1.34056,0.81845 h -0.0141 c 0,0 0.0141,-0.11995 0.0141,-0.26106 v -0.47272 h -0.66322 z"
         style="font-size:7.05556px;fill:#adcb00;fill-opacity:1;stroke-width:0.264583"
         id="path863" />
      <path
         d="m 109.49271,174.92865 -0.22578,0.53623 c 0.34572,0.17638 0.79022,0.29633 1.22061,0.29633 0.90312,0 1.79917,-0.45156 1.79917,-1.62984 v -3.42194 h -0.65617 v 0.33161 c 0,0.0635 0.007,0.11289 0.007,0.11289 h -0.0141 c 0,0 -0.26106,-0.52917 -1.12184,-0.52917 -0.98777,0 -1.55927,0.762 -1.55927,1.78506 0,1.03011 0.59972,1.82739 1.59455,1.82739 0.51506,0 0.84667,-0.20461 1.05834,-0.55739 h 0.0141 c 0,0 -0.007,0.11289 -0.007,0.22578 v 0.26105 c 0,0.72672 -0.508,1.00189 -1.12889,1.00189 -0.53622,0 -0.98072,-0.23989 -0.98072,-0.23989 z m 1.17828,-1.28411 c -0.64206,0 -1.03717,-0.508 -1.03717,-1.24883 0,-0.72673 0.35278,-1.17828 0.97367,-1.17828 0.55739,0 1.00894,0.26811 1.00894,1.19944 0,0.93134 -0.45155,1.22767 -0.94544,1.22767 z"
         style="font-size:7.05556px;fill:#adcb00;fill-opacity:1;stroke-width:0.264583"
         id="path865" />
      <path
         d="m 113.35915,174.27954 h 0.71966 v -0.72672 h -0.71966 z"
         style="font-size:7.05556px;fill:#adcb00;fill-opacity:1;stroke-width:0.264583"
         id="path867" />
      <path
         d="m 115.15126,174.27954 h 0.71966 v -0.72672 h -0.71966 z"
         style="font-size:7.05556px;fill:#adcb00;fill-opacity:1;stroke-width:0.264583"
         id="path869" />
      <path
         d="m 116.94337,174.27954 h 0.71966 v -0.72672 h -0.71966 z"
         style="font-size:7.05556px;fill:#adcb00;fill-opacity:1;stroke-width:0.264583"
         id="path871" />
    </g>
  </g>
</svg>
