<?xml version="1.0" encoding="UTF-8" standalone="no"?>
<svg
   xmlns:dc="http://purl.org/dc/elements/1.1/"
   xmlns:cc="http://creativecommons.org/ns#"
   xmlns:rdf="http://www.w3.org/1999/02/22-rdf-syntax-ns#"
   xmlns:svg="http://www.w3.org/2000/svg"
   xmlns="http://www.w3.org/2000/svg"
   xmlns:sodipodi="http://sodipodi.sourceforge.net/DTD/sodipodi-0.dtd"
   xmlns:inkscape="http://www.inkscape.org/namespaces/inkscape"
   width="75mm"
   height="75mm"
   viewBox="0 0 75 75"
   version="1.1"
   id="svg8"
   inkscape:version="1.0.1 (3bc2e813f5, 2020-09-07)"
   sodipodi:docname="loading-text.svg">
  <defs
     id="defs2" />
  <sodipodi:namedview
     id="base"
     pagecolor="#ffffff"
     bordercolor="#666666"
     borderopacity="1.0"
     inkscape:pageopacity="0.0"
     inkscape:pageshadow="2"
     inkscape:zoom="1.4"
     inkscape:cx="198.96896"
     inkscape:cy="159.20219"
     inkscape:document-units="mm"
     inkscape:current-layer="layer1"
     inkscape:document-rotation="0"
     showgrid="false"
     inkscape:window-width="1920"
     inkscape:window-height="1017"
     inkscape:window-x="-8"
     inkscape:window-y="-8"
     inkscape:window-maximized="1"
     inkscape:snap-global="false" />
  <metadata
     id="metadata5">
    <rdf:RDF>
      <cc:Work
         rdf:about="">
        <dc:format>image/svg+xml</dc:format>
        <dc:type
           rdf:resource="http://purl.org/dc/dcmitype/StillImage" />
        <dc:title />
      </cc:Work>
    </rdf:RDF>
  </metadata>
  <g
     inkscape:label="Layer 1"
     inkscape:groupmode="layer"
     id="layer1"
     transform="translate(-66.025396,-119.18801)">
    <g
       id="g4348"
       transform="matrix(0.33091355,0,0,-0.33091355,132.07976,156.68801)"
       style="fill:#96dab6;fill-opacity:1"
       inkscape:label="coloured border">
      <path
         d="m 0,0 c 0,-47.656 -38.633,-86.29 -86.29,-86.29 -47.656,0 -86.289,38.634 -86.289,86.29 0,47.656 38.633,86.29 86.289,86.29 C -38.633,86.29 0,47.656 0,0 Z"
         style="fill:#96dab6;fill-opacity:1;stroke:#231f20;stroke-width:5;stroke-linecap:butt;stroke-linejoin:miter;stroke-miterlimit:10;stroke-dasharray:none;stroke-opacity:1"
         id="path4350" />
    </g>
    <g
       id="g4356"
       transform="matrix(0.33091355,0,0,-0.33091355,129.12123,156.68801)"
       style="fill:#ffffff;fill-opacity:1"
       inkscape:label="white inner">
      <path
         d="m 0,0 c 0,-42.719 -34.63,-77.349 -77.349,-77.349 -42.718,0 -77.349,34.63 -77.349,77.349 0,42.719 34.631,77.349 77.349,77.349 C -34.63,77.349 0,42.719 0,0 Z"
         style="fill:#ffffff;fill-opacity:1;stroke:#231f20;stroke-width:2;stroke-linecap:butt;stroke-linejoin:miter;stroke-miterlimit:10;stroke-dasharray:none;stroke-opacity:1"
         id="path4358" />
    </g>
    <path
       id="path22027-7"
       style="font-size:10.5833px;line-height:0;font-family:'Fill Me With Color';-inkscape-font-specification:'Fill Me With Color';fill:#cccccc;fill-opacity:1;stroke:none;stroke-width:0.4;stroke-miterlimit:4;stroke-dasharray:none;stroke-opacity:1"
       d="m 103.18402,154.67831 c 0.89958,0.127 1.50282,0.49742 1.87324,0.79375 0.56091,0.45508 0.89958,1.06891 0.97366,1.70391 0.0423,0.508 -0.10583,0.94191 -0.43391,1.31233 -0.49742,0.53975 -1.29116,0.83608 -2.40241,0.889 0.0317,-0.77258 0.0423,-1.56633 0.0317,-2.48708 0,-0.67733 -0.0106,-1.37583 -0.0423,-2.21191 z m -6.45581,2.2225 c 0.11642,-0.43392 0.254,-0.98425 0.49742,-1.43933 0.28575,-0.56092 0.61383,-0.84667 0.96308,-0.84667 0.17991,0 0.34925,0.0847 0.508,0.24342 0.22225,0.24341 0.42333,0.635 0.58208,1.17474 0.0741,0.26459 0.13758,0.56092 0.1905,0.86784 -0.39158,0.0318 -0.79375,0.0423 -1.24883,0.0423 -0.508,0 -0.99483,-0.0106 -1.49225,-0.0423 z m -5.58797,-2.27541 c 0.81492,0 1.80975,0.60324 1.86266,2.31774 0.0212,0.85725 -0.17991,1.50283 -0.59266,1.93674 -0.30692,0.32808 -0.74083,0.49742 -1.19592,0.49742 -0.98424,0 -2.00024,-0.79375 -2.08491,-2.30716 -0.0423,-0.94192 0.30692,-1.50283 0.61384,-1.83091 0.37041,-0.39158 0.87841,-0.61383 1.39699,-0.61383 z m 31.20941,6.06972 c 0.62442,0 1.27,-0.26458 1.778,-0.71966 0.49741,-0.43392 0.80433,-1.00542 0.87841,-1.56633 0.20108,-0.0106 0.39158,-0.0212 0.60325,-0.0529 0.17991,-0.0212 0.32808,-0.10583 0.4445,-0.24342 0.11641,-0.14816 0.15875,-0.30691 0.13758,-0.48683 -0.0317,-0.33866 -0.3175,-0.59266 -0.65617,-0.59266 h -0.0741 c -0.29633,0.0317 -0.5715,0.0529 -0.85725,0.0529 -0.24341,0 -0.49741,-0.0106 -0.75141,-0.0318 -0.20108,-0.0106 -0.41275,-0.0212 -0.635,-0.0212 -0.1905,0 -0.34925,0.0635 -0.47625,0.1905 -0.127,0.11641 -0.1905,0.28575 -0.20108,0.45508 0,0.1905 0.0635,0.34925 0.1905,0.47625 0.11642,0.127 0.27517,0.20108 0.46566,0.21166 0.15875,0 0.30692,0 0.46567,0.0106 -0.0741,0.22225 -0.22225,0.43391 -0.43392,0.62441 -0.26458,0.22225 -0.59266,0.37042 -0.87841,0.37042 0,0 -0.0106,0 -0.0212,-0.0106 -0.25399,0 -0.45509,-0.127 -0.61384,-0.37041 -0.16932,-0.254 -0.40215,-0.81492 -0.3704,-1.88383 0.0318,-0.83608 0.127,-1.47108 0.3704,-1.90499 0.14818,-0.28575 0.33868,-0.46567 0.5715,-0.53975 0.0741,-0.0317 0.16934,-0.0423 0.28575,-0.0423 0.15875,0 0.30693,0.0317 0.40218,0.0635 0.16932,0.0741 0.29632,0.13758 0.34924,0.17991 0.11642,0.254 0.33867,0.43392 0.62442,0.43392 0.37041,0 0.66675,-0.29634 0.66675,-0.66675 0,-0.508 -0.47625,-0.84666 -0.75142,-1.00541 -0.39158,-0.21167 -0.81492,-0.32809 -1.26999,-0.33867 -0.34925,0 -0.66675,0.0635 -0.94193,0.20108 -0.33865,0.15875 -0.6244,0.381 -0.85723,0.68792 -0.49742,0.64558 -0.75142,1.62983 -0.78317,2.9104 -0.0212,1.13242 0.17992,2.02141 0.59267,2.64583 0.41275,0.60325 1.00541,0.9525 1.69332,0.96308 z m -7.37656,-0.0212 c 0.0212,0 0.0318,0 0.0423,-0.0106 0.17991,-0.0106 0.33866,-0.0847 0.45508,-0.21167 0.127,-0.13758 0.17992,-0.29633 0.16933,-0.48683 0.0106,-0.0106 -0.0741,-1.26999 -0.0847,-2.61407 -0.0106,-0.55033 -0.0106,-1.03717 0,-1.4605 0.17992,0.43392 0.35984,0.92075 0.56092,1.41816 0.28575,0.73025 0.55033,1.42875 0.79375,1.9685 0.13758,0.32808 0.26458,0.56091 0.37041,0.71966 0.127,0.22225 0.35984,0.52917 0.73025,0.5715 0.0212,0.0106 0.0529,0.0106 0.0847,0.0106 0.1905,0 0.35983,-0.0635 0.508,-0.20108 0.22225,-0.20108 0.37041,-0.53975 0.45508,-1.55574 0.0423,-0.53975 0.0635,-1.22767 0.0741,-2.07433 0,-1.40758 -0.0529,-2.79399 -0.0529,-2.84691 -0.0106,-0.37041 -0.28575,-0.635 -0.65617,-0.635 h -0.0318 c -0.35983,0 -0.66675,0.32809 -0.635,0.68792 0,0.0106 0.0423,1.25941 0.0423,2.60349 0,0.508 -0.0106,0.9525 -0.0212,1.34408 -0.13758,-0.33867 -0.26458,-0.6985 -0.42333,-1.0795 -0.29633,-0.762 -0.59267,-1.55574 -0.87842,-2.15899 -0.15875,-0.34925 -0.29634,-0.60325 -0.41275,-0.78317 -0.0847,-0.16933 -0.37043,-0.56091 -0.82551,-0.56091 h -0.0635 c -0.13757,0.0106 -0.40217,0.0741 -0.60325,0.381 -0.0741,0.11642 -0.127,0.24341 -0.15875,0.381 -0.0529,0.17991 -0.10582,0.45508 -0.13757,0.80433 -0.0423,0.51858 -0.0635,1.23824 -0.0529,2.12724 0,1.48166 0.0952,2.96333 0.0952,3.02683 0.0318,0.37041 0.30692,0.63499 0.65618,0.63499 z m -4.6249,0 c 0.381,0 0.78316,-0.0106 1.19591,-0.0317 0.33866,-0.0318 0.68791,-0.0423 1.03716,-0.0423 0.1905,-0.0106 0.34925,-0.0847 0.46567,-0.20108 0.127,-0.13759 0.1905,-0.29634 0.1905,-0.47625 -0.0106,-0.1905 -0.0847,-0.34925 -0.20109,-0.46567 -0.127,-0.127 -0.28574,-0.1905 -0.46566,-0.1905 h -0.0106 c -0.381,0.0106 -0.74083,0.0106 -1.09008,0.0423 -0.0741,0 -0.15875,0.0106 -0.24342,0.0106 0.0529,-1.25941 0.0423,-2.34949 0.0106,-3.53482 0,-0.32808 -0.0106,-0.68792 -0.0106,-1.05833 0.51858,-0.0106 1.00541,-0.0529 1.47108,-0.13758 0.37041,-0.0529 0.62441,-0.39159 0.55033,-0.762 -0.0529,-0.32808 -0.32808,-0.56092 -0.65616,-0.56092 -0.0318,0 -0.0741,0.0106 -0.10584,0.0106 -0.47625,0.0847 -0.95249,0.11641 -1.53458,0.11641 -0.41274,0 -0.80433,-0.0212 -1.18533,-0.0318 -0.28574,-0.0106 -0.53974,-0.0317 -0.80433,-0.0317 -0.20108,0 -0.35983,0.0635 -0.48683,0.1905 -0.127,0.11642 -0.1905,0.28575 -0.20108,0.45508 0,0.37042 0.28575,0.67734 0.65616,0.68792 0.254,0 0.49742,0.0106 0.78317,0.0212 0.0529,0.0106 0.10583,0.0106 0.17991,0.0106 0,0.381 0.0106,0.77258 0.0106,1.11125 0.0318,1.18532 0.0423,2.29657 0,3.53482 -0.32808,-0.0317 -0.60325,-0.0635 -0.86783,-0.11642 -0.0423,-0.0106 -0.0952,-0.0106 -0.13759,-0.0106 -0.32808,0 -0.58208,0.21166 -0.65616,0.51858 -0.0318,0.17992 0,0.34925 0.0953,0.49741 0.0952,0.14817 0.23283,0.24342 0.41275,0.29634 0.49741,0.11641 0.99483,0.14816 1.59808,0.14816 z m -7.36597,0.0317 c 2.07433,0 3.13266,-0.71966 3.70416,-1.32291 0.58208,-0.635 0.84666,-1.46049 0.77258,-2.33891 -0.0529,-0.47625 -0.20109,-0.9525 -0.4445,-1.40758 -0.254,-0.45508 -0.59267,-0.85724 -1.00542,-1.19591 -0.42333,-0.34925 -0.92074,-0.635 -1.49224,-0.83608 -0.60325,-0.20108 -1.22766,-0.30692 -1.89441,-0.30692 h -0.0317 c -0.17992,0 -0.33867,0.0635 -0.47625,0.20109 -0.13758,0.13758 -0.1905,0.30691 -0.17992,0.48683 0.0423,1.14299 0.0635,2.05316 0.0635,2.91041 0.0106,1.14299 -0.0106,2.16957 -0.0635,3.09032 -0.0106,0.1905 0.0423,0.34925 0.16934,0.48683 0.11641,0.13758 0.26458,0.21167 0.46566,0.22225 0.13758,0.0106 0.27517,0.0106 0.41275,0.0106 z m -7.19662,-0.0212 c 0.17992,0 0.33866,-0.0635 0.46566,-0.1905 0.13759,-0.11642 0.20109,-0.27517 0.20109,-0.45508 0,0 0.0106,-0.81492 0.14816,-1.82033 0.59267,0.0317 1.13242,0.0529 1.7145,0.0529 0.508,0 0.9525,-0.0212 1.40758,-0.0529 0.0635,0.96308 0.0318,1.74624 0.0318,1.74624 -0.0106,0.17992 0.0423,0.33867 0.17991,0.47625 0.11642,0.13758 0.26459,0.21167 0.45508,0.22225 h 0.0318 c 0.37042,0 0.635,-0.28575 0.66676,-0.635 0,-0.0529 0.0423,-1.11124 -0.0741,-2.38124 -0.16933,-1.78858 -0.5821,-3.02682 -1.248842,-3.71474 -0.20108,-0.20108 -0.42333,-0.35983 -0.64558,-0.47625 -0.27516,-0.11641 -0.55033,-0.17991 -0.82549,-0.17991 -0.43392,0 -0.8255,0.127 -1.18533,0.39158 -0.28575,0.21166 -0.55034,0.508 -0.79375,0.87841 -0.34925,0.56092 -0.62442,1.3335 -0.8255,2.29658 -0.33866,1.57691 -0.37041,3.10091 -0.37041,3.17499 0,0.37041 0.28574,0.66675 0.65616,0.66675 z m -4.46615,0.0212 c 0.83609,0 1.5875,-0.3175 2.14841,-0.91016 0.47625,-0.47625 1.016,-1.38641 0.96309,-2.91041 -0.0317,-1.10066 -0.37042,-2.03199 -1.00542,-2.67757 -0.58208,-0.59267 -1.33349,-0.91017 -2.18016,-0.91017 -0.889,0 -1.73566,0.37042 -2.36007,1.016 -0.33867,0.35983 -0.59267,0.762 -0.75142,1.21708 -0.17991,0.48683 -0.254,1.016 -0.22225,1.58749 0.0318,0.55034 0.127,1.04775 0.32808,1.51342 0.1905,0.43391 0.45509,0.81491 0.78317,1.13241 0.32808,0.29633 0.66675,0.53975 1.0795,0.6985 0.40216,0.15875 0.80433,0.24341 1.21707,0.24341 z m -6.41346,-0.0106 c 0.16933,0 0.33867,0 0.53975,-0.0106 0.73025,0 1.36525,-0.0529 1.397,-0.0529 0.35983,-0.0318 0.64558,-0.32808 0.61383,-0.70908 -0.0317,-0.34925 -0.30692,-0.61383 -0.65617,-0.61383 h -0.0423 c -0.45508,0.0317 -1.16416,0.0529 -1.84149,0.0529 -0.45508,0 -0.80433,-0.0106 -1.04775,-0.0423 -0.0317,-0.13758 -0.0529,-0.37041 -0.0847,-0.8255 -0.0318,-0.49741 -0.0212,-1.14299 0.0106,-1.90499 0.0635,-1.31233 0.17992,-2.57174 0.17992,-2.57174 0.0423,-0.37042 -0.22225,-0.68792 -0.59267,-0.73025 h -0.0635 c -0.33866,0 -0.624414,0.254 -0.666754,0.60325 -0.0106,0 -0.14816,1.47108 -0.20108,2.95274 -0.0317,0.889 -0.0212,1.59808 0.0318,2.12724 0.0317,0.34925 0.0741,0.635 0.14817,0.84667 0.137584,0.41274 0.370414,0.66674 0.687914,0.75141 0.3175,0.0847 0.84667,0.127 1.5875,0.127 z"
       inkscape:label="text" />
    <path
       id="path22027"
       style="font-size:10.5833px;line-height:0;font-family:'Fill Me With Color';-inkscape-font-specification:'Fill Me With Color';fill:#96dab6;fill-opacity:1;stroke:#000000;stroke-width:0.4;stroke-miterlimit:4;stroke-dasharray:none;stroke-opacity:1"
       d="m 102.57434,153.73699 c 0.89958,0.127 1.50282,0.49742 1.87324,0.79375 0.56091,0.45508 0.89958,1.06891 0.97366,1.70391 0.0423,0.508 -0.10583,0.94191 -0.43391,1.31233 -0.49742,0.53975 -1.29116,0.83608 -2.40241,0.889 0.0317,-0.77258 0.0423,-1.56633 0.0317,-2.48708 0,-0.67733 -0.0106,-1.37583 -0.0423,-2.21191 z m -6.455811,2.2225 c 0.116416,-0.43392 0.253999,-0.98425 0.497415,-1.43933 0.285749,-0.56092 0.613831,-0.84667 0.96308,-0.84667 0.179916,0 0.349249,0.0847 0.507998,0.24342 0.22225,0.24341 0.423332,0.635 0.582082,1.17474 0.07408,0.26459 0.137583,0.56092 0.190499,0.86784 -0.391582,0.0318 -0.793747,0.0423 -1.248829,0.0423 -0.507999,0 -0.99483,-0.0106 -1.492245,-0.0423 z m -5.587972,-2.27541 c 0.814914,0 1.809745,0.60324 1.862661,2.31774 0.02117,0.85725 -0.179916,1.50283 -0.592665,1.93674 -0.306915,0.32808 -0.740831,0.49742 -1.195913,0.49742 -0.984246,0 -2.000243,-0.79375 -2.08491,-2.30716 -0.04233,-0.94192 0.306916,-1.50283 0.613832,-1.83091 0.370415,-0.39158 0.878414,-0.61383 1.396995,-0.61383 z m 31.209413,6.06972 c 0.62442,0 1.27,-0.26458 1.778,-0.71966 0.49741,-0.43392 0.80433,-1.00542 0.87841,-1.56633 0.20108,-0.0106 0.39158,-0.0212 0.60325,-0.0529 0.17991,-0.0212 0.32808,-0.10583 0.4445,-0.24342 0.11641,-0.14816 0.15875,-0.30691 0.13758,-0.48683 -0.0317,-0.33866 -0.3175,-0.59266 -0.65617,-0.59266 h -0.0741 c -0.29633,0.0317 -0.5715,0.0529 -0.85725,0.0529 -0.24341,0 -0.49741,-0.0106 -0.75141,-0.0318 -0.20108,-0.0106 -0.41275,-0.0212 -0.635,-0.0212 -0.1905,0 -0.34925,0.0635 -0.47625,0.1905 -0.127,0.11641 -0.1905,0.28575 -0.20108,0.45508 0,0.1905 0.0635,0.34925 0.1905,0.47625 0.11642,0.127 0.27517,0.20108 0.46566,0.21166 0.15875,0 0.30692,0 0.46567,0.0106 -0.0741,0.22225 -0.22225,0.43391 -0.43392,0.62441 -0.26458,0.22225 -0.59266,0.37042 -0.87841,0.37042 0,0 -0.0106,0 -0.0212,-0.0106 -0.25399,0 -0.45509,-0.127 -0.61384,-0.37041 -0.16932,-0.254 -0.40215,-0.81492 -0.3704,-1.88383 0.0318,-0.83608 0.127,-1.47108 0.3704,-1.90499 0.14818,-0.28575 0.33868,-0.46567 0.5715,-0.53975 0.0741,-0.0317 0.16934,-0.0423 0.28575,-0.0423 0.15875,0 0.30693,0.0317 0.40218,0.0635 0.16932,0.0741 0.29632,0.13758 0.34924,0.17991 0.11642,0.254 0.33867,0.43392 0.62442,0.43392 0.37041,0 0.66675,-0.29634 0.66675,-0.66675 0,-0.508 -0.47625,-0.84666 -0.75142,-1.00541 -0.39158,-0.21167 -0.81492,-0.32809 -1.26999,-0.33867 -0.34925,0 -0.66675,0.0635 -0.94193,0.20108 -0.33865,0.15875 -0.6244,0.381 -0.85723,0.68792 -0.49742,0.64558 -0.75142,1.62983 -0.78317,2.9104 -0.0212,1.13242 0.17992,2.02141 0.59267,2.64583 0.41275,0.60325 1.00541,0.9525 1.69332,0.96308 z m -7.37656,-0.0212 c 0.0212,0 0.0318,0 0.0423,-0.0106 0.17991,-0.0106 0.33866,-0.0847 0.45508,-0.21167 0.127,-0.13758 0.17992,-0.29633 0.16933,-0.48683 0.0106,-0.0106 -0.0741,-1.26999 -0.0847,-2.61407 -0.0106,-0.55033 -0.0106,-1.03717 0,-1.4605 0.17992,0.43392 0.35984,0.92075 0.56092,1.41816 0.28575,0.73025 0.55033,1.42875 0.79375,1.9685 0.13758,0.32808 0.26458,0.56091 0.37041,0.71966 0.127,0.22225 0.35984,0.52917 0.73025,0.5715 0.0212,0.0106 0.0529,0.0106 0.0847,0.0106 0.1905,0 0.35983,-0.0635 0.508,-0.20108 0.22225,-0.20108 0.37041,-0.53975 0.45508,-1.55574 0.0423,-0.53975 0.0635,-1.22767 0.0741,-2.07433 0,-1.40758 -0.0529,-2.79399 -0.0529,-2.84691 -0.0106,-0.37041 -0.28575,-0.635 -0.65617,-0.635 h -0.0318 c -0.35983,0 -0.66675,0.32809 -0.635,0.68792 0,0.0106 0.0423,1.25941 0.0423,2.60349 0,0.508 -0.0106,0.9525 -0.0212,1.34408 -0.13758,-0.33867 -0.26458,-0.6985 -0.42333,-1.0795 -0.29633,-0.762 -0.59267,-1.55574 -0.87842,-2.15899 -0.15875,-0.34925 -0.29633,-0.60325 -0.41274,-0.78317 -0.0847,-0.16933 -0.37043,-0.56091 -0.82551,-0.56091 h -0.0635 c -0.13757,0.0106 -0.40217,0.0741 -0.60325,0.381 -0.0741,0.11642 -0.127,0.24341 -0.15875,0.381 -0.0529,0.17991 -0.10582,0.45508 -0.13757,0.80433 -0.0423,0.51858 -0.0635,1.23824 -0.0529,2.12724 0,1.48166 0.0952,2.96333 0.0952,3.02683 0.0318,0.37041 0.30691,0.63499 0.65617,0.63499 z m -4.6249,0 c 0.381,0 0.78316,-0.0106 1.19591,-0.0317 0.33866,-0.0318 0.68791,-0.0423 1.03716,-0.0423 0.1905,-0.0106 0.34925,-0.0847 0.46567,-0.20108 0.127,-0.13759 0.1905,-0.29634 0.1905,-0.47625 -0.0106,-0.1905 -0.0847,-0.34925 -0.20109,-0.46567 -0.127,-0.127 -0.28574,-0.1905 -0.46566,-0.1905 h -0.0106 c -0.381,0.0106 -0.74083,0.0106 -1.09008,0.0423 -0.0741,0 -0.15875,0.0106 -0.24342,0.0106 0.0529,-1.25941 0.0423,-2.34949 0.0106,-3.53482 0,-0.32808 -0.0106,-0.68792 -0.0106,-1.05833 0.51858,-0.0106 1.00541,-0.0529 1.47108,-0.13758 0.37041,-0.0529 0.62441,-0.39159 0.55033,-0.762 -0.0529,-0.32808 -0.32808,-0.56092 -0.65616,-0.56092 -0.0318,0 -0.0741,0.0106 -0.10584,0.0106 -0.47625,0.0847 -0.95249,0.11641 -1.53458,0.11641 -0.41274,0 -0.80433,-0.0212 -1.18533,-0.0318 -0.28574,-0.0106 -0.53974,-0.0317 -0.80433,-0.0317 -0.20108,0 -0.35983,0.0635 -0.48683,0.1905 -0.127,0.11642 -0.1905,0.28575 -0.20108,0.45508 0,0.37042 0.28575,0.67734 0.65616,0.68792 0.254,0 0.49742,0.0106 0.78317,0.0212 0.0529,0.0106 0.10583,0.0106 0.17991,0.0106 0,0.381 0.0106,0.77258 0.0106,1.11125 0.0318,1.18532 0.0423,2.29657 0,3.53482 -0.32808,-0.0317 -0.60325,-0.0635 -0.86783,-0.11642 -0.0423,-0.0106 -0.0952,-0.0106 -0.13759,-0.0106 -0.32808,0 -0.58208,0.21166 -0.65616,0.51858 -0.0318,0.17992 0,0.34925 0.0953,0.49741 0.0952,0.14817 0.23283,0.24342 0.41275,0.29634 0.49741,0.11641 0.99483,0.14816 1.59808,0.14816 z m -7.36597,0.0317 c 2.07433,0 3.13266,-0.71966 3.70416,-1.32291 0.58208,-0.635 0.84666,-1.46049 0.77258,-2.33891 -0.0529,-0.47625 -0.20109,-0.9525 -0.4445,-1.40758 -0.254,-0.45508 -0.59267,-0.85724 -1.00542,-1.19591 -0.42333,-0.34925 -0.92074,-0.635 -1.49224,-0.83608 -0.60325,-0.20108 -1.22766,-0.30692 -1.89441,-0.30692 h -0.0317 c -0.17992,0 -0.33867,0.0635 -0.47625,0.20109 -0.13758,0.13758 -0.1905,0.30691 -0.17992,0.48683 0.0423,1.14299 0.0635,2.05316 0.0635,2.91041 0.0106,1.14299 -0.0106,2.16957 -0.0635,3.09032 -0.0106,0.1905 0.0423,0.34925 0.16934,0.48683 0.11641,0.13758 0.26458,0.21167 0.46566,0.22225 0.13758,0.0106 0.27517,0.0106 0.41275,0.0106 z m -7.196628,-0.0212 c 0.17992,0 0.33866,-0.0635 0.46566,-0.1905 0.13759,-0.11642 0.20109,-0.27517 0.20109,-0.45508 0,0 0.0106,-0.81492 0.14816,-1.82033 0.59267,0.0317 1.13242,0.0529 1.7145,0.0529 0.508,0 0.9525,-0.0212 1.40758,-0.0529 0.0635,0.96308 0.0318,1.74624 0.0318,1.74624 -0.0106,0.17992 0.0423,0.33867 0.17991,0.47625 0.11642,0.13758 0.26459,0.21167 0.45508,0.22225 h 0.0318 c 0.370418,0 0.634998,-0.28575 0.666748,-0.635 0,-0.0529 0.0423,-1.11124 -0.0741,-2.38124 -0.16933,-1.78858 -0.582078,-3.02682 -1.248828,-3.71474 -0.20108,-0.20108 -0.42333,-0.35983 -0.64558,-0.47625 -0.27516,-0.11641 -0.55033,-0.17991 -0.82549,-0.17991 -0.43392,0 -0.8255,0.127 -1.18533,0.39158 -0.28575,0.21166 -0.55034,0.508 -0.79375,0.87841 -0.34925,0.56092 -0.62442,1.3335 -0.8255,2.29658 -0.33866,1.57691 -0.37041,3.10091 -0.37041,3.17499 0,0.37041 0.28574,0.66675 0.65616,0.66675 z m -4.46615,0.0212 c 0.83609,0 1.5875,-0.3175 2.14841,-0.91016 0.47625,-0.47625 1.016,-1.38641 0.96309,-2.91041 -0.0317,-1.10066 -0.37042,-2.03199 -1.00542,-2.67757 -0.58208,-0.59267 -1.33349,-0.91017 -2.18016,-0.91017 -0.889,0 -1.73566,0.37042 -2.36007,1.016 -0.33867,0.35983 -0.59267,0.762 -0.75142,1.21708 -0.17991,0.48683 -0.254,1.016 -0.22225,1.58749 0.0318,0.55034 0.127,1.04775 0.32808,1.51342 0.1905,0.43391 0.45509,0.81491 0.78317,1.13241 0.32808,0.29633 0.66675,0.53975 1.0795,0.6985 0.40216,0.15875 0.80433,0.24341 1.21707,0.24341 z m -6.41346,-0.0106 c 0.16933,0 0.33867,0 0.53975,-0.0106 0.73025,0 1.36525,-0.0529 1.397,-0.0529 0.35983,-0.0318 0.64558,-0.32808 0.61383,-0.70908 -0.0317,-0.34925 -0.30692,-0.61383 -0.65617,-0.61383 h -0.0423 c -0.45508,0.0317 -1.16416,0.0529 -1.84149,0.0529 -0.45508,0 -0.80433,-0.0106 -1.04775,-0.0423 -0.0317,-0.13758 -0.0529,-0.37041 -0.0847,-0.8255 -0.0318,-0.49741 -0.0212,-1.14299 0.0106,-1.90499 0.0635,-1.31233 0.17992,-2.57174 0.17992,-2.57174 0.0423,-0.37042 -0.22225,-0.68792 -0.59267,-0.73025 h -0.0635 c -0.33866,0 -0.62441,0.254 -0.66675,0.60325 -0.0106,0 -0.14816,1.47108 -0.20108,2.95274 -0.0317,0.889 -0.0212,1.59808 0.0318,2.12724 0.0317,0.34925 0.0741,0.635 0.14817,0.84667 0.13758,0.41274 0.37041,0.66674 0.68791,0.75141 0.3175,0.0847 0.84667,0.127 1.5875,0.127 z"
       inkscape:label="text" />
  </g>
</svg>
