<?xml version="1.0" encoding="UTF-8" standalone="no"?>
<svg
   xmlns:dc="http://purl.org/dc/elements/1.1/"
   xmlns:cc="http://creativecommons.org/ns#"
   xmlns:rdf="http://www.w3.org/1999/02/22-rdf-syntax-ns#"
   xmlns:svg="http://www.w3.org/2000/svg"
   xmlns="http://www.w3.org/2000/svg"
   xmlns:sodipodi="http://sodipodi.sourceforge.net/DTD/sodipodi-0.dtd"
   xmlns:inkscape="http://www.inkscape.org/namespaces/inkscape"
   viewBox="0 0 154.11 119.96144"
   version="1.1"
   id="svg174"
   sodipodi:docname="lumination.svg"
   width="154.11"
   height="119.96144"
   inkscape:version="1.0.1 (3bc2e813f5, 2020-09-07)">
  <metadata
     id="metadata178">
    <rdf:RDF>
      <cc:Work
         rdf:about="">
        <dc:format>image/svg+xml</dc:format>
        <dc:type
           rdf:resource="http://purl.org/dc/dcmitype/StillImage" />
        <dc:title></dc:title>
      </cc:Work>
    </rdf:RDF>
  </metadata>
  <sodipodi:namedview
     pagecolor="#ffffff"
     bordercolor="#666666"
     borderopacity="1"
     objecttolerance="10"
     gridtolerance="10"
     guidetolerance="10"
     inkscape:pageopacity="0"
     inkscape:pageshadow="2"
     inkscape:window-width="1920"
     inkscape:window-height="1017"
     id="namedview176"
     showgrid="false"
     inkscape:zoom="2.7053617"
     inkscape:cx="85.996669"
     inkscape:cy="63.552663"
     inkscape:window-x="-8"
     inkscape:window-y="-8"
     inkscape:window-maximized="1"
     inkscape:current-layer="svg174"
     inkscape:document-rotation="0"
     inkscape:pagecheckerboard="true" />
  <defs
     id="defs4">
    <style
       id="style2">.cls-1,.cls-2{fill:#ffffff;}.cls-2{fill-rule:evenodd;}</style>
  </defs>
  <g
     id="g904"
     transform="matrix(0.36287703,0,0,0.36287703,-109.58886,45.179028)">
    <path
       class="cls-2"
       d="m 670.16,161.89 a 21.26,21.26 0 0 0 -16,-7.29 22.42,22.42 0 0 0 -16.48,7.29 24.74,24.74 0 0 0 -6.58,16.71 23.82,23.82 0 0 0 6.6,16.82 22.44,22.44 0 0 0 16.46,7.27 21.23,21.23 0 0 0 16,-7.26 23.24,23.24 0 0 0 6.7,-16.83 23.76,23.76 0 0 0 -6.7,-16.71 z m -4.46,16.71 a 13.7,13.7 0 0 1 -3.44,9.4 11.49,11.49 0 0 1 -8.12,3.27 12,12 0 0 1 -8.44,-3.21 14.49,14.49 0 0 1 -3.21,-9.46 14.07,14.07 0 0 1 3.14,-9.21 12.88,12.88 0 0 1 8.51,-3.37 12.51,12.51 0 0 1 8.1,3.33 13.33,13.33 0 0 1 3.46,9.25 z"
       id="path10" />
    <path
       class="cls-2"
       d="m 308,136.14 a 6.11,6.11 0 0 0 -6,6 v 54.47 a 6.09,6.09 0 0 0 12.17,0 V 142.18 A 6.09,6.09 0 0 0 308,136.14 Z"
       id="path12" />
    <path
       class="cls-2"
       d="m 555.68,161.89 a 21.26,21.26 0 0 0 -16,-7.29 22.4,22.4 0 0 0 -16.48,7.29 24.75,24.75 0 0 0 -6.59,16.71 23.87,23.87 0 0 0 6.6,16.82 22.47,22.47 0 0 0 16.47,7.27 21.19,21.19 0 0 0 16,-7.26 23.21,23.21 0 0 0 6.71,-16.83 23.76,23.76 0 0 0 -6.71,-16.71 z m -4.47,16.71 a 13.69,13.69 0 0 1 -3.43,9.4 11.52,11.52 0 0 1 -8.12,3.27 12,12 0 0 1 -8.45,-3.21 14.48,14.48 0 0 1 -3.2,-9.46 14.06,14.06 0 0 1 3.13,-9.21 12.91,12.91 0 0 1 8.52,-3.37 12.46,12.46 0 0 1 8.09,3.33 13.29,13.29 0 0 1 3.46,9.25 z"
       id="path14" />
    <path
       class="cls-2"
       d="m 562.19,175.8 c 0,0 -12,5.61 -12,8.88 v 12 a 6.09,6.09 0 0 0 12.17,0 v -12 c -0.01,-3.33 -0.17,-8.88 -0.17,-8.88 z"
       id="path16" />
    <path
       class="cls-2"
       d="m 358.64,154.6 a 5.82,5.82 0 0 0 -5.76,5.86 v 22 a 8.63,8.63 0 0 1 -8.74,8.48 8.37,8.37 0 0 1 -8.45,-8.46 v -22.02 a 5.87,5.87 0 0 0 -5.85,-5.86 5.93,5.93 0 0 0 -5.86,5.86 v 22.06 a 20.31,20.31 0 0 0 40.61,0 v -22.06 a 6.06,6.06 0 0 0 -5.95,-5.86 z"
       id="path18" />
    <path
       class="cls-2"
       d="m 404.56,202.69 a 5.82,5.82 0 0 1 -5.76,-5.86 v -22.05 a 8.61,8.61 0 0 0 -8.73,-8.47 8.37,8.37 0 0 0 -8.46,8.46 v 22.06 a 5.86,5.86 0 0 1 -5.85,5.86 6,6 0 0 1 -5.86,-5.86 v -22.06 a 20.31,20.31 0 0 1 40.61,0 v 22.06 a 6.06,6.06 0 0 1 -5.95,5.86 z"
       id="path20" />
    <path
       class="cls-2"
       d="m 433.31,202.69 a 5.82,5.82 0 0 1 -5.76,-5.86 v -22.05 a 8.61,8.61 0 0 0 -8.73,-8.47 8.36,8.36 0 0 0 -8.45,8.46 v 22.06 a 5.87,5.87 0 0 1 -5.86,5.86 5.94,5.94 0 0 1 -5.85,-5.86 v -22.06 a 20.3,20.3 0 0 1 40.6,0 v 22.06 a 6.06,6.06 0 0 1 -5.95,5.86 z"
       id="path22" />
    <path
       class="cls-2"
       d="m 504.51,202.69 a 5.82,5.82 0 0 1 -5.76,-5.86 v -22.05 a 8.61,8.61 0 0 0 -8.73,-8.47 8.37,8.37 0 0 0 -8.46,8.46 v 22.06 a 5.86,5.86 0 0 1 -5.85,5.86 5.94,5.94 0 0 1 -5.86,-5.86 v -22.06 a 20.31,20.31 0 0 1 40.61,0 v 22.06 a 6.06,6.06 0 0 1 -5.95,5.86 z"
       id="path24" />
    <path
       class="cls-2"
       d="m 718.42,202.69 a 5.82,5.82 0 0 1 -5.77,-5.86 v -22.05 a 8.61,8.61 0 0 0 -8.73,-8.47 8.36,8.36 0 0 0 -8.45,8.46 v 22.06 a 5.87,5.87 0 0 1 -5.86,5.86 5.94,5.94 0 0 1 -5.85,-5.86 v -22.06 a 20.3,20.3 0 0 1 40.6,0 v 22.06 a 6.06,6.06 0 0 1 -5.94,5.86 z"
       id="path26" />
    <path
       class="cls-2"
       d="m 454.59,154.6 a 6.12,6.12 0 0 0 -6,6 v 36 a 6.09,6.09 0 0 0 12.17,0 v -36 a 6.09,6.09 0 0 0 -6.17,-6 z"
       id="path28" />
    <circle
       class="cls-2"
       cx="454.63"
       cy="142.22"
       r="6.0900002"
       id="circle30" />
    <path
       class="cls-2"
       d="m 615.62,154.6 a 6.12,6.12 0 0 0 -6,6 v 36 a 6.09,6.09 0 0 0 12.17,0 v -36 a 6.1,6.1 0 0 0 -6.17,-6 z"
       id="path32" />
    <circle
       class="cls-2"
       cx="615.66998"
       cy="142.22"
       r="6.0900002"
       id="circle34" />
    <path
       class="cls-2"
       d="M 596.9,148.52 H 590 v -5.65 a 6.64,6.64 0 0 0 -5.82,-6.7 6.45,6.45 0 0 0 -7.09,6.42 v 5.93 h -8.33 a 6.28,6.28 0 0 0 -6.33,6.16 6.08,6.08 0 0 0 6,6 h 8.63 v 35.56 a 6.44,6.44 0 0 0 6.44,6.44 v 0 a 6.44,6.44 0 0 0 6.44,-6.44 v -9.06 a 0.24,0.24 0 0 0 0,-0.09 v -26.4 h 7.16 a 6.09,6.09 0 0 0 6,-6 6.28,6.28 0 0 0 -6.2,-6.17 z"
       id="path36" />
  </g>
  <text
     xml:space="preserve"
     style="font-size:11.6121px;line-height:0;font-family:'Fill Me With Color';-inkscape-font-specification:'Fill Me With Color';stroke-width:0.362877"
     x="42.389378"
     y="83.55291"
     id="text888"><tspan
       sodipodi:role="line"
       id="tspan886"
       x="42.389378"
       y="83.55291"
       style="font-style:normal;font-variant:normal;font-weight:normal;font-stretch:normal;font-size:11.6121px;font-family:Poppins;-inkscape-font-specification:Poppins;fill:#ffffff;stroke-width:0.362877">Powered by</tspan></text>
  <path
     id="polygon8"
     style="fill:#ffffff;stroke-width:0.466503"
     d="m 67.666626,52.793643 -0.378923,-3.272756 11.929564,-2.608215 0.117601,3.032924 z m 8.427787,8.593463 c -3.630156,-0.661545 -6.708723,-3.281305 -7.977948,-6.788986 -0.515344,-1.424224 -0.844084,-3.937883 -0.51517,-3.939159 0.07187,-3.13e-4 2.482603,-0.141169 5.357197,-0.313083 2.874594,-0.171918 5.39117,-0.314476 5.592392,-0.316794 l 0.365857,-0.0044 -0.261327,-0.149383 c -0.143729,-0.08221 -0.449482,-0.154279 -0.679449,-0.160211 -0.765926,-0.01973 -0.117445,-0.175115 4.834544,-1.1583 l 4.834544,-0.959866 v -0.716248 c 0,-0.503843 -0.03877,-0.715962 -0.130663,-0.715273 -0.07187,4.35e-4 -5.304932,0.992027 -11.629039,2.203293 -10.370999,1.986379 -11.637179,2.207984 -12.914073,2.260271 -2.056785,0.08421 -3.235125,-0.172079 -5.169735,-1.124406 -3.195207,-1.572873 -5.291091,-4.633501 -5.687405,-8.305346 -0.06205,-0.574922 -0.4226,-6.313652 -0.801215,-12.752742 C 50.539199,15.287762 50.513294,14.009487 50.988812,12.453278 51.899779,9.471996 53.767024,7.235807 56.444116,5.92009 57.642765,5.330982 58.519337,5.084511 61.878239,4.392138 64.04878,3.944726 64.424677,3.89584 65.745874,3.889159 c 1.624173,-0.0082 2.470836,0.140773 3.876926,0.682206 2.401318,0.924671 4.449431,2.800569 5.591168,5.121052 0.540281,1.098077 0.890767,2.269236 1.029562,3.44031 0.06473,0.546172 0.399652,5.838034 0.744263,11.759697 0.344612,5.921664 0.637372,10.793752 0.650572,10.826866 0.0132,0.03314 2.187794,-0.35962 4.832419,-0.872731 4.757152,-0.922989 4.826239,-0.933058 6.480903,-0.944591 1.766564,-0.01228 2.175192,0.05461 3.736148,0.611909 2.932738,1.047044 5.287938,3.51389 6.305492,6.604415 0.350326,1.064018 0.524208,2.461976 0.680795,5.473369 0.174941,3.364302 2.5e-5,4.653331 -0.901281,6.642106 -0.956635,2.110854 -2.881385,4.050146 -5.012744,5.050627 -1.169454,0.548955 -1.926264,0.735473 -7.918177,1.95147 -5.742945,1.165477 -6.045558,1.215892 -7.500097,1.249421 -0.932645,0.02152 -1.797167,-0.01632 -2.24741,-0.09841 z M 65.69361,37.839222 c 0,-0.45838 -1.262849,-21.613666 -1.291947,-21.642769 -0.02591,-0.02588 -1.641076,0.290386 -1.713803,0.335601 -0.01464,0.0091 0.255834,4.802488 0.601051,10.651969 0.345222,5.849475 0.627677,10.763715 0.627677,10.920533 v 0.285125 l 0.888512,-0.1612 c 0.794231,-0.144095 0.88851,-0.185398 0.88851,-0.389259 z" />
</svg>
