<?xml version="1.0" encoding="UTF-8" standalone="no"?>
<svg
   xmlns:dc="http://purl.org/dc/elements/1.1/"
   xmlns:cc="http://creativecommons.org/ns#"
   xmlns:rdf="http://www.w3.org/1999/02/22-rdf-syntax-ns#"
   xmlns:svg="http://www.w3.org/2000/svg"
   xmlns="http://www.w3.org/2000/svg"
   xmlns:sodipodi="http://sodipodi.sourceforge.net/DTD/sodipodi-0.dtd"
   xmlns:inkscape="http://www.inkscape.org/namespaces/inkscape"
   viewBox="0 0 57.60239 57.60239"
   version="1.1"
   id="svg174"
   sodipodi:docname="lumination_logo_only.svg"
   width="57.60239"
   height="57.60239"
   inkscape:version="1.0.1 (3bc2e813f5, 2020-09-07)">
  <metadata
     id="metadata178">
    <rdf:RDF>
      <cc:Work
         rdf:about="">
        <dc:format>image/svg+xml</dc:format>
        <dc:type
           rdf:resource="http://purl.org/dc/dcmitype/StillImage" />
        <dc:title></dc:title>
      </cc:Work>
    </rdf:RDF>
  </metadata>
  <sodipodi:namedview
     pagecolor="#ffffff"
     bordercolor="#666666"
     borderopacity="1"
     objecttolerance="10"
     gridtolerance="10"
     guidetolerance="10"
     inkscape:pageopacity="0"
     inkscape:pageshadow="2"
     inkscape:window-width="1920"
     inkscape:window-height="1017"
     id="namedview176"
     showgrid="false"
     inkscape:zoom="2.7053617"
     inkscape:cx="35.323548"
     inkscape:cy="59.663821"
     inkscape:window-x="-8"
     inkscape:window-y="-8"
     inkscape:window-maximized="1"
     inkscape:current-layer="svg174"
     inkscape:document-rotation="0"
     inkscape:pagecheckerboard="true" />
  <defs
     id="defs4">
    <style
       id="style2">.cls-1,.cls-2{fill:#ffffff;}.cls-2{fill-rule:evenodd;}</style>
  </defs>
  <path
     id="polygon8"
     style="fill:#ffffff;stroke-width:0.466503"
     d="m 20.993505,48.904801 -0.378923,-3.272756 11.929564,-2.608215 0.117601,3.032924 z m 8.427787,8.593463 C 25.791136,56.836719 22.712569,54.216959 21.443344,50.709278 20.928,49.285054 20.59926,46.771395 20.928174,46.770119 c 0.07187,-3.13e-4 2.482603,-0.141169 5.357197,-0.313083 2.874594,-0.171918 5.39117,-0.314476 5.592392,-0.316794 l 0.365857,-0.0044 -0.261327,-0.149383 c -0.143729,-0.08221 -0.449482,-0.154279 -0.679449,-0.160211 -0.765926,-0.01973 -0.117445,-0.175115 4.834544,-1.1583 l 4.834544,-0.959866 v -0.716248 c 0,-0.503843 -0.03877,-0.715962 -0.130663,-0.715273 -0.07187,4.35e-4 -5.304932,0.992027 -11.629039,2.203293 -10.370999,1.986379 -11.637179,2.207984 -12.914073,2.260271 -2.056785,0.08421 -3.235125,-0.172079 -5.169735,-1.124406 C 7.9332146,44.042846 5.8373306,40.982218 5.4410166,37.310373 5.3789666,36.735451 5.0184166,30.996721 4.6398016,24.557631 3.8660776,11.39892 3.8401726,10.120645 4.3156907,8.5644358 5.2266576,5.5831538 7.0939026,3.3469648 9.770995,2.0312478 10.969644,1.4421398 11.846216,1.1956688 15.205118,0.5032958 17.375659,0.0558838 17.751556,0.0069978 19.072753,3.1679786e-4 20.696926,-0.0078832 21.543589,0.1410898 22.949679,0.6825228 c 2.401318,0.924671 4.449431,2.800569 5.591168,5.121052 0.540281,1.098077 0.890767,2.269236 1.029562,3.44031 0.06473,0.546172 0.399652,5.8380342 0.744263,11.7596972 0.344612,5.921664 0.637372,10.793752 0.650572,10.826866 0.0132,0.03314 2.187794,-0.35962 4.832419,-0.872731 4.757152,-0.922989 4.826239,-0.933058 6.480903,-0.944591 1.766564,-0.01228 2.175192,0.05461 3.736148,0.611909 2.932738,1.047044 5.287938,3.51389 6.305492,6.604415 0.350326,1.064018 0.524208,2.461976 0.680795,5.473369 0.174941,3.364302 2.5e-5,4.653331 -0.901281,6.642106 -0.956635,2.110854 -2.881385,4.050146 -5.012744,5.050627 -1.169454,0.548955 -1.926264,0.735473 -7.918177,1.95147 -5.742945,1.165477 -6.045558,1.215892 -7.500097,1.249421 -0.932645,0.02152 -1.797167,-0.01632 -2.24741,-0.09841 z M 19.020489,33.95038 c 0,-0.45838 -1.262849,-21.613666 -1.291947,-21.642769 -0.02591,-0.02588 -1.641076,0.290386 -1.713803,0.335601 -0.01464,0.0091 0.255834,4.802488 0.601051,10.651969 0.345222,5.849475 0.627677,10.763715 0.627677,10.920533 v 0.285125 l 0.888512,-0.1612 c 0.794231,-0.144095 0.88851,-0.185398 0.88851,-0.389259 z" />
</svg>
