<?xml version="1.0" encoding="UTF-8" standalone="no"?>
<svg
   xmlns:dc="http://purl.org/dc/elements/1.1/"
   xmlns:cc="http://creativecommons.org/ns#"
   xmlns:rdf="http://www.w3.org/1999/02/22-rdf-syntax-ns#"
   xmlns:svg="http://www.w3.org/2000/svg"
   xmlns="http://www.w3.org/2000/svg"
   xmlns:sodipodi="http://sodipodi.sourceforge.net/DTD/sodipodi-0.dtd"
   xmlns:inkscape="http://www.inkscape.org/namespaces/inkscape"
   width="220mm"
   height="220mm"
   viewBox="0 0 220 220"
   version="1.1"
   id="svg8"
   inkscape:version="1.0.1 (3bc2e813f5, 2020-09-07)"
   sodipodi:docname="select_cube.svg">
  <defs
     id="defs2" />
  <sodipodi:namedview
     id="base"
     pagecolor="#ffffff"
     bordercolor="#666666"
     borderopacity="1.0"
     inkscape:pageopacity="0.0"
     inkscape:pageshadow="2"
     inkscape:zoom="0.49497474"
     inkscape:cx="593.45259"
     inkscape:cy="249.08008"
     inkscape:document-units="mm"
     inkscape:current-layer="layer1"
     inkscape:document-rotation="0"
     showgrid="false"
     inkscape:snap-global="false"
     inkscape:pagecheckerboard="true"
     inkscape:window-width="1920"
     inkscape:window-height="1017"
     inkscape:window-x="-8"
     inkscape:window-y="-8"
     inkscape:window-maximized="1" />
  <metadata
     id="metadata5">
    <rdf:RDF>
      <cc:Work
         rdf:about="">
        <dc:format>image/svg+xml</dc:format>
        <dc:type
           rdf:resource="http://purl.org/dc/dcmitype/StillImage" />
        <dc:title />
      </cc:Work>
    </rdf:RDF>
  </metadata>
  <g
     inkscape:label="Layer 1"
     inkscape:groupmode="layer"
     id="layer1"
     transform="translate(-12.357281,-5.4349779)">
    <path
       id="path202-3-8-1-1"
       style="font-size:35.2778px;line-height:0;font-family:'Fill Me With Color';-inkscape-font-specification:'Fill Me With Color';fill:#cccccc;fill-opacity:1;stroke:none;stroke-width:1.6;stroke-linecap:round;stroke-linejoin:round;stroke-miterlimit:4;stroke-dasharray:none;stroke-opacity:1"
       d="m 64.42747,177.13735 c -2.431923,0.13678 -4.585108,0.68383 -6.461166,1.70909 -2.15399,1.02525 -4.099674,2.52882 -5.6978,4.64768 -3.335209,4.3061 -5.072566,10.32099 -5.142054,18.18131 -0.06953,6.9034 1.459287,12.44025 4.655539,16.54126 2.848832,3.75929 6.878329,5.94591 11.60322,6.56106 0.903304,0.13678 1.736962,0.20525 2.640248,0.20525 3.265739,0 6.462247,-0.75232 9.311079,-2.18768 3.960561,-1.91382 6.739845,-4.92098 7.573642,-8.27015 0.347422,-1.0936 0.209074,-2.18667 -0.41628,-3.21194 -0.62535,-1.02524 -1.529246,-1.70902 -2.710484,-1.98242 -0.208444,-0.0684 -0.555866,-0.13718 -1.042241,-0.13718 -2.015035,0 -3.751861,1.29916 -4.238236,3.21295 -0.347422,1.43537 -3.891546,3.96487 -8.47748,3.96487 -0.486378,0 -0.972162,-5.3e-4 -1.458539,-0.0692 -2.709876,-0.34175 -4.864062,-1.7085 -6.462189,-4.16912 -1.598127,-2.52897 -2.292415,-5.94694 -2.222927,-10.38973 0,-5.74144 1.249819,-15.4468 8.82354,-15.99362 h 0.695176 c 1.80657,0 3.543927,0.41005 5.142054,1.29861 1.389682,0.75186 1.876057,1.50404 2.084503,1.7091 0.27795,2.11886 2.153457,3.69051 4.307449,3.69051 0.208444,0 0.417025,2.9e-4 0.486516,-0.068 1.250704,-0.13678 2.22328,-0.68337 2.918121,-1.57192 0.76431,-0.95691 1.042792,-2.051 0.903817,-3.21295 -0.347401,-2.93905 -2.640645,-5.87847 -6.184295,-7.86061 -2.987808,-1.70879 -6.322958,-2.5972 -9.658165,-2.5972 z m 53.29443,0 c -2.43195,0.2734 -4.09987,2.39259 -3.82194,4.78487 1.04224,8.5438 1.11222,15.72059 0.13945,21.53039 -0.76432,4.92123 -2.2242,8.74847 -4.23923,10.86733 -1.18123,1.36699 -2.63984,2.0505 -4.30746,2.0505 h -0.13944 c -1.73712,0 -3.19545,-0.68279 -4.37667,-1.98143 -1.806574,-2.05054 -3.058162,-5.60538 -3.683515,-10.59499 -0.764329,-5.53639 -0.555728,-12.57608 0.486513,-21.1199 0.277953,-2.39226 -1.388991,-4.51146 -3.820914,-4.78486 h -0.486516 c -2.223479,0 -4.099753,1.64048 -4.377685,3.8277 -1.042241,9.09062 -1.250825,16.81406 -0.486516,23.10232 0.41691,3.21247 1.112007,6.08359 2.015292,8.61254 1.04226,2.66569 2.223815,4.78468 3.821938,6.63014 1.459172,1.64042 3.056607,2.87058 4.863179,3.62244 1.737104,0.75185 3.752474,1.23025 5.906464,1.2986 h 0.27786 c 4.169,0 7.78183,-1.64048 10.76963,-4.85295 3.19625,-3.48588 5.35071,-8.61216 6.39296,-15.37886 1.11175,-6.63 1.04254,-14.55857 -0.0691,-23.85423 -0.20845,-2.11887 -2.08498,-3.75961 -4.30846,-3.75961 z m 20.77588,0 c -1.59813,0 -3.2658,0.0685 -4.93341,0.20523 -2.43194,0.20507 -4.23906,2.11928 -4.03058,4.51156 0.76429,13.05494 0.48637,25.49455 0,37.45591 -0.0696,2.11886 1.31983,3.89589 3.47382,4.37435 4.16902,0.88856 8.06032,1.2986 11.67346,1.2986 5.83664,0 10.83974,-1.16216 14.52236,-3.28103 1.87606,-1.16195 3.40435,-2.52897 4.5161,-4.10103 1.18121,-1.84546 1.80665,-3.69079 1.80665,-5.67294 0,-2.18721 -0.6946,-4.23748 -2.15374,-6.21963 -1.32019,-1.77712 -3.12696,-3.28121 -5.41993,-4.51153 -1.11173,-0.61515 -2.22293,-1.09301 -3.26519,-1.43477 2.15402,-1.36699 3.75217,-2.87138 4.93342,-4.44345 1.38966,-2.0505 1.94487,-4.16884 1.73641,-6.2877 -0.34743,-3.82764 -2.98718,-6.97228 -7.71207,-9.09114 -4.03007,-1.84547 -9.10222,-2.80243 -15.1473,-2.80243 z m 49.26383,0 c -3.54366,0 -6.39268,0.20537 -8.54669,0.68383 -1.80657,0.41011 -3.2662,0.95677 -4.30846,1.57194 -2.43192,1.43535 -3.12698,3.41711 -3.33542,4.71577 -0.55588,2.80237 -1.18069,11.34669 -1.18069,19.34372 -0.0696,4.51112 0.0689,8.20183 0.4163,11.07256 0.20844,1.84547 0.55642,3.21287 0.90383,4.51153 0.69485,2.05051 1.73737,3.48533 3.05756,4.2372 1.32017,0.88856 3.82098,1.7091 10.83883,1.7091 1.45917,0 3.05716,2.7e-4 4.72476,-0.068 5.48921,-0.20506 10.42272,-0.75192 10.63118,-0.75192 2.43192,-0.20505 4.16909,-2.32453 3.89116,-4.71679 -0.20845,-2.18722 -2.08395,-3.82769 -4.30744,-3.82769 H 200.06 l -2.98834,0.27333 c -1.87606,0.20505 -4.23837,0.34215 -6.80925,0.41051 -1.66761,0.0683 -3.19563,0.068 -4.5853,0.068 -3.26574,0 -4.86475,-0.1364 -5.76804,-0.34142 -0.20844,-1.02525 -0.69492,-3.41772 -0.76439,-8.40731 1.6676,0.0684 3.33528,0.0692 4.93342,0.0692 5.21128,0 10.2147,-0.27349 15.21751,-0.75193 1.18123,-0.13659 2.1538,-0.68437 2.91812,-1.57293 0.76432,-1.02525 1.04177,-2.04999 0.90282,-3.21194 -0.20845,-2.18721 -2.08397,-3.82769 -4.30745,-3.82769 -0.20845,0 -0.41703,-2.6e-4 -0.48652,0.068 -4.6554,0.47846 -9.31115,0.75192 -14.24448,0.75192 -1.59814,0 -3.26506,-0.0678 -4.86318,-0.1362 0.20846,-5.12628 0.55566,-9.84267 0.8336,-12.50832 0.90329,-0.27342 3.05768,-0.75194 7.71309,-0.75194 h 2.5008 c 5.14178,0.20507 10.00598,0.82 10.07546,0.82 h 0.55573 c 2.22349,0 4.03027,-1.57165 4.37769,-3.69051 0.13906,-1.16196 -0.13965,-2.25602 -0.90384,-3.21293 -0.76432,-0.95691 -1.73688,-1.50332 -2.9181,-1.64001 -0.20845,0 -6.32247,-0.88909 -12.64548,-0.88909 z m -49.33407,7.87967 h 0.0703 c 4.72489,0 8.68543,0.68375 11.46479,1.98242 2.15399,1.02526 2.70946,1.84546 2.70946,2.0505 0,0.2734 -0.41696,1.29845 -2.84889,2.87051 -1.87606,1.09362 -5.14186,2.66569 -11.18694,4.10104 0,-3.82762 -0.0697,-7.51862 -0.20867,-11.00447 z m 1.1125,20.23178 c 7.57372,0 11.8813,1.4357 14.17425,2.73435 2.22348,1.29866 3.05756,2.46108 3.05756,3.21294 0,0.75187 -0.76433,1.64009 -2.08453,2.39194 -2.29295,1.36702 -5.83723,2.0505 -10.00625,2.0505 -1.94554,0 -4.09926,-0.13698 -6.32275,-0.47858 0.20845,-3.62257 0.2084,-6.83464 0.27788,-9.84206 0.20844,-0.0684 0.48695,-0.0692 0.90384,-0.0692 z" />
    <path
       style="fill:#409a98;stroke-width:0.356855"
       d="m 118.13892,152.15321 c -0.13121,-0.13043 -0.2386,-16.35764 -0.2386,-36.06038 0,-33.672107 0.0377,-35.855942 0.62631,-36.369128 1.34164,-1.1695 62.18986,-35.816797 62.44924,-35.558913 0.1515,0.150623 0.23442,16.486474 0.18428,36.301875 l -0.0912,36.027986 -31.26729,17.94789 c -17.19703,9.87134 -31.30261,17.94789 -31.34573,17.94789 -0.0431,0 -0.1858,-0.10686 -0.31701,-0.23722 z"
       id="path991-3" />
    <path
       style="fill:#cde67e;stroke-width:0.359529"
       d="M 86.475601,62.644774 C 69.478442,52.848638 55.623774,44.670275 55.68744,44.47067 55.832775,44.014928 117.55932,8.4513589 118.237,8.4329189 c 0.71957,-0.01961 62.71751,35.6034701 62.73485,36.0464881 0.0214,0.545387 -61.56225,35.843774 -62.66044,35.91563 -0.64366,0.04195 -10.49071,-5.448195 -31.835809,-17.750263 z"
       id="path981-8" />
    <path
       style="fill:#97dab6;fill-opacity:1;stroke-width:0.360764"
       d="M 87.033,134.57608 55.795493,116.73642 55.702953,80.638483 c -0.07415,-28.912487 -9.12e-4,-36.027031 0.363228,-35.741622 15.897854,9.272357 33.303357,18.990956 50.036279,28.565014 2.49718,1.430539 6.29745,3.605737 8.44502,4.833769 l 3.9047,2.232835 v 35.977661 c 0,19.78771 -0.0409,35.96237 -0.0908,35.94362 -0.05,-0.0187 -14.1477,-8.06188 -31.32834,-17.87368 z"
       id="path971-1"
       sodipodi:nodetypes="scsccscscs" />
    <path
       style="fill:#070808;stroke-width:0.274783"
       d="m 117.50922,150.16216 c -0.50613,-0.33793 -13.96555,-8.13518 -29.909783,-17.32722 -15.944238,-9.19206 -29.205911,-16.8991 -29.470388,-17.12678 -0.453269,-0.39021 -0.480875,-2.41257 -0.480875,-35.226101 0,-32.813558 0.02763,-34.835926 0.480875,-35.226121 0.264477,-0.227688 13.52615,-7.934736 29.470388,-17.12678 15.944233,-9.192043 29.403653,-16.989297 29.909783,-17.327235 l 0.92027,-0.614408 1.1406,0.778803 c 0.62733,0.428335 14.06224,8.223865 29.85534,17.323387 15.79312,9.09953 28.93114,16.732609 29.19562,16.962394 0.45324,0.393797 0.48087,2.41787 0.48087,35.22996 0,32.812131 -0.0276,34.836121 -0.48087,35.229741 -0.26448,0.22967 -13.4025,7.86251 -29.19562,16.96187 -15.7931,9.09935 -29.22801,16.89497 -29.85534,17.3236 l -1.1406,0.77931 z m -3.32331,-39.49771 -0.07,-28.07138 L 90.347201,68.864486 C 77.274437,61.313761 66.361568,55.074387 66.096371,54.999221 65.638597,54.869453 65.61774,56.284452 65.684197,82.971246 l 0.07004,28.108674 3.297393,1.90383 c 1.813557,1.0471 4.966682,2.86863 7.006942,4.04784 2.040259,1.17921 8.037381,4.64076 13.326935,7.69235 5.289563,3.05158 11.348513,6.54716 13.464323,7.76794 2.11583,1.22077 5.39261,3.12326 7.28174,4.22774 1.88912,1.10447 3.58992,2.00996 3.77955,2.01219 0.27474,0.003 0.33055,-5.69825 0.27478,-28.06736 z m 32.8038,14.21107 24.00613,-13.86035 0.07,-27.822776 c 0.0385,-15.302534 -0.0252,-27.917971 -0.14148,-28.034286 -0.19914,-0.199152 -46.91665,26.557391 -47.94673,27.460544 -0.452,0.396305 -0.48087,2.082785 -0.48087,28.086208 0,23.93081 0.0624,28.03099 0.42658,28.03099 0.0331,0 10.86297,-6.23715 24.06636,-13.86033 z M 123.4488,72.937891 c 2.49899,-1.442532 6.61479,-3.818568 9.14623,-5.280087 2.53143,-1.46152 6.89016,-3.972968 9.68607,-5.580999 2.79591,-1.60804 9.34947,-5.377452 14.56346,-8.376487 5.21399,-2.999035 9.59834,-5.558196 9.74299,-5.687033 0.16379,-0.145873 0.11197,-0.380589 -0.13739,-0.622203 -0.22021,-0.213375 -5.161,-3.132332 -10.97951,-6.486569 C 133.36449,28.16085 124.73538,23.178254 121.8202,21.4742 c -1.87904,-1.098374 -3.23011,-1.71913 -3.59139,-1.650065 -0.51256,0.09794 -7.20267,3.912722 -31.453721,17.93506 -3.70269,2.140952 -8.926526,5.159558 -11.608526,6.708017 -2.682,1.548451 -4.935729,2.911431 -5.008296,3.02884 -0.07259,0.117419 0.08153,0.397005 0.342452,0.621319 0.260921,0.224319 9.871942,5.824889 21.357842,12.445703 11.485889,6.620832 22.119969,12.75674 23.631269,13.635361 1.51131,0.878621 2.89801,1.544566 3.08159,1.479878 0.18355,-0.06466 2.37837,-1.297872 4.87738,-2.740422 z"
       id="path967-4"
       sodipodi:nodetypes="sssscsscssssssscsccssscssssscscccccsssscsssssssscssssssss" />
    <path
       style="fill:#cde67e;stroke-width:0.274783"
       d="m 179.50992,80.482059 c 0,-19.117975 0.0328,-26.938968 0.0728,-17.379985 0.0401,9.559001 0.0401,25.200969 0,34.759951 -0.0401,9.558965 -0.0728,1.737968 -0.0728,-17.379966 z"
       id="path979-4" />
    <path
       style="fill:#cde67e;stroke-width:0.274783"
       d="m 57.304664,97.862025 c -15.407277,-99.2464518 -7.703639,-49.623217 0,0 z"
       id="path977-8"
       sodipodi:nodetypes="cc" />
    <path
       style="fill:#409a98;stroke-width:0.321738"
       d="m 119.738,146.44779 c -0.11796,-0.11795 -0.21449,-14.79096 -0.21449,-32.60668 0,-30.44712 0.0338,-32.421799 0.56303,-32.885838 1.2061,-1.05748 55.90713,-32.386432 56.1403,-32.153246 0.13619,0.136197 0.21073,14.907488 0.16566,32.825046 l -0.082,32.577388 -28.10851,16.22891 c -15.4597,8.92591 -28.14025,16.22892 -28.17901,16.22892 -0.0388,0 -0.16703,-0.0966 -0.285,-0.2145 z"
       id="path991-9" />
    <path
       style="fill:#cde67e;stroke-width:0.32684"
       d="M 89.523108,62.136175 C 74.107851,53.209585 61.542611,45.757178 61.600349,45.575281 61.732159,45.159996 117.71393,12.753218 118.32854,12.73641 c 0.6526,-0.01788 56.88051,32.44315 56.89623,32.846834 0.0194,0.496988 -55.83276,32.662122 -56.82875,32.727593 -0.58374,0.03821 -9.51435,-4.964584 -28.872912,-16.174662 z"
       id="path981-85" />
    <path
       style="fill:#97dab6;fill-opacity:1;stroke-width:0.326509"
       d="M 88.281898,130.18645 60.202131,113.93032 60.118957,81.036604 c -0.06667,-26.346074 -0.0018,-32.82912 0.326511,-32.56905 14.290781,8.449318 29.936781,17.305247 44.978182,26.029458 2.24476,1.303562 5.66086,3.285683 7.59134,4.404731 l 3.50998,2.034615 v 32.784112 c 0,18.03128 -0.0368,32.77019 -0.0816,32.75312 -0.045,-0.0171 -12.71753,-7.34627 -28.161405,-16.28714 z"
       id="path971-4"
       sodipodi:nodetypes="scsccscscs" />
    <g
       id="g1215-1-4"
       transform="matrix(1.7718518,0,0,1.8571361,-753.43022,-270.5838)">
      <path
         id="path202-3-8"
         style="font-size:35.2778px;line-height:0;font-family:'Fill Me With Color';-inkscape-font-specification:'Fill Me With Color';stroke-width:0.264583"
         d="m 329.9301,230.11124 c -1.23472,0.0706 -2.32792,0.35295 -3.28042,0.88212 -1.09361,0.52916 -2.08146,1.3052 -2.89285,2.39881 -1.69333,2.22251 -2.57541,5.32698 -2.61069,9.38393 -0.0353,3.56306 0.7409,6.4208 2.36368,8.53746 1.44639,1.94028 3.49222,3.06886 5.89111,3.38636 0.45862,0.0706 0.88188,0.10594 1.34049,0.10594 1.65806,0 3.28097,-0.3883 4.72736,-1.12913 2.01083,-0.98778 3.42191,-2.53987 3.84524,-4.26848 0.17639,-0.56444 0.10615,-1.12861 -0.21135,-1.65778 -0.3175,-0.52916 -0.77642,-0.88208 -1.37615,-1.02319 -0.10583,-0.0353 -0.28222,-0.0708 -0.52916,-0.0708 -1.02306,0 -1.90487,0.67053 -2.15181,1.6583 -0.17639,0.74084 -1.97579,2.04639 -4.30413,2.04639 -0.24694,0 -0.49358,-2.7e-4 -0.74052,-0.0357 -1.37584,-0.17639 -2.46955,-0.88181 -3.28094,-2.15181 -0.81139,-1.30528 -1.16389,-3.0694 -1.12861,-5.36246 0,-2.96333 0.63455,-7.97257 4.47983,-8.2548 h 0.35295 c 0.91722,0 1.7993,0.21164 2.61069,0.67025 0.70556,0.38806 0.9525,0.77628 1.05833,0.88212 0.14112,1.09361 1.09334,1.90479 2.18695,1.90479 0.10583,0 0.21173,1.4e-4 0.24701,-0.0351 0.635,-0.0706 1.12879,-0.35271 1.48157,-0.81132 0.38805,-0.49389 0.52944,-1.05858 0.45888,-1.6583 -0.17638,-1.51694 -1.34069,-3.03406 -3.13985,-4.05711 -1.51695,-0.88195 -3.21025,-1.34049 -4.90358,-1.34049 z m 27.0583,0 c -1.23473,0.14111 -2.08156,1.23489 -1.94045,2.46962 0.52916,4.40972 0.56469,8.11388 0.0708,11.1125 -0.38805,2.54 -1.12926,4.51535 -2.15232,5.60896 -0.59972,0.70555 -1.34028,1.05833 -2.18695,1.05833 h -0.0708 c -0.88195,0 -1.62237,-0.35241 -2.22209,-1.02268 -0.91722,-1.05834 -1.55267,-2.89311 -1.87017,-5.4684 -0.38806,-2.8575 -0.28215,-6.4909 0.24701,-10.90063 0.14112,-1.23472 -0.70521,-2.3285 -1.93993,-2.46961 h -0.24701 c -1.12889,0 -2.0815,0.8467 -2.22261,1.97559 -0.52916,4.69195 -0.63506,8.67826 -0.24701,11.92382 0.21167,1.65806 0.56458,3.13993 1.02319,4.4452 0.52917,1.37584 1.12906,2.46952 1.94045,3.42202 0.74084,0.84667 1.55188,1.48159 2.4691,1.86965 0.88195,0.38805 1.90518,0.63497 2.99879,0.67025 h 0.14107 c 2.11667,0 3.95094,-0.8467 5.46789,-2.50476 1.62278,-1.79917 2.71663,-4.445 3.24579,-7.9375 0.56445,-3.42195 0.52931,-7.51413 -0.0351,-12.31191 -0.10583,-1.09361 -1.05857,-1.94045 -2.18746,-1.94045 z m 10.54819,0 c -0.81139,0 -1.65809,0.0354 -2.50476,0.10593 -1.23472,0.10584 -2.15222,1.09382 -2.04638,2.32855 0.38805,6.73806 0.24694,13.15853 0,19.33215 -0.0353,1.09361 0.6701,2.01079 1.76371,2.25774 2.11667,0.45861 4.09233,0.67025 5.92677,0.67025 2.96334,0 5.50348,-0.59983 7.3732,-1.69344 0.9525,-0.59972 1.72843,-1.30528 2.29288,-2.11667 0.59972,-0.9525 0.91726,-1.90493 0.91726,-2.92798 0,-1.12889 -0.35265,-2.18709 -1.09348,-3.21014 -0.67028,-0.91723 -1.5876,-1.69354 -2.75177,-2.32854 -0.56444,-0.3175 -1.12861,-0.56414 -1.65778,-0.74053 1.09362,-0.70555 1.90503,-1.48201 2.50476,-2.2934 0.70555,-1.05833 0.98744,-2.15167 0.8816,-3.24528 -0.17639,-1.97556 -1.51663,-3.59861 -3.91552,-4.69222 -2.04612,-0.9525 -4.62132,-1.44642 -7.69049,-1.44642 z m 25.01191,0 c -1.79916,0 -3.24565,0.106 -4.33927,0.35295 -0.91722,0.21167 -1.65829,0.49382 -2.18746,0.81132 -1.23472,0.74083 -1.58761,1.76368 -1.69344,2.43396 -0.28223,1.44639 -0.59945,5.85638 -0.59945,9.98389 -0.0353,2.32833 0.035,4.23322 0.21136,5.71489 0.10583,0.9525 0.2825,1.65826 0.45889,2.32854 0.35278,1.05833 0.88208,1.79889 1.55236,2.18695 0.67027,0.45861 1.93996,0.88212 5.50302,0.88212 0.74084,0 1.55216,1.6e-4 2.39882,-0.0351 2.78695,-0.10584 5.29176,-0.38809 5.3976,-0.38809 1.23472,-0.10583 2.1167,-1.19976 1.97559,-2.43448 -0.10583,-1.12889 -1.05805,-1.97559 -2.18694,-1.97559 h -0.24702 l -1.51722,0.14108 c -0.9525,0.10583 -2.15188,0.17659 -3.45715,0.21187 -0.84667,0.0353 -1.62246,0.0351 -2.32802,0.0351 -1.65806,0 -2.4699,-0.0704 -2.92851,-0.17622 -0.10583,-0.52916 -0.35282,-1.76399 -0.38809,-4.33927 0.84666,0.0353 1.69337,0.0357 2.50476,0.0357 2.64584,0 5.18614,-0.14115 7.72614,-0.38809 0.59972,-0.0705 1.09351,-0.35323 1.48157,-0.81184 0.38805,-0.52916 0.52892,-1.05806 0.45837,-1.65778 -0.10583,-1.12889 -1.05806,-1.97559 -2.18695,-1.97559 -0.10583,0 -0.21173,-1.4e-4 -0.24701,0.0351 -2.36361,0.24695 -4.7274,0.38809 -7.23212,0.38809 -0.81139,0 -1.65771,-0.035 -2.4691,-0.0703 0.10584,-2.64583 0.28212,-5.0801 0.42323,-6.45593 0.45861,-0.14112 1.55243,-0.3881 3.91604,-0.3881 h 1.26969 c 2.61055,0.10584 5.08017,0.42323 5.11545,0.42323 h 0.28215 c 1.12889,0 2.04622,-0.81118 2.22261,-1.90479 0.0706,-0.59972 -0.0709,-1.1644 -0.45889,-1.65829 -0.38806,-0.49389 -0.88184,-0.77591 -1.48156,-0.84646 -0.10583,0 -3.21,-0.45889 -6.42028,-0.45889 z m -25.04757,4.06694 h 0.0357 c 2.39889,0 4.40971,0.35291 5.82083,1.02319 1.09361,0.52917 1.37563,0.9525 1.37563,1.05833 0,0.14111 -0.2117,0.67017 -1.44642,1.48156 -0.9525,0.56445 -2.61059,1.37584 -5.67976,2.11667 0,-1.97555 -0.0354,-3.88059 -0.10594,-5.67975 z m 0.56483,10.44225 c 3.84528,0 6.0323,0.74101 7.19646,1.41128 1.12889,0.67028 1.55236,1.27024 1.55236,1.6583 0,0.38806 -0.38806,0.8465 -1.05834,1.23455 -1.16416,0.70556 -2.96364,1.05833 -5.08031,1.05833 -0.98778,0 -2.08125,-0.0707 -3.21014,-0.24701 0.10583,-1.86972 0.1058,-3.52757 0.14108,-5.07979 0.10583,-0.0353 0.24723,-0.0357 0.45889,-0.0357 z" />
      <path
         id="path279-5-6"
         style="font-size:35.2778px;line-height:0;font-family:'Fill Me With Color';-inkscape-font-specification:'Fill Me With Color';fill:#339999;fill-opacity:1;stroke-width:0.264583"
         d="m 329.96561,231.16965 c -1.02306,0.0706 -1.97577,0.3177 -2.85771,0.74104 -0.9525,0.49388 -1.79921,1.19944 -2.50475,2.11666 -1.58751,2.01084 -2.36352,4.93882 -2.39882,8.74882 -0.0353,3.3514 0.70541,5.96208 2.1518,7.90236 1.27,1.69334 3.06958,2.71605 5.18625,2.99827 0.38805,0.0353 0.77608,0.0708 1.19941,0.0708 1.48167,0 2.89263,-0.35292 4.26847,-1.0232 1.72861,-0.84666 2.89289,-2.15197 3.28094,-3.56309 0.10584,-0.24694 0.0704,-0.5641 -0.10594,-0.8816 -0.17639,-0.28222 -0.38788,-0.4586 -0.70538,-0.52916 -0.0705,-0.0353 -0.17632,-0.0357 -0.28215,-0.0357 -0.52917,0 -0.98802,0.31781 -1.12913,0.84698 -0.17639,0.74083 -0.81133,1.37586 -1.86966,1.97559 -1.05834,0.59972 -2.22242,0.8816 -3.45715,0.8816 -0.28222,0 -0.5999,1.4e-4 -0.88212,-0.0351 -0.88195,-0.14111 -1.65826,-0.42313 -2.32854,-0.84646 -0.67028,-0.45861 -1.23431,-1.05854 -1.69292,-1.79938 -0.88195,-1.51694 -1.34064,-3.4926 -1.30534,-5.92677 0.0353,-2.82222 0.49368,-5.00951 1.37562,-6.59701 0.45862,-0.77611 1.02302,-1.4109 1.72858,-1.90479 0.67027,-0.45861 1.48173,-0.74077 2.36368,-0.81132 h 0.42323 c 1.09361,0 2.18736,0.28215 3.13986,0.81132 0.98778,0.56444 1.44653,1.19944 1.55236,1.5875 v 0.0351 c 0.10583,0.56444 0.56454,1.02319 1.16427,1.02319 0.0353,0 0.10578,1.4e-4 0.14108,-0.0351 0.3175,-0.0353 0.56451,-0.1768 0.77618,-0.42375 0.17637,-0.24694 0.24665,-0.52896 0.21135,-0.84646 -0.14111,-1.23472 -1.09374,-2.39899 -2.61069,-3.28093 -1.34056,-0.81139 -2.78691,-1.19941 -4.37441,-1.19941 z m 27.16371,0 c -0.67027,0.10583 -1.1285,0.59992 -1.02267,1.2702 0.52912,4.48028 0.59945,8.29021 0.0703,11.39466 -0.42333,2.82222 -1.23452,4.8685 -2.43396,6.17378 -0.81139,0.9525 -1.79919,1.41077 -3.03392,1.41077 -1.23472,-0.0353 -2.25795,-0.49369 -2.99879,-1.37563 -1.09361,-1.23472 -1.76375,-3.2809 -2.1518,-6.06785 -0.38806,-2.96333 -0.28216,-6.63222 0.24701,-11.1125 0.10583,-0.67027 -0.35291,-1.19951 -1.02319,-1.30534 h -0.10594 c -0.59972,0 -1.05843,0.42347 -1.16427,1.02319 -0.52916,4.65667 -0.63456,8.57236 -0.2465,11.67681 0.24694,1.5875 0.52907,3.03402 0.9524,4.19819 0.42333,1.27 1.02303,2.29281 1.72858,3.1042 0.635,0.70556 1.34055,1.23473 2.11666,1.5875 0.74083,0.35278 1.58764,0.56469 2.6107,0.59997 h 0.10542 c 1.83445,0 3.38694,-0.70542 4.69222,-2.15181 1.44639,-1.65806 2.46961,-4.09236 2.99878,-7.37319 0.52912,-3.38667 0.49365,-7.33781 -0.0708,-12.02976 -0.0353,-0.59972 -0.52941,-1.02319 -1.12913,-1.02319 z m 10.40712,0 c -0.77611,0 -1.5878,0.0354 -2.43447,0.10593 -0.67027,0.10584 -1.09364,0.56428 -1.05834,1.23455 0.38806,6.73806 0.24694,13.22934 0,19.40295 -0.0353,0.56445 0.35282,1.0583 0.91726,1.19941 2.04612,0.42334 3.95152,0.63511 5.71541,0.63511 2.82222,0 5.07975,-0.52931 6.80837,-1.55236 0.88194,-0.49389 1.51698,-1.0933 1.97559,-1.79886 0.49389,-0.74083 0.74104,-1.51715 0.74104,-2.32854 0,-0.91722 -0.31753,-1.76416 -0.91725,-2.57555 -0.59972,-0.81139 -1.37628,-1.48143 -2.39934,-2.04587 -0.74083,-0.38806 -1.5874,-0.74097 -2.5399,-1.0232 -0.21167,-0.0706 -0.35279,-0.21142 -0.38809,-0.45837 -0.0353,-0.24694 0.10578,-0.42333 0.28216,-0.52916 l 0.84697,-0.45889 c 0.98778,-0.635 1.76373,-1.34018 2.29289,-2.08101 0.52917,-0.81139 0.81172,-1.69375 0.70589,-2.54041 -0.10583,-1.55223 -1.30575,-2.89274 -3.31659,-3.84525 -1.905,-0.88194 -4.30354,-1.34048 -7.2316,-1.34048 z m 25.01191,0 c -1.65805,0 -3.06919,0.106 -4.09225,0.35295 -0.81139,0.14111 -1.44633,0.35274 -1.86966,0.67024 -0.88195,0.52917 -1.12922,1.16427 -1.23506,1.69344 -0.17639,1.48167 -0.56431,5.7502 -0.56431,9.80715 -0.0353,2.29306 0.0355,4.16271 0.21187,5.57382 0.10583,0.88195 0.24684,1.58736 0.42323,2.15181 0.24694,0.77611 0.59959,1.30565 1.09348,1.62315 0.56445,0.28223 1.55256,0.70539 4.93923,0.70539 0.70556,0 1.51649,1.4e-4 2.36316,-0.0351 2.75166,-0.10584 5.2215,-0.38809 5.32733,-0.38809 0.67028,-0.10584 1.1285,-0.59993 1.02267,-1.27021 -0.0353,-0.59972 -0.52889,-1.02319 -1.12861,-1.02319 h -0.14108 l -1.51722,0.14107 c -0.9525,0.10584 -2.22215,0.1766 -3.52743,0.21188 -0.84666,0.0353 -1.65812,0.0351 -2.36368,0.0351 -2.08139,0 -2.99854,-0.14118 -3.45715,-0.24702 -0.17639,-0.0353 -0.31765,-0.17604 -0.35295,-0.35243 -0.24695,-0.52917 -0.49362,-1.94048 -0.59945,-5.50354 0,-0.14111 0.0704,-0.28226 0.17622,-0.38809 0.10584,-0.10583 0.24698,-0.17636 0.38809,-0.14108 1.02306,0.0353 2.04614,0.0351 3.03392,0.0351 2.57528,0 5.07968,-0.14114 7.61969,-0.38809 0.3175,-0.0353 0.56451,-0.17628 0.77618,-0.42323 0.21164,-0.28222 0.28231,-0.56423 0.24701,-0.84646 -0.10583,-0.59972 -0.56454,-1.05833 -1.16427,-1.05833 -0.0353,0 -0.10577,-1.4e-4 -0.14107,0.0351 -2.39889,0.24695 -4.79754,0.38809 -7.33754,0.38809 -0.98778,0 -2.04614,-0.035 -3.03392,-0.0703 -0.28222,-0.0353 -0.52917,-0.24732 -0.52917,-0.56482 0.10584,-3.03389 0.31712,-5.99722 0.49351,-7.40833 0.0353,-0.17639 0.14142,-0.31754 0.31781,-0.38809 0.42334,-0.24695 1.65809,-0.59945 4.62142,-0.59945 h 1.30535 c 2.68112,0.10583 5.22087,0.42323 5.22087,0.42323 h 0.14108 c 0.59972,0 1.05843,-0.42361 1.16427,-0.98805 0.0353,-0.35278 -0.0353,-0.63466 -0.24702,-0.8816 -0.21166,-0.24695 -0.45868,-0.38795 -0.77618,-0.42323 -0.10583,0 -3.13933,-0.45889 -6.31434,-0.45889 z m -25.61187,2.32854 h 0.59996 c 2.54,0 4.72699,0.38791 6.27921,1.09347 1.16416,0.56444 1.86976,1.30531 1.97559,1.97559 0.10582,0.74083 -0.63466,1.62257 -1.93994,2.43396 -1.09361,0.67028 -3.06962,1.58795 -6.63267,2.39934 h -0.14108 c -0.10583,0 -0.21145,-0.0354 -0.31729,-0.10594 -0.10583,-0.10583 -0.17657,-0.24684 -0.21187,-0.42323 0,-2.36361 -0.0349,-4.65694 -0.10542,-6.80889 0,-0.17639 0.0352,-0.28225 0.14108,-0.38809 0.10582,-0.10584 0.2466,-0.17621 0.35243,-0.17621 z m 1.12913,10.44225 c 4.09223,0 6.45563,0.84629 7.72563,1.55185 1.30528,0.70555 2.08152,1.62305 2.08152,2.57555 0,0.77611 -0.52931,1.48153 -1.55236,2.15181 -1.37584,0.81139 -3.28049,1.19941 -5.6441,1.19941 -1.19944,0 -2.46993,-0.10564 -3.84576,-0.3173 -0.28222,-0.0353 -0.42323,-0.21166 -0.42323,-0.52916 0.10581,-2.29306 0.10578,-4.2334 0.14108,-6.06785 0,-0.28222 0.21179,-0.52917 0.49403,-0.52917 0.38805,0 0.63514,-0.0351 1.02319,-0.0351 z" />
    </g>
    <path
       id="path202-3-8-1"
       style="font-size:35.2778px;line-height:0;font-family:'Fill Me With Color';-inkscape-font-specification:'Fill Me With Color';fill:#339999;fill-opacity:1;stroke:#000000;stroke-width:1.6;stroke-linecap:round;stroke-linejoin:round;stroke-miterlimit:4;stroke-dasharray:none;stroke-opacity:1"
       d="m 59.615864,173.94624 c -2.431923,0.13678 -4.585107,0.68383 -6.461165,1.70909 -2.15399,1.02525 -4.099674,2.52882 -5.6978,4.64768 -3.335209,4.3061 -5.072566,10.32099 -5.142054,18.18131 -0.06953,6.9034 1.459287,12.44025 4.655539,16.54126 2.848832,3.75929 6.878329,5.94591 11.603219,6.56106 0.903304,0.13678 1.736963,0.20525 2.640248,0.20525 3.26574,0 6.462248,-0.75232 9.311079,-2.18768 3.96056,-1.91382 6.739845,-4.92098 7.573642,-8.27015 0.347421,-1.0936 0.209075,-2.18667 -0.416278,-3.21194 -0.625353,-1.02524 -1.529248,-1.70902 -2.710486,-1.98242 -0.208444,-0.0684 -0.555865,-0.13718 -1.042241,-0.13718 -2.015034,0 -3.75186,1.29916 -4.238237,3.21295 -0.34742,1.43537 -3.891545,3.96487 -8.477479,3.96487 -0.486377,0 -0.972162,-5.2e-4 -1.458538,-0.0692 -2.709876,-0.34175 -4.864063,-1.7085 -6.462189,-4.16912 -1.598127,-2.52897 -2.292415,-5.94694 -2.222927,-10.38973 0,-5.74144 1.249819,-15.4468 8.823539,-15.99362 h 0.695177 c 1.806569,0 3.543927,0.41005 5.142053,1.29861 1.389682,0.75186 1.876058,1.50404 2.084503,1.7091 0.277952,2.11886 2.153459,3.69051 4.307449,3.69051 0.208445,0 0.417027,2.8e-4 0.486515,-0.068 1.250705,-0.13678 2.223281,-0.68337 2.918122,-1.57192 0.764309,-0.95691 1.042793,-2.051 0.903816,-3.21295 -0.3474,-2.93905 -2.640643,-5.87847 -6.184294,-7.86061 -2.987808,-1.70879 -6.322957,-2.5972 -9.658164,-2.5972 z m 53.294426,0 c -2.43194,0.2734 -4.09986,2.39259 -3.82194,4.78487 1.04225,8.5438 1.11223,15.72059 0.13945,21.53039 -0.76431,4.92123 -2.2242,8.74847 -4.23923,10.86733 -1.18123,1.36699 -2.63984,2.0505 -4.30745,2.0505 h -0.13945 c -1.737112,0 -3.195449,-0.68279 -4.376667,-1.98143 -1.80657,-2.05054 -3.058162,-5.60538 -3.683514,-10.59499 -0.764329,-5.53639 -0.555727,-12.57608 0.486514,-21.1199 0.277952,-2.39226 -1.388993,-4.51146 -3.820916,-4.78486 h -0.486514 c -2.223479,0 -4.099753,1.64048 -4.377685,3.8277 -1.042242,9.09062 -1.250825,16.81406 -0.486515,23.10232 0.416908,3.21247 1.112005,6.08359 2.01529,8.61254 1.042261,2.66569 2.223814,4.78468 3.821939,6.63014 1.45917,1.64042 3.056606,2.87058 4.863177,3.62244 1.737102,0.75185 3.752472,1.23025 5.906461,1.2986 h 0.27786 c 4.16901,0 7.78183,-1.64048 10.76963,-4.85295 3.19626,-3.48588 5.35072,-8.61216 6.39296,-15.37886 1.11175,-6.63 1.04254,-14.55857 -0.0691,-23.85423 -0.20845,-2.11887 -2.08498,-3.75961 -4.30846,-3.75961 z m 20.77588,0 c -1.59813,0 -3.2658,0.0685 -4.93341,0.20523 -2.43193,0.20507 -4.23905,2.11928 -4.03058,4.51156 0.7643,13.05494 0.48637,25.49455 0,37.45591 -0.0696,2.11886 1.31983,3.89589 3.47382,4.37435 4.16902,0.88856 8.06032,1.2986 11.67346,1.2986 5.83664,0 10.83974,-1.16216 14.52236,-3.28103 1.87606,-1.16195 3.40435,-2.52897 4.5161,-4.10103 1.18121,-1.84546 1.80665,-3.69079 1.80665,-5.67294 0,-2.18721 -0.6946,-4.23748 -2.15374,-6.21963 -1.32019,-1.77712 -3.12696,-3.28121 -5.41993,-4.51153 -1.11173,-0.61515 -2.22293,-1.09301 -3.26519,-1.43477 2.15402,-1.36699 3.75217,-2.87138 4.93342,-4.44345 1.38966,-2.0505 1.94487,-4.16884 1.73641,-6.2877 -0.34743,-3.82764 -2.98718,-6.97228 -7.71207,-9.09114 -4.03007,-1.84547 -9.10222,-2.80243 -15.1473,-2.80243 z m 49.26383,0 c -3.54366,0 -6.39268,0.20537 -8.54669,0.68383 -1.80657,0.41011 -3.2662,0.95677 -4.30846,1.57194 -2.43192,1.43535 -3.12698,3.41711 -3.33542,4.71577 -0.55588,2.80237 -1.18069,11.34669 -1.18069,19.34372 -0.0696,4.51112 0.0689,8.20183 0.4163,11.07256 0.20844,1.84547 0.55642,3.21287 0.90383,4.51153 0.69485,2.05051 1.73737,3.48533 3.05756,4.2372 1.32017,0.88856 3.82098,1.7091 10.83883,1.7091 1.45917,0 3.05716,3.2e-4 4.72476,-0.068 5.48921,-0.20506 10.42272,-0.75192 10.63118,-0.75192 2.43192,-0.20505 4.16909,-2.32453 3.89116,-4.71679 -0.20845,-2.18722 -2.08395,-3.82769 -4.30744,-3.82769 h -0.48653 l -2.98834,0.27333 c -1.87606,0.20505 -4.23837,0.34215 -6.80925,0.41051 -1.66761,0.0683 -3.19563,0.068 -4.5853,0.068 -3.26574,0 -4.86475,-0.1364 -5.76804,-0.34142 -0.20844,-1.02525 -0.69492,-3.41772 -0.76439,-8.40731 1.6676,0.0684 3.33528,0.0692 4.93342,0.0692 5.21128,0 10.2147,-0.27349 15.21751,-0.75193 1.18123,-0.13659 2.1538,-0.68437 2.91812,-1.57293 0.76432,-1.02525 1.04177,-2.04999 0.90282,-3.21194 -0.20845,-2.18721 -2.08397,-3.82769 -4.30745,-3.82769 -0.20845,0 -0.41703,-2.7e-4 -0.48652,0.068 -4.6554,0.47846 -9.31115,0.75192 -14.24448,0.75192 -1.59814,0 -3.26506,-0.0678 -4.86318,-0.1362 0.20846,-5.12628 0.55566,-9.84267 0.8336,-12.50832 0.90329,-0.27342 3.05768,-0.75194 7.71309,-0.75194 h 2.5008 c 5.14178,0.20507 10.00598,0.82 10.07546,0.82 h 0.55573 c 2.22349,0 4.03027,-1.57165 4.37769,-3.69051 0.13906,-1.16196 -0.13965,-2.25602 -0.90384,-3.21293 -0.76432,-0.95691 -1.73688,-1.50332 -2.9181,-1.64001 -0.20845,0 -6.32247,-0.88909 -12.64548,-0.88909 z m -49.33407,7.87967 h 0.0703 c 4.72489,0 8.68543,0.68375 11.46479,1.98242 2.15399,1.02526 2.70946,1.84546 2.70946,2.0505 0,0.2734 -0.41696,1.29845 -2.84889,2.87051 -1.87606,1.09362 -5.14186,2.66569 -11.18694,4.10104 0,-3.82762 -0.0697,-7.51862 -0.20867,-11.00447 z m 1.1125,20.23178 c 7.57372,0 11.8813,1.4357 14.17425,2.73435 2.22348,1.29866 3.05756,2.46108 3.05756,3.21294 0,0.75187 -0.76433,1.64009 -2.08453,2.39194 -2.29295,1.36702 -5.83723,2.0505 -10.00625,2.0505 -1.94554,0 -4.09926,-0.13698 -6.32275,-0.47858 0.20845,-3.62257 0.2084,-6.83464 0.27788,-9.84206 0.20844,-0.0684 0.48695,-0.0692 0.90384,-0.0692 z" />
  </g>
</svg>
