{
    "asset" : {
        "generator" : "Khronos glTF Blender I/O v1.6.16",
        "version" : "2.0"
    },
    "scene" : 0,
    "scenes" : [
        {
            "name" : "Scene",
            "nodes" : [
                6
            ]
        }
    ],
    "nodes" : [
        {
            "mesh" : 0,
            "name" : "AUNZ",
            "rotation" : [
                0.7865661978721619,
                -0.1035533994436264,
                0.07945933192968369,
                0.603553295135498
            ],
            "scale" : [
                15.035465240478516,
                8.785643577575684,
                15.035466194152832
            ],
            "translation" : [
                -6.714560508728027,
                2.2395009994506836,
                -5.281820297241211
            ]
        },
        {
            "mesh" : 1,
            "name" : "Base",
            "scale" : [
                2.207818031311035,
                1.8515734672546387,
                2.207818031311035
            ],
            "translation" : [
                -6.916905403137207,
                -3.435865879058838,
                -5.057175636291504
            ]
        },
        {
            "mesh" : 2,
            "name" : "Bottom",
            "rotation" : [
                -0.17216289043426514,
                -0.12854322791099548,
                0.022665539756417274,
                0.9763825535774231
            ],
            "scale" : [
                3.7075486183166504,
                3.7075486183166504,
                3.7075490951538086
            ],
            "translation" : [
                -7.042800426483154,
                1.994368553161621,
                -5.448475360870361
            ]
        },
        {
            "mesh" : 3,
            "name" : "Continent",
            "rotation" : [
                -0.02105318382382393,
                0.0027717086486518383,
                0.1304967850446701,
                0.9912213087081909
            ],
            "scale" : [
                15.035465240478516,
                8.785642623901367,
                15.035466194152832
            ],
            "translation" : [
                -6.714560508728027,
                2.175854206085205,
                -5.7444610595703125
            ]
        },
        {
            "mesh" : 4,
            "name" : "Africa",
            "rotation" : [
                0.43848228454589844,
                0.19442033767700195,
                0.5615034103393555,
                0.6742759346961975
            ],
            "scale" : [
                15.035466194152832,
                8.785643577575684,
                15.035466194152832
            ],
            "translation" : [
                -7.0680766105651855,
                2.2385644912719727,
                -5.5104241371154785
            ]
        },
        {
            "mesh" : 5,
            "name" : "USA",
            "rotation" : [
                0.4350062310695648,
                -0.5162450075149536,
                -0.2613580524921417,
                0.6898931860923767
            ],
            "scale" : [
                15.035466194152832,
                8.785643577575684,
                15.035466194152832
            ],
            "translation" : [
                -6.6412482261657715,
                1.7475194931030273,
                -5.192625522613525
            ]
        },
        {
            "children" : [
                0,
                1,
                2,
                3,
                4,
                5
            ],
            "name" : "Empty",
            "scale" : [
                6.576229572296143,
                6.576229572296143,
                6.576229572296143
            ],
            "translation" : [
                52.589439392089844,
                35.48662567138672,
                35.20841979980469
            ]
        }
    ],
    "materials" : [
        {
            "doubleSided" : true,
            "name" : "Land",
            "pbrMetallicRoughness" : {
                "baseColorFactor" : [
                    0.029556840658187866,
                    0.32314333319664,
                    0.32314333319664,
                    1
                ],
                "metallicFactor" : 0
            }
        },
        {
            "doubleSided" : true,
            "name" : "Wood",
            "pbrMetallicRoughness" : {
                "baseColorTexture" : {
                    "index" : 0
                },
                "metallicFactor" : 0,
                "roughnessFactor" : 0.699999988079071
            }
        },
        {
            "doubleSided" : true,
            "name" : "Shine",
            "pbrMetallicRoughness" : {
                "baseColorTexture" : {
                    "index" : 1
                },
                "metallicFactor" : 0.75,
                "roughnessFactor" : 0.05000000074505806
            }
        },
        {
            "doubleSided" : true,
            "name" : "Material.001",
            "pbrMetallicRoughness" : {
                "baseColorFactor" : [
                    0.08411858975887299,
                    0.13182181119918823,
                    0.4681728184223175,
                    1
                ],
                "metallicFactor" : 0.10000000149011612,
                "roughnessFactor" : 0.8999999761581421
            }
        },
        {
            "doubleSided" : true,
            "name" : "Core.001",
            "pbrMetallicRoughness" : {
                "baseColorTexture" : {
                    "index" : 2
                },
                "metallicFactor" : 0
            }
        }
    ],
    "meshes" : [
        {
            "name" : "DZ.001",
            "primitives" : [
                {
                    "attributes" : {
                        "POSITION" : 0,
                        "NORMAL" : 1,
                        "TEXCOORD_0" : 2
                    },
                    "indices" : 3,
                    "material" : 0
                }
            ]
        },
        {
            "name" : "Cylinder",
            "primitives" : [
                {
                    "attributes" : {
                        "POSITION" : 4,
                        "NORMAL" : 5,
                        "TEXCOORD_0" : 6
                    },
                    "indices" : 7,
                    "material" : 1
                },
                {
                    "attributes" : {
                        "POSITION" : 8,
                        "NORMAL" : 9,
                        "TEXCOORD_0" : 10
                    },
                    "indices" : 11,
                    "material" : 2
                }
            ]
        },
        {
            "name" : "Sphere.003",
            "primitives" : [
                {
                    "attributes" : {
                        "POSITION" : 12,
                        "NORMAL" : 13,
                        "TEXCOORD_0" : 14
                    },
                    "indices" : 15,
                    "material" : 3
                },
                {
                    "attributes" : {
                        "POSITION" : 16,
                        "NORMAL" : 17,
                        "TEXCOORD_0" : 18
                    },
                    "indices" : 19,
                    "material" : 4
                }
            ]
        },
        {
            "name" : "DZ.002",
            "primitives" : [
                {
                    "attributes" : {
                        "POSITION" : 20,
                        "NORMAL" : 21,
                        "TEXCOORD_0" : 22
                    },
                    "indices" : 23,
                    "material" : 0
                }
            ]
        },
        {
            "name" : "DZ.004",
            "primitives" : [
                {
                    "attributes" : {
                        "POSITION" : 24,
                        "NORMAL" : 25,
                        "TEXCOORD_0" : 26
                    },
                    "indices" : 27,
                    "material" : 0
                }
            ]
        },
        {
            "name" : "DZ.003",
            "primitives" : [
                {
                    "attributes" : {
                        "POSITION" : 28,
                        "NORMAL" : 29,
                        "TEXCOORD_0" : 30
                    },
                    "indices" : 31,
                    "material" : 0
                }
            ]
        }
    ],
    "textures" : [
        {
            "sampler" : 0,
            "source" : 0
        },
        {
            "sampler" : 0,
            "source" : 1
        },
        {
            "sampler" : 0,
            "source" : 2
        }
    ],
    "images" : [
        {
            "bufferView" : 8,
            "mimeType" : "image/png",
            "name" : "TextureUV.png"
        },
        {
            "bufferView" : 13,
            "mimeType" : "image/png",
            "name" : "Plaque Texture"
        },
        {
            "bufferView" : 22,
            "mimeType" : "image/png",
            "name" : "TextureCore.png"
        }
    ],
    "accessors" : [
        {
            "bufferView" : 0,
            "componentType" : 5126,
            "count" : 555,
            "max" : [
                0.20382371544837952,
                0.4745959937572479,
                0.19272220134735107
            ],
            "min" : [
                -0.09899819642305374,
                0.1669643372297287,
                -0.10707926750183105
            ],
            "type" : "VEC3"
        },
        {
            "bufferView" : 1,
            "componentType" : 5126,
            "count" : 555,
            "type" : "VEC3"
        },
        {
            "bufferView" : 2,
            "componentType" : 5126,
            "count" : 555,
            "type" : "VEC2"
        },
        {
            "bufferView" : 3,
            "componentType" : 5123,
            "count" : 2304,
            "type" : "SCALAR"
        },
        {
            "bufferView" : 4,
            "componentType" : 5126,
            "count" : 290,
            "max" : [
                1.4116401672363281,
                0.9955131411552429,
                1.4116401672363281
            ],
            "min" : [
                -1.4116401672363281,
                -0.46706193685531616,
                -1.4116401672363281
            ],
            "type" : "VEC3"
        },
        {
            "bufferView" : 5,
            "componentType" : 5126,
            "count" : 290,
            "type" : "VEC3"
        },
        {
            "bufferView" : 6,
            "componentType" : 5126,
            "count" : 290,
            "type" : "VEC2"
        },
        {
            "bufferView" : 7,
            "componentType" : 5123,
            "count" : 1476,
            "type" : "SCALAR"
        },
        {
            "bufferView" : 9,
            "componentType" : 5126,
            "count" : 22,
            "max" : [
                1.0416762828826904,
                0.8130642175674438,
                1.2527334690093994
            ],
            "min" : [
                -1.0416762828826904,
                0.25142934918403625,
                0.6001362800598145
            ],
            "type" : "VEC3"
        },
        {
            "bufferView" : 10,
            "componentType" : 5126,
            "count" : 22,
            "type" : "VEC3"
        },
        {
            "bufferView" : 11,
            "componentType" : 5126,
            "count" : 22,
            "type" : "VEC2"
        },
        {
            "bufferView" : 12,
            "componentType" : 5123,
            "count" : 60,
            "type" : "SCALAR"
        },
        {
            "bufferView" : 14,
            "componentType" : 5126,
            "count" : 348,
            "max" : [
                1.073830246925354,
                -9.903311729431152e-05,
                1.0738253593444824
            ],
            "min" : [
                -1.0738080739974976,
                -1.073284387588501,
                -1.0738139152526855
            ],
            "type" : "VEC3"
        },
        {
            "bufferView" : 15,
            "componentType" : 5126,
            "count" : 348,
            "type" : "VEC3"
        },
        {
            "bufferView" : 16,
            "componentType" : 5126,
            "count" : 348,
            "type" : "VEC2"
        },
        {
            "bufferView" : 17,
            "componentType" : 5123,
            "count" : 1824,
            "type" : "SCALAR"
        },
        {
            "bufferView" : 18,
            "componentType" : 5126,
            "count" : 33,
            "max" : [
                1.0729382038116455,
                -9.903311729431152e-05,
                1.0729330778121948
            ],
            "min" : [
                -1.0729159116744995,
                -9.903311729431152e-05,
                -1.072921872138977
            ],
            "type" : "VEC3"
        },
        {
            "bufferView" : 19,
            "componentType" : 5126,
            "count" : 33,
            "type" : "VEC3"
        },
        {
            "bufferView" : 20,
            "componentType" : 5126,
            "count" : 33,
            "type" : "VEC2"
        },
        {
            "bufferView" : 21,
            "componentType" : 5123,
            "count" : 96,
            "type" : "SCALAR"
        },
        {
            "bufferView" : 23,
            "componentType" : 5126,
            "count" : 323,
            "max" : [
                -0.058497458696365356,
                -0.05147436261177063,
                -0.1445304900407791
            ],
            "min" : [
                -0.1784411072731018,
                -0.3096325993537903,
                -0.2432527095079422
            ],
            "type" : "VEC3"
        },
        {
            "bufferView" : 24,
            "componentType" : 5126,
            "count" : 323,
            "type" : "VEC3"
        },
        {
            "bufferView" : 25,
            "componentType" : 5126,
            "count" : 323,
            "type" : "VEC2"
        },
        {
            "bufferView" : 26,
            "componentType" : 5123,
            "count" : 1326,
            "type" : "SCALAR"
        },
        {
            "bufferView" : 27,
            "componentType" : 5126,
            "count" : 287,
            "max" : [
                -0.11763504147529602,
                0.3505585193634033,
                0.2293701469898224
            ],
            "min" : [
                -0.30024513602256775,
                -0.06505554914474487,
                -0.22934408485889435
            ],
            "type" : "VEC3"
        },
        {
            "bufferView" : 28,
            "componentType" : 5126,
            "count" : 287,
            "type" : "VEC3"
        },
        {
            "bufferView" : 29,
            "componentType" : 5126,
            "count" : 287,
            "type" : "VEC2"
        },
        {
            "bufferView" : 30,
            "componentType" : 5123,
            "count" : 1020,
            "type" : "SCALAR"
        },
        {
            "bufferView" : 31,
            "componentType" : 5126,
            "count" : 680,
            "max" : [
                0.24314074218273163,
                0.09974360466003418,
                0.22937755286693573
            ],
            "min" : [
                -0.09874632954597473,
                -0.4748722314834595,
                -0.21680901944637299
            ],
            "type" : "VEC3"
        },
        {
            "bufferView" : 32,
            "componentType" : 5126,
            "count" : 680,
            "type" : "VEC3"
        },
        {
            "bufferView" : 33,
            "componentType" : 5126,
            "count" : 680,
            "type" : "VEC2"
        },
        {
            "bufferView" : 34,
            "componentType" : 5123,
            "count" : 2694,
            "type" : "SCALAR"
        }
    ],
    "bufferViews" : [
        {
            "buffer" : 0,
            "byteLength" : 6660,
            "byteOffset" : 0
        },
        {
            "buffer" : 0,
            "byteLength" : 6660,
            "byteOffset" : 6660
        },
        {
            "buffer" : 0,
            "byteLength" : 4440,
            "byteOffset" : 13320
        },
        {
            "buffer" : 0,
            "byteLength" : 4608,
            "byteOffset" : 17760
        },
        {
            "buffer" : 0,
            "byteLength" : 3480,
            "byteOffset" : 22368
        },
        {
            "buffer" : 0,
            "byteLength" : 3480,
            "byteOffset" : 25848
        },
        {
            "buffer" : 0,
            "byteLength" : 2320,
            "byteOffset" : 29328
        },
        {
            "buffer" : 0,
            "byteLength" : 2952,
            "byteOffset" : 31648
        },
        {
            "buffer" : 0,
            "byteLength" : 1372601,
            "byteOffset" : 34600
        },
        {
            "buffer" : 0,
            "byteLength" : 264,
            "byteOffset" : 1407204
        },
        {
            "buffer" : 0,
            "byteLength" : 264,
            "byteOffset" : 1407468
        },
        {
            "buffer" : 0,
            "byteLength" : 176,
            "byteOffset" : 1407732
        },
        {
            "buffer" : 0,
            "byteLength" : 120,
            "byteOffset" : 1407908
        },
        {
            "buffer" : 0,
            "byteLength" : 165051,
            "byteOffset" : 1408028
        },
        {
            "buffer" : 0,
            "byteLength" : 4176,
            "byteOffset" : 1573080
        },
        {
            "buffer" : 0,
            "byteLength" : 4176,
            "byteOffset" : 1577256
        },
        {
            "buffer" : 0,
            "byteLength" : 2784,
            "byteOffset" : 1581432
        },
        {
            "buffer" : 0,
            "byteLength" : 3648,
            "byteOffset" : 1584216
        },
        {
            "buffer" : 0,
            "byteLength" : 396,
            "byteOffset" : 1587864
        },
        {
            "buffer" : 0,
            "byteLength" : 396,
            "byteOffset" : 1588260
        },
        {
            "buffer" : 0,
            "byteLength" : 264,
            "byteOffset" : 1588656
        },
        {
            "buffer" : 0,
            "byteLength" : 192,
            "byteOffset" : 1588920
        },
        {
            "buffer" : 0,
            "byteLength" : 629010,
            "byteOffset" : 1589112
        },
        {
            "buffer" : 0,
            "byteLength" : 3876,
            "byteOffset" : 2218124
        },
        {
            "buffer" : 0,
            "byteLength" : 3876,
            "byteOffset" : 2222000
        },
        {
            "buffer" : 0,
            "byteLength" : 2584,
            "byteOffset" : 2225876
        },
        {
            "buffer" : 0,
            "byteLength" : 2652,
            "byteOffset" : 2228460
        },
        {
            "buffer" : 0,
            "byteLength" : 3444,
            "byteOffset" : 2231112
        },
        {
            "buffer" : 0,
            "byteLength" : 3444,
            "byteOffset" : 2234556
        },
        {
            "buffer" : 0,
            "byteLength" : 2296,
            "byteOffset" : 2238000
        },
        {
            "buffer" : 0,
            "byteLength" : 2040,
            "byteOffset" : 2240296
        },
        {
            "buffer" : 0,
            "byteLength" : 8160,
            "byteOffset" : 2242336
        },
        {
            "buffer" : 0,
            "byteLength" : 8160,
            "byteOffset" : 2250496
        },
        {
            "buffer" : 0,
            "byteLength" : 5440,
            "byteOffset" : 2258656
        },
        {
            "buffer" : 0,
            "byteLength" : 5388,
            "byteOffset" : 2264096
        }
    ],
    "samplers" : [
        {
            "magFilter" : 9729,
            "minFilter" : 9987
        }
    ],
    "buffers" : [
        {
            "byteLength" : 2269484,
            "uri" : "data:application/octet-stream;base64,"
        }
    ]
}
