{
    "asset" : {
        "generator" : "Khronos glTF Blender I/O v1.6.16",
        "version" : "2.0"
    },
    "scene" : 0,
    "scenes" : [
        {
            "name" : "Scene",
            "nodes" : [
                0
            ]
        }
    ],
    "nodes" : [
        {
            "mesh" : 0,
            "name" : "Arrow",
            "scale" : [
                0.7458569407463074,
                0.40183842182159424,
                0.14725852012634277
            ],
            "translation" : [
                -3.314018249511719e-05,
                -0.0032660646829754114,
                0.018091201782226562
            ]
        }
    ],
    "materials" : [
        {
            "doubleSided" : true,
            "name" : "DFEColour",
            "pbrMetallicRoughness" : {
                "baseColorFactor" : [
                    1,
                    0.9683251976966858,
                    0.9779942035675049,
                    1
                ],
                "metallicFactor" : 0,
                "roughnessFactor" : 0.7476190328598022
            }
        },
        {
            "doubleSided" : true,
            "name" : "DFEMat",
            "pbrMetallicRoughness" : {
                "baseColorFactor" : [
                    0.010329872369766235,
                    0.4677838683128357,
                    0.48514994978904724,
                    1
                ],
                "metallicFactor" : 0,
                "roughnessFactor" : 0.4333333373069763
            }
        }
    ],
    "meshes" : [
        {
            "name" : "Cube.003",
            "primitives" : [
                {
                    "attributes" : {
                        "POSITION" : 0,
                        "NORMAL" : 1,
                        "TEXCOORD_0" : 2
                    },
                    "indices" : 3,
                    "material" : 0
                },
                {
                    "attributes" : {
                        "POSITION" : 4,
                        "NORMAL" : 5,
                        "TEXCOORD_0" : 6
                    },
                    "indices" : 7,
                    "material" : 1
                }
            ]
        }
    ],
    "accessors" : [
        {
            "bufferView" : 0,
            "componentType" : 5126,
            "count" : 55,
            "max" : [
                1.6431063413619995,
                2.1526970863342285,
                1
            ],
            "min" : [
                -1.1594878435134888,
                -2.1526970863342285,
                -1
            ],
            "type" : "VEC3"
        },
        {
            "bufferView" : 1,
            "componentType" : 5126,
            "count" : 55,
            "type" : "VEC3"
        },
        {
            "bufferView" : 2,
            "componentType" : 5126,
            "count" : 55,
            "type" : "VEC2"
        },
        {
            "bufferView" : 3,
            "componentType" : 5123,
            "count" : 108,
            "type" : "SCALAR"
        },
        {
            "bufferView" : 4,
            "componentType" : 5126,
            "count" : 196,
            "max" : [
                1.8252027034759521,
                3.1495566368103027,
                0.47982367873191833
            ],
            "min" : [
                -1.568512201309204,
                -3.1495566368103027,
                -0.47982367873191833
            ],
            "type" : "VEC3"
        },
        {
            "bufferView" : 5,
            "componentType" : 5126,
            "count" : 196,
            "type" : "VEC3"
        },
        {
            "bufferView" : 6,
            "componentType" : 5126,
            "count" : 196,
            "type" : "VEC2"
        },
        {
            "bufferView" : 7,
            "componentType" : 5123,
            "count" : 768,
            "type" : "SCALAR"
        }
    ],
    "bufferViews" : [
        {
            "buffer" : 0,
            "byteLength" : 660,
            "byteOffset" : 0
        },
        {
            "buffer" : 0,
            "byteLength" : 660,
            "byteOffset" : 660
        },
        {
            "buffer" : 0,
            "byteLength" : 440,
            "byteOffset" : 1320
        },
        {
            "buffer" : 0,
            "byteLength" : 216,
            "byteOffset" : 1760
        },
        {
            "buffer" : 0,
            "byteLength" : 2352,
            "byteOffset" : 1976
        },
        {
            "buffer" : 0,
            "byteLength" : 2352,
            "byteOffset" : 4328
        },
        {
            "buffer" : 0,
            "byteLength" : 1568,
            "byteOffset" : 6680
        },
        {
            "buffer" : 0,
            "byteLength" : 1536,
            "byteOffset" : 8248
        }
    ],
    "buffers" : [
        {
            "byteLength" : 9784,
            "uri" : "data:application/octet-stream;base64,"
        }
    ]
}
