{
    "asset" : {
        "generator" : "Khronos glTF Blender I/O v1.6.16",
        "version" : "2.0"
    },
    "scene" : 0,
    "scenes" : [
        {
            "name" : "Scene",
            "nodes" : [
                0
            ]
        }
    ],
    "nodes" : [
        {
            "mesh" : 0,
            "name" : "Play",
            "scale" : [
                1.0170568227767944,
                1.0170568227767944,
                0.2741324305534363
            ],
            "translation" : [
                -3.2901763916015625e-05,
                -0.003265857696533203,
                0.018091201782226562
            ]
        }
    ],
    "materials" : [
        {
            "doubleSided" : true,
            "name" : "DFEColour",
            "pbrMetallicRoughness" : {
                "baseColorFactor" : [
                    1,
                    0.9683251976966858,
                    0.9779942035675049,
                    1
                ],
                "metallicFactor" : 0,
                "roughnessFactor" : 1
            }
        },
        {
            "doubleSided" : true,
            "name" : "DFEMat",
            "pbrMetallicRoughness" : {
                "baseColorFactor" : [
                    0.010329872369766235,
                    0.4677838683128357,
                    0.48514994978904724,
                    1
                ],
                "metallicFactor" : 0,
                "roughnessFactor" : 1
            }
        }
    ],
    "meshes" : [
        {
            "name" : "Cube.001",
            "primitives" : [
                {
                    "attributes" : {
                        "POSITION" : 0,
                        "NORMAL" : 1,
                        "TEXCOORD_0" : 2
                    },
                    "indices" : 3,
                    "material" : 0
                },
                {
                    "attributes" : {
                        "POSITION" : 4,
                        "NORMAL" : 5,
                        "TEXCOORD_0" : 6
                    },
                    "indices" : 7,
                    "material" : 1
                }
            ]
        }
    ],
    "accessors" : [
        {
            "bufferView" : 0,
            "componentType" : 5126,
            "count" : 120,
            "max" : [
                1.049521803855896,
                0.8693468570709229,
                1.0215188264846802
            ],
            "min" : [
                -0.6666666269302368,
                -0.8558796644210815,
                -1.0215187072753906
            ],
            "type" : "VEC3"
        },
        {
            "bufferView" : 1,
            "componentType" : 5126,
            "count" : 120,
            "type" : "VEC3"
        },
        {
            "bufferView" : 2,
            "componentType" : 5126,
            "count" : 120,
            "type" : "VEC2"
        },
        {
            "bufferView" : 3,
            "componentType" : 5123,
            "count" : 420,
            "type" : "SCALAR"
        },
        {
            "bufferView" : 4,
            "componentType" : 5126,
            "count" : 196,
            "max" : [
                1.2735874652862549,
                1.2443873882293701,
                0.25775179266929626
            ],
            "min" : [
                -1.2151877880096436,
                -1.2443878650665283,
                -0.25775179266929626
            ],
            "type" : "VEC3"
        },
        {
            "bufferView" : 5,
            "componentType" : 5126,
            "count" : 196,
            "type" : "VEC3"
        },
        {
            "bufferView" : 6,
            "componentType" : 5126,
            "count" : 196,
            "type" : "VEC2"
        },
        {
            "bufferView" : 7,
            "componentType" : 5123,
            "count" : 768,
            "type" : "SCALAR"
        }
    ],
    "bufferViews" : [
        {
            "buffer" : 0,
            "byteLength" : 1440,
            "byteOffset" : 0
        },
        {
            "buffer" : 0,
            "byteLength" : 1440,
            "byteOffset" : 1440
        },
        {
            "buffer" : 0,
            "byteLength" : 960,
            "byteOffset" : 2880
        },
        {
            "buffer" : 0,
            "byteLength" : 840,
            "byteOffset" : 3840
        },
        {
            "buffer" : 0,
            "byteLength" : 2352,
            "byteOffset" : 4680
        },
        {
            "buffer" : 0,
            "byteLength" : 2352,
            "byteOffset" : 7032
        },
        {
            "buffer" : 0,
            "byteLength" : 1568,
            "byteOffset" : 9384
        },
        {
            "buffer" : 0,
            "byteLength" : 1536,
            "byteOffset" : 10952
        }
    ],
    "buffers" : [
        {
            "byteLength" : 12488,
            "uri" : "data:application/octet-stream;base64,"
        }
    ]
}
